%TF.GenerationSoftware,KiCad,Pcbnew,9.0.5*%
%TF.CreationDate,2026-07-05T14:25:12-04:00*%
%TF.ProjectId,BubblerMain,42756262-6c65-4724-9d61-696e2e6b6963,rev?*%
%TF.SameCoordinates,Original*%
%TF.FileFunction,Paste,Top*%
%TF.FilePolarity,Positive*%
%FSLAX46Y46*%
G04 Gerber Fmt 4.6, Leading zero omitted, Abs format (unit mm)*
G04 Created by KiCad (PCBNEW 9.0.5) date 2026-07-05 14:25:12*
%MOMM*%
%LPD*%
G01*
G04 APERTURE LIST*
G04 Aperture macros list*
%AMRoundRect*
0 Rectangle with rounded corners*
0 $1 Rounding radius*
0 $2 $3 $4 $5 $6 $7 $8 $9 X,Y pos of 4 corners*
0 Add a 4 corners polygon primitive as box body*
4,1,4,$2,$3,$4,$5,$6,$7,$8,$9,$2,$3,0*
0 Add four circle primitives for the rounded corners*
1,1,$1+$1,$2,$3*
1,1,$1+$1,$4,$5*
1,1,$1+$1,$6,$7*
1,1,$1+$1,$8,$9*
0 Add four rect primitives between the rounded corners*
20,1,$1+$1,$2,$3,$4,$5,0*
20,1,$1+$1,$4,$5,$6,$7,0*
20,1,$1+$1,$6,$7,$8,$9,0*
20,1,$1+$1,$8,$9,$2,$3,0*%
G04 Aperture macros list end*
%ADD10RoundRect,0.162500X-0.837500X-0.162500X0.837500X-0.162500X0.837500X0.162500X-0.837500X0.162500X0*%
%ADD11R,0.900000X1.500000*%
%ADD12R,1.500000X0.900000*%
%ADD13R,1.000000X1.000000*%
%ADD14RoundRect,0.250000X-0.525000X-0.400000X0.525000X-0.400000X0.525000X0.400000X-0.525000X0.400000X0*%
%ADD15RoundRect,0.250000X0.412500X1.100000X-0.412500X1.100000X-0.412500X-1.100000X0.412500X-1.100000X0*%
%ADD16RoundRect,0.250001X-0.462499X-0.624999X0.462499X-0.624999X0.462499X0.624999X-0.462499X0.624999X0*%
%ADD17RoundRect,0.250000X0.625000X-0.400000X0.625000X0.400000X-0.625000X0.400000X-0.625000X-0.400000X0*%
%ADD18RoundRect,0.250000X-0.625000X0.400000X-0.625000X-0.400000X0.625000X-0.400000X0.625000X0.400000X0*%
%ADD19RoundRect,0.150000X-0.825000X-0.150000X0.825000X-0.150000X0.825000X0.150000X-0.825000X0.150000X0*%
%ADD20RoundRect,0.250000X0.400000X0.625000X-0.400000X0.625000X-0.400000X-0.625000X0.400000X-0.625000X0*%
%ADD21R,1.270000X1.000000*%
%ADD22RoundRect,0.250000X0.650000X-0.412500X0.650000X0.412500X-0.650000X0.412500X-0.650000X-0.412500X0*%
%ADD23RoundRect,0.250000X0.412500X0.650000X-0.412500X0.650000X-0.412500X-0.650000X0.412500X-0.650000X0*%
%ADD24RoundRect,0.250000X1.000000X0.650000X-1.000000X0.650000X-1.000000X-0.650000X1.000000X-0.650000X0*%
%ADD25RoundRect,0.250000X-0.412500X-0.650000X0.412500X-0.650000X0.412500X0.650000X-0.412500X0.650000X0*%
%ADD26RoundRect,0.250000X-1.100000X0.412500X-1.100000X-0.412500X1.100000X-0.412500X1.100000X0.412500X0*%
%ADD27RoundRect,0.250001X-0.624999X0.462499X-0.624999X-0.462499X0.624999X-0.462499X0.624999X0.462499X0*%
%ADD28RoundRect,0.250000X0.700000X-0.275000X0.700000X0.275000X-0.700000X0.275000X-0.700000X-0.275000X0*%
%ADD29RoundRect,0.150000X0.512500X0.150000X-0.512500X0.150000X-0.512500X-0.150000X0.512500X-0.150000X0*%
%ADD30RoundRect,0.250000X-1.750000X-1.000000X1.750000X-1.000000X1.750000X1.000000X-1.750000X1.000000X0*%
%ADD31RoundRect,0.250000X0.650000X-1.000000X0.650000X1.000000X-0.650000X1.000000X-0.650000X-1.000000X0*%
%ADD32RoundRect,0.250000X-0.412500X-1.100000X0.412500X-1.100000X0.412500X1.100000X-0.412500X1.100000X0*%
%ADD33RoundRect,0.149993X0.149992X0.422492X-0.149992X0.422492X-0.149992X-0.422492X0.149992X-0.422492X0*%
%ADD34RoundRect,0.150000X0.150000X0.500000X-0.150000X0.500000X-0.150000X-0.500000X0.150000X-0.500000X0*%
%ADD35RoundRect,0.075000X0.075000X0.575000X-0.075000X0.575000X-0.075000X-0.575000X0.075000X-0.575000X0*%
%ADD36RoundRect,0.150000X0.150000X0.422500X-0.150000X0.422500X-0.150000X-0.422500X0.150000X-0.422500X0*%
%ADD37RoundRect,0.150000X0.150000X0.297500X-0.150000X0.297500X-0.150000X-0.297500X0.150000X-0.297500X0*%
%ADD38RoundRect,0.150000X0.149999X0.297499X-0.149999X0.297499X-0.149999X-0.297499X0.149999X-0.297499X0*%
%ADD39RoundRect,0.250000X-1.000000X-0.650000X1.000000X-0.650000X1.000000X0.650000X-1.000000X0.650000X0*%
%ADD40R,3.400000X1.850000*%
%ADD41RoundRect,0.250000X-0.312500X-1.450000X0.312500X-1.450000X0.312500X1.450000X-0.312500X1.450000X0*%
%ADD42R,1.850000X3.400000*%
%ADD43RoundRect,0.250000X-0.400000X-0.625000X0.400000X-0.625000X0.400000X0.625000X-0.400000X0.625000X0*%
%ADD44RoundRect,0.150000X-0.150000X-0.350000X0.150000X-0.350000X0.150000X0.350000X-0.150000X0.350000X0*%
%ADD45RoundRect,0.105000X-0.245000X-0.105000X0.245000X-0.105000X0.245000X0.105000X-0.245000X0.105000X0*%
%ADD46RoundRect,0.150000X0.150000X-0.512500X0.150000X0.512500X-0.150000X0.512500X-0.150000X-0.512500X0*%
%ADD47RoundRect,0.073750X-0.551250X-0.221250X0.551250X-0.221250X0.551250X0.221250X-0.551250X0.221250X0*%
G04 APERTURE END LIST*
D10*
%TO.C,U3*%
X84240000Y-66050000D03*
X84240000Y-67000000D03*
X84240000Y-67950000D03*
X87660000Y-67950000D03*
X87660000Y-67000000D03*
X87660000Y-66050000D03*
%TD*%
D11*
%TO.C,U4*%
X38240000Y-59195000D03*
X39510000Y-59195000D03*
X40780000Y-59195000D03*
X42050000Y-59195000D03*
X43320000Y-59195000D03*
X44590000Y-59195000D03*
X45860000Y-59195000D03*
X47130000Y-59195000D03*
X48400000Y-59195000D03*
X49670000Y-59195000D03*
X50940000Y-59195000D03*
X52210000Y-59195000D03*
X53480000Y-59195000D03*
X54750000Y-59195000D03*
D12*
X56000000Y-57430000D03*
X56000000Y-56160000D03*
X56000000Y-54890000D03*
X56000000Y-53620000D03*
X56000000Y-52350000D03*
X56000000Y-51080000D03*
X56000000Y-49810000D03*
X56000000Y-48540000D03*
X56000000Y-47270000D03*
X56000000Y-46000000D03*
X56000000Y-44730000D03*
X56000000Y-43460000D03*
D11*
X54750000Y-41695000D03*
X53480000Y-41695000D03*
X52210000Y-41695000D03*
X50940000Y-41695000D03*
X49670000Y-41695000D03*
X48400000Y-41695000D03*
X47130000Y-41695000D03*
X45860000Y-41695000D03*
X44590000Y-41695000D03*
X43320000Y-41695000D03*
X42050000Y-41695000D03*
X40780000Y-41695000D03*
X39510000Y-41695000D03*
X38240000Y-41695000D03*
D13*
X42090000Y-53305000D03*
X43590000Y-53305000D03*
X45090000Y-53305000D03*
X42090000Y-51805000D03*
X43590000Y-51805000D03*
X45090000Y-51805000D03*
X42090000Y-50305000D03*
X43590000Y-50305000D03*
X45090000Y-50305000D03*
%TD*%
D14*
%TO.C,SW1*%
X63020000Y-59750000D03*
X70980000Y-59750000D03*
X63020000Y-64250000D03*
X70980000Y-64250000D03*
%TD*%
D15*
%TO.C,C6*%
X54500000Y-81000000D03*
X51375000Y-81000000D03*
%TD*%
D16*
%TO.C,5V1*%
X39012500Y-72500000D03*
X41987500Y-72500000D03*
%TD*%
D17*
%TO.C,R6*%
X66000000Y-78050000D03*
X66000000Y-74950000D03*
%TD*%
D18*
%TO.C,R27*%
X82000000Y-41450000D03*
X82000000Y-44550000D03*
%TD*%
D17*
%TO.C,R16*%
X74500000Y-50100000D03*
X74500000Y-47000000D03*
%TD*%
D15*
%TO.C,C22*%
X42062500Y-67500000D03*
X38937500Y-67500000D03*
%TD*%
D19*
%TO.C,U7*%
X84525000Y-49595000D03*
X84525000Y-50865000D03*
X84525000Y-52135000D03*
X84525000Y-53405000D03*
X89475000Y-53405000D03*
X89475000Y-52135000D03*
X89475000Y-50865000D03*
X89475000Y-49595000D03*
%TD*%
D20*
%TO.C,R1*%
X52550000Y-95500000D03*
X49450000Y-95500000D03*
%TD*%
%TO.C,R10*%
X96600000Y-92500000D03*
X93500000Y-92500000D03*
%TD*%
D21*
%TO.C,U8*%
X95500000Y-50550000D03*
X95500000Y-52450000D03*
X97500000Y-51500000D03*
%TD*%
D22*
%TO.C,C25*%
X73000000Y-44562500D03*
X73000000Y-41437500D03*
%TD*%
D20*
%TO.C,R12*%
X96100000Y-84500000D03*
X93000000Y-84500000D03*
%TD*%
D23*
%TO.C,C14*%
X87262500Y-70500000D03*
X84137500Y-70500000D03*
%TD*%
D24*
%TO.C,D2*%
X68000000Y-46000000D03*
X64000000Y-46000000D03*
%TD*%
D15*
%TO.C,C9*%
X47562500Y-70500000D03*
X44437500Y-70500000D03*
%TD*%
D25*
%TO.C,C2*%
X58937500Y-80500000D03*
X62062500Y-80500000D03*
%TD*%
D26*
%TO.C,C4*%
X64500000Y-69500000D03*
X64500000Y-72625000D03*
%TD*%
D19*
%TO.C,U1*%
X84525000Y-86190000D03*
X84525000Y-87460000D03*
X84525000Y-88730000D03*
X84525000Y-90000000D03*
X84525000Y-91270000D03*
X84525000Y-92540000D03*
X84525000Y-93810000D03*
X89475000Y-93810000D03*
X89475000Y-92540000D03*
X89475000Y-91270000D03*
X89475000Y-90000000D03*
X89475000Y-88730000D03*
X89475000Y-87460000D03*
X89475000Y-86190000D03*
%TD*%
D25*
%TO.C,C23*%
X89437500Y-47500000D03*
X92562500Y-47500000D03*
%TD*%
D20*
%TO.C,R9*%
X96050000Y-80500000D03*
X92950000Y-80500000D03*
%TD*%
D27*
%TO.C,USB1*%
X48500000Y-33512500D03*
X48500000Y-36487500D03*
%TD*%
D22*
%TO.C,C24*%
X77500000Y-44562500D03*
X77500000Y-41437500D03*
%TD*%
D18*
%TO.C,R26*%
X45450000Y-84450000D03*
X45450000Y-87550000D03*
%TD*%
D28*
%TO.C,FB1*%
X59000000Y-69075000D03*
X59000000Y-65925000D03*
%TD*%
D17*
%TO.C,R2*%
X68000000Y-72550000D03*
X68000000Y-69450000D03*
%TD*%
D29*
%TO.C,U5*%
X47637500Y-65950000D03*
X47637500Y-65000000D03*
X47637500Y-64050000D03*
X45362500Y-64050000D03*
X45362500Y-65950000D03*
%TD*%
D30*
%TO.C,C19*%
X71500000Y-80500000D03*
X79500000Y-80500000D03*
%TD*%
D23*
%TO.C,C20*%
X42562500Y-62500000D03*
X39437500Y-62500000D03*
%TD*%
D31*
%TO.C,D3*%
X55000000Y-69000000D03*
X55000000Y-65000000D03*
%TD*%
D20*
%TO.C,R11*%
X96100000Y-88500000D03*
X93000000Y-88500000D03*
%TD*%
D22*
%TO.C,C8*%
X51000000Y-68987500D03*
X51000000Y-65862500D03*
%TD*%
D20*
%TO.C,R20*%
X47550000Y-74500000D03*
X44450000Y-74500000D03*
%TD*%
D16*
%TO.C,MOTOR1*%
X39012500Y-84500000D03*
X41987500Y-84500000D03*
%TD*%
D32*
%TO.C,C18*%
X91937500Y-63000000D03*
X95062500Y-63000000D03*
%TD*%
D33*
%TO.C,J8*%
X59199985Y-38822485D03*
D34*
X58400000Y-38745000D03*
D35*
X57250000Y-38745000D03*
X56250000Y-38745000D03*
X55750000Y-38745000D03*
X54750000Y-38745000D03*
D34*
X53600000Y-38745000D03*
D36*
X52800000Y-38822500D03*
D37*
X52800000Y-38947500D03*
D34*
X53600000Y-38745000D03*
D35*
X54250000Y-38745000D03*
X55250000Y-38745000D03*
X56750000Y-38745000D03*
X57750000Y-38745000D03*
D34*
X58400000Y-38745000D03*
D38*
X59199999Y-38947499D03*
%TD*%
D25*
%TO.C,C7*%
X58937500Y-83500000D03*
X62062500Y-83500000D03*
%TD*%
D39*
%TO.C,D1*%
X49000000Y-91000000D03*
X53000000Y-91000000D03*
%TD*%
D40*
%TO.C,L1*%
X53000000Y-72225000D03*
X53000000Y-77775000D03*
%TD*%
D41*
%TO.C,F1*%
X63362500Y-87500000D03*
X67637500Y-87500000D03*
%TD*%
D42*
%TO.C,L2*%
X83675000Y-61000000D03*
X89225000Y-61000000D03*
%TD*%
D32*
%TO.C,C17*%
X91875000Y-59000000D03*
X95000000Y-59000000D03*
%TD*%
D43*
%TO.C,R18*%
X70450000Y-68500000D03*
X73550000Y-68500000D03*
%TD*%
D14*
%TO.C,SW2*%
X63020000Y-51250000D03*
X70980000Y-51250000D03*
X63020000Y-55750000D03*
X70980000Y-55750000D03*
%TD*%
D17*
%TO.C,R24*%
X81500000Y-55550000D03*
X81500000Y-52450000D03*
%TD*%
D25*
%TO.C,C21*%
X70437500Y-72500000D03*
X73562500Y-72500000D03*
%TD*%
D43*
%TO.C,R17*%
X45450000Y-39000000D03*
X48550000Y-39000000D03*
%TD*%
D25*
%TO.C,C3*%
X58937500Y-77500000D03*
X62062500Y-77500000D03*
%TD*%
D44*
%TO.C,Q1*%
X59520000Y-86910000D03*
X59520000Y-88040000D03*
X60230000Y-86910000D03*
X60230000Y-88040000D03*
D45*
X61000000Y-86500000D03*
X61000000Y-87150000D03*
X61000000Y-87800000D03*
X61000000Y-88450000D03*
X58000000Y-86500000D03*
X58000000Y-87150000D03*
X58000000Y-87800000D03*
X58000000Y-88450000D03*
%TD*%
D18*
%TO.C,R28*%
X86500000Y-41450000D03*
X86500000Y-44550000D03*
%TD*%
D20*
%TO.C,R23*%
X47500000Y-81500000D03*
X44400000Y-81500000D03*
%TD*%
D46*
%TO.C,U6*%
X58600000Y-47275000D03*
X59550000Y-47275000D03*
X60500000Y-47275000D03*
X60500000Y-45000000D03*
X59550000Y-45000000D03*
X58600000Y-45000000D03*
%TD*%
D16*
%TO.C,SW3*%
X39012500Y-80500000D03*
X41987500Y-80500000D03*
%TD*%
D23*
%TO.C,C15*%
X87062500Y-75000000D03*
X83937500Y-75000000D03*
%TD*%
%TO.C,C13*%
X88562500Y-82500000D03*
X85437500Y-82500000D03*
%TD*%
D20*
%TO.C,R21*%
X47550000Y-78000000D03*
X44450000Y-78000000D03*
%TD*%
D16*
%TO.C,3.3V1*%
X39025000Y-76390000D03*
X42000000Y-76390000D03*
%TD*%
D43*
%TO.C,R14*%
X90450000Y-77000000D03*
X93550000Y-77000000D03*
%TD*%
%TO.C,R19*%
X67450000Y-42000000D03*
X70550000Y-42000000D03*
%TD*%
D17*
%TO.C,R22*%
X45500000Y-36550000D03*
X45500000Y-33450000D03*
%TD*%
D22*
%TO.C,C16*%
X91000000Y-70050000D03*
X91000000Y-66925000D03*
%TD*%
D20*
%TO.C,R13*%
X93500000Y-73000000D03*
X90400000Y-73000000D03*
%TD*%
D18*
%TO.C,R15*%
X95000000Y-66950000D03*
X95000000Y-70050000D03*
%TD*%
D15*
%TO.C,C5*%
X54562500Y-85000000D03*
X51437500Y-85000000D03*
%TD*%
D30*
%TO.C,C1*%
X71500000Y-92000000D03*
X79500000Y-92000000D03*
%TD*%
D17*
%TO.C,R5*%
X66000000Y-83550000D03*
X66000000Y-80450000D03*
%TD*%
%TO.C,R25*%
X93000000Y-53050000D03*
X93000000Y-49950000D03*
%TD*%
D47*
%TO.C,U9*%
X59000000Y-73000000D03*
X59000000Y-73950000D03*
X59000000Y-74900000D03*
X61510000Y-74900000D03*
X61510000Y-73950000D03*
X61510000Y-73000000D03*
%TD*%
D18*
%TO.C,R29*%
X91000000Y-41450000D03*
X91000000Y-44550000D03*
%TD*%
M02*
