%TF.GenerationSoftware,KiCad,Pcbnew,9.0.5*%
%TF.CreationDate,2026-07-05T14:25:12-04:00*%
%TF.ProjectId,BubblerMain,42756262-6c65-4724-9d61-696e2e6b6963,rev?*%
%TF.SameCoordinates,Original*%
%TF.FileFunction,Soldermask,Bot*%
%TF.FilePolarity,Negative*%
%FSLAX46Y46*%
G04 Gerber Fmt 4.6, Leading zero omitted, Abs format (unit mm)*
G04 Created by KiCad (PCBNEW 9.0.5) date 2026-07-05 14:25:12*
%MOMM*%
%LPD*%
G01*
G04 APERTURE LIST*
G04 Aperture macros list*
%AMRoundRect*
0 Rectangle with rounded corners*
0 $1 Rounding radius*
0 $2 $3 $4 $5 $6 $7 $8 $9 X,Y pos of 4 corners*
0 Add a 4 corners polygon primitive as box body*
4,1,4,$2,$3,$4,$5,$6,$7,$8,$9,$2,$3,0*
0 Add four circle primitives for the rounded corners*
1,1,$1+$1,$2,$3*
1,1,$1+$1,$4,$5*
1,1,$1+$1,$6,$7*
1,1,$1+$1,$8,$9*
0 Add four rect primitives between the rounded corners*
20,1,$1+$1,$2,$3,$4,$5,0*
20,1,$1+$1,$4,$5,$6,$7,0*
20,1,$1+$1,$6,$7,$8,$9,0*
20,1,$1+$1,$8,$9,$2,$3,0*%
G04 Aperture macros list end*
%ADD10C,0.600000*%
%ADD11R,1.700000X1.700000*%
%ADD12C,1.700000*%
%ADD13C,1.200000*%
%ADD14RoundRect,0.250000X0.600000X0.750000X-0.600000X0.750000X-0.600000X-0.750000X0.600000X-0.750000X0*%
%ADD15O,1.700000X2.000000*%
%ADD16RoundRect,0.250000X0.725000X-0.600000X0.725000X0.600000X-0.725000X0.600000X-0.725000X-0.600000X0*%
%ADD17O,1.950000X1.700000*%
%ADD18RoundRect,0.250000X-0.600000X-0.750000X0.600000X-0.750000X0.600000X0.750000X-0.600000X0.750000X0*%
%ADD19C,0.650000*%
%ADD20O,1.000000X2.100000*%
%ADD21O,1.000000X1.600000*%
%ADD22RoundRect,0.250000X-0.600000X-0.725000X0.600000X-0.725000X0.600000X0.725000X-0.600000X0.725000X0*%
%ADD23O,1.700000X1.950000*%
G04 APERTURE END LIST*
D10*
%TO.C,U4*%
X42840000Y-53305000D03*
X44340000Y-53305000D03*
X42090000Y-52555000D03*
X43590000Y-52555000D03*
X45090000Y-52555000D03*
X42840000Y-51805000D03*
X44340000Y-51805000D03*
X42090000Y-51055000D03*
X43590000Y-51055000D03*
X45090000Y-51055000D03*
X42840000Y-50305000D03*
X44340000Y-50305000D03*
%TD*%
D11*
%TO.C,J9*%
X76500000Y-72000000D03*
D12*
X76500000Y-69460000D03*
X76500000Y-66920000D03*
X76500000Y-64380000D03*
X76500000Y-61840000D03*
X76500000Y-59300000D03*
X76500000Y-56760000D03*
X76500000Y-54220000D03*
%TD*%
D11*
%TO.C,J12*%
X80500000Y-69500000D03*
D12*
X80500000Y-66960000D03*
X80500000Y-64420000D03*
X80500000Y-61880000D03*
%TD*%
D13*
%TO.C,J7*%
X92600000Y-34000000D03*
D14*
X91000000Y-36000000D03*
D15*
X88500000Y-36000000D03*
%TD*%
D13*
%TO.C,J5*%
X104450000Y-55700000D03*
D16*
X102450000Y-54100000D03*
D17*
X102450000Y-51600000D03*
X102450000Y-49100000D03*
%TD*%
D13*
%TO.C,J1*%
X56400000Y-95500000D03*
D18*
X58000000Y-93500000D03*
D15*
X60500000Y-93500000D03*
%TD*%
D13*
%TO.C,J2*%
X104475000Y-88600000D03*
D16*
X102475000Y-87000000D03*
D17*
X102475000Y-84500000D03*
X102475000Y-82000000D03*
%TD*%
D13*
%TO.C,J4*%
X104450000Y-66700000D03*
D16*
X102450000Y-65100000D03*
D17*
X102450000Y-62600000D03*
X102450000Y-60100000D03*
%TD*%
D19*
%TO.C,J8*%
X58890000Y-37605000D03*
X53110000Y-37605000D03*
D20*
X60320000Y-38105000D03*
D21*
X60320000Y-33925000D03*
D20*
X51680000Y-38105000D03*
D21*
X51680000Y-33925000D03*
%TD*%
D13*
%TO.C,J6*%
X101100000Y-34000000D03*
D14*
X99500000Y-36000000D03*
D15*
X97000000Y-36000000D03*
%TD*%
D13*
%TO.C,J3*%
X104450000Y-77700000D03*
D16*
X102450000Y-76100000D03*
D17*
X102450000Y-73600000D03*
X102450000Y-71100000D03*
%TD*%
D13*
%TO.C,J11*%
X63150000Y-36975000D03*
D22*
X64750000Y-34975000D03*
D23*
X67250000Y-34975000D03*
X69750000Y-34975000D03*
X72250000Y-34975000D03*
X74750000Y-34975000D03*
X77250000Y-34975000D03*
X79750000Y-34975000D03*
X82250000Y-34975000D03*
%TD*%
D13*
%TO.C,J10*%
X99150000Y-43975000D03*
D18*
X100750000Y-41975000D03*
D15*
X103250000Y-41975000D03*
%TD*%
M02*
