%TF.GenerationSoftware,KiCad,Pcbnew,9.0.5*%
%TF.CreationDate,2026-07-05T14:25:12-04:00*%
%TF.ProjectId,BubblerMain,42756262-6c65-4724-9d61-696e2e6b6963,rev?*%
%TF.SameCoordinates,Original*%
%TF.FileFunction,Copper,L3,Inr*%
%TF.FilePolarity,Positive*%
%FSLAX46Y46*%
G04 Gerber Fmt 4.6, Leading zero omitted, Abs format (unit mm)*
G04 Created by KiCad (PCBNEW 9.0.5) date 2026-07-05 14:25:12*
%MOMM*%
%LPD*%
G01*
G04 APERTURE LIST*
G04 Aperture macros list*
%AMRoundRect*
0 Rectangle with rounded corners*
0 $1 Rounding radius*
0 $2 $3 $4 $5 $6 $7 $8 $9 X,Y pos of 4 corners*
0 Add a 4 corners polygon primitive as box body*
4,1,4,$2,$3,$4,$5,$6,$7,$8,$9,$2,$3,0*
0 Add four circle primitives for the rounded corners*
1,1,$1+$1,$2,$3*
1,1,$1+$1,$4,$5*
1,1,$1+$1,$6,$7*
1,1,$1+$1,$8,$9*
0 Add four rect primitives between the rounded corners*
20,1,$1+$1,$2,$3,$4,$5,0*
20,1,$1+$1,$4,$5,$6,$7,0*
20,1,$1+$1,$6,$7,$8,$9,0*
20,1,$1+$1,$8,$9,$2,$3,0*%
G04 Aperture macros list end*
%TA.AperFunction,HeatsinkPad*%
%ADD10C,0.600000*%
%TD*%
%TA.AperFunction,ComponentPad*%
%ADD11R,1.700000X1.700000*%
%TD*%
%TA.AperFunction,ComponentPad*%
%ADD12C,1.700000*%
%TD*%
%TA.AperFunction,ComponentPad*%
%ADD13RoundRect,0.250000X0.600000X0.750000X-0.600000X0.750000X-0.600000X-0.750000X0.600000X-0.750000X0*%
%TD*%
%TA.AperFunction,ComponentPad*%
%ADD14O,1.700000X2.000000*%
%TD*%
%TA.AperFunction,ComponentPad*%
%ADD15RoundRect,0.250000X0.725000X-0.600000X0.725000X0.600000X-0.725000X0.600000X-0.725000X-0.600000X0*%
%TD*%
%TA.AperFunction,ComponentPad*%
%ADD16O,1.950000X1.700000*%
%TD*%
%TA.AperFunction,ComponentPad*%
%ADD17RoundRect,0.250000X-0.600000X-0.750000X0.600000X-0.750000X0.600000X0.750000X-0.600000X0.750000X0*%
%TD*%
%TA.AperFunction,HeatsinkPad*%
%ADD18O,1.000000X2.100000*%
%TD*%
%TA.AperFunction,HeatsinkPad*%
%ADD19O,1.000000X1.600000*%
%TD*%
%TA.AperFunction,ComponentPad*%
%ADD20RoundRect,0.250000X-0.600000X-0.725000X0.600000X-0.725000X0.600000X0.725000X-0.600000X0.725000X0*%
%TD*%
%TA.AperFunction,ComponentPad*%
%ADD21O,1.700000X1.950000*%
%TD*%
%TA.AperFunction,ViaPad*%
%ADD22C,0.600000*%
%TD*%
%TA.AperFunction,Conductor*%
%ADD23C,0.200000*%
%TD*%
%TA.AperFunction,Conductor*%
%ADD24C,1.524000*%
%TD*%
%TA.AperFunction,Conductor*%
%ADD25C,0.600000*%
%TD*%
G04 APERTURE END LIST*
D10*
%TO.N,GND1*%
%TO.C,U4*%
X42840000Y-53305000D03*
X44340000Y-53305000D03*
X42090000Y-52555000D03*
X43590000Y-52555000D03*
X45090000Y-52555000D03*
X42840000Y-51805000D03*
X44340000Y-51805000D03*
X42090000Y-51055000D03*
X43590000Y-51055000D03*
X45090000Y-51055000D03*
X42840000Y-50305000D03*
X44340000Y-50305000D03*
%TD*%
D11*
%TO.N,/ESP32/GPIO8*%
%TO.C,J9*%
X76500000Y-72000000D03*
D12*
%TO.N,/ESP32/GPIO9*%
X76500000Y-69460000D03*
%TO.N,/ESP32/GPIO10*%
X76500000Y-66920000D03*
%TO.N,/ESP32/GPIO11*%
X76500000Y-64380000D03*
%TO.N,/ESP32/GPIO12*%
X76500000Y-61840000D03*
%TO.N,/ESP32/GPIO13*%
X76500000Y-59300000D03*
%TO.N,/ESP32/GPIO14*%
X76500000Y-56760000D03*
%TO.N,/ESP32/GPIO21*%
X76500000Y-54220000D03*
%TD*%
D11*
%TO.N,unconnected-(J12-Pin_1-Pad1)*%
%TO.C,J12*%
X80500000Y-69500000D03*
D12*
%TO.N,Motor Power*%
X80500000Y-66960000D03*
%TO.N,+3V3*%
X80500000Y-64420000D03*
%TO.N,+5V*%
X80500000Y-61880000D03*
%TD*%
D13*
%TO.N,GND1*%
%TO.C,J7*%
X91000000Y-36000000D03*
D14*
%TO.N,Net-(J6-Pin_2)*%
X88500000Y-36000000D03*
%TD*%
D15*
%TO.N,GND1*%
%TO.C,J5*%
X102450000Y-54100000D03*
D16*
%TO.N,Net-(J5-Pin_2)*%
X102450000Y-51600000D03*
%TO.N,+5V*%
X102450000Y-49100000D03*
%TD*%
D17*
%TO.N,/Power Block/BAT+*%
%TO.C,J1*%
X58000000Y-93500000D03*
D14*
%TO.N,GND1*%
X60500000Y-93500000D03*
%TD*%
D15*
%TO.N,GND1*%
%TO.C,J2*%
X102475000Y-87000000D03*
D16*
%TO.N,Net-(J2-Pin_2)*%
X102475000Y-84500000D03*
%TO.N,+5V*%
X102475000Y-82000000D03*
%TD*%
D15*
%TO.N,GND1*%
%TO.C,J4*%
X102450000Y-65100000D03*
D16*
%TO.N,Net-(J4-Pin_2)*%
X102450000Y-62600000D03*
%TO.N,+5V*%
X102450000Y-60100000D03*
%TD*%
D18*
%TO.N,unconnected-(J8-SHIELD-PadS1)_2*%
%TO.C,J8*%
X60320000Y-38105000D03*
D19*
%TO.N,unconnected-(J8-SHIELD-PadS1)_3*%
X60320000Y-33925000D03*
D18*
%TO.N,unconnected-(J8-SHIELD-PadS1)*%
X51680000Y-38105000D03*
D19*
%TO.N,unconnected-(J8-SHIELD-PadS1)_1*%
X51680000Y-33925000D03*
%TD*%
D13*
%TO.N,GND1*%
%TO.C,J6*%
X99500000Y-36000000D03*
D14*
%TO.N,Net-(J6-Pin_2)*%
X97000000Y-36000000D03*
%TD*%
D15*
%TO.N,GND1*%
%TO.C,J3*%
X102450000Y-76100000D03*
D16*
%TO.N,Net-(J3-Pin_2)*%
X102450000Y-73600000D03*
%TO.N,+5V*%
X102450000Y-71100000D03*
%TD*%
D20*
%TO.N,+3V3*%
%TO.C,J11*%
X64750000Y-34975000D03*
D21*
%TO.N,GND1*%
X67250000Y-34975000D03*
%TO.N,Net-(J11-Pin_3)*%
X69750000Y-34975000D03*
%TO.N,GND1*%
X72250000Y-34975000D03*
%TO.N,Net-(J11-Pin_5)*%
X74750000Y-34975000D03*
%TO.N,GND1*%
X77250000Y-34975000D03*
%TO.N,I2S_SD*%
X79750000Y-34975000D03*
%TO.N,GND1*%
X82250000Y-34975000D03*
%TD*%
D17*
%TO.N,Net-(J10-Pin_1)*%
%TO.C,J10*%
X100750000Y-41975000D03*
D14*
%TO.N,Net-(J10-Pin_2)*%
X103250000Y-41975000D03*
%TD*%
D22*
%TO.N,GND1*%
X39000000Y-78500000D03*
X82500000Y-65500000D03*
X57500000Y-71500000D03*
X59500000Y-40000000D03*
X49500000Y-93500000D03*
X79500000Y-83000000D03*
X77500000Y-83000000D03*
X78000000Y-89000000D03*
X57500000Y-72500000D03*
X64000000Y-57500000D03*
X48500000Y-35000000D03*
X39000000Y-64500000D03*
X98500000Y-53000000D03*
X76500000Y-91000000D03*
X71000000Y-57500000D03*
X76500000Y-47000000D03*
X82500000Y-64500000D03*
X78500000Y-83000000D03*
X79500000Y-89000000D03*
X64000000Y-75000000D03*
X75000000Y-73500000D03*
X38750000Y-74250000D03*
X83500000Y-64500000D03*
X67500000Y-91000000D03*
X61500000Y-46000000D03*
X59500000Y-71500000D03*
X92000000Y-90500000D03*
X94000000Y-48500000D03*
X89000000Y-87460000D03*
X53000000Y-40000000D03*
X39012500Y-83000000D03*
X73000000Y-40000000D03*
X52500000Y-81000000D03*
X80500000Y-83000000D03*
X79000000Y-41500000D03*
X82500000Y-72000000D03*
X91000000Y-43000000D03*
X84500000Y-64500000D03*
X38500000Y-40000000D03*
X89500000Y-55000000D03*
X49000000Y-65000000D03*
X47000000Y-39000000D03*
X82500000Y-69500000D03*
X52500000Y-84500000D03*
X46000000Y-70000000D03*
X95000000Y-68500000D03*
X82000000Y-51000000D03*
X58500000Y-71500000D03*
%TO.N,Motor Power*%
X51500000Y-89500000D03*
X57500000Y-76000000D03*
X71750000Y-89750000D03*
X72500000Y-89000000D03*
X86937000Y-73500000D03*
X68000000Y-74000000D03*
X53500000Y-89500000D03*
X87500000Y-72500000D03*
X73500000Y-89000000D03*
X59000000Y-76000000D03*
X86500000Y-72000000D03*
X52500000Y-89500000D03*
%TO.N,+5V*%
X64500000Y-82000000D03*
X55500000Y-76500000D03*
X55500000Y-77500000D03*
X55500000Y-75500000D03*
X90000000Y-84500000D03*
X58000000Y-70000000D03*
X55000000Y-74500000D03*
X73500000Y-82263000D03*
X54000000Y-75500000D03*
X56000000Y-85000000D03*
X74500000Y-82263000D03*
X99000000Y-91500000D03*
%TO.N,Net-(D2-K)*%
X53500000Y-63000000D03*
X66000000Y-47000000D03*
%TO.N,Net-(U3-SW)*%
X85500000Y-60500000D03*
X85500000Y-59500000D03*
X90500000Y-69000000D03*
X91500000Y-69000000D03*
X85500000Y-67000000D03*
X86000000Y-66500000D03*
X85500000Y-61500000D03*
%TO.N,Net-(J6-Pin_2)*%
X93500000Y-37500000D03*
X90937500Y-59937500D03*
X90500000Y-60500000D03*
X92500000Y-37500000D03*
X93000000Y-71000000D03*
X90500000Y-61500000D03*
X90968750Y-62031250D03*
X94500000Y-37500000D03*
%TO.N,+3V3*%
X72000000Y-68500000D03*
X88000000Y-46500000D03*
X43612500Y-65950000D03*
X43500000Y-89500000D03*
%TO.N,/ESP32/VBUS*%
X54418176Y-37403000D03*
X58000000Y-42500000D03*
X66000000Y-45500000D03*
%TO.N,Net-(J2-Pin_2)*%
X98000000Y-81000000D03*
%TO.N,/ESP32/GPIO11*%
X53500000Y-54000000D03*
%TO.N,/ESP32/GPIO9*%
X58000000Y-56000000D03*
%TO.N,/ESP32/GPIO21*%
X60000000Y-49500000D03*
%TO.N,/ESP32/GPIO8*%
X53500000Y-57000000D03*
%TO.N,/ESP32/GPIO12*%
X57500000Y-51000000D03*
%TO.N,/ESP32/GPIO13*%
X53500000Y-52000000D03*
%TO.N,/ESP32/GPIO14*%
X58500000Y-49500000D03*
%TO.N,/ESP32/GPIO10*%
X57500000Y-54000000D03*
%TO.N,I2S_SD*%
X91000000Y-39500000D03*
X52000000Y-57500000D03*
%TO.N,Motor Signal*%
X89500000Y-65500000D03*
X47500000Y-57500000D03*
X43950000Y-84000000D03*
%TO.N,Net-(U4-IO0)*%
X70500000Y-40000000D03*
X52000000Y-43500000D03*
X70000000Y-46500000D03*
X59000000Y-57500000D03*
%TO.N,/ESP32/SW_LED*%
X49500000Y-45000000D03*
X46200000Y-82750000D03*
%TO.N,RS485_DE*%
X54000000Y-49000000D03*
X86500000Y-49500000D03*
%TO.N,I2S_SCK*%
X83500000Y-43000000D03*
X50400000Y-55500000D03*
%TO.N,I2S_WS*%
X88500000Y-43000000D03*
X51400000Y-56500000D03*
%TO.N,LED2 Signal*%
X86000000Y-91000000D03*
X43500000Y-57500000D03*
%TO.N,LED4 Signal*%
X87500000Y-89500000D03*
X46500000Y-57500000D03*
%TO.N,LED3 Signal*%
X87500000Y-92000000D03*
X45000000Y-57500000D03*
%TO.N,LED1 Signal*%
X84900000Y-84500000D03*
X42000000Y-57500000D03*
%TO.N,RS485_RX*%
X82000000Y-49500000D03*
X54000000Y-50000000D03*
%TO.N,Net-(U4-USB_D-{slash}IO19)*%
X54000000Y-56000000D03*
X59106251Y-46106251D03*
%TO.N,RS485_TX*%
X87500000Y-52000000D03*
X53434313Y-50600000D03*
%TO.N,Net-(U9-SW)*%
X57000000Y-74000000D03*
X63500000Y-71000000D03*
%TO.N,/ESP32/A7*%
X56500000Y-42000000D03*
X57849239Y-40650766D03*
%TD*%
D23*
%TO.N,+3V3*%
X72000000Y-46000000D02*
X78000000Y-46000000D01*
X62000000Y-56000000D02*
X72000000Y-46000000D01*
X57050000Y-65950000D02*
X62000000Y-61000000D01*
X43612500Y-65950000D02*
X57050000Y-65950000D01*
X62000000Y-61000000D02*
X62000000Y-56000000D01*
D24*
%TO.N,+5V*%
X102738000Y-82263000D02*
X102475000Y-82000000D01*
X106500000Y-82263000D02*
X102738000Y-82263000D01*
D25*
%TO.N,Motor Power*%
X87000000Y-72000000D02*
X87500000Y-72500000D01*
X59000000Y-76000000D02*
X57500000Y-76000000D01*
X78500000Y-74301000D02*
X78500000Y-68960000D01*
X81199000Y-74301000D02*
X78500000Y-74301000D01*
X68301000Y-74301000D02*
X68000000Y-74000000D01*
X71500000Y-90000000D02*
X71000000Y-89500000D01*
X66000000Y-76000000D02*
X68000000Y-74000000D01*
X86937000Y-73500000D02*
X86937000Y-73063000D01*
X82000000Y-73500000D02*
X81199000Y-74301000D01*
X52500000Y-89500000D02*
X51500000Y-89500000D01*
X78500000Y-74301000D02*
X68301000Y-74301000D01*
X86937000Y-73500000D02*
X82000000Y-73500000D01*
X53500000Y-89500000D02*
X52500000Y-89500000D01*
X73500000Y-89000000D02*
X72500000Y-89000000D01*
X86937000Y-73063000D02*
X87500000Y-72500000D01*
X78500000Y-68960000D02*
X80500000Y-66960000D01*
X86500000Y-72000000D02*
X87000000Y-72000000D01*
X59000000Y-76000000D02*
X66000000Y-76000000D01*
X72500000Y-89000000D02*
X71500000Y-90000000D01*
X71000000Y-89500000D02*
X53500000Y-89500000D01*
X51500000Y-89500000D02*
X52500000Y-89500000D01*
D24*
%TO.N,+5V*%
X74500000Y-82263000D02*
X73500000Y-82263000D01*
D23*
X99000000Y-91500000D02*
X99000000Y-82763000D01*
D24*
X102450000Y-49100000D02*
X104949000Y-49100000D01*
D23*
X99000000Y-82763000D02*
X99500000Y-82263000D01*
D24*
X102450000Y-71100000D02*
X104600000Y-71100000D01*
D23*
X58000000Y-70000000D02*
X55000000Y-73000000D01*
D24*
X102450000Y-60100000D02*
X105100000Y-60100000D01*
X56000000Y-86000000D02*
X54500000Y-84500000D01*
D23*
%TO.N,Net-(D2-K)*%
X58000000Y-63000000D02*
X61099000Y-59901000D01*
X53500000Y-63000000D02*
X58000000Y-63000000D01*
X61099000Y-51901000D02*
X66000000Y-47000000D01*
X61099000Y-59901000D02*
X61099000Y-51901000D01*
D25*
%TO.N,Net-(U3-SW)*%
X89500000Y-69000000D02*
X91500000Y-69000000D01*
X85500000Y-67000000D02*
X87000000Y-68500000D01*
X87000000Y-68500000D02*
X89000000Y-68500000D01*
X89000000Y-68500000D02*
X89500000Y-69000000D01*
X85500000Y-59500000D02*
X85500000Y-67000000D01*
%TO.N,Net-(J6-Pin_2)*%
X92000000Y-59000000D02*
X90500000Y-60500000D01*
D23*
X93000000Y-64062500D02*
X90968750Y-62031250D01*
D25*
X90500000Y-61500000D02*
X90000000Y-61000000D01*
X92000000Y-39000000D02*
X92000000Y-59000000D01*
D23*
X90500000Y-61562500D02*
X90500000Y-61500000D01*
D25*
X90968750Y-62031250D02*
X90968750Y-61968750D01*
X90968750Y-61968750D02*
X90500000Y-61500000D01*
X92500000Y-37500000D02*
X94500000Y-37500000D01*
X93500000Y-37500000D02*
X92000000Y-39000000D01*
D23*
X93000000Y-71000000D02*
X93000000Y-64062500D01*
D25*
X90000000Y-61000000D02*
X90500000Y-60500000D01*
X90500000Y-61562500D02*
X90968750Y-62031250D01*
D23*
%TO.N,+3V3*%
X43612500Y-65950000D02*
X46500000Y-65950000D01*
X67950000Y-65950000D02*
X70500000Y-68500000D01*
X46500000Y-65950000D02*
X67950000Y-65950000D01*
X78000000Y-46000000D02*
X87500000Y-46000000D01*
X74731000Y-65769000D02*
X72000000Y-68500000D01*
X43000000Y-89000000D02*
X43000000Y-69450000D01*
X43500000Y-89500000D02*
X43000000Y-89000000D01*
X87500000Y-46000000D02*
X88000000Y-46500000D01*
X70500000Y-68500000D02*
X72000000Y-68500000D01*
X43000000Y-69450000D02*
X46500000Y-65950000D01*
X79151000Y-65769000D02*
X74731000Y-65769000D01*
X80500000Y-64420000D02*
X79151000Y-65769000D01*
%TO.N,/ESP32/VBUS*%
X67500000Y-45500000D02*
X66000000Y-45500000D01*
X54418176Y-37403000D02*
X54418176Y-38918176D01*
X69000000Y-44000000D02*
X67500000Y-45500000D01*
X58000000Y-42500000D02*
X60000000Y-40500000D01*
X60000000Y-40500000D02*
X68000000Y-40500000D01*
X54418176Y-38918176D02*
X58000000Y-42500000D01*
X68000000Y-40500000D02*
X69000000Y-41500000D01*
X69000000Y-41500000D02*
X69000000Y-44000000D01*
%TO.N,Net-(U4-IO0)*%
X71000000Y-45500000D02*
X70000000Y-46500000D01*
X52000000Y-51349943D02*
X52000000Y-43500000D01*
X70500000Y-40000000D02*
X71000000Y-40500000D01*
X59000000Y-57500000D02*
X58150057Y-57500000D01*
X58150057Y-57500000D02*
X52000000Y-51349943D01*
X71000000Y-40500000D02*
X71000000Y-45500000D01*
%TD*%
%TA.AperFunction,Conductor*%
%TO.N,+5V*%
G36*
X56380539Y-72519685D02*
G01*
X56426294Y-72572489D01*
X56437500Y-72624000D01*
X56437500Y-73762799D01*
X56433275Y-73794892D01*
X56399500Y-73920943D01*
X56399500Y-74079056D01*
X56433275Y-74205107D01*
X56437500Y-74237200D01*
X56437500Y-77970273D01*
X56437500Y-77970274D01*
X54000000Y-78000000D01*
X54000000Y-86000000D01*
X53061500Y-86000000D01*
X52994461Y-85980315D01*
X52948706Y-85927511D01*
X52937500Y-85876000D01*
X52937500Y-84963098D01*
X52957185Y-84896059D01*
X52973819Y-84875417D01*
X52980520Y-84868716D01*
X53059577Y-84731784D01*
X53100500Y-84579057D01*
X53100500Y-84420943D01*
X53059577Y-84268216D01*
X53059573Y-84268209D01*
X52980524Y-84131290D01*
X52980518Y-84131282D01*
X52973819Y-84124583D01*
X52940334Y-84063260D01*
X52937500Y-84036902D01*
X52937500Y-81463098D01*
X52957185Y-81396059D01*
X52973819Y-81375417D01*
X52980520Y-81368716D01*
X53059577Y-81231784D01*
X53100500Y-81079057D01*
X53100500Y-80920943D01*
X53059577Y-80768216D01*
X53059573Y-80768209D01*
X52980524Y-80631290D01*
X52980518Y-80631282D01*
X52973819Y-80624583D01*
X52940334Y-80563260D01*
X52937500Y-80536902D01*
X52937500Y-72624000D01*
X52957185Y-72556961D01*
X53009989Y-72511206D01*
X53061500Y-72500000D01*
X56313500Y-72500000D01*
X56380539Y-72519685D01*
G37*
%TD.AperFunction*%
%TD*%
%TA.AperFunction,Conductor*%
%TO.N,+5V*%
G36*
X107941668Y-46519685D02*
G01*
X107987423Y-46572489D01*
X107998622Y-46625363D01*
X107766993Y-67703669D01*
X107501353Y-91876926D01*
X107501348Y-91877363D01*
X107480927Y-91944182D01*
X107427624Y-91989354D01*
X107377355Y-92000000D01*
X106545960Y-92000000D01*
X106478921Y-91980315D01*
X106468648Y-91972948D01*
X106465349Y-91970317D01*
X106449248Y-91957477D01*
X106211445Y-91808055D01*
X106211442Y-91808053D01*
X105958411Y-91686200D01*
X105693329Y-91593443D01*
X105693317Y-91593439D01*
X105419512Y-91530945D01*
X105419494Y-91530942D01*
X105140431Y-91499500D01*
X105140425Y-91499500D01*
X104859575Y-91499500D01*
X104859568Y-91499500D01*
X104580505Y-91530942D01*
X104580487Y-91530945D01*
X104306682Y-91593439D01*
X104306670Y-91593443D01*
X104041588Y-91686200D01*
X103788557Y-91808053D01*
X103550754Y-91957475D01*
X103531352Y-91972948D01*
X103466665Y-91999356D01*
X103454040Y-92000000D01*
X88417947Y-92000000D01*
X88350908Y-91980315D01*
X88305153Y-91927511D01*
X88296330Y-91900191D01*
X88269738Y-91766510D01*
X88269737Y-91766503D01*
X88269735Y-91766498D01*
X88209397Y-91620827D01*
X88209390Y-91620814D01*
X88121789Y-91489711D01*
X88121786Y-91489707D01*
X88010292Y-91378213D01*
X88010288Y-91378210D01*
X87879185Y-91290609D01*
X87879172Y-91290602D01*
X87733501Y-91230264D01*
X87733489Y-91230261D01*
X87578845Y-91199500D01*
X87578842Y-91199500D01*
X87421158Y-91199500D01*
X87421155Y-91199500D01*
X87266510Y-91230261D01*
X87266498Y-91230264D01*
X87120827Y-91290602D01*
X87120814Y-91290609D01*
X86989711Y-91378210D01*
X86989706Y-91378214D01*
X86952666Y-91415254D01*
X86891343Y-91448739D01*
X86821651Y-91443753D01*
X86765718Y-91401881D01*
X86741302Y-91336417D01*
X86750424Y-91280121D01*
X86769737Y-91233497D01*
X86800500Y-91078842D01*
X86800500Y-90921158D01*
X86800500Y-90921155D01*
X86800499Y-90921153D01*
X86769738Y-90766510D01*
X86769737Y-90766503D01*
X86709795Y-90621789D01*
X86709397Y-90620827D01*
X86709390Y-90620814D01*
X86621789Y-90489711D01*
X86621786Y-90489707D01*
X86553232Y-90421153D01*
X91199500Y-90421153D01*
X91199500Y-90578846D01*
X91230261Y-90733489D01*
X91230264Y-90733501D01*
X91290602Y-90879172D01*
X91290609Y-90879185D01*
X91378210Y-91010288D01*
X91378213Y-91010292D01*
X91489707Y-91121786D01*
X91489711Y-91121789D01*
X91620814Y-91209390D01*
X91620827Y-91209397D01*
X91766498Y-91269735D01*
X91766503Y-91269737D01*
X91921153Y-91300499D01*
X91921156Y-91300500D01*
X91921158Y-91300500D01*
X92078844Y-91300500D01*
X92078845Y-91300499D01*
X92233497Y-91269737D01*
X92379179Y-91209394D01*
X92510289Y-91121789D01*
X92621789Y-91010289D01*
X92709394Y-90879179D01*
X92769737Y-90733497D01*
X92800500Y-90578842D01*
X92800500Y-90421158D01*
X92800500Y-90421155D01*
X92800499Y-90421153D01*
X92774531Y-90290604D01*
X92769737Y-90266503D01*
X92769735Y-90266498D01*
X92709397Y-90120827D01*
X92709390Y-90120814D01*
X92621789Y-89989711D01*
X92621786Y-89989707D01*
X92510292Y-89878213D01*
X92510288Y-89878210D01*
X92379185Y-89790609D01*
X92379172Y-89790602D01*
X92233501Y-89730264D01*
X92233489Y-89730261D01*
X92078845Y-89699500D01*
X92078842Y-89699500D01*
X91921158Y-89699500D01*
X91921155Y-89699500D01*
X91766510Y-89730261D01*
X91766498Y-89730264D01*
X91620827Y-89790602D01*
X91620814Y-89790609D01*
X91489711Y-89878210D01*
X91489707Y-89878213D01*
X91378213Y-89989707D01*
X91378210Y-89989711D01*
X91290609Y-90120814D01*
X91290602Y-90120827D01*
X91230264Y-90266498D01*
X91230261Y-90266510D01*
X91199500Y-90421153D01*
X86553232Y-90421153D01*
X86510292Y-90378213D01*
X86510288Y-90378210D01*
X86379185Y-90290609D01*
X86379172Y-90290602D01*
X86233501Y-90230264D01*
X86233489Y-90230261D01*
X86078845Y-90199500D01*
X86078842Y-90199500D01*
X85921158Y-90199500D01*
X85921155Y-90199500D01*
X85766510Y-90230261D01*
X85766498Y-90230264D01*
X85620827Y-90290602D01*
X85620814Y-90290609D01*
X85489711Y-90378210D01*
X85489707Y-90378213D01*
X85378213Y-90489707D01*
X85378210Y-90489711D01*
X85290609Y-90620814D01*
X85290602Y-90620827D01*
X85230264Y-90766498D01*
X85230261Y-90766510D01*
X85199500Y-90921153D01*
X85199500Y-91078846D01*
X85230261Y-91233489D01*
X85230264Y-91233501D01*
X85290602Y-91379172D01*
X85290609Y-91379185D01*
X85378210Y-91510288D01*
X85378213Y-91510292D01*
X85489707Y-91621786D01*
X85489711Y-91621789D01*
X85620814Y-91709390D01*
X85620827Y-91709397D01*
X85746469Y-91761439D01*
X85800873Y-91805280D01*
X85822938Y-91871574D01*
X85805659Y-91939273D01*
X85754522Y-91986884D01*
X85699017Y-92000000D01*
X76882660Y-92000000D01*
X76874420Y-91997580D01*
X76865930Y-91998866D01*
X76841402Y-91987885D01*
X76815621Y-91980315D01*
X76809998Y-91973826D01*
X76802160Y-91970317D01*
X76787460Y-91947816D01*
X76769866Y-91927511D01*
X76767645Y-91917484D01*
X76763947Y-91911823D01*
X76758663Y-91876926D01*
X76758623Y-91871574D01*
X76758412Y-91843194D01*
X76777595Y-91776014D01*
X76830055Y-91729866D01*
X76834909Y-91727730D01*
X76879179Y-91709394D01*
X77010289Y-91621789D01*
X77121789Y-91510289D01*
X77209394Y-91379179D01*
X77269737Y-91233497D01*
X77300500Y-91078842D01*
X77300500Y-90921158D01*
X77300500Y-90921155D01*
X77300499Y-90921153D01*
X77269738Y-90766510D01*
X77269737Y-90766503D01*
X77209795Y-90621789D01*
X77209397Y-90620827D01*
X77209390Y-90620814D01*
X77121789Y-90489711D01*
X77121786Y-90489707D01*
X77010292Y-90378213D01*
X77010288Y-90378210D01*
X76879185Y-90290609D01*
X76879175Y-90290604D01*
X76822369Y-90267074D01*
X76767966Y-90223233D01*
X76745901Y-90156938D01*
X76745826Y-90153526D01*
X76736647Y-88921153D01*
X77199500Y-88921153D01*
X77199500Y-89078846D01*
X77230261Y-89233489D01*
X77230264Y-89233501D01*
X77290602Y-89379172D01*
X77290609Y-89379185D01*
X77378210Y-89510288D01*
X77378213Y-89510292D01*
X77489707Y-89621786D01*
X77489711Y-89621789D01*
X77620814Y-89709390D01*
X77620827Y-89709397D01*
X77766498Y-89769735D01*
X77766503Y-89769737D01*
X77921153Y-89800499D01*
X77921156Y-89800500D01*
X77921158Y-89800500D01*
X78078844Y-89800500D01*
X78078845Y-89800499D01*
X78233497Y-89769737D01*
X78379179Y-89709394D01*
X78510289Y-89621789D01*
X78621789Y-89510289D01*
X78629145Y-89499279D01*
X78646898Y-89472712D01*
X78700510Y-89427906D01*
X78769835Y-89419199D01*
X78832862Y-89449353D01*
X78853102Y-89472712D01*
X78878207Y-89510284D01*
X78878213Y-89510292D01*
X78989707Y-89621786D01*
X78989711Y-89621789D01*
X79120814Y-89709390D01*
X79120827Y-89709397D01*
X79266498Y-89769735D01*
X79266503Y-89769737D01*
X79421153Y-89800499D01*
X79421156Y-89800500D01*
X79421158Y-89800500D01*
X79578844Y-89800500D01*
X79578845Y-89800499D01*
X79733497Y-89769737D01*
X79879179Y-89709394D01*
X80010289Y-89621789D01*
X80121789Y-89510289D01*
X80181348Y-89421153D01*
X86699500Y-89421153D01*
X86699500Y-89578846D01*
X86730261Y-89733489D01*
X86730264Y-89733501D01*
X86790602Y-89879172D01*
X86790609Y-89879185D01*
X86878210Y-90010288D01*
X86878213Y-90010292D01*
X86989707Y-90121786D01*
X86989711Y-90121789D01*
X87120814Y-90209390D01*
X87120827Y-90209397D01*
X87258683Y-90266498D01*
X87266503Y-90269737D01*
X87421153Y-90300499D01*
X87421156Y-90300500D01*
X87421158Y-90300500D01*
X87578844Y-90300500D01*
X87578845Y-90300499D01*
X87589179Y-90298443D01*
X87614287Y-90293450D01*
X87614292Y-90293449D01*
X87699800Y-90276439D01*
X87733497Y-90269737D01*
X87879179Y-90209394D01*
X88010289Y-90121789D01*
X88121789Y-90010289D01*
X88209394Y-89879179D01*
X88269737Y-89733497D01*
X88300500Y-89578842D01*
X88300500Y-89421158D01*
X88300500Y-89421155D01*
X88300499Y-89421153D01*
X88287082Y-89353703D01*
X88269737Y-89266503D01*
X88218234Y-89142162D01*
X88209397Y-89120827D01*
X88209390Y-89120814D01*
X88121789Y-88989711D01*
X88121786Y-88989707D01*
X88010292Y-88878213D01*
X88010288Y-88878210D01*
X87879185Y-88790609D01*
X87879172Y-88790602D01*
X87733501Y-88730264D01*
X87733489Y-88730261D01*
X87578845Y-88699500D01*
X87578842Y-88699500D01*
X87421158Y-88699500D01*
X87421155Y-88699500D01*
X87266510Y-88730261D01*
X87266498Y-88730264D01*
X87120827Y-88790602D01*
X87120814Y-88790609D01*
X86989711Y-88878210D01*
X86989707Y-88878213D01*
X86878213Y-88989707D01*
X86878210Y-88989711D01*
X86790609Y-89120814D01*
X86790602Y-89120827D01*
X86730264Y-89266498D01*
X86730261Y-89266510D01*
X86699500Y-89421153D01*
X80181348Y-89421153D01*
X80209394Y-89379179D01*
X80269737Y-89233497D01*
X80300500Y-89078842D01*
X80300500Y-88921158D01*
X80300500Y-88921155D01*
X80300499Y-88921153D01*
X80291957Y-88878210D01*
X80269737Y-88766503D01*
X80269735Y-88766498D01*
X80209397Y-88620827D01*
X80209390Y-88620814D01*
X80121789Y-88489711D01*
X80121786Y-88489707D01*
X80010292Y-88378213D01*
X80010288Y-88378210D01*
X79879185Y-88290609D01*
X79879172Y-88290602D01*
X79733501Y-88230264D01*
X79733489Y-88230261D01*
X79578845Y-88199500D01*
X79578842Y-88199500D01*
X79421158Y-88199500D01*
X79421155Y-88199500D01*
X79266510Y-88230261D01*
X79266498Y-88230264D01*
X79120827Y-88290602D01*
X79120814Y-88290609D01*
X78989711Y-88378210D01*
X78989707Y-88378213D01*
X78878213Y-88489707D01*
X78853102Y-88527289D01*
X78799489Y-88572093D01*
X78730164Y-88580800D01*
X78667137Y-88550645D01*
X78646898Y-88527289D01*
X78621786Y-88489707D01*
X78510292Y-88378213D01*
X78510288Y-88378210D01*
X78379185Y-88290609D01*
X78379172Y-88290602D01*
X78233501Y-88230264D01*
X78233489Y-88230261D01*
X78078845Y-88199500D01*
X78078842Y-88199500D01*
X77921158Y-88199500D01*
X77921155Y-88199500D01*
X77766510Y-88230261D01*
X77766498Y-88230264D01*
X77620827Y-88290602D01*
X77620814Y-88290609D01*
X77489711Y-88378210D01*
X77489707Y-88378213D01*
X77378213Y-88489707D01*
X77378210Y-88489711D01*
X77290609Y-88620814D01*
X77290602Y-88620827D01*
X77230264Y-88766498D01*
X77230261Y-88766510D01*
X77199500Y-88921153D01*
X76736647Y-88921153D01*
X76728088Y-87771912D01*
X76728087Y-87771912D01*
X54125244Y-87998743D01*
X54058011Y-87979732D01*
X54011728Y-87927390D01*
X54000000Y-87874749D01*
X54000000Y-87381153D01*
X88199500Y-87381153D01*
X88199500Y-87538846D01*
X88230261Y-87693489D01*
X88230264Y-87693501D01*
X88290602Y-87839172D01*
X88290609Y-87839185D01*
X88378210Y-87970288D01*
X88378213Y-87970292D01*
X88489707Y-88081786D01*
X88489711Y-88081789D01*
X88620814Y-88169390D01*
X88620827Y-88169397D01*
X88766498Y-88229735D01*
X88766503Y-88229737D01*
X88921153Y-88260499D01*
X88921156Y-88260500D01*
X88921158Y-88260500D01*
X89078844Y-88260500D01*
X89078845Y-88260499D01*
X89233497Y-88229737D01*
X89379179Y-88169394D01*
X89510289Y-88081789D01*
X89621789Y-87970289D01*
X89709394Y-87839179D01*
X89713991Y-87828082D01*
X89723851Y-87804276D01*
X89769737Y-87693497D01*
X89800500Y-87538842D01*
X89800500Y-87381158D01*
X89800500Y-87381155D01*
X89800499Y-87381153D01*
X89769738Y-87226510D01*
X89769737Y-87226503D01*
X89769735Y-87226498D01*
X89709397Y-87080827D01*
X89709390Y-87080814D01*
X89621789Y-86949711D01*
X89621786Y-86949707D01*
X89510292Y-86838213D01*
X89510288Y-86838210D01*
X89379185Y-86750609D01*
X89379172Y-86750602D01*
X89233501Y-86690264D01*
X89233489Y-86690261D01*
X89078845Y-86659500D01*
X89078842Y-86659500D01*
X88921158Y-86659500D01*
X88921155Y-86659500D01*
X88766510Y-86690261D01*
X88766498Y-86690264D01*
X88620827Y-86750602D01*
X88620814Y-86750609D01*
X88489711Y-86838210D01*
X88489707Y-86838213D01*
X88378213Y-86949707D01*
X88378210Y-86949711D01*
X88290609Y-87080814D01*
X88290602Y-87080827D01*
X88230264Y-87226498D01*
X88230261Y-87226510D01*
X88199500Y-87381153D01*
X54000000Y-87381153D01*
X54000000Y-86000000D01*
X54000000Y-84421153D01*
X84099500Y-84421153D01*
X84099500Y-84578846D01*
X84130261Y-84733489D01*
X84130264Y-84733501D01*
X84190602Y-84879172D01*
X84190609Y-84879185D01*
X84278210Y-85010288D01*
X84278213Y-85010292D01*
X84389707Y-85121786D01*
X84389711Y-85121789D01*
X84520814Y-85209390D01*
X84520827Y-85209397D01*
X84666498Y-85269735D01*
X84666503Y-85269737D01*
X84821153Y-85300499D01*
X84821156Y-85300500D01*
X84821158Y-85300500D01*
X84978844Y-85300500D01*
X84978845Y-85300499D01*
X85133497Y-85269737D01*
X85279179Y-85209394D01*
X85410289Y-85121789D01*
X85521789Y-85010289D01*
X85609394Y-84879179D01*
X85669737Y-84733497D01*
X85700500Y-84578842D01*
X85700500Y-84421158D01*
X85695041Y-84393713D01*
X100999500Y-84393713D01*
X100999500Y-84606287D01*
X101032754Y-84816243D01*
X101095803Y-85010288D01*
X101098444Y-85018414D01*
X101194951Y-85207820D01*
X101319890Y-85379786D01*
X101458705Y-85518601D01*
X101492190Y-85579924D01*
X101487206Y-85649616D01*
X101445334Y-85705549D01*
X101436121Y-85711821D01*
X101281342Y-85807289D01*
X101157289Y-85931342D01*
X101065187Y-86080663D01*
X101065186Y-86080666D01*
X101010001Y-86247203D01*
X101010001Y-86247204D01*
X101010000Y-86247204D01*
X100999500Y-86349983D01*
X100999500Y-87650001D01*
X100999501Y-87650018D01*
X101010000Y-87752796D01*
X101010001Y-87752799D01*
X101019739Y-87782185D01*
X101065186Y-87919334D01*
X101157288Y-88068656D01*
X101281344Y-88192712D01*
X101430666Y-88284814D01*
X101597203Y-88339999D01*
X101699991Y-88350500D01*
X103250008Y-88350499D01*
X103352797Y-88339999D01*
X103479031Y-88298168D01*
X103548855Y-88295767D01*
X103608897Y-88331498D01*
X103640091Y-88394018D01*
X103639650Y-88440065D01*
X103624500Y-88516234D01*
X103624500Y-88683771D01*
X103657182Y-88848074D01*
X103657184Y-88848082D01*
X103721295Y-89002860D01*
X103814373Y-89142162D01*
X103932837Y-89260626D01*
X103963548Y-89281146D01*
X104072137Y-89353703D01*
X104226918Y-89417816D01*
X104385467Y-89449353D01*
X104391228Y-89450499D01*
X104391232Y-89450500D01*
X104391233Y-89450500D01*
X104558768Y-89450500D01*
X104558769Y-89450499D01*
X104723082Y-89417816D01*
X104877863Y-89353703D01*
X105017162Y-89260626D01*
X105135626Y-89142162D01*
X105228703Y-89002863D01*
X105292816Y-88848082D01*
X105325500Y-88683767D01*
X105325500Y-88516233D01*
X105292816Y-88351918D01*
X105242207Y-88229738D01*
X105228704Y-88197139D01*
X105135626Y-88057837D01*
X105017162Y-87939373D01*
X104877860Y-87846295D01*
X104723082Y-87782184D01*
X104723074Y-87782182D01*
X104558771Y-87749500D01*
X104558767Y-87749500D01*
X104391233Y-87749500D01*
X104391228Y-87749500D01*
X104226925Y-87782182D01*
X104226913Y-87782185D01*
X104116109Y-87828082D01*
X104046640Y-87835551D01*
X103984161Y-87804276D01*
X103948509Y-87744187D01*
X103945299Y-87700918D01*
X103950499Y-87650016D01*
X103950500Y-87650009D01*
X103950499Y-86349992D01*
X103939999Y-86247203D01*
X103884814Y-86080666D01*
X103792712Y-85931344D01*
X103668656Y-85807288D01*
X103519334Y-85715186D01*
X103519333Y-85715185D01*
X103513878Y-85711821D01*
X103467154Y-85659873D01*
X103455931Y-85590910D01*
X103483775Y-85526828D01*
X103491272Y-85518623D01*
X103630104Y-85379792D01*
X103755051Y-85207816D01*
X103851557Y-85018412D01*
X103917246Y-84816243D01*
X103950500Y-84606287D01*
X103950500Y-84393713D01*
X103917246Y-84183757D01*
X103851557Y-83981588D01*
X103755051Y-83792184D01*
X103755049Y-83792181D01*
X103755048Y-83792179D01*
X103630109Y-83620213D01*
X103479790Y-83469894D01*
X103479785Y-83469890D01*
X103314781Y-83350008D01*
X103272115Y-83294678D01*
X103266136Y-83225065D01*
X103298741Y-83163270D01*
X103314781Y-83149371D01*
X103479466Y-83029721D01*
X103629723Y-82879464D01*
X103629727Y-82879459D01*
X103754620Y-82707557D01*
X103851095Y-82518217D01*
X103916757Y-82316129D01*
X103916757Y-82316126D01*
X103927231Y-82250000D01*
X102879146Y-82250000D01*
X102917630Y-82183343D01*
X102950000Y-82062535D01*
X102950000Y-81937465D01*
X102917630Y-81816657D01*
X102879146Y-81750000D01*
X103927231Y-81750000D01*
X103916757Y-81683873D01*
X103916757Y-81683870D01*
X103851095Y-81481782D01*
X103754620Y-81292442D01*
X103629727Y-81120540D01*
X103629723Y-81120535D01*
X103479464Y-80970276D01*
X103479459Y-80970272D01*
X103307557Y-80845379D01*
X103118217Y-80748904D01*
X102916128Y-80683242D01*
X102725000Y-80652969D01*
X102725000Y-81595854D01*
X102658343Y-81557370D01*
X102537535Y-81525000D01*
X102412465Y-81525000D01*
X102291657Y-81557370D01*
X102225000Y-81595854D01*
X102225000Y-80652969D01*
X102033872Y-80683242D01*
X102033869Y-80683242D01*
X101831782Y-80748904D01*
X101642442Y-80845379D01*
X101470540Y-80970272D01*
X101470535Y-80970276D01*
X101320276Y-81120535D01*
X101320272Y-81120540D01*
X101195379Y-81292442D01*
X101098904Y-81481782D01*
X101033242Y-81683870D01*
X101033242Y-81683873D01*
X101022769Y-81750000D01*
X102070854Y-81750000D01*
X102032370Y-81816657D01*
X102000000Y-81937465D01*
X102000000Y-82062535D01*
X102032370Y-82183343D01*
X102070854Y-82250000D01*
X101022769Y-82250000D01*
X101033242Y-82316126D01*
X101033242Y-82316129D01*
X101098904Y-82518217D01*
X101195379Y-82707557D01*
X101320272Y-82879459D01*
X101320276Y-82879464D01*
X101470535Y-83029723D01*
X101470540Y-83029727D01*
X101635218Y-83149372D01*
X101677884Y-83204701D01*
X101683863Y-83274315D01*
X101651258Y-83336110D01*
X101635218Y-83350008D01*
X101470214Y-83469890D01*
X101470209Y-83469894D01*
X101319890Y-83620213D01*
X101194951Y-83792179D01*
X101098444Y-83981585D01*
X101032753Y-84183760D01*
X101019649Y-84266498D01*
X100999500Y-84393713D01*
X85695041Y-84393713D01*
X85669737Y-84266503D01*
X85635463Y-84183757D01*
X85609397Y-84120827D01*
X85609390Y-84120814D01*
X85521789Y-83989711D01*
X85521786Y-83989707D01*
X85410292Y-83878213D01*
X85410288Y-83878210D01*
X85279185Y-83790609D01*
X85279172Y-83790602D01*
X85133501Y-83730264D01*
X85133489Y-83730261D01*
X84978845Y-83699500D01*
X84978842Y-83699500D01*
X84821158Y-83699500D01*
X84821155Y-83699500D01*
X84666510Y-83730261D01*
X84666498Y-83730264D01*
X84520827Y-83790602D01*
X84520814Y-83790609D01*
X84389711Y-83878210D01*
X84389707Y-83878213D01*
X84278213Y-83989707D01*
X84278210Y-83989711D01*
X84190609Y-84120814D01*
X84190602Y-84120827D01*
X84130264Y-84266498D01*
X84130261Y-84266510D01*
X84099500Y-84421153D01*
X54000000Y-84421153D01*
X54000000Y-82921153D01*
X76699500Y-82921153D01*
X76699500Y-83078846D01*
X76730261Y-83233489D01*
X76730264Y-83233501D01*
X76790602Y-83379172D01*
X76790609Y-83379185D01*
X76878210Y-83510288D01*
X76878213Y-83510292D01*
X76989707Y-83621786D01*
X76989711Y-83621789D01*
X77120814Y-83709390D01*
X77120827Y-83709397D01*
X77266498Y-83769735D01*
X77266503Y-83769737D01*
X77379326Y-83792179D01*
X77421153Y-83800499D01*
X77421156Y-83800500D01*
X77421158Y-83800500D01*
X77578844Y-83800500D01*
X77578845Y-83800499D01*
X77733497Y-83769737D01*
X77879179Y-83709394D01*
X77931110Y-83674694D01*
X77997785Y-83653816D01*
X78065165Y-83672300D01*
X78068863Y-83674676D01*
X78120821Y-83709394D01*
X78120823Y-83709395D01*
X78120825Y-83709396D01*
X78266498Y-83769735D01*
X78266503Y-83769737D01*
X78379326Y-83792179D01*
X78421153Y-83800499D01*
X78421156Y-83800500D01*
X78421158Y-83800500D01*
X78578844Y-83800500D01*
X78578845Y-83800499D01*
X78733497Y-83769737D01*
X78879179Y-83709394D01*
X78931110Y-83674694D01*
X78997785Y-83653816D01*
X79065165Y-83672300D01*
X79068863Y-83674676D01*
X79120821Y-83709394D01*
X79120823Y-83709395D01*
X79120825Y-83709396D01*
X79266498Y-83769735D01*
X79266503Y-83769737D01*
X79379326Y-83792179D01*
X79421153Y-83800499D01*
X79421156Y-83800500D01*
X79421158Y-83800500D01*
X79578844Y-83800500D01*
X79578845Y-83800499D01*
X79733497Y-83769737D01*
X79879179Y-83709394D01*
X79931110Y-83674694D01*
X79997785Y-83653816D01*
X80065165Y-83672300D01*
X80068863Y-83674676D01*
X80120821Y-83709394D01*
X80120823Y-83709395D01*
X80120825Y-83709396D01*
X80266498Y-83769735D01*
X80266503Y-83769737D01*
X80379326Y-83792179D01*
X80421153Y-83800499D01*
X80421156Y-83800500D01*
X80421158Y-83800500D01*
X80578844Y-83800500D01*
X80578845Y-83800499D01*
X80733497Y-83769737D01*
X80879179Y-83709394D01*
X81010289Y-83621789D01*
X81121789Y-83510289D01*
X81209394Y-83379179D01*
X81269737Y-83233497D01*
X81300500Y-83078842D01*
X81300500Y-82921158D01*
X81300500Y-82921155D01*
X81300499Y-82921153D01*
X81269738Y-82766510D01*
X81269737Y-82766503D01*
X81245321Y-82707557D01*
X81209397Y-82620827D01*
X81209390Y-82620814D01*
X81121789Y-82489711D01*
X81121786Y-82489707D01*
X81010292Y-82378213D01*
X81010288Y-82378210D01*
X80879185Y-82290609D01*
X80879172Y-82290602D01*
X80733501Y-82230264D01*
X80733489Y-82230261D01*
X80578845Y-82199500D01*
X80578842Y-82199500D01*
X80421158Y-82199500D01*
X80421155Y-82199500D01*
X80266510Y-82230261D01*
X80266498Y-82230264D01*
X80120827Y-82290602D01*
X80120814Y-82290609D01*
X80068891Y-82325304D01*
X80002214Y-82346182D01*
X79934833Y-82327698D01*
X79931109Y-82325304D01*
X79879185Y-82290609D01*
X79879172Y-82290602D01*
X79733501Y-82230264D01*
X79733489Y-82230261D01*
X79578845Y-82199500D01*
X79578842Y-82199500D01*
X79421158Y-82199500D01*
X79421155Y-82199500D01*
X79266510Y-82230261D01*
X79266498Y-82230264D01*
X79120827Y-82290602D01*
X79120814Y-82290609D01*
X79068891Y-82325304D01*
X79002214Y-82346182D01*
X78934833Y-82327698D01*
X78931109Y-82325304D01*
X78879185Y-82290609D01*
X78879172Y-82290602D01*
X78733501Y-82230264D01*
X78733489Y-82230261D01*
X78578845Y-82199500D01*
X78578842Y-82199500D01*
X78421158Y-82199500D01*
X78421155Y-82199500D01*
X78266510Y-82230261D01*
X78266498Y-82230264D01*
X78120827Y-82290602D01*
X78120814Y-82290609D01*
X78068891Y-82325304D01*
X78002214Y-82346182D01*
X77934833Y-82327698D01*
X77931109Y-82325304D01*
X77879185Y-82290609D01*
X77879172Y-82290602D01*
X77733501Y-82230264D01*
X77733489Y-82230261D01*
X77578845Y-82199500D01*
X77578842Y-82199500D01*
X77421158Y-82199500D01*
X77421155Y-82199500D01*
X77266510Y-82230261D01*
X77266498Y-82230264D01*
X77120827Y-82290602D01*
X77120814Y-82290609D01*
X76989711Y-82378210D01*
X76989707Y-82378213D01*
X76878213Y-82489707D01*
X76878210Y-82489711D01*
X76790609Y-82620814D01*
X76790602Y-82620827D01*
X76730264Y-82766498D01*
X76730261Y-82766510D01*
X76699500Y-82921153D01*
X54000000Y-82921153D01*
X54000000Y-80921153D01*
X97199500Y-80921153D01*
X97199500Y-81078846D01*
X97230261Y-81233489D01*
X97230264Y-81233501D01*
X97290602Y-81379172D01*
X97290609Y-81379185D01*
X97378210Y-81510288D01*
X97378213Y-81510292D01*
X97489707Y-81621786D01*
X97489711Y-81621789D01*
X97620814Y-81709390D01*
X97620827Y-81709397D01*
X97718853Y-81750000D01*
X97766503Y-81769737D01*
X97921153Y-81800499D01*
X97921156Y-81800500D01*
X97921158Y-81800500D01*
X98078844Y-81800500D01*
X98078845Y-81800499D01*
X98233497Y-81769737D01*
X98379179Y-81709394D01*
X98417379Y-81683870D01*
X98442129Y-81667331D01*
X98510289Y-81621789D01*
X98621789Y-81510289D01*
X98709394Y-81379179D01*
X98769737Y-81233497D01*
X98800500Y-81078842D01*
X98800500Y-80921158D01*
X98800500Y-80921155D01*
X98800499Y-80921153D01*
X98769737Y-80766503D01*
X98762447Y-80748904D01*
X98709397Y-80620827D01*
X98709390Y-80620814D01*
X98621789Y-80489711D01*
X98621786Y-80489707D01*
X98510292Y-80378213D01*
X98510288Y-80378210D01*
X98379185Y-80290609D01*
X98379172Y-80290602D01*
X98233501Y-80230264D01*
X98233489Y-80230261D01*
X98078845Y-80199500D01*
X98078842Y-80199500D01*
X97921158Y-80199500D01*
X97921155Y-80199500D01*
X97766510Y-80230261D01*
X97766498Y-80230264D01*
X97620827Y-80290602D01*
X97620814Y-80290609D01*
X97489711Y-80378210D01*
X97489707Y-80378213D01*
X97378213Y-80489707D01*
X97378210Y-80489711D01*
X97290609Y-80620814D01*
X97290602Y-80620827D01*
X97230264Y-80766498D01*
X97230261Y-80766510D01*
X97199500Y-80921153D01*
X54000000Y-80921153D01*
X54000000Y-78000000D01*
X95000000Y-77500000D01*
X95000000Y-73493713D01*
X100974500Y-73493713D01*
X100974500Y-73706286D01*
X101007753Y-73916239D01*
X101073444Y-74118414D01*
X101169951Y-74307820D01*
X101294890Y-74479786D01*
X101433705Y-74618601D01*
X101467190Y-74679924D01*
X101462206Y-74749616D01*
X101420334Y-74805549D01*
X101411121Y-74811821D01*
X101256342Y-74907289D01*
X101132289Y-75031342D01*
X101040187Y-75180663D01*
X101040186Y-75180666D01*
X100985001Y-75347203D01*
X100985001Y-75347204D01*
X100985000Y-75347204D01*
X100974500Y-75449983D01*
X100974500Y-76750001D01*
X100974501Y-76750018D01*
X100985000Y-76852796D01*
X100985001Y-76852799D01*
X100994739Y-76882185D01*
X101040186Y-77019334D01*
X101132288Y-77168656D01*
X101256344Y-77292712D01*
X101405666Y-77384814D01*
X101572203Y-77439999D01*
X101674991Y-77450500D01*
X103225008Y-77450499D01*
X103327797Y-77439999D01*
X103454031Y-77398168D01*
X103523855Y-77395767D01*
X103583897Y-77431498D01*
X103615091Y-77494018D01*
X103614650Y-77540065D01*
X103599500Y-77616234D01*
X103599500Y-77783771D01*
X103632182Y-77948074D01*
X103632184Y-77948082D01*
X103696295Y-78102860D01*
X103789373Y-78242162D01*
X103907837Y-78360626D01*
X104000494Y-78422537D01*
X104047137Y-78453703D01*
X104201918Y-78517816D01*
X104366228Y-78550499D01*
X104366232Y-78550500D01*
X104366233Y-78550500D01*
X104533768Y-78550500D01*
X104533769Y-78550499D01*
X104698082Y-78517816D01*
X104852863Y-78453703D01*
X104992162Y-78360626D01*
X105110626Y-78242162D01*
X105203703Y-78102863D01*
X105267816Y-77948082D01*
X105300500Y-77783767D01*
X105300500Y-77616233D01*
X105267816Y-77451918D01*
X105203703Y-77297137D01*
X105172537Y-77250494D01*
X105110626Y-77157837D01*
X104992162Y-77039373D01*
X104852860Y-76946295D01*
X104698082Y-76882184D01*
X104698074Y-76882182D01*
X104533771Y-76849500D01*
X104533767Y-76849500D01*
X104366233Y-76849500D01*
X104366228Y-76849500D01*
X104201925Y-76882182D01*
X104201913Y-76882185D01*
X104091109Y-76928082D01*
X104021640Y-76935551D01*
X103959161Y-76904276D01*
X103923509Y-76844187D01*
X103920299Y-76800918D01*
X103920342Y-76800500D01*
X103925500Y-76750009D01*
X103925499Y-75449992D01*
X103918166Y-75378211D01*
X103914999Y-75347203D01*
X103914998Y-75347200D01*
X103859814Y-75180666D01*
X103767712Y-75031344D01*
X103643656Y-74907288D01*
X103494334Y-74815186D01*
X103494333Y-74815185D01*
X103488878Y-74811821D01*
X103442154Y-74759873D01*
X103430931Y-74690910D01*
X103458775Y-74626828D01*
X103466272Y-74618623D01*
X103605104Y-74479792D01*
X103730051Y-74307816D01*
X103826557Y-74118412D01*
X103892246Y-73916243D01*
X103925500Y-73706287D01*
X103925500Y-73493713D01*
X103892246Y-73283757D01*
X103826557Y-73081588D01*
X103730051Y-72892184D01*
X103730049Y-72892181D01*
X103730048Y-72892179D01*
X103605109Y-72720213D01*
X103454790Y-72569894D01*
X103454785Y-72569890D01*
X103289781Y-72450008D01*
X103247115Y-72394678D01*
X103241136Y-72325065D01*
X103273741Y-72263270D01*
X103289781Y-72249371D01*
X103454466Y-72129721D01*
X103604723Y-71979464D01*
X103604727Y-71979459D01*
X103729620Y-71807557D01*
X103826095Y-71618217D01*
X103891757Y-71416129D01*
X103891757Y-71416126D01*
X103902231Y-71350000D01*
X102854146Y-71350000D01*
X102892630Y-71283343D01*
X102925000Y-71162535D01*
X102925000Y-71037465D01*
X102892630Y-70916657D01*
X102854146Y-70850000D01*
X103902231Y-70850000D01*
X103891757Y-70783873D01*
X103891757Y-70783870D01*
X103826095Y-70581782D01*
X103729620Y-70392442D01*
X103604727Y-70220540D01*
X103604723Y-70220535D01*
X103454464Y-70070276D01*
X103454459Y-70070272D01*
X103282557Y-69945379D01*
X103093217Y-69848904D01*
X102891128Y-69783242D01*
X102700000Y-69752969D01*
X102700000Y-70695854D01*
X102633343Y-70657370D01*
X102512535Y-70625000D01*
X102387465Y-70625000D01*
X102266657Y-70657370D01*
X102200000Y-70695854D01*
X102200000Y-69752969D01*
X102008872Y-69783242D01*
X102008869Y-69783242D01*
X101806782Y-69848904D01*
X101617442Y-69945379D01*
X101445540Y-70070272D01*
X101445535Y-70070276D01*
X101295276Y-70220535D01*
X101295272Y-70220540D01*
X101170379Y-70392442D01*
X101073904Y-70581782D01*
X101008242Y-70783870D01*
X101008242Y-70783873D01*
X100997769Y-70850000D01*
X102045854Y-70850000D01*
X102007370Y-70916657D01*
X101975000Y-71037465D01*
X101975000Y-71162535D01*
X102007370Y-71283343D01*
X102045854Y-71350000D01*
X100997769Y-71350000D01*
X101008242Y-71416126D01*
X101008242Y-71416129D01*
X101073904Y-71618217D01*
X101170379Y-71807557D01*
X101295272Y-71979459D01*
X101295276Y-71979464D01*
X101445535Y-72129723D01*
X101445540Y-72129727D01*
X101610218Y-72249372D01*
X101652884Y-72304701D01*
X101658863Y-72374315D01*
X101626258Y-72436110D01*
X101610218Y-72450008D01*
X101445214Y-72569890D01*
X101445209Y-72569894D01*
X101294890Y-72720213D01*
X101169951Y-72892179D01*
X101073444Y-73081585D01*
X101007753Y-73283760D01*
X100974500Y-73493713D01*
X95000000Y-73493713D01*
X95000000Y-69417947D01*
X95019685Y-69350908D01*
X95072489Y-69305153D01*
X95099809Y-69296330D01*
X95168435Y-69282678D01*
X95233497Y-69269737D01*
X95379179Y-69209394D01*
X95510289Y-69121789D01*
X95621789Y-69010289D01*
X95709394Y-68879179D01*
X95769737Y-68733497D01*
X95800500Y-68578842D01*
X95800500Y-68421158D01*
X95800500Y-68421155D01*
X95800499Y-68421153D01*
X95791957Y-68378211D01*
X95769737Y-68266503D01*
X95738049Y-68190000D01*
X95709397Y-68120827D01*
X95709390Y-68120814D01*
X95621789Y-67989711D01*
X95621786Y-67989707D01*
X95510292Y-67878213D01*
X95510288Y-67878210D01*
X95379185Y-67790609D01*
X95379172Y-67790602D01*
X95233501Y-67730264D01*
X95233491Y-67730261D01*
X95099808Y-67703669D01*
X95037897Y-67671284D01*
X95003323Y-67610568D01*
X95000000Y-67582052D01*
X95000000Y-62493713D01*
X100974500Y-62493713D01*
X100974500Y-62706286D01*
X100994371Y-62831750D01*
X101007754Y-62916243D01*
X101068355Y-63102754D01*
X101073444Y-63118414D01*
X101169951Y-63307820D01*
X101294890Y-63479786D01*
X101433705Y-63618601D01*
X101467190Y-63679924D01*
X101462206Y-63749616D01*
X101420334Y-63805549D01*
X101411121Y-63811821D01*
X101256342Y-63907289D01*
X101132289Y-64031342D01*
X101040187Y-64180663D01*
X101040186Y-64180666D01*
X100985001Y-64347203D01*
X100985001Y-64347204D01*
X100985000Y-64347204D01*
X100974500Y-64449983D01*
X100974500Y-65750001D01*
X100974501Y-65750018D01*
X100985000Y-65852796D01*
X100985001Y-65852799D01*
X100994739Y-65882185D01*
X101040186Y-66019334D01*
X101132288Y-66168656D01*
X101256344Y-66292712D01*
X101405666Y-66384814D01*
X101572203Y-66439999D01*
X101674991Y-66450500D01*
X103225008Y-66450499D01*
X103327797Y-66439999D01*
X103454031Y-66398168D01*
X103523855Y-66395767D01*
X103583897Y-66431498D01*
X103615091Y-66494018D01*
X103614650Y-66540065D01*
X103599500Y-66616234D01*
X103599500Y-66783771D01*
X103632182Y-66948074D01*
X103632184Y-66948082D01*
X103696295Y-67102860D01*
X103789373Y-67242162D01*
X103907837Y-67360626D01*
X103935604Y-67379179D01*
X104047137Y-67453703D01*
X104201918Y-67517816D01*
X104366228Y-67550499D01*
X104366232Y-67550500D01*
X104366233Y-67550500D01*
X104533768Y-67550500D01*
X104533769Y-67550499D01*
X104698082Y-67517816D01*
X104852863Y-67453703D01*
X104992162Y-67360626D01*
X105110626Y-67242162D01*
X105203703Y-67102863D01*
X105267816Y-66948082D01*
X105300500Y-66783767D01*
X105300500Y-66616233D01*
X105267816Y-66451918D01*
X105203703Y-66297137D01*
X105145075Y-66209394D01*
X105110626Y-66157837D01*
X104992162Y-66039373D01*
X104852860Y-65946295D01*
X104698082Y-65882184D01*
X104698074Y-65882182D01*
X104533771Y-65849500D01*
X104533767Y-65849500D01*
X104366233Y-65849500D01*
X104366228Y-65849500D01*
X104201925Y-65882182D01*
X104201913Y-65882185D01*
X104091109Y-65928082D01*
X104021640Y-65935551D01*
X103959161Y-65904276D01*
X103923509Y-65844187D01*
X103920299Y-65800918D01*
X103925500Y-65750009D01*
X103925499Y-64449992D01*
X103914999Y-64347203D01*
X103859814Y-64180666D01*
X103767712Y-64031344D01*
X103643656Y-63907288D01*
X103494334Y-63815186D01*
X103494333Y-63815185D01*
X103488878Y-63811821D01*
X103442154Y-63759873D01*
X103430931Y-63690910D01*
X103458775Y-63626828D01*
X103466272Y-63618623D01*
X103605104Y-63479792D01*
X103730051Y-63307816D01*
X103826557Y-63118412D01*
X103892246Y-62916243D01*
X103925500Y-62706287D01*
X103925500Y-62493713D01*
X103892246Y-62283757D01*
X103826557Y-62081588D01*
X103730051Y-61892184D01*
X103730049Y-61892181D01*
X103730048Y-61892179D01*
X103605109Y-61720213D01*
X103454790Y-61569894D01*
X103454785Y-61569890D01*
X103289781Y-61450008D01*
X103247115Y-61394678D01*
X103241136Y-61325065D01*
X103273741Y-61263270D01*
X103289781Y-61249371D01*
X103454466Y-61129721D01*
X103604723Y-60979464D01*
X103604727Y-60979459D01*
X103729620Y-60807557D01*
X103826095Y-60618217D01*
X103891757Y-60416129D01*
X103891757Y-60416126D01*
X103902231Y-60350000D01*
X102854146Y-60350000D01*
X102892630Y-60283343D01*
X102925000Y-60162535D01*
X102925000Y-60037465D01*
X102892630Y-59916657D01*
X102854146Y-59850000D01*
X103902231Y-59850000D01*
X103891757Y-59783873D01*
X103891757Y-59783870D01*
X103826095Y-59581782D01*
X103729620Y-59392442D01*
X103604727Y-59220540D01*
X103604723Y-59220535D01*
X103454464Y-59070276D01*
X103454459Y-59070272D01*
X103282557Y-58945379D01*
X103093217Y-58848904D01*
X102891128Y-58783242D01*
X102700000Y-58752969D01*
X102700000Y-59695854D01*
X102633343Y-59657370D01*
X102512535Y-59625000D01*
X102387465Y-59625000D01*
X102266657Y-59657370D01*
X102200000Y-59695854D01*
X102200000Y-58752969D01*
X102008872Y-58783242D01*
X102008869Y-58783242D01*
X101806782Y-58848904D01*
X101617442Y-58945379D01*
X101445540Y-59070272D01*
X101445535Y-59070276D01*
X101295276Y-59220535D01*
X101295272Y-59220540D01*
X101170379Y-59392442D01*
X101073904Y-59581782D01*
X101008242Y-59783870D01*
X101008242Y-59783873D01*
X100997769Y-59850000D01*
X102045854Y-59850000D01*
X102007370Y-59916657D01*
X101975000Y-60037465D01*
X101975000Y-60162535D01*
X102007370Y-60283343D01*
X102045854Y-60350000D01*
X100997769Y-60350000D01*
X101008242Y-60416126D01*
X101008242Y-60416129D01*
X101073904Y-60618217D01*
X101170379Y-60807557D01*
X101295272Y-60979459D01*
X101295276Y-60979464D01*
X101445535Y-61129723D01*
X101445540Y-61129727D01*
X101610218Y-61249372D01*
X101652884Y-61304701D01*
X101658863Y-61374315D01*
X101626258Y-61436110D01*
X101610218Y-61450008D01*
X101445214Y-61569890D01*
X101445209Y-61569894D01*
X101294890Y-61720213D01*
X101169951Y-61892179D01*
X101073444Y-62081585D01*
X101007753Y-62283760D01*
X100974500Y-62493713D01*
X95000000Y-62493713D01*
X95000000Y-52921153D01*
X97699500Y-52921153D01*
X97699500Y-53078846D01*
X97730261Y-53233489D01*
X97730264Y-53233501D01*
X97790602Y-53379172D01*
X97790609Y-53379185D01*
X97878210Y-53510288D01*
X97878213Y-53510292D01*
X97989707Y-53621786D01*
X97989711Y-53621789D01*
X98120814Y-53709390D01*
X98120827Y-53709397D01*
X98258695Y-53766503D01*
X98266503Y-53769737D01*
X98421153Y-53800499D01*
X98421156Y-53800500D01*
X98421158Y-53800500D01*
X98578844Y-53800500D01*
X98578845Y-53800499D01*
X98733497Y-53769737D01*
X98879179Y-53709394D01*
X99010289Y-53621789D01*
X99121789Y-53510289D01*
X99209394Y-53379179D01*
X99269737Y-53233497D01*
X99300500Y-53078842D01*
X99300500Y-52921158D01*
X99300500Y-52921155D01*
X99300499Y-52921153D01*
X99296839Y-52902754D01*
X99269737Y-52766503D01*
X99265116Y-52755346D01*
X99209397Y-52620827D01*
X99209390Y-52620814D01*
X99121789Y-52489711D01*
X99121786Y-52489707D01*
X99010292Y-52378213D01*
X99010288Y-52378210D01*
X98879185Y-52290609D01*
X98879172Y-52290602D01*
X98733501Y-52230264D01*
X98733489Y-52230261D01*
X98578845Y-52199500D01*
X98578842Y-52199500D01*
X98421158Y-52199500D01*
X98421155Y-52199500D01*
X98266510Y-52230261D01*
X98266498Y-52230264D01*
X98120827Y-52290602D01*
X98120814Y-52290609D01*
X97989711Y-52378210D01*
X97989707Y-52378213D01*
X97878213Y-52489707D01*
X97878210Y-52489711D01*
X97790609Y-52620814D01*
X97790602Y-52620827D01*
X97730264Y-52766498D01*
X97730261Y-52766510D01*
X97699500Y-52921153D01*
X95000000Y-52921153D01*
X95000000Y-51493713D01*
X100974500Y-51493713D01*
X100974500Y-51706287D01*
X101007754Y-51916243D01*
X101028489Y-51980060D01*
X101073444Y-52118414D01*
X101169951Y-52307820D01*
X101294890Y-52479786D01*
X101433705Y-52618601D01*
X101467190Y-52679924D01*
X101462206Y-52749616D01*
X101420334Y-52805549D01*
X101411121Y-52811821D01*
X101256342Y-52907289D01*
X101132289Y-53031342D01*
X101040187Y-53180663D01*
X101040185Y-53180668D01*
X101022678Y-53233501D01*
X100985001Y-53347203D01*
X100985001Y-53347204D01*
X100985000Y-53347204D01*
X100974500Y-53449983D01*
X100974500Y-54750001D01*
X100974501Y-54750018D01*
X100985000Y-54852796D01*
X100985001Y-54852799D01*
X101009860Y-54927816D01*
X101040186Y-55019334D01*
X101132288Y-55168656D01*
X101256344Y-55292712D01*
X101405666Y-55384814D01*
X101572203Y-55439999D01*
X101674991Y-55450500D01*
X103225008Y-55450499D01*
X103327797Y-55439999D01*
X103454031Y-55398168D01*
X103523855Y-55395767D01*
X103583897Y-55431498D01*
X103615091Y-55494018D01*
X103614650Y-55540065D01*
X103599500Y-55616234D01*
X103599500Y-55783771D01*
X103632182Y-55948074D01*
X103632184Y-55948082D01*
X103696295Y-56102860D01*
X103789373Y-56242162D01*
X103907837Y-56360626D01*
X103935604Y-56379179D01*
X104047137Y-56453703D01*
X104201918Y-56517816D01*
X104366228Y-56550499D01*
X104366232Y-56550500D01*
X104366233Y-56550500D01*
X104533768Y-56550500D01*
X104533769Y-56550499D01*
X104698082Y-56517816D01*
X104852863Y-56453703D01*
X104992162Y-56360626D01*
X105110626Y-56242162D01*
X105203703Y-56102863D01*
X105267816Y-55948082D01*
X105300500Y-55783767D01*
X105300500Y-55616233D01*
X105267816Y-55451918D01*
X105203703Y-55297137D01*
X105138464Y-55199500D01*
X105110626Y-55157837D01*
X104992162Y-55039373D01*
X104852860Y-54946295D01*
X104698082Y-54882184D01*
X104698074Y-54882182D01*
X104533771Y-54849500D01*
X104533767Y-54849500D01*
X104366233Y-54849500D01*
X104366228Y-54849500D01*
X104201925Y-54882182D01*
X104201913Y-54882185D01*
X104091109Y-54928082D01*
X104021640Y-54935551D01*
X103959161Y-54904276D01*
X103923509Y-54844187D01*
X103920299Y-54800918D01*
X103920342Y-54800500D01*
X103925500Y-54750009D01*
X103925499Y-53449992D01*
X103918166Y-53378211D01*
X103914999Y-53347203D01*
X103914998Y-53347200D01*
X103900146Y-53302379D01*
X103859814Y-53180666D01*
X103767712Y-53031344D01*
X103643656Y-52907288D01*
X103494334Y-52815186D01*
X103494333Y-52815185D01*
X103488878Y-52811821D01*
X103442154Y-52759873D01*
X103430931Y-52690910D01*
X103458775Y-52626828D01*
X103466272Y-52618623D01*
X103605104Y-52479792D01*
X103730051Y-52307816D01*
X103826557Y-52118412D01*
X103892246Y-51916243D01*
X103925500Y-51706287D01*
X103925500Y-51493713D01*
X103892246Y-51283757D01*
X103826557Y-51081588D01*
X103730051Y-50892184D01*
X103730049Y-50892181D01*
X103730048Y-50892179D01*
X103605109Y-50720213D01*
X103454790Y-50569894D01*
X103454785Y-50569890D01*
X103289781Y-50450008D01*
X103247115Y-50394678D01*
X103241136Y-50325065D01*
X103273741Y-50263270D01*
X103289781Y-50249371D01*
X103454466Y-50129721D01*
X103604723Y-49979464D01*
X103604727Y-49979459D01*
X103729620Y-49807557D01*
X103826095Y-49618217D01*
X103891757Y-49416129D01*
X103891757Y-49416126D01*
X103902231Y-49350000D01*
X102854146Y-49350000D01*
X102892630Y-49283343D01*
X102925000Y-49162535D01*
X102925000Y-49037465D01*
X102892630Y-48916657D01*
X102854146Y-48850000D01*
X103902231Y-48850000D01*
X103891757Y-48783873D01*
X103891757Y-48783870D01*
X103826095Y-48581782D01*
X103729620Y-48392442D01*
X103604727Y-48220540D01*
X103604723Y-48220535D01*
X103454464Y-48070276D01*
X103454459Y-48070272D01*
X103282557Y-47945379D01*
X103093217Y-47848904D01*
X102891128Y-47783242D01*
X102700000Y-47752969D01*
X102700000Y-48695854D01*
X102633343Y-48657370D01*
X102512535Y-48625000D01*
X102387465Y-48625000D01*
X102266657Y-48657370D01*
X102200000Y-48695854D01*
X102200000Y-47752969D01*
X102008872Y-47783242D01*
X102008869Y-47783242D01*
X101806782Y-47848904D01*
X101617442Y-47945379D01*
X101445540Y-48070272D01*
X101445535Y-48070276D01*
X101295276Y-48220535D01*
X101295272Y-48220540D01*
X101170379Y-48392442D01*
X101073904Y-48581782D01*
X101008242Y-48783870D01*
X101008242Y-48783873D01*
X100997769Y-48850000D01*
X102045854Y-48850000D01*
X102007370Y-48916657D01*
X101975000Y-49037465D01*
X101975000Y-49162535D01*
X102007370Y-49283343D01*
X102045854Y-49350000D01*
X100997769Y-49350000D01*
X101008242Y-49416126D01*
X101008242Y-49416129D01*
X101073904Y-49618217D01*
X101170379Y-49807557D01*
X101295272Y-49979459D01*
X101295276Y-49979464D01*
X101445535Y-50129723D01*
X101445540Y-50129727D01*
X101610218Y-50249372D01*
X101652884Y-50304701D01*
X101658863Y-50374315D01*
X101626258Y-50436110D01*
X101610218Y-50450008D01*
X101445214Y-50569890D01*
X101445209Y-50569894D01*
X101294890Y-50720213D01*
X101169951Y-50892179D01*
X101073444Y-51081585D01*
X101007753Y-51283760D01*
X100983908Y-51434315D01*
X100974500Y-51493713D01*
X95000000Y-51493713D01*
X95000000Y-46624000D01*
X95019685Y-46556961D01*
X95072489Y-46511206D01*
X95124000Y-46500000D01*
X107874629Y-46500000D01*
X107941668Y-46519685D01*
G37*
%TD.AperFunction*%
%TD*%
%TA.AperFunction,Conductor*%
%TO.N,Net-(J6-Pin_2)*%
G36*
X92235399Y-33019685D02*
G01*
X92281154Y-33072489D01*
X92291098Y-33141647D01*
X92262073Y-33205203D01*
X92215813Y-33238561D01*
X92197138Y-33246296D01*
X92057837Y-33339373D01*
X91939373Y-33457837D01*
X91846295Y-33597139D01*
X91782184Y-33751917D01*
X91782182Y-33751925D01*
X91749500Y-33916228D01*
X91749500Y-34083771D01*
X91782182Y-34248074D01*
X91782185Y-34248086D01*
X91817269Y-34332786D01*
X91824738Y-34402255D01*
X91793463Y-34464734D01*
X91733374Y-34500386D01*
X91690106Y-34503596D01*
X91650011Y-34499500D01*
X90349998Y-34499500D01*
X90349981Y-34499501D01*
X90247203Y-34510000D01*
X90247200Y-34510001D01*
X90080668Y-34565185D01*
X90080663Y-34565187D01*
X89931342Y-34657289D01*
X89807289Y-34781342D01*
X89711551Y-34936559D01*
X89659603Y-34983283D01*
X89590640Y-34994506D01*
X89526558Y-34966662D01*
X89518331Y-34959143D01*
X89379464Y-34820276D01*
X89379459Y-34820272D01*
X89207557Y-34695379D01*
X89018215Y-34598903D01*
X88816124Y-34533241D01*
X88750000Y-34522768D01*
X88750000Y-35566988D01*
X88692993Y-35534075D01*
X88565826Y-35500000D01*
X88434174Y-35500000D01*
X88307007Y-35534075D01*
X88250000Y-35566988D01*
X88250000Y-34522768D01*
X88249999Y-34522768D01*
X88183875Y-34533241D01*
X87981784Y-34598903D01*
X87792442Y-34695379D01*
X87620540Y-34820272D01*
X87620535Y-34820276D01*
X87470276Y-34970535D01*
X87470272Y-34970540D01*
X87345379Y-35142442D01*
X87248904Y-35331782D01*
X87183242Y-35533869D01*
X87183242Y-35533872D01*
X87150000Y-35743753D01*
X87150000Y-35750000D01*
X88066988Y-35750000D01*
X88034075Y-35807007D01*
X88000000Y-35934174D01*
X88000000Y-36065826D01*
X88034075Y-36192993D01*
X88066988Y-36250000D01*
X87150000Y-36250000D01*
X87150000Y-36256246D01*
X87183242Y-36466127D01*
X87183242Y-36466130D01*
X87248904Y-36668217D01*
X87345379Y-36857557D01*
X87470272Y-37029459D01*
X87470276Y-37029464D01*
X87620535Y-37179723D01*
X87620540Y-37179727D01*
X87792442Y-37304620D01*
X87981782Y-37401095D01*
X88183871Y-37466757D01*
X88250000Y-37477231D01*
X88250000Y-36433012D01*
X88307007Y-36465925D01*
X88434174Y-36500000D01*
X88565826Y-36500000D01*
X88692993Y-36465925D01*
X88750000Y-36433012D01*
X88750000Y-37477230D01*
X88816126Y-37466757D01*
X88816129Y-37466757D01*
X89018217Y-37401095D01*
X89207557Y-37304620D01*
X89379458Y-37179728D01*
X89518330Y-37040856D01*
X89579653Y-37007371D01*
X89649345Y-37012355D01*
X89705279Y-37054226D01*
X89711551Y-37063440D01*
X89715185Y-37069331D01*
X89715186Y-37069334D01*
X89807288Y-37218656D01*
X89931344Y-37342712D01*
X90080666Y-37434814D01*
X90247203Y-37489999D01*
X90349991Y-37500500D01*
X91650008Y-37500499D01*
X91752797Y-37489999D01*
X91919334Y-37434814D01*
X92068656Y-37342712D01*
X92192712Y-37218656D01*
X92284814Y-37069334D01*
X92339999Y-36902797D01*
X92350500Y-36800009D01*
X92350499Y-35199992D01*
X92339999Y-35097203D01*
X92307037Y-34997733D01*
X92304636Y-34927907D01*
X92340367Y-34867865D01*
X92402888Y-34836672D01*
X92448935Y-34837114D01*
X92488270Y-34844937D01*
X92516230Y-34850499D01*
X92516232Y-34850500D01*
X92516233Y-34850500D01*
X92683768Y-34850500D01*
X92683769Y-34850499D01*
X92848082Y-34817816D01*
X93002863Y-34753703D01*
X93142162Y-34660626D01*
X93260626Y-34542162D01*
X93353703Y-34402863D01*
X93417816Y-34248082D01*
X93450500Y-34083767D01*
X93450500Y-33916233D01*
X93417816Y-33751918D01*
X93353703Y-33597137D01*
X93308877Y-33530050D01*
X93260626Y-33457837D01*
X93142162Y-33339373D01*
X93037923Y-33269723D01*
X93002863Y-33246297D01*
X92984187Y-33238561D01*
X92929784Y-33194720D01*
X92907719Y-33128426D01*
X92924998Y-33060727D01*
X92976135Y-33013116D01*
X93031640Y-33000000D01*
X100668360Y-33000000D01*
X100735399Y-33019685D01*
X100781154Y-33072489D01*
X100791098Y-33141647D01*
X100762073Y-33205203D01*
X100715813Y-33238561D01*
X100697138Y-33246296D01*
X100557837Y-33339373D01*
X100439373Y-33457837D01*
X100346295Y-33597139D01*
X100282184Y-33751917D01*
X100282182Y-33751925D01*
X100249500Y-33916228D01*
X100249500Y-34083771D01*
X100282182Y-34248074D01*
X100282185Y-34248086D01*
X100317269Y-34332786D01*
X100324738Y-34402255D01*
X100293463Y-34464734D01*
X100233374Y-34500386D01*
X100190106Y-34503596D01*
X100150011Y-34499500D01*
X98849998Y-34499500D01*
X98849981Y-34499501D01*
X98747203Y-34510000D01*
X98747200Y-34510001D01*
X98580668Y-34565185D01*
X98580663Y-34565187D01*
X98431342Y-34657289D01*
X98307289Y-34781342D01*
X98211551Y-34936559D01*
X98159603Y-34983283D01*
X98090640Y-34994506D01*
X98026558Y-34966662D01*
X98018331Y-34959143D01*
X97879464Y-34820276D01*
X97879459Y-34820272D01*
X97707557Y-34695379D01*
X97518215Y-34598903D01*
X97316124Y-34533241D01*
X97250000Y-34522768D01*
X97250000Y-35566988D01*
X97192993Y-35534075D01*
X97065826Y-35500000D01*
X96934174Y-35500000D01*
X96807007Y-35534075D01*
X96750000Y-35566988D01*
X96750000Y-34522768D01*
X96749999Y-34522768D01*
X96683875Y-34533241D01*
X96481784Y-34598903D01*
X96292442Y-34695379D01*
X96120540Y-34820272D01*
X96120535Y-34820276D01*
X95970276Y-34970535D01*
X95970272Y-34970540D01*
X95845379Y-35142442D01*
X95748904Y-35331782D01*
X95683242Y-35533869D01*
X95683242Y-35533872D01*
X95650000Y-35743753D01*
X95650000Y-35750000D01*
X96566988Y-35750000D01*
X96534075Y-35807007D01*
X96500000Y-35934174D01*
X96500000Y-36065826D01*
X96534075Y-36192993D01*
X96566988Y-36250000D01*
X95650000Y-36250000D01*
X95650000Y-36256246D01*
X95683242Y-36466127D01*
X95683242Y-36466130D01*
X95748904Y-36668217D01*
X95845379Y-36857557D01*
X95970272Y-37029459D01*
X95970276Y-37029464D01*
X96120535Y-37179723D01*
X96120540Y-37179727D01*
X96292442Y-37304620D01*
X96481782Y-37401095D01*
X96683871Y-37466757D01*
X96750000Y-37477231D01*
X96750000Y-36433012D01*
X96807007Y-36465925D01*
X96934174Y-36500000D01*
X97065826Y-36500000D01*
X97192993Y-36465925D01*
X97250000Y-36433012D01*
X97250000Y-37477230D01*
X97316126Y-37466757D01*
X97316129Y-37466757D01*
X97518217Y-37401095D01*
X97707557Y-37304620D01*
X97879458Y-37179728D01*
X98018330Y-37040856D01*
X98079653Y-37007371D01*
X98149345Y-37012355D01*
X98205279Y-37054226D01*
X98211551Y-37063440D01*
X98215185Y-37069331D01*
X98215186Y-37069334D01*
X98307288Y-37218656D01*
X98431344Y-37342712D01*
X98580666Y-37434814D01*
X98747203Y-37489999D01*
X98849991Y-37500500D01*
X100150008Y-37500499D01*
X100252797Y-37489999D01*
X100419334Y-37434814D01*
X100568656Y-37342712D01*
X100692712Y-37218656D01*
X100784814Y-37069334D01*
X100839999Y-36902797D01*
X100850500Y-36800009D01*
X100850499Y-35199992D01*
X100839999Y-35097203D01*
X100807037Y-34997733D01*
X100804636Y-34927907D01*
X100840367Y-34867865D01*
X100902888Y-34836672D01*
X100948935Y-34837114D01*
X100988270Y-34844937D01*
X101016230Y-34850499D01*
X101016232Y-34850500D01*
X101016233Y-34850500D01*
X101183768Y-34850500D01*
X101183769Y-34850499D01*
X101348082Y-34817816D01*
X101502863Y-34753703D01*
X101642162Y-34660626D01*
X101760626Y-34542162D01*
X101766587Y-34533241D01*
X101772898Y-34523797D01*
X101826510Y-34478991D01*
X101895835Y-34470284D01*
X101958862Y-34500438D01*
X101995582Y-34559881D01*
X102000000Y-34592687D01*
X102000000Y-39376000D01*
X101980315Y-39443039D01*
X101927511Y-39488794D01*
X101876000Y-39500000D01*
X94000000Y-39500000D01*
X94000000Y-47582052D01*
X93980315Y-47649091D01*
X93927511Y-47694846D01*
X93900192Y-47703669D01*
X93766508Y-47730261D01*
X93766498Y-47730264D01*
X93620827Y-47790602D01*
X93620814Y-47790609D01*
X93489711Y-47878210D01*
X93489707Y-47878213D01*
X93378213Y-47989707D01*
X93378210Y-47989711D01*
X93290609Y-48120814D01*
X93290602Y-48120827D01*
X93230264Y-48266498D01*
X93230261Y-48266510D01*
X93199500Y-48421153D01*
X93199500Y-48578846D01*
X93230261Y-48733489D01*
X93230264Y-48733501D01*
X93290602Y-48879172D01*
X93290609Y-48879185D01*
X93378210Y-49010288D01*
X93378213Y-49010292D01*
X93489707Y-49121786D01*
X93489711Y-49121789D01*
X93620814Y-49209390D01*
X93620827Y-49209397D01*
X93758683Y-49266498D01*
X93766503Y-49269737D01*
X93818130Y-49280006D01*
X93900191Y-49296330D01*
X93962102Y-49328715D01*
X93996677Y-49389431D01*
X94000000Y-49417947D01*
X94000000Y-67376000D01*
X93980315Y-67443039D01*
X93927511Y-67488794D01*
X93876000Y-67500000D01*
X87183440Y-67500000D01*
X87116401Y-67480315D01*
X87095759Y-67463681D01*
X86701989Y-67069911D01*
X86668504Y-67008588D01*
X86673488Y-66938896D01*
X86686569Y-66913338D01*
X86709394Y-66879179D01*
X86769737Y-66733497D01*
X86800500Y-66578842D01*
X86800500Y-66421158D01*
X86800500Y-66421155D01*
X86800499Y-66421153D01*
X86769738Y-66266510D01*
X86769737Y-66266503D01*
X86709794Y-66121786D01*
X86709397Y-66120827D01*
X86709390Y-66120814D01*
X86621789Y-65989711D01*
X86621786Y-65989707D01*
X86510292Y-65878213D01*
X86510288Y-65878210D01*
X86379185Y-65790609D01*
X86379169Y-65790601D01*
X86377038Y-65789718D01*
X86376094Y-65788957D01*
X86373809Y-65787736D01*
X86374040Y-65787302D01*
X86322638Y-65745873D01*
X86300579Y-65679577D01*
X86300500Y-65675161D01*
X86300500Y-65421153D01*
X88699500Y-65421153D01*
X88699500Y-65578846D01*
X88730261Y-65733489D01*
X88730264Y-65733501D01*
X88790602Y-65879172D01*
X88790609Y-65879185D01*
X88878210Y-66010288D01*
X88878213Y-66010292D01*
X88989707Y-66121786D01*
X88989711Y-66121789D01*
X89120814Y-66209390D01*
X89120827Y-66209397D01*
X89258683Y-66266498D01*
X89266503Y-66269737D01*
X89421153Y-66300499D01*
X89421156Y-66300500D01*
X89421158Y-66300500D01*
X89578844Y-66300500D01*
X89578845Y-66300499D01*
X89733497Y-66269737D01*
X89879179Y-66209394D01*
X90010289Y-66121789D01*
X90121789Y-66010289D01*
X90209394Y-65879179D01*
X90269737Y-65733497D01*
X90300500Y-65578842D01*
X90300500Y-65421158D01*
X90300500Y-65421155D01*
X90300499Y-65421153D01*
X90269738Y-65266510D01*
X90269737Y-65266503D01*
X90269735Y-65266498D01*
X90209397Y-65120827D01*
X90209390Y-65120814D01*
X90121789Y-64989711D01*
X90121786Y-64989707D01*
X90010292Y-64878213D01*
X90010288Y-64878210D01*
X89879185Y-64790609D01*
X89879172Y-64790602D01*
X89733501Y-64730264D01*
X89733489Y-64730261D01*
X89578845Y-64699500D01*
X89578842Y-64699500D01*
X89421158Y-64699500D01*
X89421155Y-64699500D01*
X89266510Y-64730261D01*
X89266498Y-64730264D01*
X89120827Y-64790602D01*
X89120814Y-64790609D01*
X88989711Y-64878210D01*
X88989707Y-64878213D01*
X88878213Y-64989707D01*
X88878210Y-64989711D01*
X88790609Y-65120814D01*
X88790602Y-65120827D01*
X88730264Y-65266498D01*
X88730261Y-65266510D01*
X88699500Y-65421153D01*
X86300500Y-65421153D01*
X86300500Y-59421155D01*
X86300499Y-59421153D01*
X86294737Y-59392184D01*
X86269737Y-59266503D01*
X86250561Y-59220208D01*
X86209397Y-59120827D01*
X86209390Y-59120814D01*
X86121789Y-58989711D01*
X86121786Y-58989707D01*
X86010292Y-58878213D01*
X86010288Y-58878210D01*
X85879185Y-58790609D01*
X85879172Y-58790602D01*
X85733501Y-58730264D01*
X85733495Y-58730262D01*
X85728691Y-58729307D01*
X85666781Y-58696920D01*
X85632209Y-58636203D01*
X85628899Y-58605901D01*
X85682301Y-54921153D01*
X88699500Y-54921153D01*
X88699500Y-55078846D01*
X88730261Y-55233489D01*
X88730264Y-55233501D01*
X88790602Y-55379172D01*
X88790609Y-55379185D01*
X88878210Y-55510288D01*
X88878213Y-55510292D01*
X88989707Y-55621786D01*
X88989711Y-55621789D01*
X89120814Y-55709390D01*
X89120827Y-55709397D01*
X89266498Y-55769735D01*
X89266503Y-55769737D01*
X89421153Y-55800499D01*
X89421156Y-55800500D01*
X89421158Y-55800500D01*
X89578844Y-55800500D01*
X89578845Y-55800499D01*
X89733497Y-55769737D01*
X89879179Y-55709394D01*
X90010289Y-55621789D01*
X90121789Y-55510289D01*
X90209394Y-55379179D01*
X90269737Y-55233497D01*
X90300500Y-55078842D01*
X90300500Y-54921158D01*
X90300500Y-54921155D01*
X90300499Y-54921153D01*
X90269738Y-54766510D01*
X90269737Y-54766503D01*
X90262905Y-54750008D01*
X90209397Y-54620827D01*
X90209390Y-54620814D01*
X90121789Y-54489711D01*
X90121786Y-54489707D01*
X90010292Y-54378213D01*
X90010288Y-54378210D01*
X89879185Y-54290609D01*
X89879172Y-54290602D01*
X89733501Y-54230264D01*
X89733489Y-54230261D01*
X89578845Y-54199500D01*
X89578842Y-54199500D01*
X89421158Y-54199500D01*
X89421155Y-54199500D01*
X89266510Y-54230261D01*
X89266498Y-54230264D01*
X89120827Y-54290602D01*
X89120814Y-54290609D01*
X88989711Y-54378210D01*
X88989707Y-54378213D01*
X88878213Y-54489707D01*
X88878210Y-54489711D01*
X88790609Y-54620814D01*
X88790602Y-54620827D01*
X88730264Y-54766498D01*
X88730261Y-54766510D01*
X88699500Y-54921153D01*
X85682301Y-54921153D01*
X85725780Y-51921153D01*
X86699500Y-51921153D01*
X86699500Y-52078846D01*
X86730261Y-52233489D01*
X86730264Y-52233501D01*
X86790602Y-52379172D01*
X86790609Y-52379185D01*
X86878210Y-52510288D01*
X86878213Y-52510292D01*
X86989707Y-52621786D01*
X86989711Y-52621789D01*
X87120814Y-52709390D01*
X87120827Y-52709397D01*
X87242998Y-52760001D01*
X87266503Y-52769737D01*
X87421153Y-52800499D01*
X87421156Y-52800500D01*
X87421158Y-52800500D01*
X87578844Y-52800500D01*
X87578845Y-52800499D01*
X87733497Y-52769737D01*
X87879179Y-52709394D01*
X88010289Y-52621789D01*
X88121789Y-52510289D01*
X88209394Y-52379179D01*
X88269737Y-52233497D01*
X88300500Y-52078842D01*
X88300500Y-51921158D01*
X88300500Y-51921155D01*
X88300499Y-51921153D01*
X88269738Y-51766510D01*
X88269737Y-51766503D01*
X88244795Y-51706287D01*
X88209397Y-51620827D01*
X88209390Y-51620814D01*
X88121789Y-51489711D01*
X88121786Y-51489707D01*
X88010292Y-51378213D01*
X88010288Y-51378210D01*
X87879185Y-51290609D01*
X87879172Y-51290602D01*
X87733501Y-51230264D01*
X87733489Y-51230261D01*
X87578845Y-51199500D01*
X87578842Y-51199500D01*
X87421158Y-51199500D01*
X87421155Y-51199500D01*
X87266510Y-51230261D01*
X87266498Y-51230264D01*
X87120827Y-51290602D01*
X87120814Y-51290609D01*
X86989711Y-51378210D01*
X86989707Y-51378213D01*
X86878213Y-51489707D01*
X86878210Y-51489711D01*
X86790609Y-51620814D01*
X86790602Y-51620827D01*
X86730264Y-51766498D01*
X86730261Y-51766510D01*
X86699500Y-51921153D01*
X85725780Y-51921153D01*
X85751005Y-50180630D01*
X85771658Y-50113888D01*
X85825120Y-50068903D01*
X85894415Y-50059963D01*
X85957543Y-50089906D01*
X85962672Y-50094751D01*
X85989707Y-50121786D01*
X85989711Y-50121789D01*
X86120814Y-50209390D01*
X86120827Y-50209397D01*
X86266498Y-50269735D01*
X86266503Y-50269737D01*
X86421153Y-50300499D01*
X86421156Y-50300500D01*
X86421158Y-50300500D01*
X86578844Y-50300500D01*
X86578845Y-50300499D01*
X86733497Y-50269737D01*
X86879179Y-50209394D01*
X87010289Y-50121789D01*
X87121789Y-50010289D01*
X87209394Y-49879179D01*
X87269737Y-49733497D01*
X87300500Y-49578842D01*
X87300500Y-49421158D01*
X87300500Y-49421155D01*
X87300499Y-49421153D01*
X87269738Y-49266510D01*
X87269737Y-49266503D01*
X87209794Y-49121786D01*
X87209397Y-49120827D01*
X87209390Y-49120814D01*
X87121789Y-48989711D01*
X87121786Y-48989707D01*
X87010292Y-48878213D01*
X87010288Y-48878210D01*
X86879185Y-48790609D01*
X86879172Y-48790602D01*
X86733501Y-48730264D01*
X86733489Y-48730261D01*
X86578845Y-48699500D01*
X86578842Y-48699500D01*
X86421158Y-48699500D01*
X86421155Y-48699500D01*
X86266510Y-48730261D01*
X86266498Y-48730264D01*
X86120827Y-48790602D01*
X86120814Y-48790609D01*
X85989711Y-48878210D01*
X85989705Y-48878215D01*
X85982739Y-48885181D01*
X85921415Y-48918663D01*
X85851723Y-48913676D01*
X85795792Y-48871802D01*
X85771378Y-48806337D01*
X85771076Y-48795741D01*
X85801120Y-46722702D01*
X85821774Y-46655956D01*
X85875236Y-46610971D01*
X85925107Y-46600500D01*
X87102044Y-46600500D01*
X87169083Y-46620185D01*
X87214838Y-46672989D01*
X87223661Y-46700309D01*
X87230261Y-46733489D01*
X87230264Y-46733501D01*
X87290602Y-46879172D01*
X87290609Y-46879185D01*
X87378210Y-47010288D01*
X87378213Y-47010292D01*
X87489707Y-47121786D01*
X87489711Y-47121789D01*
X87620814Y-47209390D01*
X87620827Y-47209397D01*
X87766498Y-47269735D01*
X87766503Y-47269737D01*
X87921153Y-47300499D01*
X87921156Y-47300500D01*
X87921158Y-47300500D01*
X88078844Y-47300500D01*
X88078845Y-47300499D01*
X88233497Y-47269737D01*
X88379179Y-47209394D01*
X88510289Y-47121789D01*
X88621789Y-47010289D01*
X88709394Y-46879179D01*
X88769737Y-46733497D01*
X88800500Y-46578842D01*
X88800500Y-46421158D01*
X88800500Y-46421155D01*
X88800499Y-46421153D01*
X88769737Y-46266503D01*
X88755356Y-46231784D01*
X88709397Y-46120827D01*
X88709390Y-46120814D01*
X88621789Y-45989711D01*
X88621786Y-45989707D01*
X88510292Y-45878213D01*
X88510288Y-45878210D01*
X88379185Y-45790609D01*
X88379172Y-45790602D01*
X88233501Y-45730264D01*
X88233491Y-45730261D01*
X88078151Y-45699362D01*
X88061394Y-45690596D01*
X88042916Y-45686577D01*
X88017875Y-45667831D01*
X88016241Y-45666977D01*
X88014664Y-45665428D01*
X88014660Y-45665425D01*
X87980520Y-45631284D01*
X87868717Y-45519481D01*
X87868716Y-45519480D01*
X87781904Y-45469360D01*
X87781904Y-45469359D01*
X87781900Y-45469358D01*
X87731785Y-45440423D01*
X87579057Y-45399499D01*
X87420943Y-45399499D01*
X87413347Y-45399499D01*
X87413331Y-45399500D01*
X85946107Y-45399500D01*
X85879068Y-45379815D01*
X85833313Y-45327011D01*
X85822120Y-45273703D01*
X85843471Y-43800499D01*
X85856215Y-42921153D01*
X87699500Y-42921153D01*
X87699500Y-43078846D01*
X87730261Y-43233489D01*
X87730264Y-43233501D01*
X87790602Y-43379172D01*
X87790609Y-43379185D01*
X87878210Y-43510288D01*
X87878213Y-43510292D01*
X87989707Y-43621786D01*
X87989711Y-43621789D01*
X88120814Y-43709390D01*
X88120827Y-43709397D01*
X88266498Y-43769735D01*
X88266503Y-43769737D01*
X88421153Y-43800499D01*
X88421156Y-43800500D01*
X88421158Y-43800500D01*
X88578844Y-43800500D01*
X88578845Y-43800499D01*
X88733497Y-43769737D01*
X88879179Y-43709394D01*
X89010289Y-43621789D01*
X89121789Y-43510289D01*
X89209394Y-43379179D01*
X89269737Y-43233497D01*
X89300500Y-43078842D01*
X89300500Y-42921158D01*
X89300500Y-42921155D01*
X89300499Y-42921153D01*
X90199500Y-42921153D01*
X90199500Y-43078846D01*
X90230261Y-43233489D01*
X90230264Y-43233501D01*
X90290602Y-43379172D01*
X90290609Y-43379185D01*
X90378210Y-43510288D01*
X90378213Y-43510292D01*
X90489707Y-43621786D01*
X90489711Y-43621789D01*
X90620814Y-43709390D01*
X90620827Y-43709397D01*
X90766498Y-43769735D01*
X90766503Y-43769737D01*
X90921153Y-43800499D01*
X90921156Y-43800500D01*
X90921158Y-43800500D01*
X91078844Y-43800500D01*
X91078845Y-43800499D01*
X91233497Y-43769737D01*
X91379179Y-43709394D01*
X91510289Y-43621789D01*
X91621789Y-43510289D01*
X91709394Y-43379179D01*
X91769737Y-43233497D01*
X91800500Y-43078842D01*
X91800500Y-42921158D01*
X91800500Y-42921155D01*
X91800499Y-42921153D01*
X91791875Y-42877797D01*
X91769737Y-42766503D01*
X91769735Y-42766498D01*
X91709397Y-42620827D01*
X91709390Y-42620814D01*
X91621789Y-42489711D01*
X91621786Y-42489707D01*
X91510292Y-42378213D01*
X91510288Y-42378210D01*
X91379185Y-42290609D01*
X91379172Y-42290602D01*
X91233501Y-42230264D01*
X91233489Y-42230261D01*
X91078845Y-42199500D01*
X91078842Y-42199500D01*
X90921158Y-42199500D01*
X90921155Y-42199500D01*
X90766510Y-42230261D01*
X90766498Y-42230264D01*
X90620827Y-42290602D01*
X90620814Y-42290609D01*
X90489711Y-42378210D01*
X90489707Y-42378213D01*
X90378213Y-42489707D01*
X90378210Y-42489711D01*
X90290609Y-42620814D01*
X90290602Y-42620827D01*
X90230264Y-42766498D01*
X90230261Y-42766510D01*
X90199500Y-42921153D01*
X89300499Y-42921153D01*
X89291875Y-42877797D01*
X89269737Y-42766503D01*
X89269735Y-42766498D01*
X89209397Y-42620827D01*
X89209390Y-42620814D01*
X89121789Y-42489711D01*
X89121786Y-42489707D01*
X89010292Y-42378213D01*
X89010288Y-42378210D01*
X88879185Y-42290609D01*
X88879172Y-42290602D01*
X88733501Y-42230264D01*
X88733489Y-42230261D01*
X88578845Y-42199500D01*
X88578842Y-42199500D01*
X88421158Y-42199500D01*
X88421155Y-42199500D01*
X88266510Y-42230261D01*
X88266498Y-42230264D01*
X88120827Y-42290602D01*
X88120814Y-42290609D01*
X87989711Y-42378210D01*
X87989707Y-42378213D01*
X87878213Y-42489707D01*
X87878210Y-42489711D01*
X87790609Y-42620814D01*
X87790602Y-42620827D01*
X87730264Y-42766498D01*
X87730261Y-42766510D01*
X87699500Y-42921153D01*
X85856215Y-42921153D01*
X85906940Y-39421153D01*
X90199500Y-39421153D01*
X90199500Y-39578846D01*
X90230261Y-39733489D01*
X90230264Y-39733501D01*
X90290602Y-39879172D01*
X90290609Y-39879185D01*
X90378210Y-40010288D01*
X90378213Y-40010292D01*
X90489707Y-40121786D01*
X90489711Y-40121789D01*
X90620814Y-40209390D01*
X90620827Y-40209397D01*
X90766498Y-40269735D01*
X90766503Y-40269737D01*
X90921153Y-40300499D01*
X90921156Y-40300500D01*
X90921158Y-40300500D01*
X91078844Y-40300500D01*
X91078845Y-40300499D01*
X91233497Y-40269737D01*
X91379179Y-40209394D01*
X91510289Y-40121789D01*
X91621789Y-40010289D01*
X91709394Y-39879179D01*
X91769737Y-39733497D01*
X91800500Y-39578842D01*
X91800500Y-39421158D01*
X91800500Y-39421155D01*
X91800499Y-39421153D01*
X91769738Y-39266510D01*
X91769737Y-39266503D01*
X91769735Y-39266498D01*
X91709397Y-39120827D01*
X91709390Y-39120814D01*
X91621789Y-38989711D01*
X91621786Y-38989707D01*
X91510292Y-38878213D01*
X91510288Y-38878210D01*
X91379185Y-38790609D01*
X91379172Y-38790602D01*
X91233501Y-38730264D01*
X91233489Y-38730261D01*
X91078845Y-38699500D01*
X91078842Y-38699500D01*
X90921158Y-38699500D01*
X90921155Y-38699500D01*
X90766510Y-38730261D01*
X90766498Y-38730264D01*
X90620827Y-38790602D01*
X90620814Y-38790609D01*
X90489711Y-38878210D01*
X90489707Y-38878213D01*
X90378213Y-38989707D01*
X90378210Y-38989711D01*
X90290609Y-39120814D01*
X90290602Y-39120827D01*
X90230264Y-39266498D01*
X90230261Y-39266510D01*
X90199500Y-39421153D01*
X85906940Y-39421153D01*
X85992739Y-33501025D01*
X85998229Y-33122203D01*
X86018883Y-33055456D01*
X86072344Y-33010471D01*
X86122216Y-33000000D01*
X92168360Y-33000000D01*
X92235399Y-33019685D01*
G37*
%TD.AperFunction*%
%TD*%
%TA.AperFunction,Conductor*%
%TO.N,+3V3*%
G36*
X70342539Y-42019685D02*
G01*
X70388294Y-42072489D01*
X70399500Y-42124000D01*
X70399500Y-45199902D01*
X70379815Y-45266941D01*
X70363181Y-45287583D01*
X69985339Y-45665425D01*
X69924016Y-45698910D01*
X69921850Y-45699361D01*
X69766508Y-45730261D01*
X69766498Y-45730264D01*
X69620827Y-45790602D01*
X69620814Y-45790609D01*
X69489711Y-45878210D01*
X69489707Y-45878213D01*
X69378213Y-45989707D01*
X69378210Y-45989711D01*
X69290609Y-46120814D01*
X69290602Y-46120827D01*
X69230264Y-46266498D01*
X69230261Y-46266510D01*
X69199500Y-46421153D01*
X69199500Y-46578846D01*
X69230261Y-46733489D01*
X69230264Y-46733501D01*
X69290602Y-46879172D01*
X69290609Y-46879185D01*
X69378210Y-47010288D01*
X69378213Y-47010292D01*
X69489707Y-47121786D01*
X69489711Y-47121789D01*
X69620814Y-47209390D01*
X69620827Y-47209397D01*
X69766498Y-47269735D01*
X69766503Y-47269737D01*
X69921153Y-47300499D01*
X69921156Y-47300500D01*
X69921158Y-47300500D01*
X70078844Y-47300500D01*
X70078845Y-47300499D01*
X70233497Y-47269737D01*
X70379179Y-47209394D01*
X70510289Y-47121789D01*
X70621789Y-47010289D01*
X70681348Y-46921153D01*
X75699500Y-46921153D01*
X75699500Y-47078846D01*
X75730261Y-47233489D01*
X75730264Y-47233501D01*
X75790602Y-47379172D01*
X75790609Y-47379185D01*
X75878210Y-47510288D01*
X75878213Y-47510292D01*
X75989707Y-47621786D01*
X75989711Y-47621789D01*
X76120814Y-47709390D01*
X76120827Y-47709397D01*
X76266498Y-47769735D01*
X76266503Y-47769737D01*
X76421153Y-47800499D01*
X76421156Y-47800500D01*
X76421158Y-47800500D01*
X76578844Y-47800500D01*
X76578845Y-47800499D01*
X76733497Y-47769737D01*
X76879179Y-47709394D01*
X77010289Y-47621789D01*
X77121789Y-47510289D01*
X77209394Y-47379179D01*
X77269737Y-47233497D01*
X77300500Y-47078842D01*
X77300500Y-46921158D01*
X77300500Y-46921155D01*
X77300499Y-46921153D01*
X77289849Y-46867611D01*
X77269737Y-46766503D01*
X77209794Y-46621786D01*
X77209397Y-46620827D01*
X77209390Y-46620814D01*
X77121789Y-46489711D01*
X77121786Y-46489707D01*
X77010292Y-46378213D01*
X77010288Y-46378210D01*
X76879185Y-46290609D01*
X76879172Y-46290602D01*
X76733501Y-46230264D01*
X76733489Y-46230261D01*
X76578845Y-46199500D01*
X76578842Y-46199500D01*
X76421158Y-46199500D01*
X76421155Y-46199500D01*
X76266510Y-46230261D01*
X76266498Y-46230264D01*
X76120827Y-46290602D01*
X76120814Y-46290609D01*
X75989711Y-46378210D01*
X75989707Y-46378213D01*
X75878213Y-46489707D01*
X75878210Y-46489711D01*
X75790609Y-46620814D01*
X75790602Y-46620827D01*
X75730264Y-46766498D01*
X75730261Y-46766510D01*
X75699500Y-46921153D01*
X70681348Y-46921153D01*
X70709394Y-46879179D01*
X70769737Y-46733497D01*
X70793002Y-46616539D01*
X70800638Y-46578150D01*
X70833023Y-46516239D01*
X70834515Y-46514719D01*
X71480520Y-45868716D01*
X71559577Y-45731784D01*
X71600501Y-45579057D01*
X71600501Y-45420942D01*
X71600501Y-45413347D01*
X71600500Y-45413329D01*
X71600500Y-42124000D01*
X71620185Y-42056961D01*
X71672989Y-42011206D01*
X71724500Y-42000000D01*
X78316559Y-42000000D01*
X78383598Y-42019685D01*
X78404240Y-42036319D01*
X78489707Y-42121786D01*
X78489711Y-42121789D01*
X78620814Y-42209390D01*
X78620827Y-42209397D01*
X78766498Y-42269735D01*
X78766503Y-42269737D01*
X78921153Y-42300499D01*
X78921156Y-42300500D01*
X78921158Y-42300500D01*
X79078844Y-42300500D01*
X79078845Y-42300499D01*
X79233497Y-42269737D01*
X79379179Y-42209394D01*
X79510289Y-42121789D01*
X79510292Y-42121786D01*
X79595760Y-42036319D01*
X79657083Y-42002834D01*
X79683441Y-42000000D01*
X82376000Y-42000000D01*
X82443039Y-42019685D01*
X82488794Y-42072489D01*
X82500000Y-42124000D01*
X82500000Y-48655072D01*
X82480315Y-48722111D01*
X82427511Y-48767866D01*
X82358353Y-48777810D01*
X82328548Y-48769634D01*
X82319471Y-48765874D01*
X82233497Y-48730263D01*
X82233492Y-48730262D01*
X82233489Y-48730261D01*
X82078845Y-48699500D01*
X82078842Y-48699500D01*
X81921158Y-48699500D01*
X81921155Y-48699500D01*
X81766510Y-48730261D01*
X81766498Y-48730264D01*
X81620827Y-48790602D01*
X81620814Y-48790609D01*
X81489711Y-48878210D01*
X81489707Y-48878213D01*
X81378213Y-48989707D01*
X81378210Y-48989711D01*
X81290609Y-49120814D01*
X81290602Y-49120827D01*
X81230264Y-49266498D01*
X81230261Y-49266510D01*
X81199500Y-49421153D01*
X81199500Y-49578846D01*
X81230261Y-49733489D01*
X81230264Y-49733501D01*
X81290602Y-49879172D01*
X81290609Y-49879185D01*
X81378210Y-50010288D01*
X81378213Y-50010292D01*
X81489707Y-50121786D01*
X81489710Y-50121788D01*
X81489711Y-50121789D01*
X81515219Y-50138833D01*
X81527289Y-50146898D01*
X81572093Y-50200511D01*
X81580800Y-50269836D01*
X81550645Y-50332863D01*
X81527289Y-50353102D01*
X81489707Y-50378213D01*
X81378213Y-50489707D01*
X81378210Y-50489711D01*
X81290609Y-50620814D01*
X81290602Y-50620827D01*
X81230264Y-50766498D01*
X81230261Y-50766510D01*
X81199500Y-50921153D01*
X81199500Y-51078846D01*
X81230261Y-51233489D01*
X81230264Y-51233501D01*
X81290602Y-51379172D01*
X81290609Y-51379185D01*
X81378210Y-51510288D01*
X81378213Y-51510292D01*
X81489707Y-51621786D01*
X81489711Y-51621789D01*
X81620814Y-51709390D01*
X81620827Y-51709397D01*
X81758695Y-51766503D01*
X81766503Y-51769737D01*
X81921153Y-51800499D01*
X81921156Y-51800500D01*
X81921158Y-51800500D01*
X82078844Y-51800500D01*
X82078845Y-51800499D01*
X82233497Y-51769737D01*
X82328547Y-51730365D01*
X82398017Y-51722897D01*
X82460496Y-51754172D01*
X82496148Y-51814261D01*
X82500000Y-51844927D01*
X82500000Y-63582052D01*
X82480315Y-63649091D01*
X82427511Y-63694846D01*
X82400192Y-63703669D01*
X82266508Y-63730261D01*
X82266498Y-63730264D01*
X82120827Y-63790602D01*
X82120814Y-63790609D01*
X81989711Y-63878210D01*
X81989706Y-63878214D01*
X81944363Y-63923557D01*
X81883040Y-63957041D01*
X81813348Y-63952056D01*
X81757415Y-63910184D01*
X81746198Y-63892170D01*
X81654624Y-63712450D01*
X81615270Y-63658282D01*
X81615269Y-63658282D01*
X80982962Y-64290590D01*
X80965925Y-64227007D01*
X80900099Y-64112993D01*
X80807007Y-64019901D01*
X80692993Y-63954075D01*
X80629409Y-63937037D01*
X81261716Y-63304728D01*
X81207547Y-63265373D01*
X81207547Y-63265372D01*
X81198500Y-63260763D01*
X81147706Y-63212788D01*
X81130912Y-63144966D01*
X81153451Y-63078832D01*
X81198508Y-63039793D01*
X81207816Y-63035051D01*
X81287007Y-62977515D01*
X81379786Y-62910109D01*
X81379788Y-62910106D01*
X81379792Y-62910104D01*
X81530104Y-62759792D01*
X81530106Y-62759788D01*
X81530109Y-62759786D01*
X81655048Y-62587820D01*
X81655047Y-62587820D01*
X81655051Y-62587816D01*
X81751557Y-62398412D01*
X81817246Y-62196243D01*
X81850500Y-61986287D01*
X81850500Y-61773713D01*
X81817246Y-61563757D01*
X81751557Y-61361588D01*
X81655051Y-61172184D01*
X81655049Y-61172181D01*
X81655048Y-61172179D01*
X81530109Y-61000213D01*
X81379786Y-60849890D01*
X81207820Y-60724951D01*
X81018414Y-60628444D01*
X81018413Y-60628443D01*
X81018412Y-60628443D01*
X80816243Y-60562754D01*
X80816241Y-60562753D01*
X80816240Y-60562753D01*
X80654957Y-60537208D01*
X80606287Y-60529500D01*
X80393713Y-60529500D01*
X80345042Y-60537208D01*
X80183760Y-60562753D01*
X79981585Y-60628444D01*
X79792179Y-60724951D01*
X79620213Y-60849890D01*
X79469890Y-61000213D01*
X79344951Y-61172179D01*
X79248444Y-61361585D01*
X79182753Y-61563760D01*
X79149500Y-61773713D01*
X79149500Y-61986286D01*
X79176418Y-62156243D01*
X79182754Y-62196243D01*
X79241879Y-62378211D01*
X79248444Y-62398414D01*
X79344951Y-62587820D01*
X79469890Y-62759786D01*
X79620213Y-62910109D01*
X79792179Y-63035048D01*
X79792181Y-63035049D01*
X79792184Y-63035051D01*
X79801493Y-63039794D01*
X79852290Y-63087766D01*
X79869087Y-63155587D01*
X79846552Y-63221722D01*
X79801505Y-63260760D01*
X79792446Y-63265376D01*
X79792440Y-63265380D01*
X79738282Y-63304727D01*
X79738282Y-63304728D01*
X80370591Y-63937037D01*
X80307007Y-63954075D01*
X80192993Y-64019901D01*
X80099901Y-64112993D01*
X80034075Y-64227007D01*
X80017037Y-64290591D01*
X79384728Y-63658282D01*
X79384727Y-63658282D01*
X79345380Y-63712439D01*
X79248904Y-63901782D01*
X79183242Y-64103869D01*
X79183242Y-64103872D01*
X79150000Y-64313753D01*
X79150000Y-64526246D01*
X79183242Y-64736127D01*
X79183242Y-64736130D01*
X79248904Y-64938217D01*
X79345375Y-65127550D01*
X79384728Y-65181716D01*
X80017037Y-64549408D01*
X80034075Y-64612993D01*
X80099901Y-64727007D01*
X80192993Y-64820099D01*
X80307007Y-64885925D01*
X80370590Y-64902962D01*
X79738282Y-65535269D01*
X79738282Y-65535270D01*
X79792452Y-65574626D01*
X79792451Y-65574626D01*
X79801495Y-65579234D01*
X79852292Y-65627208D01*
X79869087Y-65695029D01*
X79846550Y-65761164D01*
X79801499Y-65800202D01*
X79792182Y-65804949D01*
X79620213Y-65929890D01*
X79469890Y-66080213D01*
X79344951Y-66252179D01*
X79248444Y-66441585D01*
X79182753Y-66643760D01*
X79149500Y-66853713D01*
X79149500Y-67066287D01*
X79149499Y-67066287D01*
X79154948Y-67100686D01*
X79145993Y-67169979D01*
X79120156Y-67207764D01*
X78252874Y-68075048D01*
X77989711Y-68338211D01*
X77933960Y-68393962D01*
X77878209Y-68449712D01*
X77790609Y-68580814D01*
X77790604Y-68580824D01*
X77780911Y-68604226D01*
X77737070Y-68658629D01*
X77670775Y-68680694D01*
X77603076Y-68663415D01*
X77566031Y-68629658D01*
X77546029Y-68602128D01*
X77530104Y-68580208D01*
X77379792Y-68429896D01*
X77379786Y-68429890D01*
X77207820Y-68304951D01*
X77207115Y-68304591D01*
X77199054Y-68300485D01*
X77148259Y-68252512D01*
X77131463Y-68184692D01*
X77153999Y-68118556D01*
X77199054Y-68079515D01*
X77207816Y-68075051D01*
X77242498Y-68049853D01*
X77379786Y-67950109D01*
X77379788Y-67950106D01*
X77379792Y-67950104D01*
X77530104Y-67799792D01*
X77530106Y-67799788D01*
X77530109Y-67799786D01*
X77655048Y-67627820D01*
X77655047Y-67627820D01*
X77655051Y-67627816D01*
X77751557Y-67438412D01*
X77817246Y-67236243D01*
X77850500Y-67026287D01*
X77850500Y-66813713D01*
X77817246Y-66603757D01*
X77751557Y-66401588D01*
X77655051Y-66212184D01*
X77655049Y-66212181D01*
X77655048Y-66212179D01*
X77530109Y-66040213D01*
X77379786Y-65889890D01*
X77207820Y-65764951D01*
X77207115Y-65764591D01*
X77199054Y-65760485D01*
X77148259Y-65712512D01*
X77131463Y-65644692D01*
X77153999Y-65578556D01*
X77199054Y-65539515D01*
X77207816Y-65535051D01*
X77241900Y-65510288D01*
X77379786Y-65410109D01*
X77379788Y-65410106D01*
X77379792Y-65410104D01*
X77530104Y-65259792D01*
X77530106Y-65259788D01*
X77530109Y-65259786D01*
X77655048Y-65087820D01*
X77655047Y-65087820D01*
X77655051Y-65087816D01*
X77751557Y-64898412D01*
X77817246Y-64696243D01*
X77850500Y-64486287D01*
X77850500Y-64273713D01*
X77817246Y-64063757D01*
X77751557Y-63861588D01*
X77655051Y-63672184D01*
X77655049Y-63672181D01*
X77655048Y-63672179D01*
X77530109Y-63500213D01*
X77379786Y-63349890D01*
X77207820Y-63224951D01*
X77207115Y-63224591D01*
X77199054Y-63220485D01*
X77148259Y-63172512D01*
X77131463Y-63104692D01*
X77153999Y-63038556D01*
X77199054Y-62999515D01*
X77207816Y-62995051D01*
X77309522Y-62921158D01*
X77379786Y-62870109D01*
X77379788Y-62870106D01*
X77379792Y-62870104D01*
X77530104Y-62719792D01*
X77530106Y-62719788D01*
X77530109Y-62719786D01*
X77655048Y-62547820D01*
X77655047Y-62547820D01*
X77655051Y-62547816D01*
X77751557Y-62358412D01*
X77817246Y-62156243D01*
X77850500Y-61946287D01*
X77850500Y-61733713D01*
X77817246Y-61523757D01*
X77751557Y-61321588D01*
X77655051Y-61132184D01*
X77655049Y-61132181D01*
X77655048Y-61132179D01*
X77530109Y-60960213D01*
X77379786Y-60809890D01*
X77207820Y-60684951D01*
X77207115Y-60684591D01*
X77199054Y-60680485D01*
X77148259Y-60632512D01*
X77131463Y-60564692D01*
X77153999Y-60498556D01*
X77199054Y-60459515D01*
X77207816Y-60455051D01*
X77294979Y-60391724D01*
X77379786Y-60330109D01*
X77379788Y-60330106D01*
X77379792Y-60330104D01*
X77530104Y-60179792D01*
X77530106Y-60179788D01*
X77530109Y-60179786D01*
X77655048Y-60007820D01*
X77655047Y-60007820D01*
X77655051Y-60007816D01*
X77751557Y-59818412D01*
X77817246Y-59616243D01*
X77850500Y-59406287D01*
X77850500Y-59193713D01*
X77817246Y-58983757D01*
X77751557Y-58781588D01*
X77655051Y-58592184D01*
X77655049Y-58592181D01*
X77655048Y-58592179D01*
X77530109Y-58420213D01*
X77379786Y-58269890D01*
X77207820Y-58144951D01*
X77207115Y-58144591D01*
X77199054Y-58140485D01*
X77148259Y-58092512D01*
X77131463Y-58024692D01*
X77153999Y-57958556D01*
X77199054Y-57919515D01*
X77207816Y-57915051D01*
X77271595Y-57868713D01*
X77379786Y-57790109D01*
X77379788Y-57790106D01*
X77379792Y-57790104D01*
X77530104Y-57639792D01*
X77530106Y-57639788D01*
X77530109Y-57639786D01*
X77655048Y-57467820D01*
X77655047Y-57467820D01*
X77655051Y-57467816D01*
X77751557Y-57278412D01*
X77817246Y-57076243D01*
X77850500Y-56866287D01*
X77850500Y-56653713D01*
X77817246Y-56443757D01*
X77751557Y-56241588D01*
X77655051Y-56052184D01*
X77655049Y-56052181D01*
X77655048Y-56052179D01*
X77530109Y-55880213D01*
X77379786Y-55729890D01*
X77207820Y-55604951D01*
X77207115Y-55604591D01*
X77199054Y-55600485D01*
X77148259Y-55552512D01*
X77131463Y-55484692D01*
X77153999Y-55418556D01*
X77199054Y-55379515D01*
X77207816Y-55375051D01*
X77229789Y-55359086D01*
X77379786Y-55250109D01*
X77379788Y-55250106D01*
X77379792Y-55250104D01*
X77530104Y-55099792D01*
X77530106Y-55099788D01*
X77530109Y-55099786D01*
X77655048Y-54927820D01*
X77655047Y-54927820D01*
X77655051Y-54927816D01*
X77751557Y-54738412D01*
X77817246Y-54536243D01*
X77850500Y-54326287D01*
X77850500Y-54113713D01*
X77817246Y-53903757D01*
X77751557Y-53701588D01*
X77655051Y-53512184D01*
X77655049Y-53512181D01*
X77655048Y-53512179D01*
X77530109Y-53340213D01*
X77379786Y-53189890D01*
X77207820Y-53064951D01*
X77018414Y-52968444D01*
X77018413Y-52968443D01*
X77018412Y-52968443D01*
X76816243Y-52902754D01*
X76816241Y-52902753D01*
X76816240Y-52902753D01*
X76654957Y-52877208D01*
X76606287Y-52869500D01*
X76393713Y-52869500D01*
X76345042Y-52877208D01*
X76183760Y-52902753D01*
X75981585Y-52968444D01*
X75792179Y-53064951D01*
X75620213Y-53189890D01*
X75469890Y-53340213D01*
X75344951Y-53512179D01*
X75248444Y-53701585D01*
X75182753Y-53903760D01*
X75155673Y-54074737D01*
X75149500Y-54113713D01*
X75149500Y-54326287D01*
X75182754Y-54536243D01*
X75245795Y-54730263D01*
X75248444Y-54738414D01*
X75344951Y-54927820D01*
X75469890Y-55099786D01*
X75620213Y-55250109D01*
X75792182Y-55375050D01*
X75800946Y-55379516D01*
X75851742Y-55427491D01*
X75868536Y-55495312D01*
X75845998Y-55561447D01*
X75800946Y-55600484D01*
X75792182Y-55604949D01*
X75620213Y-55729890D01*
X75469890Y-55880213D01*
X75344951Y-56052179D01*
X75248444Y-56241585D01*
X75182753Y-56443760D01*
X75154710Y-56620821D01*
X75149500Y-56653713D01*
X75149500Y-56866287D01*
X75158191Y-56921158D01*
X75169048Y-56989711D01*
X75182754Y-57076243D01*
X75245624Y-57269737D01*
X75248444Y-57278414D01*
X75344951Y-57467820D01*
X75469890Y-57639786D01*
X75620213Y-57790109D01*
X75792182Y-57915050D01*
X75800946Y-57919516D01*
X75851742Y-57967491D01*
X75868536Y-58035312D01*
X75845998Y-58101447D01*
X75800946Y-58140484D01*
X75792182Y-58144949D01*
X75620213Y-58269890D01*
X75469890Y-58420213D01*
X75344951Y-58592179D01*
X75248444Y-58781585D01*
X75182753Y-58983760D01*
X75149500Y-59193713D01*
X75149500Y-59406287D01*
X75182754Y-59616243D01*
X75194458Y-59652265D01*
X75248444Y-59818414D01*
X75344951Y-60007820D01*
X75469890Y-60179786D01*
X75620213Y-60330109D01*
X75792182Y-60455050D01*
X75800946Y-60459516D01*
X75851742Y-60507491D01*
X75868536Y-60575312D01*
X75845998Y-60641447D01*
X75800946Y-60680484D01*
X75792182Y-60684949D01*
X75620213Y-60809890D01*
X75469890Y-60960213D01*
X75344951Y-61132179D01*
X75248444Y-61321585D01*
X75182753Y-61523760D01*
X75176418Y-61563760D01*
X75149500Y-61733713D01*
X75149500Y-61946287D01*
X75182754Y-62156243D01*
X75226411Y-62290606D01*
X75248444Y-62358414D01*
X75344951Y-62547820D01*
X75469890Y-62719786D01*
X75620213Y-62870109D01*
X75792182Y-62995050D01*
X75800946Y-62999516D01*
X75851742Y-63047491D01*
X75868536Y-63115312D01*
X75845998Y-63181447D01*
X75800946Y-63220484D01*
X75792182Y-63224949D01*
X75620213Y-63349890D01*
X75469890Y-63500213D01*
X75344951Y-63672179D01*
X75248444Y-63861585D01*
X75182753Y-64063760D01*
X75156382Y-64230261D01*
X75149500Y-64273713D01*
X75149500Y-64486287D01*
X75182754Y-64696243D01*
X75242192Y-64879175D01*
X75248444Y-64898414D01*
X75344951Y-65087820D01*
X75469890Y-65259786D01*
X75620213Y-65410109D01*
X75792182Y-65535050D01*
X75800946Y-65539516D01*
X75851742Y-65587491D01*
X75868536Y-65655312D01*
X75845998Y-65721447D01*
X75800946Y-65760484D01*
X75792182Y-65764949D01*
X75620213Y-65889890D01*
X75469890Y-66040213D01*
X75344951Y-66212179D01*
X75248444Y-66401585D01*
X75182753Y-66603760D01*
X75149500Y-66813713D01*
X75149500Y-67026286D01*
X75182753Y-67236239D01*
X75248444Y-67438414D01*
X75344951Y-67627820D01*
X75469890Y-67799786D01*
X75620213Y-67950109D01*
X75792182Y-68075050D01*
X75800946Y-68079516D01*
X75851742Y-68127491D01*
X75868536Y-68195312D01*
X75845998Y-68261447D01*
X75800946Y-68300484D01*
X75792182Y-68304949D01*
X75620213Y-68429890D01*
X75469890Y-68580213D01*
X75344951Y-68752179D01*
X75248444Y-68941585D01*
X75182753Y-69143760D01*
X75149500Y-69353713D01*
X75149500Y-69566286D01*
X75182753Y-69776240D01*
X75202717Y-69837682D01*
X75204712Y-69907523D01*
X75168632Y-69967356D01*
X75105931Y-69998184D01*
X75084786Y-70000000D01*
X58917947Y-70000000D01*
X58850908Y-69980315D01*
X58805153Y-69927511D01*
X58796330Y-69900191D01*
X58769738Y-69766510D01*
X58769737Y-69766503D01*
X58756066Y-69733497D01*
X58709397Y-69620827D01*
X58709390Y-69620814D01*
X58621789Y-69489711D01*
X58621786Y-69489707D01*
X58510292Y-69378213D01*
X58510288Y-69378210D01*
X58379185Y-69290609D01*
X58379172Y-69290602D01*
X58233501Y-69230264D01*
X58233489Y-69230261D01*
X58078845Y-69199500D01*
X58078842Y-69199500D01*
X57921158Y-69199500D01*
X57921155Y-69199500D01*
X57766510Y-69230261D01*
X57766498Y-69230264D01*
X57620827Y-69290602D01*
X57620814Y-69290609D01*
X57489711Y-69378210D01*
X57489707Y-69378213D01*
X57378213Y-69489707D01*
X57378210Y-69489711D01*
X57290609Y-69620814D01*
X57290602Y-69620827D01*
X57230264Y-69766498D01*
X57230261Y-69766510D01*
X57203670Y-69900191D01*
X57171285Y-69962102D01*
X57110569Y-69996677D01*
X57082053Y-70000000D01*
X48500000Y-70000000D01*
X48500000Y-89382045D01*
X48480315Y-89449084D01*
X48427511Y-89494839D01*
X48382192Y-89505890D01*
X38632629Y-89993368D01*
X38564690Y-89977056D01*
X38516356Y-89926603D01*
X38502458Y-89867230D01*
X38612570Y-83921153D01*
X43149500Y-83921153D01*
X43149500Y-84078846D01*
X43180261Y-84233489D01*
X43180264Y-84233501D01*
X43240602Y-84379172D01*
X43240609Y-84379185D01*
X43328210Y-84510288D01*
X43328213Y-84510292D01*
X43439707Y-84621786D01*
X43439711Y-84621789D01*
X43570814Y-84709390D01*
X43570827Y-84709397D01*
X43708695Y-84766503D01*
X43716503Y-84769737D01*
X43871153Y-84800499D01*
X43871156Y-84800500D01*
X43871158Y-84800500D01*
X44028844Y-84800500D01*
X44028845Y-84800499D01*
X44183497Y-84769737D01*
X44329179Y-84709394D01*
X44460289Y-84621789D01*
X44571789Y-84510289D01*
X44659394Y-84379179D01*
X44719737Y-84233497D01*
X44750500Y-84078842D01*
X44750500Y-83921158D01*
X44750500Y-83921155D01*
X44750499Y-83921153D01*
X44719737Y-83766503D01*
X44691984Y-83699500D01*
X44659397Y-83620827D01*
X44659390Y-83620814D01*
X44571789Y-83489711D01*
X44571786Y-83489707D01*
X44460292Y-83378213D01*
X44460288Y-83378210D01*
X44329185Y-83290609D01*
X44329172Y-83290602D01*
X44183501Y-83230264D01*
X44183489Y-83230261D01*
X44028845Y-83199500D01*
X44028842Y-83199500D01*
X43871158Y-83199500D01*
X43871155Y-83199500D01*
X43716510Y-83230261D01*
X43716498Y-83230264D01*
X43570827Y-83290602D01*
X43570814Y-83290609D01*
X43439711Y-83378210D01*
X43439707Y-83378213D01*
X43328213Y-83489707D01*
X43328210Y-83489711D01*
X43240609Y-83620814D01*
X43240602Y-83620827D01*
X43180264Y-83766498D01*
X43180261Y-83766510D01*
X43149500Y-83921153D01*
X38612570Y-83921153D01*
X38613252Y-83884346D01*
X38634175Y-83817686D01*
X38687817Y-83772916D01*
X38757148Y-83764255D01*
X38773230Y-83767985D01*
X38778993Y-83769733D01*
X38779003Y-83769737D01*
X38898215Y-83793450D01*
X38933653Y-83800499D01*
X38933656Y-83800500D01*
X38933658Y-83800500D01*
X39091344Y-83800500D01*
X39091345Y-83800499D01*
X39101679Y-83798443D01*
X39126787Y-83793450D01*
X39126792Y-83793449D01*
X39230015Y-83772916D01*
X39245997Y-83769737D01*
X39391679Y-83709394D01*
X39522789Y-83621789D01*
X39634289Y-83510289D01*
X39721894Y-83379179D01*
X39782237Y-83233497D01*
X39813000Y-83078842D01*
X39813000Y-82921158D01*
X39813000Y-82921155D01*
X39812999Y-82921153D01*
X39782238Y-82766510D01*
X39782237Y-82766503D01*
X39742742Y-82671153D01*
X45399500Y-82671153D01*
X45399500Y-82828846D01*
X45430261Y-82983489D01*
X45430264Y-82983501D01*
X45490602Y-83129172D01*
X45490609Y-83129185D01*
X45578210Y-83260288D01*
X45578213Y-83260292D01*
X45689707Y-83371786D01*
X45689711Y-83371789D01*
X45820814Y-83459390D01*
X45820827Y-83459397D01*
X45966498Y-83519735D01*
X45966503Y-83519737D01*
X46121153Y-83550499D01*
X46121156Y-83550500D01*
X46121158Y-83550500D01*
X46278844Y-83550500D01*
X46278845Y-83550499D01*
X46433497Y-83519737D01*
X46579179Y-83459394D01*
X46710289Y-83371789D01*
X46821789Y-83260289D01*
X46909394Y-83129179D01*
X46969737Y-82983497D01*
X47000500Y-82828842D01*
X47000500Y-82671158D01*
X47000500Y-82671155D01*
X47000499Y-82671153D01*
X46969738Y-82516510D01*
X46969737Y-82516503D01*
X46967163Y-82510289D01*
X46909397Y-82370827D01*
X46909390Y-82370814D01*
X46821789Y-82239711D01*
X46821786Y-82239707D01*
X46710292Y-82128213D01*
X46710288Y-82128210D01*
X46579185Y-82040609D01*
X46579172Y-82040602D01*
X46433501Y-81980264D01*
X46433489Y-81980261D01*
X46278845Y-81949500D01*
X46278842Y-81949500D01*
X46121158Y-81949500D01*
X46121155Y-81949500D01*
X45966510Y-81980261D01*
X45966498Y-81980264D01*
X45820827Y-82040602D01*
X45820814Y-82040609D01*
X45689711Y-82128210D01*
X45689707Y-82128213D01*
X45578213Y-82239707D01*
X45578210Y-82239711D01*
X45490609Y-82370814D01*
X45490602Y-82370827D01*
X45430264Y-82516498D01*
X45430261Y-82516510D01*
X45399500Y-82671153D01*
X39742742Y-82671153D01*
X39722295Y-82621789D01*
X39721897Y-82620827D01*
X39721890Y-82620814D01*
X39634289Y-82489711D01*
X39634286Y-82489707D01*
X39522792Y-82378213D01*
X39522788Y-82378210D01*
X39391685Y-82290609D01*
X39391672Y-82290602D01*
X39246001Y-82230264D01*
X39245989Y-82230261D01*
X39091345Y-82199500D01*
X39091342Y-82199500D01*
X38933658Y-82199500D01*
X38933653Y-82199500D01*
X38794404Y-82227198D01*
X38724812Y-82220971D01*
X38669635Y-82178107D01*
X38646391Y-82112217D01*
X38646234Y-82103325D01*
X38696212Y-79404545D01*
X38717134Y-79337886D01*
X38770776Y-79293116D01*
X38840107Y-79284455D01*
X38844370Y-79285225D01*
X38870144Y-79290352D01*
X38921156Y-79300500D01*
X38921158Y-79300500D01*
X39078844Y-79300500D01*
X39078845Y-79300499D01*
X39233497Y-79269737D01*
X39379179Y-79209394D01*
X39510289Y-79121789D01*
X39621789Y-79010289D01*
X39709394Y-78879179D01*
X39769737Y-78733497D01*
X39800500Y-78578842D01*
X39800500Y-78421158D01*
X39800500Y-78421155D01*
X39800499Y-78421153D01*
X39769738Y-78266510D01*
X39769737Y-78266503D01*
X39709795Y-78121789D01*
X39709397Y-78120827D01*
X39709390Y-78120814D01*
X39621789Y-77989711D01*
X39621786Y-77989707D01*
X39510292Y-77878213D01*
X39510288Y-77878210D01*
X39379185Y-77790609D01*
X39379172Y-77790602D01*
X39233501Y-77730264D01*
X39233489Y-77730261D01*
X39078845Y-77699500D01*
X39078842Y-77699500D01*
X38921158Y-77699500D01*
X38878091Y-77708066D01*
X38808499Y-77701837D01*
X38753322Y-77658973D01*
X38730079Y-77593083D01*
X38729922Y-77584182D01*
X38774801Y-75160719D01*
X38795724Y-75094058D01*
X38849366Y-75049288D01*
X38874577Y-75041402D01*
X38983497Y-75019737D01*
X39129179Y-74959394D01*
X39260289Y-74871789D01*
X39371789Y-74760289D01*
X39459394Y-74629179D01*
X39519737Y-74483497D01*
X39550500Y-74328842D01*
X39550500Y-74171158D01*
X39550500Y-74171155D01*
X39550499Y-74171153D01*
X39519738Y-74016510D01*
X39519737Y-74016503D01*
X39517163Y-74010289D01*
X39459397Y-73870827D01*
X39459390Y-73870814D01*
X39371789Y-73739711D01*
X39371786Y-73739707D01*
X39260292Y-73628213D01*
X39260288Y-73628210D01*
X39129185Y-73540609D01*
X39129172Y-73540602D01*
X38983501Y-73480264D01*
X38983492Y-73480261D01*
X38908279Y-73465300D01*
X38846369Y-73432914D01*
X38811795Y-73372198D01*
X38808493Y-73341387D01*
X38871831Y-69921153D01*
X45199500Y-69921153D01*
X45199500Y-70078846D01*
X45230261Y-70233489D01*
X45230264Y-70233501D01*
X45290602Y-70379172D01*
X45290609Y-70379185D01*
X45378210Y-70510288D01*
X45378213Y-70510292D01*
X45489707Y-70621786D01*
X45489711Y-70621789D01*
X45620814Y-70709390D01*
X45620827Y-70709397D01*
X45758695Y-70766503D01*
X45766503Y-70769737D01*
X45882468Y-70792804D01*
X45921153Y-70800499D01*
X45921156Y-70800500D01*
X45921158Y-70800500D01*
X46078844Y-70800500D01*
X46078845Y-70800499D01*
X46233497Y-70769737D01*
X46379179Y-70709394D01*
X46510289Y-70621789D01*
X46621789Y-70510289D01*
X46709394Y-70379179D01*
X46769737Y-70233497D01*
X46800500Y-70078842D01*
X46800500Y-69921158D01*
X46800500Y-69921155D01*
X46800499Y-69921153D01*
X46769737Y-69766503D01*
X46756066Y-69733497D01*
X46709397Y-69620827D01*
X46709390Y-69620814D01*
X46621789Y-69489711D01*
X46621786Y-69489707D01*
X46510292Y-69378213D01*
X46510288Y-69378210D01*
X46379185Y-69290609D01*
X46379172Y-69290602D01*
X46233501Y-69230264D01*
X46233489Y-69230261D01*
X46078845Y-69199500D01*
X46078842Y-69199500D01*
X45921158Y-69199500D01*
X45921155Y-69199500D01*
X45766510Y-69230261D01*
X45766498Y-69230264D01*
X45620827Y-69290602D01*
X45620814Y-69290609D01*
X45489711Y-69378210D01*
X45489707Y-69378213D01*
X45378213Y-69489707D01*
X45378210Y-69489711D01*
X45290609Y-69620814D01*
X45290602Y-69620827D01*
X45230264Y-69766498D01*
X45230261Y-69766510D01*
X45199500Y-69921153D01*
X38871831Y-69921153D01*
X38871986Y-69912770D01*
X38932523Y-66643760D01*
X38955144Y-65422202D01*
X38976067Y-65355541D01*
X39029709Y-65310771D01*
X39072851Y-65301803D01*
X39072782Y-65301097D01*
X39078836Y-65300500D01*
X39078842Y-65300500D01*
X39233497Y-65269737D01*
X39379179Y-65209394D01*
X39510289Y-65121789D01*
X39621789Y-65010289D01*
X39681348Y-64921153D01*
X48199500Y-64921153D01*
X48199500Y-65078846D01*
X48230261Y-65233489D01*
X48230264Y-65233501D01*
X48290602Y-65379172D01*
X48290609Y-65379185D01*
X48378210Y-65510288D01*
X48378213Y-65510292D01*
X48489707Y-65621786D01*
X48489711Y-65621789D01*
X48620814Y-65709390D01*
X48620827Y-65709397D01*
X48754948Y-65764951D01*
X48766503Y-65769737D01*
X48919660Y-65800202D01*
X48921153Y-65800499D01*
X48921156Y-65800500D01*
X48921158Y-65800500D01*
X49078844Y-65800500D01*
X49078845Y-65800499D01*
X49233497Y-65769737D01*
X49350080Y-65721447D01*
X49379172Y-65709397D01*
X49379172Y-65709396D01*
X49379179Y-65709394D01*
X49510289Y-65621789D01*
X49621789Y-65510289D01*
X49709394Y-65379179D01*
X49769737Y-65233497D01*
X49800500Y-65078842D01*
X49800500Y-64921158D01*
X49800500Y-64921155D01*
X49800499Y-64921153D01*
X49795976Y-64898414D01*
X49769737Y-64766503D01*
X49756062Y-64733489D01*
X49709397Y-64620827D01*
X49709390Y-64620814D01*
X49621789Y-64489711D01*
X49621786Y-64489707D01*
X49510292Y-64378213D01*
X49510288Y-64378210D01*
X49379185Y-64290609D01*
X49379172Y-64290602D01*
X49233501Y-64230264D01*
X49233489Y-64230261D01*
X49078845Y-64199500D01*
X49078842Y-64199500D01*
X48921158Y-64199500D01*
X48921155Y-64199500D01*
X48766510Y-64230261D01*
X48766498Y-64230264D01*
X48620827Y-64290602D01*
X48620814Y-64290609D01*
X48489711Y-64378210D01*
X48489707Y-64378213D01*
X48378213Y-64489707D01*
X48378210Y-64489711D01*
X48290609Y-64620814D01*
X48290602Y-64620827D01*
X48230264Y-64766498D01*
X48230261Y-64766510D01*
X48199500Y-64921153D01*
X39681348Y-64921153D01*
X39709394Y-64879179D01*
X39769737Y-64733497D01*
X39800500Y-64578842D01*
X39800500Y-64421158D01*
X39800500Y-64421155D01*
X39800499Y-64421153D01*
X39787176Y-64354174D01*
X39769737Y-64266503D01*
X39769735Y-64266498D01*
X39709397Y-64120827D01*
X39709390Y-64120814D01*
X39621789Y-63989711D01*
X39621786Y-63989707D01*
X39510292Y-63878213D01*
X39510288Y-63878210D01*
X39379185Y-63790609D01*
X39379172Y-63790602D01*
X39233501Y-63730264D01*
X39233491Y-63730261D01*
X39089089Y-63701537D01*
X39027178Y-63669152D01*
X38992604Y-63608436D01*
X38989303Y-63577634D01*
X38997746Y-63121703D01*
X39018669Y-63055040D01*
X39072311Y-63010271D01*
X39121725Y-63000000D01*
X52582053Y-63000000D01*
X52649092Y-63019685D01*
X52694847Y-63072489D01*
X52703670Y-63099809D01*
X52730261Y-63233489D01*
X52730264Y-63233501D01*
X52790602Y-63379172D01*
X52790609Y-63379185D01*
X52878210Y-63510288D01*
X52878213Y-63510292D01*
X52989707Y-63621786D01*
X52989711Y-63621789D01*
X53120814Y-63709390D01*
X53120827Y-63709397D01*
X53266498Y-63769735D01*
X53266503Y-63769737D01*
X53421153Y-63800499D01*
X53421156Y-63800500D01*
X53421158Y-63800500D01*
X53578844Y-63800500D01*
X53578845Y-63800499D01*
X53733497Y-63769737D01*
X53879179Y-63709394D01*
X53890938Y-63701537D01*
X54010875Y-63621398D01*
X54077553Y-63600520D01*
X54079766Y-63600500D01*
X57913331Y-63600500D01*
X57913347Y-63600501D01*
X57920943Y-63600501D01*
X58079054Y-63600501D01*
X58079057Y-63600501D01*
X58231785Y-63559577D01*
X58281904Y-63530639D01*
X58368716Y-63480520D01*
X58480520Y-63368716D01*
X58480520Y-63368714D01*
X58490728Y-63358507D01*
X58490730Y-63358504D01*
X58812915Y-63036319D01*
X58874238Y-63002834D01*
X58900596Y-63000000D01*
X59000000Y-63000000D01*
X59000000Y-62900596D01*
X59019685Y-62833557D01*
X59036319Y-62812915D01*
X60115521Y-61733713D01*
X61457506Y-60391728D01*
X61457511Y-60391724D01*
X61467714Y-60381520D01*
X61467716Y-60381520D01*
X61579520Y-60269716D01*
X61631437Y-60179792D01*
X61658577Y-60132785D01*
X61699501Y-59980057D01*
X61699501Y-59821943D01*
X61699501Y-59814348D01*
X61699500Y-59814330D01*
X61699500Y-57421153D01*
X63199500Y-57421153D01*
X63199500Y-57578846D01*
X63230261Y-57733489D01*
X63230264Y-57733501D01*
X63290602Y-57879172D01*
X63290609Y-57879185D01*
X63378210Y-58010288D01*
X63378213Y-58010292D01*
X63489707Y-58121786D01*
X63489711Y-58121789D01*
X63620814Y-58209390D01*
X63620827Y-58209397D01*
X63766498Y-58269735D01*
X63766503Y-58269737D01*
X63900194Y-58296330D01*
X63921153Y-58300499D01*
X63921156Y-58300500D01*
X63921158Y-58300500D01*
X64078844Y-58300500D01*
X64078845Y-58300499D01*
X64233497Y-58269737D01*
X64379179Y-58209394D01*
X64510289Y-58121789D01*
X64621789Y-58010289D01*
X64709394Y-57879179D01*
X64769737Y-57733497D01*
X64800500Y-57578842D01*
X64800500Y-57421158D01*
X64800500Y-57421155D01*
X64800499Y-57421153D01*
X70199500Y-57421153D01*
X70199500Y-57578846D01*
X70230261Y-57733489D01*
X70230264Y-57733501D01*
X70290602Y-57879172D01*
X70290609Y-57879185D01*
X70378210Y-58010288D01*
X70378213Y-58010292D01*
X70489707Y-58121786D01*
X70489711Y-58121789D01*
X70620814Y-58209390D01*
X70620827Y-58209397D01*
X70766498Y-58269735D01*
X70766503Y-58269737D01*
X70900194Y-58296330D01*
X70921153Y-58300499D01*
X70921156Y-58300500D01*
X70921158Y-58300500D01*
X71078844Y-58300500D01*
X71078845Y-58300499D01*
X71233497Y-58269737D01*
X71379179Y-58209394D01*
X71510289Y-58121789D01*
X71621789Y-58010289D01*
X71709394Y-57879179D01*
X71769737Y-57733497D01*
X71800500Y-57578842D01*
X71800500Y-57421158D01*
X71800500Y-57421155D01*
X71800499Y-57421153D01*
X71769738Y-57266510D01*
X71769737Y-57266503D01*
X71709795Y-57121789D01*
X71709397Y-57120827D01*
X71709390Y-57120814D01*
X71621789Y-56989711D01*
X71621786Y-56989707D01*
X71510292Y-56878213D01*
X71510288Y-56878210D01*
X71379185Y-56790609D01*
X71379172Y-56790602D01*
X71233501Y-56730264D01*
X71233489Y-56730261D01*
X71078845Y-56699500D01*
X71078842Y-56699500D01*
X70921158Y-56699500D01*
X70921155Y-56699500D01*
X70766510Y-56730261D01*
X70766498Y-56730264D01*
X70620827Y-56790602D01*
X70620814Y-56790609D01*
X70489711Y-56878210D01*
X70489707Y-56878213D01*
X70378213Y-56989707D01*
X70378210Y-56989711D01*
X70290609Y-57120814D01*
X70290602Y-57120827D01*
X70230264Y-57266498D01*
X70230261Y-57266510D01*
X70199500Y-57421153D01*
X64800499Y-57421153D01*
X64769738Y-57266510D01*
X64769737Y-57266503D01*
X64709795Y-57121789D01*
X64709397Y-57120827D01*
X64709390Y-57120814D01*
X64621789Y-56989711D01*
X64621786Y-56989707D01*
X64510292Y-56878213D01*
X64510288Y-56878210D01*
X64379185Y-56790609D01*
X64379172Y-56790602D01*
X64233501Y-56730264D01*
X64233489Y-56730261D01*
X64078845Y-56699500D01*
X64078842Y-56699500D01*
X63921158Y-56699500D01*
X63921155Y-56699500D01*
X63766510Y-56730261D01*
X63766498Y-56730264D01*
X63620827Y-56790602D01*
X63620814Y-56790609D01*
X63489711Y-56878210D01*
X63489707Y-56878213D01*
X63378213Y-56989707D01*
X63378210Y-56989711D01*
X63290609Y-57120814D01*
X63290602Y-57120827D01*
X63230264Y-57266498D01*
X63230261Y-57266510D01*
X63199500Y-57421153D01*
X61699500Y-57421153D01*
X61699500Y-52201097D01*
X61719185Y-52134058D01*
X61735819Y-52113416D01*
X63871024Y-49978211D01*
X66014664Y-47834571D01*
X66075985Y-47801088D01*
X66078152Y-47800637D01*
X66078841Y-47800500D01*
X66078842Y-47800500D01*
X66233497Y-47769737D01*
X66379179Y-47709394D01*
X66510289Y-47621789D01*
X66621789Y-47510289D01*
X66709394Y-47379179D01*
X66769737Y-47233497D01*
X66800500Y-47078842D01*
X66800500Y-46921158D01*
X66800500Y-46921155D01*
X66800499Y-46921153D01*
X66789849Y-46867611D01*
X66769737Y-46766503D01*
X66709794Y-46621786D01*
X66709397Y-46620827D01*
X66709390Y-46620814D01*
X66621789Y-46489711D01*
X66621786Y-46489707D01*
X66510292Y-46378213D01*
X66510284Y-46378207D01*
X66472712Y-46353102D01*
X66451678Y-46327934D01*
X66429745Y-46303516D01*
X66429378Y-46301251D01*
X66427906Y-46299490D01*
X66423816Y-46266930D01*
X66418569Y-46234546D01*
X66419484Y-46232441D01*
X66419199Y-46230165D01*
X66433358Y-46200568D01*
X66446455Y-46170482D01*
X66448731Y-46168437D01*
X66449353Y-46167138D01*
X66472712Y-46146897D01*
X66510876Y-46121397D01*
X66577554Y-46100520D01*
X66579766Y-46100500D01*
X67413331Y-46100500D01*
X67413347Y-46100501D01*
X67420943Y-46100501D01*
X67579054Y-46100501D01*
X67579057Y-46100501D01*
X67731785Y-46059577D01*
X67787501Y-46027409D01*
X67868716Y-45980520D01*
X67980520Y-45868716D01*
X67980520Y-45868714D01*
X67990724Y-45858511D01*
X67990728Y-45858506D01*
X69358506Y-44490728D01*
X69358511Y-44490724D01*
X69368714Y-44480520D01*
X69368716Y-44480520D01*
X69480520Y-44368716D01*
X69559577Y-44231784D01*
X69600500Y-44079057D01*
X69600500Y-42124000D01*
X69620185Y-42056961D01*
X69672989Y-42011206D01*
X69724500Y-42000000D01*
X70275500Y-42000000D01*
X70342539Y-42019685D01*
G37*
%TD.AperFunction*%
%TA.AperFunction,Conductor*%
G36*
X81625998Y-65192445D02*
G01*
X81654294Y-65198388D01*
X81704052Y-65247438D01*
X81719393Y-65315603D01*
X81717267Y-65331834D01*
X81699500Y-65421158D01*
X81699500Y-65578846D01*
X81730261Y-65733489D01*
X81730264Y-65733501D01*
X81790602Y-65879172D01*
X81790609Y-65879185D01*
X81878210Y-66010288D01*
X81878213Y-66010292D01*
X81989707Y-66121786D01*
X81989711Y-66121789D01*
X82120814Y-66209390D01*
X82120827Y-66209397D01*
X82224126Y-66252184D01*
X82266503Y-66269737D01*
X82318130Y-66280006D01*
X82400191Y-66296330D01*
X82462102Y-66328715D01*
X82496677Y-66389431D01*
X82500000Y-66417947D01*
X82500000Y-68582052D01*
X82480315Y-68649091D01*
X82427511Y-68694846D01*
X82400192Y-68703669D01*
X82266508Y-68730261D01*
X82266498Y-68730264D01*
X82120827Y-68790602D01*
X82120814Y-68790609D01*
X82043390Y-68842343D01*
X81976712Y-68863221D01*
X81909332Y-68844736D01*
X81862642Y-68792757D01*
X81850499Y-68739241D01*
X81850499Y-68602129D01*
X81850498Y-68602123D01*
X81848208Y-68580821D01*
X81844091Y-68542517D01*
X81793796Y-68407669D01*
X81793795Y-68407668D01*
X81793793Y-68407664D01*
X81707547Y-68292455D01*
X81707544Y-68292452D01*
X81592335Y-68206206D01*
X81592328Y-68206202D01*
X81460917Y-68157189D01*
X81404983Y-68115318D01*
X81380566Y-68049853D01*
X81395418Y-67981580D01*
X81416563Y-67953332D01*
X81530104Y-67839792D01*
X81559166Y-67799792D01*
X81655048Y-67667820D01*
X81655047Y-67667820D01*
X81655051Y-67667816D01*
X81751557Y-67478412D01*
X81817246Y-67276243D01*
X81850500Y-67066287D01*
X81850500Y-66853713D01*
X81817246Y-66643757D01*
X81751557Y-66441588D01*
X81655051Y-66252184D01*
X81655049Y-66252181D01*
X81655048Y-66252179D01*
X81530109Y-66080213D01*
X81379786Y-65929890D01*
X81207817Y-65804949D01*
X81198504Y-65800204D01*
X81147707Y-65752230D01*
X81130912Y-65684409D01*
X81153449Y-65618274D01*
X81198507Y-65579232D01*
X81207555Y-65574622D01*
X81261716Y-65535270D01*
X81261717Y-65535270D01*
X80629408Y-64902962D01*
X80692993Y-64885925D01*
X80807007Y-64820099D01*
X80900099Y-64727007D01*
X80965925Y-64612993D01*
X80982962Y-64549408D01*
X81625998Y-65192445D01*
G37*
%TD.AperFunction*%
%TD*%
M02*
