%TF.GenerationSoftware,KiCad,Pcbnew,9.0.5*%
%TF.CreationDate,2026-07-05T14:25:12-04:00*%
%TF.ProjectId,BubblerMain,42756262-6c65-4724-9d61-696e2e6b6963,rev?*%
%TF.SameCoordinates,Original*%
%TF.FileFunction,Legend,Top*%
%TF.FilePolarity,Positive*%
%FSLAX46Y46*%
G04 Gerber Fmt 4.6, Leading zero omitted, Abs format (unit mm)*
G04 Created by KiCad (PCBNEW 9.0.5) date 2026-07-05 14:25:12*
%MOMM*%
%LPD*%
G01*
G04 APERTURE LIST*
%ADD10C,0.300000*%
%ADD11C,0.150000*%
%ADD12C,0.120000*%
%ADD13C,0.203200*%
%ADD14C,0.127000*%
%ADD15C,0.200000*%
G04 APERTURE END LIST*
D10*
X82054510Y-97239638D02*
X82054510Y-95239638D01*
X82054510Y-95239638D02*
X82554510Y-96668209D01*
X82554510Y-96668209D02*
X83054510Y-95239638D01*
X83054510Y-95239638D02*
X83054510Y-97239638D01*
X83768796Y-97239638D02*
X83768796Y-95906304D01*
X83768796Y-95239638D02*
X83697368Y-95334876D01*
X83697368Y-95334876D02*
X83768796Y-95430114D01*
X83768796Y-95430114D02*
X83840225Y-95334876D01*
X83840225Y-95334876D02*
X83768796Y-95239638D01*
X83768796Y-95239638D02*
X83768796Y-95430114D01*
X84697368Y-97239638D02*
X84554511Y-97144400D01*
X84554511Y-97144400D02*
X84483082Y-96953923D01*
X84483082Y-96953923D02*
X84483082Y-95239638D01*
X85911654Y-97239638D02*
X85911654Y-96192019D01*
X85911654Y-96192019D02*
X85840225Y-96001542D01*
X85840225Y-96001542D02*
X85697368Y-95906304D01*
X85697368Y-95906304D02*
X85411654Y-95906304D01*
X85411654Y-95906304D02*
X85268796Y-96001542D01*
X85911654Y-97144400D02*
X85768796Y-97239638D01*
X85768796Y-97239638D02*
X85411654Y-97239638D01*
X85411654Y-97239638D02*
X85268796Y-97144400D01*
X85268796Y-97144400D02*
X85197368Y-96953923D01*
X85197368Y-96953923D02*
X85197368Y-96763447D01*
X85197368Y-96763447D02*
X85268796Y-96572971D01*
X85268796Y-96572971D02*
X85411654Y-96477733D01*
X85411654Y-96477733D02*
X85768796Y-96477733D01*
X85768796Y-96477733D02*
X85911654Y-96382495D01*
X86411654Y-95239638D02*
X87268797Y-95239638D01*
X86840225Y-97239638D02*
X86840225Y-95239638D01*
X87983082Y-97239638D02*
X87840225Y-97144400D01*
X87840225Y-97144400D02*
X87768796Y-97049161D01*
X87768796Y-97049161D02*
X87697368Y-96858685D01*
X87697368Y-96858685D02*
X87697368Y-96287257D01*
X87697368Y-96287257D02*
X87768796Y-96096780D01*
X87768796Y-96096780D02*
X87840225Y-96001542D01*
X87840225Y-96001542D02*
X87983082Y-95906304D01*
X87983082Y-95906304D02*
X88197368Y-95906304D01*
X88197368Y-95906304D02*
X88340225Y-96001542D01*
X88340225Y-96001542D02*
X88411654Y-96096780D01*
X88411654Y-96096780D02*
X88483082Y-96287257D01*
X88483082Y-96287257D02*
X88483082Y-96858685D01*
X88483082Y-96858685D02*
X88411654Y-97049161D01*
X88411654Y-97049161D02*
X88340225Y-97144400D01*
X88340225Y-97144400D02*
X88197368Y-97239638D01*
X88197368Y-97239638D02*
X87983082Y-97239638D01*
X88911654Y-95906304D02*
X89483082Y-95906304D01*
X89125939Y-95239638D02*
X89125939Y-96953923D01*
X89125939Y-96953923D02*
X89197368Y-97144400D01*
X89197368Y-97144400D02*
X89340225Y-97239638D01*
X89340225Y-97239638D02*
X89483082Y-97239638D01*
X90554511Y-97144400D02*
X90411654Y-97239638D01*
X90411654Y-97239638D02*
X90125940Y-97239638D01*
X90125940Y-97239638D02*
X89983082Y-97144400D01*
X89983082Y-97144400D02*
X89911654Y-96953923D01*
X89911654Y-96953923D02*
X89911654Y-96192019D01*
X89911654Y-96192019D02*
X89983082Y-96001542D01*
X89983082Y-96001542D02*
X90125940Y-95906304D01*
X90125940Y-95906304D02*
X90411654Y-95906304D01*
X90411654Y-95906304D02*
X90554511Y-96001542D01*
X90554511Y-96001542D02*
X90625940Y-96192019D01*
X90625940Y-96192019D02*
X90625940Y-96382495D01*
X90625940Y-96382495D02*
X89911654Y-96572971D01*
X91268796Y-97239638D02*
X91268796Y-95906304D01*
X91268796Y-96096780D02*
X91340225Y-96001542D01*
X91340225Y-96001542D02*
X91483082Y-95906304D01*
X91483082Y-95906304D02*
X91697368Y-95906304D01*
X91697368Y-95906304D02*
X91840225Y-96001542D01*
X91840225Y-96001542D02*
X91911654Y-96192019D01*
X91911654Y-96192019D02*
X91911654Y-97239638D01*
X91911654Y-96192019D02*
X91983082Y-96001542D01*
X91983082Y-96001542D02*
X92125939Y-95906304D01*
X92125939Y-95906304D02*
X92340225Y-95906304D01*
X92340225Y-95906304D02*
X92483082Y-96001542D01*
X92483082Y-96001542D02*
X92554511Y-96192019D01*
X92554511Y-96192019D02*
X92554511Y-97239638D01*
X94268796Y-95906304D02*
X94625939Y-97239638D01*
X94625939Y-97239638D02*
X94983082Y-95906304D01*
X96340225Y-97239638D02*
X95483082Y-97239638D01*
X95911653Y-97239638D02*
X95911653Y-95239638D01*
X95911653Y-95239638D02*
X95768796Y-95525352D01*
X95768796Y-95525352D02*
X95625939Y-95715828D01*
X95625939Y-95715828D02*
X95483082Y-95811066D01*
X96983081Y-97049161D02*
X97054510Y-97144400D01*
X97054510Y-97144400D02*
X96983081Y-97239638D01*
X96983081Y-97239638D02*
X96911653Y-97144400D01*
X96911653Y-97144400D02*
X96983081Y-97049161D01*
X96983081Y-97049161D02*
X96983081Y-97239638D01*
X98483082Y-97239638D02*
X97625939Y-97239638D01*
X98054510Y-97239638D02*
X98054510Y-95239638D01*
X98054510Y-95239638D02*
X97911653Y-95525352D01*
X97911653Y-95525352D02*
X97768796Y-95715828D01*
X97768796Y-95715828D02*
X97625939Y-95811066D01*
D11*
X85738095Y-60454819D02*
X85738095Y-61264342D01*
X85738095Y-61264342D02*
X85785714Y-61359580D01*
X85785714Y-61359580D02*
X85833333Y-61407200D01*
X85833333Y-61407200D02*
X85928571Y-61454819D01*
X85928571Y-61454819D02*
X86119047Y-61454819D01*
X86119047Y-61454819D02*
X86214285Y-61407200D01*
X86214285Y-61407200D02*
X86261904Y-61359580D01*
X86261904Y-61359580D02*
X86309523Y-61264342D01*
X86309523Y-61264342D02*
X86309523Y-60454819D01*
X86690476Y-60454819D02*
X87309523Y-60454819D01*
X87309523Y-60454819D02*
X86976190Y-60835771D01*
X86976190Y-60835771D02*
X87119047Y-60835771D01*
X87119047Y-60835771D02*
X87214285Y-60883390D01*
X87214285Y-60883390D02*
X87261904Y-60931009D01*
X87261904Y-60931009D02*
X87309523Y-61026247D01*
X87309523Y-61026247D02*
X87309523Y-61264342D01*
X87309523Y-61264342D02*
X87261904Y-61359580D01*
X87261904Y-61359580D02*
X87214285Y-61407200D01*
X87214285Y-61407200D02*
X87119047Y-61454819D01*
X87119047Y-61454819D02*
X86833333Y-61454819D01*
X86833333Y-61454819D02*
X86738095Y-61407200D01*
X86738095Y-61407200D02*
X86690476Y-61359580D01*
X55139411Y-60399819D02*
X55139411Y-61209342D01*
X55139411Y-61209342D02*
X55187030Y-61304580D01*
X55187030Y-61304580D02*
X55234649Y-61352200D01*
X55234649Y-61352200D02*
X55329887Y-61399819D01*
X55329887Y-61399819D02*
X55520363Y-61399819D01*
X55520363Y-61399819D02*
X55615601Y-61352200D01*
X55615601Y-61352200D02*
X55663220Y-61304580D01*
X55663220Y-61304580D02*
X55710839Y-61209342D01*
X55710839Y-61209342D02*
X55710839Y-60399819D01*
X56615601Y-60733152D02*
X56615601Y-61399819D01*
X56377506Y-60352200D02*
X56139411Y-61066485D01*
X56139411Y-61066485D02*
X56758458Y-61066485D01*
X65666667Y-66907200D02*
X65809524Y-66954819D01*
X65809524Y-66954819D02*
X66047619Y-66954819D01*
X66047619Y-66954819D02*
X66142857Y-66907200D01*
X66142857Y-66907200D02*
X66190476Y-66859580D01*
X66190476Y-66859580D02*
X66238095Y-66764342D01*
X66238095Y-66764342D02*
X66238095Y-66669104D01*
X66238095Y-66669104D02*
X66190476Y-66573866D01*
X66190476Y-66573866D02*
X66142857Y-66526247D01*
X66142857Y-66526247D02*
X66047619Y-66478628D01*
X66047619Y-66478628D02*
X65857143Y-66431009D01*
X65857143Y-66431009D02*
X65761905Y-66383390D01*
X65761905Y-66383390D02*
X65714286Y-66335771D01*
X65714286Y-66335771D02*
X65666667Y-66240533D01*
X65666667Y-66240533D02*
X65666667Y-66145295D01*
X65666667Y-66145295D02*
X65714286Y-66050057D01*
X65714286Y-66050057D02*
X65761905Y-66002438D01*
X65761905Y-66002438D02*
X65857143Y-65954819D01*
X65857143Y-65954819D02*
X66095238Y-65954819D01*
X66095238Y-65954819D02*
X66238095Y-66002438D01*
X66571429Y-65954819D02*
X66809524Y-66954819D01*
X66809524Y-66954819D02*
X67000000Y-66240533D01*
X67000000Y-66240533D02*
X67190476Y-66954819D01*
X67190476Y-66954819D02*
X67428572Y-65954819D01*
X68333333Y-66954819D02*
X67761905Y-66954819D01*
X68047619Y-66954819D02*
X68047619Y-65954819D01*
X68047619Y-65954819D02*
X67952381Y-66097676D01*
X67952381Y-66097676D02*
X67857143Y-66192914D01*
X67857143Y-66192914D02*
X67761905Y-66240533D01*
X49859580Y-81666666D02*
X49907200Y-81714285D01*
X49907200Y-81714285D02*
X49954819Y-81857142D01*
X49954819Y-81857142D02*
X49954819Y-81952380D01*
X49954819Y-81952380D02*
X49907200Y-82095237D01*
X49907200Y-82095237D02*
X49811961Y-82190475D01*
X49811961Y-82190475D02*
X49716723Y-82238094D01*
X49716723Y-82238094D02*
X49526247Y-82285713D01*
X49526247Y-82285713D02*
X49383390Y-82285713D01*
X49383390Y-82285713D02*
X49192914Y-82238094D01*
X49192914Y-82238094D02*
X49097676Y-82190475D01*
X49097676Y-82190475D02*
X49002438Y-82095237D01*
X49002438Y-82095237D02*
X48954819Y-81952380D01*
X48954819Y-81952380D02*
X48954819Y-81857142D01*
X48954819Y-81857142D02*
X49002438Y-81714285D01*
X49002438Y-81714285D02*
X49050057Y-81666666D01*
X48954819Y-80809523D02*
X48954819Y-80999999D01*
X48954819Y-80999999D02*
X49002438Y-81095237D01*
X49002438Y-81095237D02*
X49050057Y-81142856D01*
X49050057Y-81142856D02*
X49192914Y-81238094D01*
X49192914Y-81238094D02*
X49383390Y-81285713D01*
X49383390Y-81285713D02*
X49764342Y-81285713D01*
X49764342Y-81285713D02*
X49859580Y-81238094D01*
X49859580Y-81238094D02*
X49907200Y-81190475D01*
X49907200Y-81190475D02*
X49954819Y-81095237D01*
X49954819Y-81095237D02*
X49954819Y-80904761D01*
X49954819Y-80904761D02*
X49907200Y-80809523D01*
X49907200Y-80809523D02*
X49859580Y-80761904D01*
X49859580Y-80761904D02*
X49764342Y-80714285D01*
X49764342Y-80714285D02*
X49526247Y-80714285D01*
X49526247Y-80714285D02*
X49431009Y-80761904D01*
X49431009Y-80761904D02*
X49383390Y-80809523D01*
X49383390Y-80809523D02*
X49335771Y-80904761D01*
X49335771Y-80904761D02*
X49335771Y-81095237D01*
X49335771Y-81095237D02*
X49383390Y-81190475D01*
X49383390Y-81190475D02*
X49431009Y-81238094D01*
X49431009Y-81238094D02*
X49526247Y-81285713D01*
X39833333Y-70124819D02*
X39357143Y-70124819D01*
X39357143Y-70124819D02*
X39309524Y-70601009D01*
X39309524Y-70601009D02*
X39357143Y-70553390D01*
X39357143Y-70553390D02*
X39452381Y-70505771D01*
X39452381Y-70505771D02*
X39690476Y-70505771D01*
X39690476Y-70505771D02*
X39785714Y-70553390D01*
X39785714Y-70553390D02*
X39833333Y-70601009D01*
X39833333Y-70601009D02*
X39880952Y-70696247D01*
X39880952Y-70696247D02*
X39880952Y-70934342D01*
X39880952Y-70934342D02*
X39833333Y-71029580D01*
X39833333Y-71029580D02*
X39785714Y-71077200D01*
X39785714Y-71077200D02*
X39690476Y-71124819D01*
X39690476Y-71124819D02*
X39452381Y-71124819D01*
X39452381Y-71124819D02*
X39357143Y-71077200D01*
X39357143Y-71077200D02*
X39309524Y-71029580D01*
X40166667Y-70124819D02*
X40500000Y-71124819D01*
X40500000Y-71124819D02*
X40833333Y-70124819D01*
X41690476Y-71124819D02*
X41119048Y-71124819D01*
X41404762Y-71124819D02*
X41404762Y-70124819D01*
X41404762Y-70124819D02*
X41309524Y-70267676D01*
X41309524Y-70267676D02*
X41214286Y-70362914D01*
X41214286Y-70362914D02*
X41119048Y-70410533D01*
X68454819Y-76116666D02*
X67978628Y-76449999D01*
X68454819Y-76688094D02*
X67454819Y-76688094D01*
X67454819Y-76688094D02*
X67454819Y-76307142D01*
X67454819Y-76307142D02*
X67502438Y-76211904D01*
X67502438Y-76211904D02*
X67550057Y-76164285D01*
X67550057Y-76164285D02*
X67645295Y-76116666D01*
X67645295Y-76116666D02*
X67788152Y-76116666D01*
X67788152Y-76116666D02*
X67883390Y-76164285D01*
X67883390Y-76164285D02*
X67931009Y-76211904D01*
X67931009Y-76211904D02*
X67978628Y-76307142D01*
X67978628Y-76307142D02*
X67978628Y-76688094D01*
X67454819Y-75259523D02*
X67454819Y-75449999D01*
X67454819Y-75449999D02*
X67502438Y-75545237D01*
X67502438Y-75545237D02*
X67550057Y-75592856D01*
X67550057Y-75592856D02*
X67692914Y-75688094D01*
X67692914Y-75688094D02*
X67883390Y-75735713D01*
X67883390Y-75735713D02*
X68264342Y-75735713D01*
X68264342Y-75735713D02*
X68359580Y-75688094D01*
X68359580Y-75688094D02*
X68407200Y-75640475D01*
X68407200Y-75640475D02*
X68454819Y-75545237D01*
X68454819Y-75545237D02*
X68454819Y-75354761D01*
X68454819Y-75354761D02*
X68407200Y-75259523D01*
X68407200Y-75259523D02*
X68359580Y-75211904D01*
X68359580Y-75211904D02*
X68264342Y-75164285D01*
X68264342Y-75164285D02*
X68026247Y-75164285D01*
X68026247Y-75164285D02*
X67931009Y-75211904D01*
X67931009Y-75211904D02*
X67883390Y-75259523D01*
X67883390Y-75259523D02*
X67835771Y-75354761D01*
X67835771Y-75354761D02*
X67835771Y-75545237D01*
X67835771Y-75545237D02*
X67883390Y-75640475D01*
X67883390Y-75640475D02*
X67931009Y-75688094D01*
X67931009Y-75688094D02*
X68026247Y-75735713D01*
X98833333Y-91456819D02*
X98357143Y-91456819D01*
X98357143Y-91456819D02*
X98309524Y-91933009D01*
X98309524Y-91933009D02*
X98357143Y-91885390D01*
X98357143Y-91885390D02*
X98452381Y-91837771D01*
X98452381Y-91837771D02*
X98690476Y-91837771D01*
X98690476Y-91837771D02*
X98785714Y-91885390D01*
X98785714Y-91885390D02*
X98833333Y-91933009D01*
X98833333Y-91933009D02*
X98880952Y-92028247D01*
X98880952Y-92028247D02*
X98880952Y-92266342D01*
X98880952Y-92266342D02*
X98833333Y-92361580D01*
X98833333Y-92361580D02*
X98785714Y-92409200D01*
X98785714Y-92409200D02*
X98690476Y-92456819D01*
X98690476Y-92456819D02*
X98452381Y-92456819D01*
X98452381Y-92456819D02*
X98357143Y-92409200D01*
X98357143Y-92409200D02*
X98309524Y-92361580D01*
X99166667Y-91456819D02*
X99500000Y-92456819D01*
X99500000Y-92456819D02*
X99833333Y-91456819D01*
X100119048Y-91552057D02*
X100166667Y-91504438D01*
X100166667Y-91504438D02*
X100261905Y-91456819D01*
X100261905Y-91456819D02*
X100500000Y-91456819D01*
X100500000Y-91456819D02*
X100595238Y-91504438D01*
X100595238Y-91504438D02*
X100642857Y-91552057D01*
X100642857Y-91552057D02*
X100690476Y-91647295D01*
X100690476Y-91647295D02*
X100690476Y-91742533D01*
X100690476Y-91742533D02*
X100642857Y-91885390D01*
X100642857Y-91885390D02*
X100071429Y-92456819D01*
X100071429Y-92456819D02*
X100690476Y-92456819D01*
X84454819Y-43642857D02*
X83978628Y-43976190D01*
X84454819Y-44214285D02*
X83454819Y-44214285D01*
X83454819Y-44214285D02*
X83454819Y-43833333D01*
X83454819Y-43833333D02*
X83502438Y-43738095D01*
X83502438Y-43738095D02*
X83550057Y-43690476D01*
X83550057Y-43690476D02*
X83645295Y-43642857D01*
X83645295Y-43642857D02*
X83788152Y-43642857D01*
X83788152Y-43642857D02*
X83883390Y-43690476D01*
X83883390Y-43690476D02*
X83931009Y-43738095D01*
X83931009Y-43738095D02*
X83978628Y-43833333D01*
X83978628Y-43833333D02*
X83978628Y-44214285D01*
X83550057Y-43261904D02*
X83502438Y-43214285D01*
X83502438Y-43214285D02*
X83454819Y-43119047D01*
X83454819Y-43119047D02*
X83454819Y-42880952D01*
X83454819Y-42880952D02*
X83502438Y-42785714D01*
X83502438Y-42785714D02*
X83550057Y-42738095D01*
X83550057Y-42738095D02*
X83645295Y-42690476D01*
X83645295Y-42690476D02*
X83740533Y-42690476D01*
X83740533Y-42690476D02*
X83883390Y-42738095D01*
X83883390Y-42738095D02*
X84454819Y-43309523D01*
X84454819Y-43309523D02*
X84454819Y-42690476D01*
X83454819Y-42357142D02*
X83454819Y-41690476D01*
X83454819Y-41690476D02*
X84454819Y-42119047D01*
X73124819Y-49192857D02*
X72648628Y-49526190D01*
X73124819Y-49764285D02*
X72124819Y-49764285D01*
X72124819Y-49764285D02*
X72124819Y-49383333D01*
X72124819Y-49383333D02*
X72172438Y-49288095D01*
X72172438Y-49288095D02*
X72220057Y-49240476D01*
X72220057Y-49240476D02*
X72315295Y-49192857D01*
X72315295Y-49192857D02*
X72458152Y-49192857D01*
X72458152Y-49192857D02*
X72553390Y-49240476D01*
X72553390Y-49240476D02*
X72601009Y-49288095D01*
X72601009Y-49288095D02*
X72648628Y-49383333D01*
X72648628Y-49383333D02*
X72648628Y-49764285D01*
X73124819Y-48240476D02*
X73124819Y-48811904D01*
X73124819Y-48526190D02*
X72124819Y-48526190D01*
X72124819Y-48526190D02*
X72267676Y-48621428D01*
X72267676Y-48621428D02*
X72362914Y-48716666D01*
X72362914Y-48716666D02*
X72410533Y-48811904D01*
X72124819Y-47383333D02*
X72124819Y-47573809D01*
X72124819Y-47573809D02*
X72172438Y-47669047D01*
X72172438Y-47669047D02*
X72220057Y-47716666D01*
X72220057Y-47716666D02*
X72362914Y-47811904D01*
X72362914Y-47811904D02*
X72553390Y-47859523D01*
X72553390Y-47859523D02*
X72934342Y-47859523D01*
X72934342Y-47859523D02*
X73029580Y-47811904D01*
X73029580Y-47811904D02*
X73077200Y-47764285D01*
X73077200Y-47764285D02*
X73124819Y-47669047D01*
X73124819Y-47669047D02*
X73124819Y-47478571D01*
X73124819Y-47478571D02*
X73077200Y-47383333D01*
X73077200Y-47383333D02*
X73029580Y-47335714D01*
X73029580Y-47335714D02*
X72934342Y-47288095D01*
X72934342Y-47288095D02*
X72696247Y-47288095D01*
X72696247Y-47288095D02*
X72601009Y-47335714D01*
X72601009Y-47335714D02*
X72553390Y-47383333D01*
X72553390Y-47383333D02*
X72505771Y-47478571D01*
X72505771Y-47478571D02*
X72505771Y-47669047D01*
X72505771Y-47669047D02*
X72553390Y-47764285D01*
X72553390Y-47764285D02*
X72601009Y-47811904D01*
X72601009Y-47811904D02*
X72696247Y-47859523D01*
X39857142Y-65359580D02*
X39809523Y-65407200D01*
X39809523Y-65407200D02*
X39666666Y-65454819D01*
X39666666Y-65454819D02*
X39571428Y-65454819D01*
X39571428Y-65454819D02*
X39428571Y-65407200D01*
X39428571Y-65407200D02*
X39333333Y-65311961D01*
X39333333Y-65311961D02*
X39285714Y-65216723D01*
X39285714Y-65216723D02*
X39238095Y-65026247D01*
X39238095Y-65026247D02*
X39238095Y-64883390D01*
X39238095Y-64883390D02*
X39285714Y-64692914D01*
X39285714Y-64692914D02*
X39333333Y-64597676D01*
X39333333Y-64597676D02*
X39428571Y-64502438D01*
X39428571Y-64502438D02*
X39571428Y-64454819D01*
X39571428Y-64454819D02*
X39666666Y-64454819D01*
X39666666Y-64454819D02*
X39809523Y-64502438D01*
X39809523Y-64502438D02*
X39857142Y-64550057D01*
X40238095Y-64550057D02*
X40285714Y-64502438D01*
X40285714Y-64502438D02*
X40380952Y-64454819D01*
X40380952Y-64454819D02*
X40619047Y-64454819D01*
X40619047Y-64454819D02*
X40714285Y-64502438D01*
X40714285Y-64502438D02*
X40761904Y-64550057D01*
X40761904Y-64550057D02*
X40809523Y-64645295D01*
X40809523Y-64645295D02*
X40809523Y-64740533D01*
X40809523Y-64740533D02*
X40761904Y-64883390D01*
X40761904Y-64883390D02*
X40190476Y-65454819D01*
X40190476Y-65454819D02*
X40809523Y-65454819D01*
X41190476Y-64550057D02*
X41238095Y-64502438D01*
X41238095Y-64502438D02*
X41333333Y-64454819D01*
X41333333Y-64454819D02*
X41571428Y-64454819D01*
X41571428Y-64454819D02*
X41666666Y-64502438D01*
X41666666Y-64502438D02*
X41714285Y-64550057D01*
X41714285Y-64550057D02*
X41761904Y-64645295D01*
X41761904Y-64645295D02*
X41761904Y-64740533D01*
X41761904Y-64740533D02*
X41714285Y-64883390D01*
X41714285Y-64883390D02*
X41142857Y-65454819D01*
X41142857Y-65454819D02*
X41761904Y-65454819D01*
X86238095Y-47554819D02*
X86238095Y-48364342D01*
X86238095Y-48364342D02*
X86285714Y-48459580D01*
X86285714Y-48459580D02*
X86333333Y-48507200D01*
X86333333Y-48507200D02*
X86428571Y-48554819D01*
X86428571Y-48554819D02*
X86619047Y-48554819D01*
X86619047Y-48554819D02*
X86714285Y-48507200D01*
X86714285Y-48507200D02*
X86761904Y-48459580D01*
X86761904Y-48459580D02*
X86809523Y-48364342D01*
X86809523Y-48364342D02*
X86809523Y-47554819D01*
X87190476Y-47554819D02*
X87857142Y-47554819D01*
X87857142Y-47554819D02*
X87428571Y-48554819D01*
X46833333Y-95954819D02*
X46500000Y-95478628D01*
X46261905Y-95954819D02*
X46261905Y-94954819D01*
X46261905Y-94954819D02*
X46642857Y-94954819D01*
X46642857Y-94954819D02*
X46738095Y-95002438D01*
X46738095Y-95002438D02*
X46785714Y-95050057D01*
X46785714Y-95050057D02*
X46833333Y-95145295D01*
X46833333Y-95145295D02*
X46833333Y-95288152D01*
X46833333Y-95288152D02*
X46785714Y-95383390D01*
X46785714Y-95383390D02*
X46738095Y-95431009D01*
X46738095Y-95431009D02*
X46642857Y-95478628D01*
X46642857Y-95478628D02*
X46261905Y-95478628D01*
X47785714Y-95954819D02*
X47214286Y-95954819D01*
X47500000Y-95954819D02*
X47500000Y-94954819D01*
X47500000Y-94954819D02*
X47404762Y-95097676D01*
X47404762Y-95097676D02*
X47309524Y-95192914D01*
X47309524Y-95192914D02*
X47214286Y-95240533D01*
X94407142Y-94784819D02*
X94073809Y-94308628D01*
X93835714Y-94784819D02*
X93835714Y-93784819D01*
X93835714Y-93784819D02*
X94216666Y-93784819D01*
X94216666Y-93784819D02*
X94311904Y-93832438D01*
X94311904Y-93832438D02*
X94359523Y-93880057D01*
X94359523Y-93880057D02*
X94407142Y-93975295D01*
X94407142Y-93975295D02*
X94407142Y-94118152D01*
X94407142Y-94118152D02*
X94359523Y-94213390D01*
X94359523Y-94213390D02*
X94311904Y-94261009D01*
X94311904Y-94261009D02*
X94216666Y-94308628D01*
X94216666Y-94308628D02*
X93835714Y-94308628D01*
X95359523Y-94784819D02*
X94788095Y-94784819D01*
X95073809Y-94784819D02*
X95073809Y-93784819D01*
X95073809Y-93784819D02*
X94978571Y-93927676D01*
X94978571Y-93927676D02*
X94883333Y-94022914D01*
X94883333Y-94022914D02*
X94788095Y-94070533D01*
X95978571Y-93784819D02*
X96073809Y-93784819D01*
X96073809Y-93784819D02*
X96169047Y-93832438D01*
X96169047Y-93832438D02*
X96216666Y-93880057D01*
X96216666Y-93880057D02*
X96264285Y-93975295D01*
X96264285Y-93975295D02*
X96311904Y-94165771D01*
X96311904Y-94165771D02*
X96311904Y-94403866D01*
X96311904Y-94403866D02*
X96264285Y-94594342D01*
X96264285Y-94594342D02*
X96216666Y-94689580D01*
X96216666Y-94689580D02*
X96169047Y-94737200D01*
X96169047Y-94737200D02*
X96073809Y-94784819D01*
X96073809Y-94784819D02*
X95978571Y-94784819D01*
X95978571Y-94784819D02*
X95883333Y-94737200D01*
X95883333Y-94737200D02*
X95835714Y-94689580D01*
X95835714Y-94689580D02*
X95788095Y-94594342D01*
X95788095Y-94594342D02*
X95740476Y-94403866D01*
X95740476Y-94403866D02*
X95740476Y-94165771D01*
X95740476Y-94165771D02*
X95788095Y-93975295D01*
X95788095Y-93975295D02*
X95835714Y-93880057D01*
X95835714Y-93880057D02*
X95883333Y-93832438D01*
X95883333Y-93832438D02*
X95978571Y-93784819D01*
X95012380Y-48648276D02*
X95012380Y-49166371D01*
X95012380Y-49166371D02*
X95042857Y-49227323D01*
X95042857Y-49227323D02*
X95073333Y-49257800D01*
X95073333Y-49257800D02*
X95134285Y-49288276D01*
X95134285Y-49288276D02*
X95256190Y-49288276D01*
X95256190Y-49288276D02*
X95317142Y-49257800D01*
X95317142Y-49257800D02*
X95347619Y-49227323D01*
X95347619Y-49227323D02*
X95378095Y-49166371D01*
X95378095Y-49166371D02*
X95378095Y-48648276D01*
X95774285Y-48922561D02*
X95713333Y-48892085D01*
X95713333Y-48892085D02*
X95682856Y-48861609D01*
X95682856Y-48861609D02*
X95652380Y-48800657D01*
X95652380Y-48800657D02*
X95652380Y-48770180D01*
X95652380Y-48770180D02*
X95682856Y-48709228D01*
X95682856Y-48709228D02*
X95713333Y-48678752D01*
X95713333Y-48678752D02*
X95774285Y-48648276D01*
X95774285Y-48648276D02*
X95896190Y-48648276D01*
X95896190Y-48648276D02*
X95957142Y-48678752D01*
X95957142Y-48678752D02*
X95987618Y-48709228D01*
X95987618Y-48709228D02*
X96018095Y-48770180D01*
X96018095Y-48770180D02*
X96018095Y-48800657D01*
X96018095Y-48800657D02*
X95987618Y-48861609D01*
X95987618Y-48861609D02*
X95957142Y-48892085D01*
X95957142Y-48892085D02*
X95896190Y-48922561D01*
X95896190Y-48922561D02*
X95774285Y-48922561D01*
X95774285Y-48922561D02*
X95713333Y-48953038D01*
X95713333Y-48953038D02*
X95682856Y-48983514D01*
X95682856Y-48983514D02*
X95652380Y-49044466D01*
X95652380Y-49044466D02*
X95652380Y-49166371D01*
X95652380Y-49166371D02*
X95682856Y-49227323D01*
X95682856Y-49227323D02*
X95713333Y-49257800D01*
X95713333Y-49257800D02*
X95774285Y-49288276D01*
X95774285Y-49288276D02*
X95896190Y-49288276D01*
X95896190Y-49288276D02*
X95957142Y-49257800D01*
X95957142Y-49257800D02*
X95987618Y-49227323D01*
X95987618Y-49227323D02*
X96018095Y-49166371D01*
X96018095Y-49166371D02*
X96018095Y-49044466D01*
X96018095Y-49044466D02*
X95987618Y-48983514D01*
X95987618Y-48983514D02*
X95957142Y-48953038D01*
X95957142Y-48953038D02*
X95896190Y-48922561D01*
X79690476Y-71334819D02*
X79690476Y-72049104D01*
X79690476Y-72049104D02*
X79642857Y-72191961D01*
X79642857Y-72191961D02*
X79547619Y-72287200D01*
X79547619Y-72287200D02*
X79404762Y-72334819D01*
X79404762Y-72334819D02*
X79309524Y-72334819D01*
X80690476Y-72334819D02*
X80119048Y-72334819D01*
X80404762Y-72334819D02*
X80404762Y-71334819D01*
X80404762Y-71334819D02*
X80309524Y-71477676D01*
X80309524Y-71477676D02*
X80214286Y-71572914D01*
X80214286Y-71572914D02*
X80119048Y-71620533D01*
X81071429Y-71430057D02*
X81119048Y-71382438D01*
X81119048Y-71382438D02*
X81214286Y-71334819D01*
X81214286Y-71334819D02*
X81452381Y-71334819D01*
X81452381Y-71334819D02*
X81547619Y-71382438D01*
X81547619Y-71382438D02*
X81595238Y-71430057D01*
X81595238Y-71430057D02*
X81642857Y-71525295D01*
X81642857Y-71525295D02*
X81642857Y-71620533D01*
X81642857Y-71620533D02*
X81595238Y-71763390D01*
X81595238Y-71763390D02*
X81023810Y-72334819D01*
X81023810Y-72334819D02*
X81642857Y-72334819D01*
X75359580Y-43642857D02*
X75407200Y-43690476D01*
X75407200Y-43690476D02*
X75454819Y-43833333D01*
X75454819Y-43833333D02*
X75454819Y-43928571D01*
X75454819Y-43928571D02*
X75407200Y-44071428D01*
X75407200Y-44071428D02*
X75311961Y-44166666D01*
X75311961Y-44166666D02*
X75216723Y-44214285D01*
X75216723Y-44214285D02*
X75026247Y-44261904D01*
X75026247Y-44261904D02*
X74883390Y-44261904D01*
X74883390Y-44261904D02*
X74692914Y-44214285D01*
X74692914Y-44214285D02*
X74597676Y-44166666D01*
X74597676Y-44166666D02*
X74502438Y-44071428D01*
X74502438Y-44071428D02*
X74454819Y-43928571D01*
X74454819Y-43928571D02*
X74454819Y-43833333D01*
X74454819Y-43833333D02*
X74502438Y-43690476D01*
X74502438Y-43690476D02*
X74550057Y-43642857D01*
X74550057Y-43261904D02*
X74502438Y-43214285D01*
X74502438Y-43214285D02*
X74454819Y-43119047D01*
X74454819Y-43119047D02*
X74454819Y-42880952D01*
X74454819Y-42880952D02*
X74502438Y-42785714D01*
X74502438Y-42785714D02*
X74550057Y-42738095D01*
X74550057Y-42738095D02*
X74645295Y-42690476D01*
X74645295Y-42690476D02*
X74740533Y-42690476D01*
X74740533Y-42690476D02*
X74883390Y-42738095D01*
X74883390Y-42738095D02*
X75454819Y-43309523D01*
X75454819Y-43309523D02*
X75454819Y-42690476D01*
X74454819Y-41785714D02*
X74454819Y-42261904D01*
X74454819Y-42261904D02*
X74931009Y-42309523D01*
X74931009Y-42309523D02*
X74883390Y-42261904D01*
X74883390Y-42261904D02*
X74835771Y-42166666D01*
X74835771Y-42166666D02*
X74835771Y-41928571D01*
X74835771Y-41928571D02*
X74883390Y-41833333D01*
X74883390Y-41833333D02*
X74931009Y-41785714D01*
X74931009Y-41785714D02*
X75026247Y-41738095D01*
X75026247Y-41738095D02*
X75264342Y-41738095D01*
X75264342Y-41738095D02*
X75359580Y-41785714D01*
X75359580Y-41785714D02*
X75407200Y-41833333D01*
X75407200Y-41833333D02*
X75454819Y-41928571D01*
X75454819Y-41928571D02*
X75454819Y-42166666D01*
X75454819Y-42166666D02*
X75407200Y-42261904D01*
X75407200Y-42261904D02*
X75359580Y-42309523D01*
X93907142Y-86784819D02*
X93573809Y-86308628D01*
X93335714Y-86784819D02*
X93335714Y-85784819D01*
X93335714Y-85784819D02*
X93716666Y-85784819D01*
X93716666Y-85784819D02*
X93811904Y-85832438D01*
X93811904Y-85832438D02*
X93859523Y-85880057D01*
X93859523Y-85880057D02*
X93907142Y-85975295D01*
X93907142Y-85975295D02*
X93907142Y-86118152D01*
X93907142Y-86118152D02*
X93859523Y-86213390D01*
X93859523Y-86213390D02*
X93811904Y-86261009D01*
X93811904Y-86261009D02*
X93716666Y-86308628D01*
X93716666Y-86308628D02*
X93335714Y-86308628D01*
X94859523Y-86784819D02*
X94288095Y-86784819D01*
X94573809Y-86784819D02*
X94573809Y-85784819D01*
X94573809Y-85784819D02*
X94478571Y-85927676D01*
X94478571Y-85927676D02*
X94383333Y-86022914D01*
X94383333Y-86022914D02*
X94288095Y-86070533D01*
X95240476Y-85880057D02*
X95288095Y-85832438D01*
X95288095Y-85832438D02*
X95383333Y-85784819D01*
X95383333Y-85784819D02*
X95621428Y-85784819D01*
X95621428Y-85784819D02*
X95716666Y-85832438D01*
X95716666Y-85832438D02*
X95764285Y-85880057D01*
X95764285Y-85880057D02*
X95811904Y-85975295D01*
X95811904Y-85975295D02*
X95811904Y-86070533D01*
X95811904Y-86070533D02*
X95764285Y-86213390D01*
X95764285Y-86213390D02*
X95192857Y-86784819D01*
X95192857Y-86784819D02*
X95811904Y-86784819D01*
X89416666Y-39004819D02*
X89416666Y-39719104D01*
X89416666Y-39719104D02*
X89369047Y-39861961D01*
X89369047Y-39861961D02*
X89273809Y-39957200D01*
X89273809Y-39957200D02*
X89130952Y-40004819D01*
X89130952Y-40004819D02*
X89035714Y-40004819D01*
X89797619Y-39004819D02*
X90464285Y-39004819D01*
X90464285Y-39004819D02*
X90035714Y-40004819D01*
X85357142Y-72859580D02*
X85309523Y-72907200D01*
X85309523Y-72907200D02*
X85166666Y-72954819D01*
X85166666Y-72954819D02*
X85071428Y-72954819D01*
X85071428Y-72954819D02*
X84928571Y-72907200D01*
X84928571Y-72907200D02*
X84833333Y-72811961D01*
X84833333Y-72811961D02*
X84785714Y-72716723D01*
X84785714Y-72716723D02*
X84738095Y-72526247D01*
X84738095Y-72526247D02*
X84738095Y-72383390D01*
X84738095Y-72383390D02*
X84785714Y-72192914D01*
X84785714Y-72192914D02*
X84833333Y-72097676D01*
X84833333Y-72097676D02*
X84928571Y-72002438D01*
X84928571Y-72002438D02*
X85071428Y-71954819D01*
X85071428Y-71954819D02*
X85166666Y-71954819D01*
X85166666Y-71954819D02*
X85309523Y-72002438D01*
X85309523Y-72002438D02*
X85357142Y-72050057D01*
X86309523Y-72954819D02*
X85738095Y-72954819D01*
X86023809Y-72954819D02*
X86023809Y-71954819D01*
X86023809Y-71954819D02*
X85928571Y-72097676D01*
X85928571Y-72097676D02*
X85833333Y-72192914D01*
X85833333Y-72192914D02*
X85738095Y-72240533D01*
X87166666Y-72288152D02*
X87166666Y-72954819D01*
X86928571Y-71907200D02*
X86690476Y-72621485D01*
X86690476Y-72621485D02*
X87309523Y-72621485D01*
X98354819Y-51933333D02*
X99069104Y-51933333D01*
X99069104Y-51933333D02*
X99211961Y-51980952D01*
X99211961Y-51980952D02*
X99307200Y-52076190D01*
X99307200Y-52076190D02*
X99354819Y-52219047D01*
X99354819Y-52219047D02*
X99354819Y-52314285D01*
X98354819Y-50980952D02*
X98354819Y-51457142D01*
X98354819Y-51457142D02*
X98831009Y-51504761D01*
X98831009Y-51504761D02*
X98783390Y-51457142D01*
X98783390Y-51457142D02*
X98735771Y-51361904D01*
X98735771Y-51361904D02*
X98735771Y-51123809D01*
X98735771Y-51123809D02*
X98783390Y-51028571D01*
X98783390Y-51028571D02*
X98831009Y-50980952D01*
X98831009Y-50980952D02*
X98926247Y-50933333D01*
X98926247Y-50933333D02*
X99164342Y-50933333D01*
X99164342Y-50933333D02*
X99259580Y-50980952D01*
X99259580Y-50980952D02*
X99307200Y-51028571D01*
X99307200Y-51028571D02*
X99354819Y-51123809D01*
X99354819Y-51123809D02*
X99354819Y-51361904D01*
X99354819Y-51361904D02*
X99307200Y-51457142D01*
X99307200Y-51457142D02*
X99259580Y-51504761D01*
X58916666Y-89404819D02*
X58916666Y-90119104D01*
X58916666Y-90119104D02*
X58869047Y-90261961D01*
X58869047Y-90261961D02*
X58773809Y-90357200D01*
X58773809Y-90357200D02*
X58630952Y-90404819D01*
X58630952Y-90404819D02*
X58535714Y-90404819D01*
X59916666Y-90404819D02*
X59345238Y-90404819D01*
X59630952Y-90404819D02*
X59630952Y-89404819D01*
X59630952Y-89404819D02*
X59535714Y-89547676D01*
X59535714Y-89547676D02*
X59440476Y-89642914D01*
X59440476Y-89642914D02*
X59345238Y-89690533D01*
X65261905Y-48954819D02*
X65261905Y-47954819D01*
X65261905Y-47954819D02*
X65500000Y-47954819D01*
X65500000Y-47954819D02*
X65642857Y-48002438D01*
X65642857Y-48002438D02*
X65738095Y-48097676D01*
X65738095Y-48097676D02*
X65785714Y-48192914D01*
X65785714Y-48192914D02*
X65833333Y-48383390D01*
X65833333Y-48383390D02*
X65833333Y-48526247D01*
X65833333Y-48526247D02*
X65785714Y-48716723D01*
X65785714Y-48716723D02*
X65738095Y-48811961D01*
X65738095Y-48811961D02*
X65642857Y-48907200D01*
X65642857Y-48907200D02*
X65500000Y-48954819D01*
X65500000Y-48954819D02*
X65261905Y-48954819D01*
X66214286Y-48050057D02*
X66261905Y-48002438D01*
X66261905Y-48002438D02*
X66357143Y-47954819D01*
X66357143Y-47954819D02*
X66595238Y-47954819D01*
X66595238Y-47954819D02*
X66690476Y-48002438D01*
X66690476Y-48002438D02*
X66738095Y-48050057D01*
X66738095Y-48050057D02*
X66785714Y-48145295D01*
X66785714Y-48145295D02*
X66785714Y-48240533D01*
X66785714Y-48240533D02*
X66738095Y-48383390D01*
X66738095Y-48383390D02*
X66166667Y-48954819D01*
X66166667Y-48954819D02*
X66785714Y-48954819D01*
X44309524Y-88956819D02*
X44928571Y-88956819D01*
X44928571Y-88956819D02*
X44595238Y-89337771D01*
X44595238Y-89337771D02*
X44738095Y-89337771D01*
X44738095Y-89337771D02*
X44833333Y-89385390D01*
X44833333Y-89385390D02*
X44880952Y-89433009D01*
X44880952Y-89433009D02*
X44928571Y-89528247D01*
X44928571Y-89528247D02*
X44928571Y-89766342D01*
X44928571Y-89766342D02*
X44880952Y-89861580D01*
X44880952Y-89861580D02*
X44833333Y-89909200D01*
X44833333Y-89909200D02*
X44738095Y-89956819D01*
X44738095Y-89956819D02*
X44452381Y-89956819D01*
X44452381Y-89956819D02*
X44357143Y-89909200D01*
X44357143Y-89909200D02*
X44309524Y-89861580D01*
X45261905Y-89290152D02*
X45500000Y-89956819D01*
X45500000Y-89956819D02*
X45738095Y-89290152D01*
X46023810Y-88956819D02*
X46642857Y-88956819D01*
X46642857Y-88956819D02*
X46309524Y-89337771D01*
X46309524Y-89337771D02*
X46452381Y-89337771D01*
X46452381Y-89337771D02*
X46547619Y-89385390D01*
X46547619Y-89385390D02*
X46595238Y-89433009D01*
X46595238Y-89433009D02*
X46642857Y-89528247D01*
X46642857Y-89528247D02*
X46642857Y-89766342D01*
X46642857Y-89766342D02*
X46595238Y-89861580D01*
X46595238Y-89861580D02*
X46547619Y-89909200D01*
X46547619Y-89909200D02*
X46452381Y-89956819D01*
X46452381Y-89956819D02*
X46166667Y-89956819D01*
X46166667Y-89956819D02*
X46071429Y-89909200D01*
X46071429Y-89909200D02*
X46023810Y-89861580D01*
X46333333Y-68359580D02*
X46285714Y-68407200D01*
X46285714Y-68407200D02*
X46142857Y-68454819D01*
X46142857Y-68454819D02*
X46047619Y-68454819D01*
X46047619Y-68454819D02*
X45904762Y-68407200D01*
X45904762Y-68407200D02*
X45809524Y-68311961D01*
X45809524Y-68311961D02*
X45761905Y-68216723D01*
X45761905Y-68216723D02*
X45714286Y-68026247D01*
X45714286Y-68026247D02*
X45714286Y-67883390D01*
X45714286Y-67883390D02*
X45761905Y-67692914D01*
X45761905Y-67692914D02*
X45809524Y-67597676D01*
X45809524Y-67597676D02*
X45904762Y-67502438D01*
X45904762Y-67502438D02*
X46047619Y-67454819D01*
X46047619Y-67454819D02*
X46142857Y-67454819D01*
X46142857Y-67454819D02*
X46285714Y-67502438D01*
X46285714Y-67502438D02*
X46333333Y-67550057D01*
X46809524Y-68454819D02*
X47000000Y-68454819D01*
X47000000Y-68454819D02*
X47095238Y-68407200D01*
X47095238Y-68407200D02*
X47142857Y-68359580D01*
X47142857Y-68359580D02*
X47238095Y-68216723D01*
X47238095Y-68216723D02*
X47285714Y-68026247D01*
X47285714Y-68026247D02*
X47285714Y-67645295D01*
X47285714Y-67645295D02*
X47238095Y-67550057D01*
X47238095Y-67550057D02*
X47190476Y-67502438D01*
X47190476Y-67502438D02*
X47095238Y-67454819D01*
X47095238Y-67454819D02*
X46904762Y-67454819D01*
X46904762Y-67454819D02*
X46809524Y-67502438D01*
X46809524Y-67502438D02*
X46761905Y-67550057D01*
X46761905Y-67550057D02*
X46714286Y-67645295D01*
X46714286Y-67645295D02*
X46714286Y-67883390D01*
X46714286Y-67883390D02*
X46761905Y-67978628D01*
X46761905Y-67978628D02*
X46809524Y-68026247D01*
X46809524Y-68026247D02*
X46904762Y-68073866D01*
X46904762Y-68073866D02*
X47095238Y-68073866D01*
X47095238Y-68073866D02*
X47190476Y-68026247D01*
X47190476Y-68026247D02*
X47238095Y-67978628D01*
X47238095Y-67978628D02*
X47285714Y-67883390D01*
X98379819Y-86833333D02*
X99094104Y-86833333D01*
X99094104Y-86833333D02*
X99236961Y-86880952D01*
X99236961Y-86880952D02*
X99332200Y-86976190D01*
X99332200Y-86976190D02*
X99379819Y-87119047D01*
X99379819Y-87119047D02*
X99379819Y-87214285D01*
X98475057Y-86404761D02*
X98427438Y-86357142D01*
X98427438Y-86357142D02*
X98379819Y-86261904D01*
X98379819Y-86261904D02*
X98379819Y-86023809D01*
X98379819Y-86023809D02*
X98427438Y-85928571D01*
X98427438Y-85928571D02*
X98475057Y-85880952D01*
X98475057Y-85880952D02*
X98570295Y-85833333D01*
X98570295Y-85833333D02*
X98665533Y-85833333D01*
X98665533Y-85833333D02*
X98808390Y-85880952D01*
X98808390Y-85880952D02*
X99379819Y-86452380D01*
X99379819Y-86452380D02*
X99379819Y-85833333D01*
X63833333Y-80859580D02*
X63785714Y-80907200D01*
X63785714Y-80907200D02*
X63642857Y-80954819D01*
X63642857Y-80954819D02*
X63547619Y-80954819D01*
X63547619Y-80954819D02*
X63404762Y-80907200D01*
X63404762Y-80907200D02*
X63309524Y-80811961D01*
X63309524Y-80811961D02*
X63261905Y-80716723D01*
X63261905Y-80716723D02*
X63214286Y-80526247D01*
X63214286Y-80526247D02*
X63214286Y-80383390D01*
X63214286Y-80383390D02*
X63261905Y-80192914D01*
X63261905Y-80192914D02*
X63309524Y-80097676D01*
X63309524Y-80097676D02*
X63404762Y-80002438D01*
X63404762Y-80002438D02*
X63547619Y-79954819D01*
X63547619Y-79954819D02*
X63642857Y-79954819D01*
X63642857Y-79954819D02*
X63785714Y-80002438D01*
X63785714Y-80002438D02*
X63833333Y-80050057D01*
X64214286Y-80050057D02*
X64261905Y-80002438D01*
X64261905Y-80002438D02*
X64357143Y-79954819D01*
X64357143Y-79954819D02*
X64595238Y-79954819D01*
X64595238Y-79954819D02*
X64690476Y-80002438D01*
X64690476Y-80002438D02*
X64738095Y-80050057D01*
X64738095Y-80050057D02*
X64785714Y-80145295D01*
X64785714Y-80145295D02*
X64785714Y-80240533D01*
X64785714Y-80240533D02*
X64738095Y-80383390D01*
X64738095Y-80383390D02*
X64166667Y-80954819D01*
X64166667Y-80954819D02*
X64785714Y-80954819D01*
X98354819Y-62933333D02*
X99069104Y-62933333D01*
X99069104Y-62933333D02*
X99211961Y-62980952D01*
X99211961Y-62980952D02*
X99307200Y-63076190D01*
X99307200Y-63076190D02*
X99354819Y-63219047D01*
X99354819Y-63219047D02*
X99354819Y-63314285D01*
X98688152Y-62028571D02*
X99354819Y-62028571D01*
X98307200Y-62266666D02*
X99021485Y-62504761D01*
X99021485Y-62504761D02*
X99021485Y-61885714D01*
X64333333Y-68359580D02*
X64285714Y-68407200D01*
X64285714Y-68407200D02*
X64142857Y-68454819D01*
X64142857Y-68454819D02*
X64047619Y-68454819D01*
X64047619Y-68454819D02*
X63904762Y-68407200D01*
X63904762Y-68407200D02*
X63809524Y-68311961D01*
X63809524Y-68311961D02*
X63761905Y-68216723D01*
X63761905Y-68216723D02*
X63714286Y-68026247D01*
X63714286Y-68026247D02*
X63714286Y-67883390D01*
X63714286Y-67883390D02*
X63761905Y-67692914D01*
X63761905Y-67692914D02*
X63809524Y-67597676D01*
X63809524Y-67597676D02*
X63904762Y-67502438D01*
X63904762Y-67502438D02*
X64047619Y-67454819D01*
X64047619Y-67454819D02*
X64142857Y-67454819D01*
X64142857Y-67454819D02*
X64285714Y-67502438D01*
X64285714Y-67502438D02*
X64333333Y-67550057D01*
X65190476Y-67788152D02*
X65190476Y-68454819D01*
X64952381Y-67407200D02*
X64714286Y-68121485D01*
X64714286Y-68121485D02*
X65333333Y-68121485D01*
X65261904Y-92004438D02*
X65166666Y-91956819D01*
X65166666Y-91956819D02*
X65023809Y-91956819D01*
X65023809Y-91956819D02*
X64880952Y-92004438D01*
X64880952Y-92004438D02*
X64785714Y-92099676D01*
X64785714Y-92099676D02*
X64738095Y-92194914D01*
X64738095Y-92194914D02*
X64690476Y-92385390D01*
X64690476Y-92385390D02*
X64690476Y-92528247D01*
X64690476Y-92528247D02*
X64738095Y-92718723D01*
X64738095Y-92718723D02*
X64785714Y-92813961D01*
X64785714Y-92813961D02*
X64880952Y-92909200D01*
X64880952Y-92909200D02*
X65023809Y-92956819D01*
X65023809Y-92956819D02*
X65119047Y-92956819D01*
X65119047Y-92956819D02*
X65261904Y-92909200D01*
X65261904Y-92909200D02*
X65309523Y-92861580D01*
X65309523Y-92861580D02*
X65309523Y-92528247D01*
X65309523Y-92528247D02*
X65119047Y-92528247D01*
X65738095Y-92956819D02*
X65738095Y-91956819D01*
X65738095Y-91956819D02*
X66309523Y-92956819D01*
X66309523Y-92956819D02*
X66309523Y-91956819D01*
X66785714Y-92956819D02*
X66785714Y-91956819D01*
X66785714Y-91956819D02*
X67023809Y-91956819D01*
X67023809Y-91956819D02*
X67166666Y-92004438D01*
X67166666Y-92004438D02*
X67261904Y-92099676D01*
X67261904Y-92099676D02*
X67309523Y-92194914D01*
X67309523Y-92194914D02*
X67357142Y-92385390D01*
X67357142Y-92385390D02*
X67357142Y-92528247D01*
X67357142Y-92528247D02*
X67309523Y-92718723D01*
X67309523Y-92718723D02*
X67261904Y-92813961D01*
X67261904Y-92813961D02*
X67166666Y-92909200D01*
X67166666Y-92909200D02*
X67023809Y-92956819D01*
X67023809Y-92956819D02*
X66785714Y-92956819D01*
X68309523Y-92956819D02*
X67738095Y-92956819D01*
X68023809Y-92956819D02*
X68023809Y-91956819D01*
X68023809Y-91956819D02*
X67928571Y-92099676D01*
X67928571Y-92099676D02*
X67833333Y-92194914D01*
X67833333Y-92194914D02*
X67738095Y-92242533D01*
X86238095Y-84174819D02*
X86238095Y-84984342D01*
X86238095Y-84984342D02*
X86285714Y-85079580D01*
X86285714Y-85079580D02*
X86333333Y-85127200D01*
X86333333Y-85127200D02*
X86428571Y-85174819D01*
X86428571Y-85174819D02*
X86619047Y-85174819D01*
X86619047Y-85174819D02*
X86714285Y-85127200D01*
X86714285Y-85127200D02*
X86761904Y-85079580D01*
X86761904Y-85079580D02*
X86809523Y-84984342D01*
X86809523Y-84984342D02*
X86809523Y-84174819D01*
X87809523Y-85174819D02*
X87238095Y-85174819D01*
X87523809Y-85174819D02*
X87523809Y-84174819D01*
X87523809Y-84174819D02*
X87428571Y-84317676D01*
X87428571Y-84317676D02*
X87333333Y-84412914D01*
X87333333Y-84412914D02*
X87238095Y-84460533D01*
X94357142Y-47359580D02*
X94309523Y-47407200D01*
X94309523Y-47407200D02*
X94166666Y-47454819D01*
X94166666Y-47454819D02*
X94071428Y-47454819D01*
X94071428Y-47454819D02*
X93928571Y-47407200D01*
X93928571Y-47407200D02*
X93833333Y-47311961D01*
X93833333Y-47311961D02*
X93785714Y-47216723D01*
X93785714Y-47216723D02*
X93738095Y-47026247D01*
X93738095Y-47026247D02*
X93738095Y-46883390D01*
X93738095Y-46883390D02*
X93785714Y-46692914D01*
X93785714Y-46692914D02*
X93833333Y-46597676D01*
X93833333Y-46597676D02*
X93928571Y-46502438D01*
X93928571Y-46502438D02*
X94071428Y-46454819D01*
X94071428Y-46454819D02*
X94166666Y-46454819D01*
X94166666Y-46454819D02*
X94309523Y-46502438D01*
X94309523Y-46502438D02*
X94357142Y-46550057D01*
X94738095Y-46550057D02*
X94785714Y-46502438D01*
X94785714Y-46502438D02*
X94880952Y-46454819D01*
X94880952Y-46454819D02*
X95119047Y-46454819D01*
X95119047Y-46454819D02*
X95214285Y-46502438D01*
X95214285Y-46502438D02*
X95261904Y-46550057D01*
X95261904Y-46550057D02*
X95309523Y-46645295D01*
X95309523Y-46645295D02*
X95309523Y-46740533D01*
X95309523Y-46740533D02*
X95261904Y-46883390D01*
X95261904Y-46883390D02*
X94690476Y-47454819D01*
X94690476Y-47454819D02*
X95309523Y-47454819D01*
X95642857Y-46454819D02*
X96261904Y-46454819D01*
X96261904Y-46454819D02*
X95928571Y-46835771D01*
X95928571Y-46835771D02*
X96071428Y-46835771D01*
X96071428Y-46835771D02*
X96166666Y-46883390D01*
X96166666Y-46883390D02*
X96214285Y-46931009D01*
X96214285Y-46931009D02*
X96261904Y-47026247D01*
X96261904Y-47026247D02*
X96261904Y-47264342D01*
X96261904Y-47264342D02*
X96214285Y-47359580D01*
X96214285Y-47359580D02*
X96166666Y-47407200D01*
X96166666Y-47407200D02*
X96071428Y-47454819D01*
X96071428Y-47454819D02*
X95785714Y-47454819D01*
X95785714Y-47454819D02*
X95690476Y-47407200D01*
X95690476Y-47407200D02*
X95642857Y-47359580D01*
X94333333Y-82784819D02*
X94000000Y-82308628D01*
X93761905Y-82784819D02*
X93761905Y-81784819D01*
X93761905Y-81784819D02*
X94142857Y-81784819D01*
X94142857Y-81784819D02*
X94238095Y-81832438D01*
X94238095Y-81832438D02*
X94285714Y-81880057D01*
X94285714Y-81880057D02*
X94333333Y-81975295D01*
X94333333Y-81975295D02*
X94333333Y-82118152D01*
X94333333Y-82118152D02*
X94285714Y-82213390D01*
X94285714Y-82213390D02*
X94238095Y-82261009D01*
X94238095Y-82261009D02*
X94142857Y-82308628D01*
X94142857Y-82308628D02*
X93761905Y-82308628D01*
X94809524Y-82784819D02*
X95000000Y-82784819D01*
X95000000Y-82784819D02*
X95095238Y-82737200D01*
X95095238Y-82737200D02*
X95142857Y-82689580D01*
X95142857Y-82689580D02*
X95238095Y-82546723D01*
X95238095Y-82546723D02*
X95285714Y-82356247D01*
X95285714Y-82356247D02*
X95285714Y-81975295D01*
X95285714Y-81975295D02*
X95238095Y-81880057D01*
X95238095Y-81880057D02*
X95190476Y-81832438D01*
X95190476Y-81832438D02*
X95095238Y-81784819D01*
X95095238Y-81784819D02*
X94904762Y-81784819D01*
X94904762Y-81784819D02*
X94809524Y-81832438D01*
X94809524Y-81832438D02*
X94761905Y-81880057D01*
X94761905Y-81880057D02*
X94714286Y-81975295D01*
X94714286Y-81975295D02*
X94714286Y-82213390D01*
X94714286Y-82213390D02*
X94761905Y-82308628D01*
X94761905Y-82308628D02*
X94809524Y-82356247D01*
X94809524Y-82356247D02*
X94904762Y-82403866D01*
X94904762Y-82403866D02*
X95095238Y-82403866D01*
X95095238Y-82403866D02*
X95190476Y-82356247D01*
X95190476Y-82356247D02*
X95238095Y-82308628D01*
X95238095Y-82308628D02*
X95285714Y-82213390D01*
X49784819Y-36738094D02*
X50594342Y-36738094D01*
X50594342Y-36738094D02*
X50689580Y-36690475D01*
X50689580Y-36690475D02*
X50737200Y-36642856D01*
X50737200Y-36642856D02*
X50784819Y-36547618D01*
X50784819Y-36547618D02*
X50784819Y-36357142D01*
X50784819Y-36357142D02*
X50737200Y-36261904D01*
X50737200Y-36261904D02*
X50689580Y-36214285D01*
X50689580Y-36214285D02*
X50594342Y-36166666D01*
X50594342Y-36166666D02*
X49784819Y-36166666D01*
X50737200Y-35738094D02*
X50784819Y-35595237D01*
X50784819Y-35595237D02*
X50784819Y-35357142D01*
X50784819Y-35357142D02*
X50737200Y-35261904D01*
X50737200Y-35261904D02*
X50689580Y-35214285D01*
X50689580Y-35214285D02*
X50594342Y-35166666D01*
X50594342Y-35166666D02*
X50499104Y-35166666D01*
X50499104Y-35166666D02*
X50403866Y-35214285D01*
X50403866Y-35214285D02*
X50356247Y-35261904D01*
X50356247Y-35261904D02*
X50308628Y-35357142D01*
X50308628Y-35357142D02*
X50261009Y-35547618D01*
X50261009Y-35547618D02*
X50213390Y-35642856D01*
X50213390Y-35642856D02*
X50165771Y-35690475D01*
X50165771Y-35690475D02*
X50070533Y-35738094D01*
X50070533Y-35738094D02*
X49975295Y-35738094D01*
X49975295Y-35738094D02*
X49880057Y-35690475D01*
X49880057Y-35690475D02*
X49832438Y-35642856D01*
X49832438Y-35642856D02*
X49784819Y-35547618D01*
X49784819Y-35547618D02*
X49784819Y-35309523D01*
X49784819Y-35309523D02*
X49832438Y-35166666D01*
X50261009Y-34404761D02*
X50308628Y-34261904D01*
X50308628Y-34261904D02*
X50356247Y-34214285D01*
X50356247Y-34214285D02*
X50451485Y-34166666D01*
X50451485Y-34166666D02*
X50594342Y-34166666D01*
X50594342Y-34166666D02*
X50689580Y-34214285D01*
X50689580Y-34214285D02*
X50737200Y-34261904D01*
X50737200Y-34261904D02*
X50784819Y-34357142D01*
X50784819Y-34357142D02*
X50784819Y-34738094D01*
X50784819Y-34738094D02*
X49784819Y-34738094D01*
X49784819Y-34738094D02*
X49784819Y-34404761D01*
X49784819Y-34404761D02*
X49832438Y-34309523D01*
X49832438Y-34309523D02*
X49880057Y-34261904D01*
X49880057Y-34261904D02*
X49975295Y-34214285D01*
X49975295Y-34214285D02*
X50070533Y-34214285D01*
X50070533Y-34214285D02*
X50165771Y-34261904D01*
X50165771Y-34261904D02*
X50213390Y-34309523D01*
X50213390Y-34309523D02*
X50261009Y-34404761D01*
X50261009Y-34404761D02*
X50261009Y-34738094D01*
X50784819Y-33214285D02*
X50784819Y-33785713D01*
X50784819Y-33499999D02*
X49784819Y-33499999D01*
X49784819Y-33499999D02*
X49927676Y-33595237D01*
X49927676Y-33595237D02*
X50022914Y-33690475D01*
X50022914Y-33690475D02*
X50070533Y-33785713D01*
X79859580Y-43642857D02*
X79907200Y-43690476D01*
X79907200Y-43690476D02*
X79954819Y-43833333D01*
X79954819Y-43833333D02*
X79954819Y-43928571D01*
X79954819Y-43928571D02*
X79907200Y-44071428D01*
X79907200Y-44071428D02*
X79811961Y-44166666D01*
X79811961Y-44166666D02*
X79716723Y-44214285D01*
X79716723Y-44214285D02*
X79526247Y-44261904D01*
X79526247Y-44261904D02*
X79383390Y-44261904D01*
X79383390Y-44261904D02*
X79192914Y-44214285D01*
X79192914Y-44214285D02*
X79097676Y-44166666D01*
X79097676Y-44166666D02*
X79002438Y-44071428D01*
X79002438Y-44071428D02*
X78954819Y-43928571D01*
X78954819Y-43928571D02*
X78954819Y-43833333D01*
X78954819Y-43833333D02*
X79002438Y-43690476D01*
X79002438Y-43690476D02*
X79050057Y-43642857D01*
X79050057Y-43261904D02*
X79002438Y-43214285D01*
X79002438Y-43214285D02*
X78954819Y-43119047D01*
X78954819Y-43119047D02*
X78954819Y-42880952D01*
X78954819Y-42880952D02*
X79002438Y-42785714D01*
X79002438Y-42785714D02*
X79050057Y-42738095D01*
X79050057Y-42738095D02*
X79145295Y-42690476D01*
X79145295Y-42690476D02*
X79240533Y-42690476D01*
X79240533Y-42690476D02*
X79383390Y-42738095D01*
X79383390Y-42738095D02*
X79954819Y-43309523D01*
X79954819Y-43309523D02*
X79954819Y-42690476D01*
X79288152Y-41833333D02*
X79954819Y-41833333D01*
X78907200Y-42071428D02*
X79621485Y-42309523D01*
X79621485Y-42309523D02*
X79621485Y-41690476D01*
X58166666Y-63931009D02*
X57833333Y-63931009D01*
X57833333Y-64454819D02*
X57833333Y-63454819D01*
X57833333Y-63454819D02*
X58309523Y-63454819D01*
X59023809Y-63931009D02*
X59166666Y-63978628D01*
X59166666Y-63978628D02*
X59214285Y-64026247D01*
X59214285Y-64026247D02*
X59261904Y-64121485D01*
X59261904Y-64121485D02*
X59261904Y-64264342D01*
X59261904Y-64264342D02*
X59214285Y-64359580D01*
X59214285Y-64359580D02*
X59166666Y-64407200D01*
X59166666Y-64407200D02*
X59071428Y-64454819D01*
X59071428Y-64454819D02*
X58690476Y-64454819D01*
X58690476Y-64454819D02*
X58690476Y-63454819D01*
X58690476Y-63454819D02*
X59023809Y-63454819D01*
X59023809Y-63454819D02*
X59119047Y-63502438D01*
X59119047Y-63502438D02*
X59166666Y-63550057D01*
X59166666Y-63550057D02*
X59214285Y-63645295D01*
X59214285Y-63645295D02*
X59214285Y-63740533D01*
X59214285Y-63740533D02*
X59166666Y-63835771D01*
X59166666Y-63835771D02*
X59119047Y-63883390D01*
X59119047Y-63883390D02*
X59023809Y-63931009D01*
X59023809Y-63931009D02*
X58690476Y-63931009D01*
X60214285Y-64454819D02*
X59642857Y-64454819D01*
X59928571Y-64454819D02*
X59928571Y-63454819D01*
X59928571Y-63454819D02*
X59833333Y-63597676D01*
X59833333Y-63597676D02*
X59738095Y-63692914D01*
X59738095Y-63692914D02*
X59642857Y-63740533D01*
X67833333Y-68454819D02*
X67500000Y-67978628D01*
X67261905Y-68454819D02*
X67261905Y-67454819D01*
X67261905Y-67454819D02*
X67642857Y-67454819D01*
X67642857Y-67454819D02*
X67738095Y-67502438D01*
X67738095Y-67502438D02*
X67785714Y-67550057D01*
X67785714Y-67550057D02*
X67833333Y-67645295D01*
X67833333Y-67645295D02*
X67833333Y-67788152D01*
X67833333Y-67788152D02*
X67785714Y-67883390D01*
X67785714Y-67883390D02*
X67738095Y-67931009D01*
X67738095Y-67931009D02*
X67642857Y-67978628D01*
X67642857Y-67978628D02*
X67261905Y-67978628D01*
X68214286Y-67550057D02*
X68261905Y-67502438D01*
X68261905Y-67502438D02*
X68357143Y-67454819D01*
X68357143Y-67454819D02*
X68595238Y-67454819D01*
X68595238Y-67454819D02*
X68690476Y-67502438D01*
X68690476Y-67502438D02*
X68738095Y-67550057D01*
X68738095Y-67550057D02*
X68785714Y-67645295D01*
X68785714Y-67645295D02*
X68785714Y-67740533D01*
X68785714Y-67740533D02*
X68738095Y-67883390D01*
X68738095Y-67883390D02*
X68166667Y-68454819D01*
X68166667Y-68454819D02*
X68785714Y-68454819D01*
X45738095Y-66854819D02*
X45738095Y-67664342D01*
X45738095Y-67664342D02*
X45785714Y-67759580D01*
X45785714Y-67759580D02*
X45833333Y-67807200D01*
X45833333Y-67807200D02*
X45928571Y-67854819D01*
X45928571Y-67854819D02*
X46119047Y-67854819D01*
X46119047Y-67854819D02*
X46214285Y-67807200D01*
X46214285Y-67807200D02*
X46261904Y-67759580D01*
X46261904Y-67759580D02*
X46309523Y-67664342D01*
X46309523Y-67664342D02*
X46309523Y-66854819D01*
X47261904Y-66854819D02*
X46785714Y-66854819D01*
X46785714Y-66854819D02*
X46738095Y-67331009D01*
X46738095Y-67331009D02*
X46785714Y-67283390D01*
X46785714Y-67283390D02*
X46880952Y-67235771D01*
X46880952Y-67235771D02*
X47119047Y-67235771D01*
X47119047Y-67235771D02*
X47214285Y-67283390D01*
X47214285Y-67283390D02*
X47261904Y-67331009D01*
X47261904Y-67331009D02*
X47309523Y-67426247D01*
X47309523Y-67426247D02*
X47309523Y-67664342D01*
X47309523Y-67664342D02*
X47261904Y-67759580D01*
X47261904Y-67759580D02*
X47214285Y-67807200D01*
X47214285Y-67807200D02*
X47119047Y-67854819D01*
X47119047Y-67854819D02*
X46880952Y-67854819D01*
X46880952Y-67854819D02*
X46785714Y-67807200D01*
X46785714Y-67807200D02*
X46738095Y-67759580D01*
X76357142Y-74859580D02*
X76309523Y-74907200D01*
X76309523Y-74907200D02*
X76166666Y-74954819D01*
X76166666Y-74954819D02*
X76071428Y-74954819D01*
X76071428Y-74954819D02*
X75928571Y-74907200D01*
X75928571Y-74907200D02*
X75833333Y-74811961D01*
X75833333Y-74811961D02*
X75785714Y-74716723D01*
X75785714Y-74716723D02*
X75738095Y-74526247D01*
X75738095Y-74526247D02*
X75738095Y-74383390D01*
X75738095Y-74383390D02*
X75785714Y-74192914D01*
X75785714Y-74192914D02*
X75833333Y-74097676D01*
X75833333Y-74097676D02*
X75928571Y-74002438D01*
X75928571Y-74002438D02*
X76071428Y-73954819D01*
X76071428Y-73954819D02*
X76166666Y-73954819D01*
X76166666Y-73954819D02*
X76309523Y-74002438D01*
X76309523Y-74002438D02*
X76357142Y-74050057D01*
X77309523Y-74954819D02*
X76738095Y-74954819D01*
X77023809Y-74954819D02*
X77023809Y-73954819D01*
X77023809Y-73954819D02*
X76928571Y-74097676D01*
X76928571Y-74097676D02*
X76833333Y-74192914D01*
X76833333Y-74192914D02*
X76738095Y-74240533D01*
X77785714Y-74954819D02*
X77976190Y-74954819D01*
X77976190Y-74954819D02*
X78071428Y-74907200D01*
X78071428Y-74907200D02*
X78119047Y-74859580D01*
X78119047Y-74859580D02*
X78214285Y-74716723D01*
X78214285Y-74716723D02*
X78261904Y-74526247D01*
X78261904Y-74526247D02*
X78261904Y-74145295D01*
X78261904Y-74145295D02*
X78214285Y-74050057D01*
X78214285Y-74050057D02*
X78166666Y-74002438D01*
X78166666Y-74002438D02*
X78071428Y-73954819D01*
X78071428Y-73954819D02*
X77880952Y-73954819D01*
X77880952Y-73954819D02*
X77785714Y-74002438D01*
X77785714Y-74002438D02*
X77738095Y-74050057D01*
X77738095Y-74050057D02*
X77690476Y-74145295D01*
X77690476Y-74145295D02*
X77690476Y-74383390D01*
X77690476Y-74383390D02*
X77738095Y-74478628D01*
X77738095Y-74478628D02*
X77785714Y-74526247D01*
X77785714Y-74526247D02*
X77880952Y-74573866D01*
X77880952Y-74573866D02*
X78071428Y-74573866D01*
X78071428Y-74573866D02*
X78166666Y-74526247D01*
X78166666Y-74526247D02*
X78214285Y-74478628D01*
X78214285Y-74478628D02*
X78261904Y-74383390D01*
X44357142Y-62859580D02*
X44309523Y-62907200D01*
X44309523Y-62907200D02*
X44166666Y-62954819D01*
X44166666Y-62954819D02*
X44071428Y-62954819D01*
X44071428Y-62954819D02*
X43928571Y-62907200D01*
X43928571Y-62907200D02*
X43833333Y-62811961D01*
X43833333Y-62811961D02*
X43785714Y-62716723D01*
X43785714Y-62716723D02*
X43738095Y-62526247D01*
X43738095Y-62526247D02*
X43738095Y-62383390D01*
X43738095Y-62383390D02*
X43785714Y-62192914D01*
X43785714Y-62192914D02*
X43833333Y-62097676D01*
X43833333Y-62097676D02*
X43928571Y-62002438D01*
X43928571Y-62002438D02*
X44071428Y-61954819D01*
X44071428Y-61954819D02*
X44166666Y-61954819D01*
X44166666Y-61954819D02*
X44309523Y-62002438D01*
X44309523Y-62002438D02*
X44357142Y-62050057D01*
X44738095Y-62050057D02*
X44785714Y-62002438D01*
X44785714Y-62002438D02*
X44880952Y-61954819D01*
X44880952Y-61954819D02*
X45119047Y-61954819D01*
X45119047Y-61954819D02*
X45214285Y-62002438D01*
X45214285Y-62002438D02*
X45261904Y-62050057D01*
X45261904Y-62050057D02*
X45309523Y-62145295D01*
X45309523Y-62145295D02*
X45309523Y-62240533D01*
X45309523Y-62240533D02*
X45261904Y-62383390D01*
X45261904Y-62383390D02*
X44690476Y-62954819D01*
X44690476Y-62954819D02*
X45309523Y-62954819D01*
X45928571Y-61954819D02*
X46023809Y-61954819D01*
X46023809Y-61954819D02*
X46119047Y-62002438D01*
X46119047Y-62002438D02*
X46166666Y-62050057D01*
X46166666Y-62050057D02*
X46214285Y-62145295D01*
X46214285Y-62145295D02*
X46261904Y-62335771D01*
X46261904Y-62335771D02*
X46261904Y-62573866D01*
X46261904Y-62573866D02*
X46214285Y-62764342D01*
X46214285Y-62764342D02*
X46166666Y-62859580D01*
X46166666Y-62859580D02*
X46119047Y-62907200D01*
X46119047Y-62907200D02*
X46023809Y-62954819D01*
X46023809Y-62954819D02*
X45928571Y-62954819D01*
X45928571Y-62954819D02*
X45833333Y-62907200D01*
X45833333Y-62907200D02*
X45785714Y-62859580D01*
X45785714Y-62859580D02*
X45738095Y-62764342D01*
X45738095Y-62764342D02*
X45690476Y-62573866D01*
X45690476Y-62573866D02*
X45690476Y-62335771D01*
X45690476Y-62335771D02*
X45738095Y-62145295D01*
X45738095Y-62145295D02*
X45785714Y-62050057D01*
X45785714Y-62050057D02*
X45833333Y-62002438D01*
X45833333Y-62002438D02*
X45928571Y-61954819D01*
X54261905Y-62954819D02*
X54261905Y-61954819D01*
X54261905Y-61954819D02*
X54500000Y-61954819D01*
X54500000Y-61954819D02*
X54642857Y-62002438D01*
X54642857Y-62002438D02*
X54738095Y-62097676D01*
X54738095Y-62097676D02*
X54785714Y-62192914D01*
X54785714Y-62192914D02*
X54833333Y-62383390D01*
X54833333Y-62383390D02*
X54833333Y-62526247D01*
X54833333Y-62526247D02*
X54785714Y-62716723D01*
X54785714Y-62716723D02*
X54738095Y-62811961D01*
X54738095Y-62811961D02*
X54642857Y-62907200D01*
X54642857Y-62907200D02*
X54500000Y-62954819D01*
X54500000Y-62954819D02*
X54261905Y-62954819D01*
X55166667Y-61954819D02*
X55785714Y-61954819D01*
X55785714Y-61954819D02*
X55452381Y-62335771D01*
X55452381Y-62335771D02*
X55595238Y-62335771D01*
X55595238Y-62335771D02*
X55690476Y-62383390D01*
X55690476Y-62383390D02*
X55738095Y-62431009D01*
X55738095Y-62431009D02*
X55785714Y-62526247D01*
X55785714Y-62526247D02*
X55785714Y-62764342D01*
X55785714Y-62764342D02*
X55738095Y-62859580D01*
X55738095Y-62859580D02*
X55690476Y-62907200D01*
X55690476Y-62907200D02*
X55595238Y-62954819D01*
X55595238Y-62954819D02*
X55309524Y-62954819D01*
X55309524Y-62954819D02*
X55214286Y-62907200D01*
X55214286Y-62907200D02*
X55166667Y-62859580D01*
X93907142Y-90784819D02*
X93573809Y-90308628D01*
X93335714Y-90784819D02*
X93335714Y-89784819D01*
X93335714Y-89784819D02*
X93716666Y-89784819D01*
X93716666Y-89784819D02*
X93811904Y-89832438D01*
X93811904Y-89832438D02*
X93859523Y-89880057D01*
X93859523Y-89880057D02*
X93907142Y-89975295D01*
X93907142Y-89975295D02*
X93907142Y-90118152D01*
X93907142Y-90118152D02*
X93859523Y-90213390D01*
X93859523Y-90213390D02*
X93811904Y-90261009D01*
X93811904Y-90261009D02*
X93716666Y-90308628D01*
X93716666Y-90308628D02*
X93335714Y-90308628D01*
X94859523Y-90784819D02*
X94288095Y-90784819D01*
X94573809Y-90784819D02*
X94573809Y-89784819D01*
X94573809Y-89784819D02*
X94478571Y-89927676D01*
X94478571Y-89927676D02*
X94383333Y-90022914D01*
X94383333Y-90022914D02*
X94288095Y-90070533D01*
X95811904Y-90784819D02*
X95240476Y-90784819D01*
X95526190Y-90784819D02*
X95526190Y-89784819D01*
X95526190Y-89784819D02*
X95430952Y-89927676D01*
X95430952Y-89927676D02*
X95335714Y-90022914D01*
X95335714Y-90022914D02*
X95240476Y-90070533D01*
X50833333Y-64359580D02*
X50785714Y-64407200D01*
X50785714Y-64407200D02*
X50642857Y-64454819D01*
X50642857Y-64454819D02*
X50547619Y-64454819D01*
X50547619Y-64454819D02*
X50404762Y-64407200D01*
X50404762Y-64407200D02*
X50309524Y-64311961D01*
X50309524Y-64311961D02*
X50261905Y-64216723D01*
X50261905Y-64216723D02*
X50214286Y-64026247D01*
X50214286Y-64026247D02*
X50214286Y-63883390D01*
X50214286Y-63883390D02*
X50261905Y-63692914D01*
X50261905Y-63692914D02*
X50309524Y-63597676D01*
X50309524Y-63597676D02*
X50404762Y-63502438D01*
X50404762Y-63502438D02*
X50547619Y-63454819D01*
X50547619Y-63454819D02*
X50642857Y-63454819D01*
X50642857Y-63454819D02*
X50785714Y-63502438D01*
X50785714Y-63502438D02*
X50833333Y-63550057D01*
X51404762Y-63883390D02*
X51309524Y-63835771D01*
X51309524Y-63835771D02*
X51261905Y-63788152D01*
X51261905Y-63788152D02*
X51214286Y-63692914D01*
X51214286Y-63692914D02*
X51214286Y-63645295D01*
X51214286Y-63645295D02*
X51261905Y-63550057D01*
X51261905Y-63550057D02*
X51309524Y-63502438D01*
X51309524Y-63502438D02*
X51404762Y-63454819D01*
X51404762Y-63454819D02*
X51595238Y-63454819D01*
X51595238Y-63454819D02*
X51690476Y-63502438D01*
X51690476Y-63502438D02*
X51738095Y-63550057D01*
X51738095Y-63550057D02*
X51785714Y-63645295D01*
X51785714Y-63645295D02*
X51785714Y-63692914D01*
X51785714Y-63692914D02*
X51738095Y-63788152D01*
X51738095Y-63788152D02*
X51690476Y-63835771D01*
X51690476Y-63835771D02*
X51595238Y-63883390D01*
X51595238Y-63883390D02*
X51404762Y-63883390D01*
X51404762Y-63883390D02*
X51309524Y-63931009D01*
X51309524Y-63931009D02*
X51261905Y-63978628D01*
X51261905Y-63978628D02*
X51214286Y-64073866D01*
X51214286Y-64073866D02*
X51214286Y-64264342D01*
X51214286Y-64264342D02*
X51261905Y-64359580D01*
X51261905Y-64359580D02*
X51309524Y-64407200D01*
X51309524Y-64407200D02*
X51404762Y-64454819D01*
X51404762Y-64454819D02*
X51595238Y-64454819D01*
X51595238Y-64454819D02*
X51690476Y-64407200D01*
X51690476Y-64407200D02*
X51738095Y-64359580D01*
X51738095Y-64359580D02*
X51785714Y-64264342D01*
X51785714Y-64264342D02*
X51785714Y-64073866D01*
X51785714Y-64073866D02*
X51738095Y-63978628D01*
X51738095Y-63978628D02*
X51690476Y-63931009D01*
X51690476Y-63931009D02*
X51595238Y-63883390D01*
X37761905Y-83124819D02*
X37761905Y-82124819D01*
X37761905Y-82124819D02*
X38095238Y-82839104D01*
X38095238Y-82839104D02*
X38428571Y-82124819D01*
X38428571Y-82124819D02*
X38428571Y-83124819D01*
X39095238Y-82124819D02*
X39285714Y-82124819D01*
X39285714Y-82124819D02*
X39380952Y-82172438D01*
X39380952Y-82172438D02*
X39476190Y-82267676D01*
X39476190Y-82267676D02*
X39523809Y-82458152D01*
X39523809Y-82458152D02*
X39523809Y-82791485D01*
X39523809Y-82791485D02*
X39476190Y-82981961D01*
X39476190Y-82981961D02*
X39380952Y-83077200D01*
X39380952Y-83077200D02*
X39285714Y-83124819D01*
X39285714Y-83124819D02*
X39095238Y-83124819D01*
X39095238Y-83124819D02*
X39000000Y-83077200D01*
X39000000Y-83077200D02*
X38904762Y-82981961D01*
X38904762Y-82981961D02*
X38857143Y-82791485D01*
X38857143Y-82791485D02*
X38857143Y-82458152D01*
X38857143Y-82458152D02*
X38904762Y-82267676D01*
X38904762Y-82267676D02*
X39000000Y-82172438D01*
X39000000Y-82172438D02*
X39095238Y-82124819D01*
X39809524Y-82124819D02*
X40380952Y-82124819D01*
X40095238Y-83124819D02*
X40095238Y-82124819D01*
X40904762Y-82124819D02*
X41095238Y-82124819D01*
X41095238Y-82124819D02*
X41190476Y-82172438D01*
X41190476Y-82172438D02*
X41285714Y-82267676D01*
X41285714Y-82267676D02*
X41333333Y-82458152D01*
X41333333Y-82458152D02*
X41333333Y-82791485D01*
X41333333Y-82791485D02*
X41285714Y-82981961D01*
X41285714Y-82981961D02*
X41190476Y-83077200D01*
X41190476Y-83077200D02*
X41095238Y-83124819D01*
X41095238Y-83124819D02*
X40904762Y-83124819D01*
X40904762Y-83124819D02*
X40809524Y-83077200D01*
X40809524Y-83077200D02*
X40714286Y-82981961D01*
X40714286Y-82981961D02*
X40666667Y-82791485D01*
X40666667Y-82791485D02*
X40666667Y-82458152D01*
X40666667Y-82458152D02*
X40714286Y-82267676D01*
X40714286Y-82267676D02*
X40809524Y-82172438D01*
X40809524Y-82172438D02*
X40904762Y-82124819D01*
X42333333Y-83124819D02*
X42000000Y-82648628D01*
X41761905Y-83124819D02*
X41761905Y-82124819D01*
X41761905Y-82124819D02*
X42142857Y-82124819D01*
X42142857Y-82124819D02*
X42238095Y-82172438D01*
X42238095Y-82172438D02*
X42285714Y-82220057D01*
X42285714Y-82220057D02*
X42333333Y-82315295D01*
X42333333Y-82315295D02*
X42333333Y-82458152D01*
X42333333Y-82458152D02*
X42285714Y-82553390D01*
X42285714Y-82553390D02*
X42238095Y-82601009D01*
X42238095Y-82601009D02*
X42142857Y-82648628D01*
X42142857Y-82648628D02*
X41761905Y-82648628D01*
X43285714Y-83124819D02*
X42714286Y-83124819D01*
X43000000Y-83124819D02*
X43000000Y-82124819D01*
X43000000Y-82124819D02*
X42904762Y-82267676D01*
X42904762Y-82267676D02*
X42809524Y-82362914D01*
X42809524Y-82362914D02*
X42714286Y-82410533D01*
X97359580Y-63642857D02*
X97407200Y-63690476D01*
X97407200Y-63690476D02*
X97454819Y-63833333D01*
X97454819Y-63833333D02*
X97454819Y-63928571D01*
X97454819Y-63928571D02*
X97407200Y-64071428D01*
X97407200Y-64071428D02*
X97311961Y-64166666D01*
X97311961Y-64166666D02*
X97216723Y-64214285D01*
X97216723Y-64214285D02*
X97026247Y-64261904D01*
X97026247Y-64261904D02*
X96883390Y-64261904D01*
X96883390Y-64261904D02*
X96692914Y-64214285D01*
X96692914Y-64214285D02*
X96597676Y-64166666D01*
X96597676Y-64166666D02*
X96502438Y-64071428D01*
X96502438Y-64071428D02*
X96454819Y-63928571D01*
X96454819Y-63928571D02*
X96454819Y-63833333D01*
X96454819Y-63833333D02*
X96502438Y-63690476D01*
X96502438Y-63690476D02*
X96550057Y-63642857D01*
X97454819Y-62690476D02*
X97454819Y-63261904D01*
X97454819Y-62976190D02*
X96454819Y-62976190D01*
X96454819Y-62976190D02*
X96597676Y-63071428D01*
X96597676Y-63071428D02*
X96692914Y-63166666D01*
X96692914Y-63166666D02*
X96740533Y-63261904D01*
X96883390Y-62119047D02*
X96835771Y-62214285D01*
X96835771Y-62214285D02*
X96788152Y-62261904D01*
X96788152Y-62261904D02*
X96692914Y-62309523D01*
X96692914Y-62309523D02*
X96645295Y-62309523D01*
X96645295Y-62309523D02*
X96550057Y-62261904D01*
X96550057Y-62261904D02*
X96502438Y-62214285D01*
X96502438Y-62214285D02*
X96454819Y-62119047D01*
X96454819Y-62119047D02*
X96454819Y-61928571D01*
X96454819Y-61928571D02*
X96502438Y-61833333D01*
X96502438Y-61833333D02*
X96550057Y-61785714D01*
X96550057Y-61785714D02*
X96645295Y-61738095D01*
X96645295Y-61738095D02*
X96692914Y-61738095D01*
X96692914Y-61738095D02*
X96788152Y-61785714D01*
X96788152Y-61785714D02*
X96835771Y-61833333D01*
X96835771Y-61833333D02*
X96883390Y-61928571D01*
X96883390Y-61928571D02*
X96883390Y-62119047D01*
X96883390Y-62119047D02*
X96931009Y-62214285D01*
X96931009Y-62214285D02*
X96978628Y-62261904D01*
X96978628Y-62261904D02*
X97073866Y-62309523D01*
X97073866Y-62309523D02*
X97264342Y-62309523D01*
X97264342Y-62309523D02*
X97359580Y-62261904D01*
X97359580Y-62261904D02*
X97407200Y-62214285D01*
X97407200Y-62214285D02*
X97454819Y-62119047D01*
X97454819Y-62119047D02*
X97454819Y-61928571D01*
X97454819Y-61928571D02*
X97407200Y-61833333D01*
X97407200Y-61833333D02*
X97359580Y-61785714D01*
X97359580Y-61785714D02*
X97264342Y-61738095D01*
X97264342Y-61738095D02*
X97073866Y-61738095D01*
X97073866Y-61738095D02*
X96978628Y-61785714D01*
X96978628Y-61785714D02*
X96931009Y-61833333D01*
X96931009Y-61833333D02*
X96883390Y-61928571D01*
X55666666Y-40099819D02*
X55666666Y-40814104D01*
X55666666Y-40814104D02*
X55619047Y-40956961D01*
X55619047Y-40956961D02*
X55523809Y-41052200D01*
X55523809Y-41052200D02*
X55380952Y-41099819D01*
X55380952Y-41099819D02*
X55285714Y-41099819D01*
X56285714Y-40528390D02*
X56190476Y-40480771D01*
X56190476Y-40480771D02*
X56142857Y-40433152D01*
X56142857Y-40433152D02*
X56095238Y-40337914D01*
X56095238Y-40337914D02*
X56095238Y-40290295D01*
X56095238Y-40290295D02*
X56142857Y-40195057D01*
X56142857Y-40195057D02*
X56190476Y-40147438D01*
X56190476Y-40147438D02*
X56285714Y-40099819D01*
X56285714Y-40099819D02*
X56476190Y-40099819D01*
X56476190Y-40099819D02*
X56571428Y-40147438D01*
X56571428Y-40147438D02*
X56619047Y-40195057D01*
X56619047Y-40195057D02*
X56666666Y-40290295D01*
X56666666Y-40290295D02*
X56666666Y-40337914D01*
X56666666Y-40337914D02*
X56619047Y-40433152D01*
X56619047Y-40433152D02*
X56571428Y-40480771D01*
X56571428Y-40480771D02*
X56476190Y-40528390D01*
X56476190Y-40528390D02*
X56285714Y-40528390D01*
X56285714Y-40528390D02*
X56190476Y-40576009D01*
X56190476Y-40576009D02*
X56142857Y-40623628D01*
X56142857Y-40623628D02*
X56095238Y-40718866D01*
X56095238Y-40718866D02*
X56095238Y-40909342D01*
X56095238Y-40909342D02*
X56142857Y-41004580D01*
X56142857Y-41004580D02*
X56190476Y-41052200D01*
X56190476Y-41052200D02*
X56285714Y-41099819D01*
X56285714Y-41099819D02*
X56476190Y-41099819D01*
X56476190Y-41099819D02*
X56571428Y-41052200D01*
X56571428Y-41052200D02*
X56619047Y-41004580D01*
X56619047Y-41004580D02*
X56666666Y-40909342D01*
X56666666Y-40909342D02*
X56666666Y-40718866D01*
X56666666Y-40718866D02*
X56619047Y-40623628D01*
X56619047Y-40623628D02*
X56571428Y-40576009D01*
X56571428Y-40576009D02*
X56476190Y-40528390D01*
X63833333Y-83859580D02*
X63785714Y-83907200D01*
X63785714Y-83907200D02*
X63642857Y-83954819D01*
X63642857Y-83954819D02*
X63547619Y-83954819D01*
X63547619Y-83954819D02*
X63404762Y-83907200D01*
X63404762Y-83907200D02*
X63309524Y-83811961D01*
X63309524Y-83811961D02*
X63261905Y-83716723D01*
X63261905Y-83716723D02*
X63214286Y-83526247D01*
X63214286Y-83526247D02*
X63214286Y-83383390D01*
X63214286Y-83383390D02*
X63261905Y-83192914D01*
X63261905Y-83192914D02*
X63309524Y-83097676D01*
X63309524Y-83097676D02*
X63404762Y-83002438D01*
X63404762Y-83002438D02*
X63547619Y-82954819D01*
X63547619Y-82954819D02*
X63642857Y-82954819D01*
X63642857Y-82954819D02*
X63785714Y-83002438D01*
X63785714Y-83002438D02*
X63833333Y-83050057D01*
X64166667Y-82954819D02*
X64833333Y-82954819D01*
X64833333Y-82954819D02*
X64404762Y-83954819D01*
X50261905Y-88954819D02*
X50261905Y-87954819D01*
X50261905Y-87954819D02*
X50500000Y-87954819D01*
X50500000Y-87954819D02*
X50642857Y-88002438D01*
X50642857Y-88002438D02*
X50738095Y-88097676D01*
X50738095Y-88097676D02*
X50785714Y-88192914D01*
X50785714Y-88192914D02*
X50833333Y-88383390D01*
X50833333Y-88383390D02*
X50833333Y-88526247D01*
X50833333Y-88526247D02*
X50785714Y-88716723D01*
X50785714Y-88716723D02*
X50738095Y-88811961D01*
X50738095Y-88811961D02*
X50642857Y-88907200D01*
X50642857Y-88907200D02*
X50500000Y-88954819D01*
X50500000Y-88954819D02*
X50261905Y-88954819D01*
X51785714Y-88954819D02*
X51214286Y-88954819D01*
X51500000Y-88954819D02*
X51500000Y-87954819D01*
X51500000Y-87954819D02*
X51404762Y-88097676D01*
X51404762Y-88097676D02*
X51309524Y-88192914D01*
X51309524Y-88192914D02*
X51214286Y-88240533D01*
X95666666Y-38954819D02*
X95666666Y-39669104D01*
X95666666Y-39669104D02*
X95619047Y-39811961D01*
X95619047Y-39811961D02*
X95523809Y-39907200D01*
X95523809Y-39907200D02*
X95380952Y-39954819D01*
X95380952Y-39954819D02*
X95285714Y-39954819D01*
X96571428Y-38954819D02*
X96380952Y-38954819D01*
X96380952Y-38954819D02*
X96285714Y-39002438D01*
X96285714Y-39002438D02*
X96238095Y-39050057D01*
X96238095Y-39050057D02*
X96142857Y-39192914D01*
X96142857Y-39192914D02*
X96095238Y-39383390D01*
X96095238Y-39383390D02*
X96095238Y-39764342D01*
X96095238Y-39764342D02*
X96142857Y-39859580D01*
X96142857Y-39859580D02*
X96190476Y-39907200D01*
X96190476Y-39907200D02*
X96285714Y-39954819D01*
X96285714Y-39954819D02*
X96476190Y-39954819D01*
X96476190Y-39954819D02*
X96571428Y-39907200D01*
X96571428Y-39907200D02*
X96619047Y-39859580D01*
X96619047Y-39859580D02*
X96666666Y-39764342D01*
X96666666Y-39764342D02*
X96666666Y-39526247D01*
X96666666Y-39526247D02*
X96619047Y-39431009D01*
X96619047Y-39431009D02*
X96571428Y-39383390D01*
X96571428Y-39383390D02*
X96476190Y-39335771D01*
X96476190Y-39335771D02*
X96285714Y-39335771D01*
X96285714Y-39335771D02*
X96190476Y-39383390D01*
X96190476Y-39383390D02*
X96142857Y-39431009D01*
X96142857Y-39431009D02*
X96095238Y-39526247D01*
X65666666Y-90431009D02*
X65333333Y-90431009D01*
X65333333Y-90954819D02*
X65333333Y-89954819D01*
X65333333Y-89954819D02*
X65809523Y-89954819D01*
X66714285Y-90954819D02*
X66142857Y-90954819D01*
X66428571Y-90954819D02*
X66428571Y-89954819D01*
X66428571Y-89954819D02*
X66333333Y-90097676D01*
X66333333Y-90097676D02*
X66238095Y-90192914D01*
X66238095Y-90192914D02*
X66142857Y-90240533D01*
X97359580Y-59642857D02*
X97407200Y-59690476D01*
X97407200Y-59690476D02*
X97454819Y-59833333D01*
X97454819Y-59833333D02*
X97454819Y-59928571D01*
X97454819Y-59928571D02*
X97407200Y-60071428D01*
X97407200Y-60071428D02*
X97311961Y-60166666D01*
X97311961Y-60166666D02*
X97216723Y-60214285D01*
X97216723Y-60214285D02*
X97026247Y-60261904D01*
X97026247Y-60261904D02*
X96883390Y-60261904D01*
X96883390Y-60261904D02*
X96692914Y-60214285D01*
X96692914Y-60214285D02*
X96597676Y-60166666D01*
X96597676Y-60166666D02*
X96502438Y-60071428D01*
X96502438Y-60071428D02*
X96454819Y-59928571D01*
X96454819Y-59928571D02*
X96454819Y-59833333D01*
X96454819Y-59833333D02*
X96502438Y-59690476D01*
X96502438Y-59690476D02*
X96550057Y-59642857D01*
X97454819Y-58690476D02*
X97454819Y-59261904D01*
X97454819Y-58976190D02*
X96454819Y-58976190D01*
X96454819Y-58976190D02*
X96597676Y-59071428D01*
X96597676Y-59071428D02*
X96692914Y-59166666D01*
X96692914Y-59166666D02*
X96740533Y-59261904D01*
X96454819Y-58357142D02*
X96454819Y-57690476D01*
X96454819Y-57690476D02*
X97454819Y-58119047D01*
X71357142Y-67124819D02*
X71023809Y-66648628D01*
X70785714Y-67124819D02*
X70785714Y-66124819D01*
X70785714Y-66124819D02*
X71166666Y-66124819D01*
X71166666Y-66124819D02*
X71261904Y-66172438D01*
X71261904Y-66172438D02*
X71309523Y-66220057D01*
X71309523Y-66220057D02*
X71357142Y-66315295D01*
X71357142Y-66315295D02*
X71357142Y-66458152D01*
X71357142Y-66458152D02*
X71309523Y-66553390D01*
X71309523Y-66553390D02*
X71261904Y-66601009D01*
X71261904Y-66601009D02*
X71166666Y-66648628D01*
X71166666Y-66648628D02*
X70785714Y-66648628D01*
X72309523Y-67124819D02*
X71738095Y-67124819D01*
X72023809Y-67124819D02*
X72023809Y-66124819D01*
X72023809Y-66124819D02*
X71928571Y-66267676D01*
X71928571Y-66267676D02*
X71833333Y-66362914D01*
X71833333Y-66362914D02*
X71738095Y-66410533D01*
X72880952Y-66553390D02*
X72785714Y-66505771D01*
X72785714Y-66505771D02*
X72738095Y-66458152D01*
X72738095Y-66458152D02*
X72690476Y-66362914D01*
X72690476Y-66362914D02*
X72690476Y-66315295D01*
X72690476Y-66315295D02*
X72738095Y-66220057D01*
X72738095Y-66220057D02*
X72785714Y-66172438D01*
X72785714Y-66172438D02*
X72880952Y-66124819D01*
X72880952Y-66124819D02*
X73071428Y-66124819D01*
X73071428Y-66124819D02*
X73166666Y-66172438D01*
X73166666Y-66172438D02*
X73214285Y-66220057D01*
X73214285Y-66220057D02*
X73261904Y-66315295D01*
X73261904Y-66315295D02*
X73261904Y-66362914D01*
X73261904Y-66362914D02*
X73214285Y-66458152D01*
X73214285Y-66458152D02*
X73166666Y-66505771D01*
X73166666Y-66505771D02*
X73071428Y-66553390D01*
X73071428Y-66553390D02*
X72880952Y-66553390D01*
X72880952Y-66553390D02*
X72785714Y-66601009D01*
X72785714Y-66601009D02*
X72738095Y-66648628D01*
X72738095Y-66648628D02*
X72690476Y-66743866D01*
X72690476Y-66743866D02*
X72690476Y-66934342D01*
X72690476Y-66934342D02*
X72738095Y-67029580D01*
X72738095Y-67029580D02*
X72785714Y-67077200D01*
X72785714Y-67077200D02*
X72880952Y-67124819D01*
X72880952Y-67124819D02*
X73071428Y-67124819D01*
X73071428Y-67124819D02*
X73166666Y-67077200D01*
X73166666Y-67077200D02*
X73214285Y-67029580D01*
X73214285Y-67029580D02*
X73261904Y-66934342D01*
X73261904Y-66934342D02*
X73261904Y-66743866D01*
X73261904Y-66743866D02*
X73214285Y-66648628D01*
X73214285Y-66648628D02*
X73166666Y-66601009D01*
X73166666Y-66601009D02*
X73071428Y-66553390D01*
X65666667Y-58407200D02*
X65809524Y-58454819D01*
X65809524Y-58454819D02*
X66047619Y-58454819D01*
X66047619Y-58454819D02*
X66142857Y-58407200D01*
X66142857Y-58407200D02*
X66190476Y-58359580D01*
X66190476Y-58359580D02*
X66238095Y-58264342D01*
X66238095Y-58264342D02*
X66238095Y-58169104D01*
X66238095Y-58169104D02*
X66190476Y-58073866D01*
X66190476Y-58073866D02*
X66142857Y-58026247D01*
X66142857Y-58026247D02*
X66047619Y-57978628D01*
X66047619Y-57978628D02*
X65857143Y-57931009D01*
X65857143Y-57931009D02*
X65761905Y-57883390D01*
X65761905Y-57883390D02*
X65714286Y-57835771D01*
X65714286Y-57835771D02*
X65666667Y-57740533D01*
X65666667Y-57740533D02*
X65666667Y-57645295D01*
X65666667Y-57645295D02*
X65714286Y-57550057D01*
X65714286Y-57550057D02*
X65761905Y-57502438D01*
X65761905Y-57502438D02*
X65857143Y-57454819D01*
X65857143Y-57454819D02*
X66095238Y-57454819D01*
X66095238Y-57454819D02*
X66238095Y-57502438D01*
X66571429Y-57454819D02*
X66809524Y-58454819D01*
X66809524Y-58454819D02*
X67000000Y-57740533D01*
X67000000Y-57740533D02*
X67190476Y-58454819D01*
X67190476Y-58454819D02*
X67428572Y-57454819D01*
X67761905Y-57550057D02*
X67809524Y-57502438D01*
X67809524Y-57502438D02*
X67904762Y-57454819D01*
X67904762Y-57454819D02*
X68142857Y-57454819D01*
X68142857Y-57454819D02*
X68238095Y-57502438D01*
X68238095Y-57502438D02*
X68285714Y-57550057D01*
X68285714Y-57550057D02*
X68333333Y-57645295D01*
X68333333Y-57645295D02*
X68333333Y-57740533D01*
X68333333Y-57740533D02*
X68285714Y-57883390D01*
X68285714Y-57883390D02*
X67714286Y-58454819D01*
X67714286Y-58454819D02*
X68333333Y-58454819D01*
X80124819Y-54642857D02*
X79648628Y-54976190D01*
X80124819Y-55214285D02*
X79124819Y-55214285D01*
X79124819Y-55214285D02*
X79124819Y-54833333D01*
X79124819Y-54833333D02*
X79172438Y-54738095D01*
X79172438Y-54738095D02*
X79220057Y-54690476D01*
X79220057Y-54690476D02*
X79315295Y-54642857D01*
X79315295Y-54642857D02*
X79458152Y-54642857D01*
X79458152Y-54642857D02*
X79553390Y-54690476D01*
X79553390Y-54690476D02*
X79601009Y-54738095D01*
X79601009Y-54738095D02*
X79648628Y-54833333D01*
X79648628Y-54833333D02*
X79648628Y-55214285D01*
X79220057Y-54261904D02*
X79172438Y-54214285D01*
X79172438Y-54214285D02*
X79124819Y-54119047D01*
X79124819Y-54119047D02*
X79124819Y-53880952D01*
X79124819Y-53880952D02*
X79172438Y-53785714D01*
X79172438Y-53785714D02*
X79220057Y-53738095D01*
X79220057Y-53738095D02*
X79315295Y-53690476D01*
X79315295Y-53690476D02*
X79410533Y-53690476D01*
X79410533Y-53690476D02*
X79553390Y-53738095D01*
X79553390Y-53738095D02*
X80124819Y-54309523D01*
X80124819Y-54309523D02*
X80124819Y-53690476D01*
X79458152Y-52833333D02*
X80124819Y-52833333D01*
X79077200Y-53071428D02*
X79791485Y-53309523D01*
X79791485Y-53309523D02*
X79791485Y-52690476D01*
X71357142Y-70859580D02*
X71309523Y-70907200D01*
X71309523Y-70907200D02*
X71166666Y-70954819D01*
X71166666Y-70954819D02*
X71071428Y-70954819D01*
X71071428Y-70954819D02*
X70928571Y-70907200D01*
X70928571Y-70907200D02*
X70833333Y-70811961D01*
X70833333Y-70811961D02*
X70785714Y-70716723D01*
X70785714Y-70716723D02*
X70738095Y-70526247D01*
X70738095Y-70526247D02*
X70738095Y-70383390D01*
X70738095Y-70383390D02*
X70785714Y-70192914D01*
X70785714Y-70192914D02*
X70833333Y-70097676D01*
X70833333Y-70097676D02*
X70928571Y-70002438D01*
X70928571Y-70002438D02*
X71071428Y-69954819D01*
X71071428Y-69954819D02*
X71166666Y-69954819D01*
X71166666Y-69954819D02*
X71309523Y-70002438D01*
X71309523Y-70002438D02*
X71357142Y-70050057D01*
X71738095Y-70050057D02*
X71785714Y-70002438D01*
X71785714Y-70002438D02*
X71880952Y-69954819D01*
X71880952Y-69954819D02*
X72119047Y-69954819D01*
X72119047Y-69954819D02*
X72214285Y-70002438D01*
X72214285Y-70002438D02*
X72261904Y-70050057D01*
X72261904Y-70050057D02*
X72309523Y-70145295D01*
X72309523Y-70145295D02*
X72309523Y-70240533D01*
X72309523Y-70240533D02*
X72261904Y-70383390D01*
X72261904Y-70383390D02*
X71690476Y-70954819D01*
X71690476Y-70954819D02*
X72309523Y-70954819D01*
X73261904Y-70954819D02*
X72690476Y-70954819D01*
X72976190Y-70954819D02*
X72976190Y-69954819D01*
X72976190Y-69954819D02*
X72880952Y-70097676D01*
X72880952Y-70097676D02*
X72785714Y-70192914D01*
X72785714Y-70192914D02*
X72690476Y-70240533D01*
X42357142Y-39454819D02*
X42023809Y-38978628D01*
X41785714Y-39454819D02*
X41785714Y-38454819D01*
X41785714Y-38454819D02*
X42166666Y-38454819D01*
X42166666Y-38454819D02*
X42261904Y-38502438D01*
X42261904Y-38502438D02*
X42309523Y-38550057D01*
X42309523Y-38550057D02*
X42357142Y-38645295D01*
X42357142Y-38645295D02*
X42357142Y-38788152D01*
X42357142Y-38788152D02*
X42309523Y-38883390D01*
X42309523Y-38883390D02*
X42261904Y-38931009D01*
X42261904Y-38931009D02*
X42166666Y-38978628D01*
X42166666Y-38978628D02*
X41785714Y-38978628D01*
X43309523Y-39454819D02*
X42738095Y-39454819D01*
X43023809Y-39454819D02*
X43023809Y-38454819D01*
X43023809Y-38454819D02*
X42928571Y-38597676D01*
X42928571Y-38597676D02*
X42833333Y-38692914D01*
X42833333Y-38692914D02*
X42738095Y-38740533D01*
X43642857Y-38454819D02*
X44309523Y-38454819D01*
X44309523Y-38454819D02*
X43880952Y-39454819D01*
X63833333Y-77859580D02*
X63785714Y-77907200D01*
X63785714Y-77907200D02*
X63642857Y-77954819D01*
X63642857Y-77954819D02*
X63547619Y-77954819D01*
X63547619Y-77954819D02*
X63404762Y-77907200D01*
X63404762Y-77907200D02*
X63309524Y-77811961D01*
X63309524Y-77811961D02*
X63261905Y-77716723D01*
X63261905Y-77716723D02*
X63214286Y-77526247D01*
X63214286Y-77526247D02*
X63214286Y-77383390D01*
X63214286Y-77383390D02*
X63261905Y-77192914D01*
X63261905Y-77192914D02*
X63309524Y-77097676D01*
X63309524Y-77097676D02*
X63404762Y-77002438D01*
X63404762Y-77002438D02*
X63547619Y-76954819D01*
X63547619Y-76954819D02*
X63642857Y-76954819D01*
X63642857Y-76954819D02*
X63785714Y-77002438D01*
X63785714Y-77002438D02*
X63833333Y-77050057D01*
X64166667Y-76954819D02*
X64785714Y-76954819D01*
X64785714Y-76954819D02*
X64452381Y-77335771D01*
X64452381Y-77335771D02*
X64595238Y-77335771D01*
X64595238Y-77335771D02*
X64690476Y-77383390D01*
X64690476Y-77383390D02*
X64738095Y-77431009D01*
X64738095Y-77431009D02*
X64785714Y-77526247D01*
X64785714Y-77526247D02*
X64785714Y-77764342D01*
X64785714Y-77764342D02*
X64738095Y-77859580D01*
X64738095Y-77859580D02*
X64690476Y-77907200D01*
X64690476Y-77907200D02*
X64595238Y-77954819D01*
X64595238Y-77954819D02*
X64309524Y-77954819D01*
X64309524Y-77954819D02*
X64214286Y-77907200D01*
X64214286Y-77907200D02*
X64166667Y-77859580D01*
X98354819Y-73933333D02*
X99069104Y-73933333D01*
X99069104Y-73933333D02*
X99211961Y-73980952D01*
X99211961Y-73980952D02*
X99307200Y-74076190D01*
X99307200Y-74076190D02*
X99354819Y-74219047D01*
X99354819Y-74219047D02*
X99354819Y-74314285D01*
X98354819Y-73552380D02*
X98354819Y-72933333D01*
X98354819Y-72933333D02*
X98735771Y-73266666D01*
X98735771Y-73266666D02*
X98735771Y-73123809D01*
X98735771Y-73123809D02*
X98783390Y-73028571D01*
X98783390Y-73028571D02*
X98831009Y-72980952D01*
X98831009Y-72980952D02*
X98926247Y-72933333D01*
X98926247Y-72933333D02*
X99164342Y-72933333D01*
X99164342Y-72933333D02*
X99259580Y-72980952D01*
X99259580Y-72980952D02*
X99307200Y-73028571D01*
X99307200Y-73028571D02*
X99354819Y-73123809D01*
X99354819Y-73123809D02*
X99354819Y-73409523D01*
X99354819Y-73409523D02*
X99307200Y-73504761D01*
X99307200Y-73504761D02*
X99259580Y-73552380D01*
X56404761Y-88550057D02*
X56309523Y-88502438D01*
X56309523Y-88502438D02*
X56214285Y-88407200D01*
X56214285Y-88407200D02*
X56071428Y-88264342D01*
X56071428Y-88264342D02*
X55976190Y-88216723D01*
X55976190Y-88216723D02*
X55880952Y-88216723D01*
X55928571Y-88454819D02*
X55833333Y-88407200D01*
X55833333Y-88407200D02*
X55738095Y-88311961D01*
X55738095Y-88311961D02*
X55690476Y-88121485D01*
X55690476Y-88121485D02*
X55690476Y-87788152D01*
X55690476Y-87788152D02*
X55738095Y-87597676D01*
X55738095Y-87597676D02*
X55833333Y-87502438D01*
X55833333Y-87502438D02*
X55928571Y-87454819D01*
X55928571Y-87454819D02*
X56119047Y-87454819D01*
X56119047Y-87454819D02*
X56214285Y-87502438D01*
X56214285Y-87502438D02*
X56309523Y-87597676D01*
X56309523Y-87597676D02*
X56357142Y-87788152D01*
X56357142Y-87788152D02*
X56357142Y-88121485D01*
X56357142Y-88121485D02*
X56309523Y-88311961D01*
X56309523Y-88311961D02*
X56214285Y-88407200D01*
X56214285Y-88407200D02*
X56119047Y-88454819D01*
X56119047Y-88454819D02*
X55928571Y-88454819D01*
X57309523Y-88454819D02*
X56738095Y-88454819D01*
X57023809Y-88454819D02*
X57023809Y-87454819D01*
X57023809Y-87454819D02*
X56928571Y-87597676D01*
X56928571Y-87597676D02*
X56833333Y-87692914D01*
X56833333Y-87692914D02*
X56738095Y-87740533D01*
X88954819Y-43642857D02*
X88478628Y-43976190D01*
X88954819Y-44214285D02*
X87954819Y-44214285D01*
X87954819Y-44214285D02*
X87954819Y-43833333D01*
X87954819Y-43833333D02*
X88002438Y-43738095D01*
X88002438Y-43738095D02*
X88050057Y-43690476D01*
X88050057Y-43690476D02*
X88145295Y-43642857D01*
X88145295Y-43642857D02*
X88288152Y-43642857D01*
X88288152Y-43642857D02*
X88383390Y-43690476D01*
X88383390Y-43690476D02*
X88431009Y-43738095D01*
X88431009Y-43738095D02*
X88478628Y-43833333D01*
X88478628Y-43833333D02*
X88478628Y-44214285D01*
X88050057Y-43261904D02*
X88002438Y-43214285D01*
X88002438Y-43214285D02*
X87954819Y-43119047D01*
X87954819Y-43119047D02*
X87954819Y-42880952D01*
X87954819Y-42880952D02*
X88002438Y-42785714D01*
X88002438Y-42785714D02*
X88050057Y-42738095D01*
X88050057Y-42738095D02*
X88145295Y-42690476D01*
X88145295Y-42690476D02*
X88240533Y-42690476D01*
X88240533Y-42690476D02*
X88383390Y-42738095D01*
X88383390Y-42738095D02*
X88954819Y-43309523D01*
X88954819Y-43309523D02*
X88954819Y-42690476D01*
X88383390Y-42119047D02*
X88335771Y-42214285D01*
X88335771Y-42214285D02*
X88288152Y-42261904D01*
X88288152Y-42261904D02*
X88192914Y-42309523D01*
X88192914Y-42309523D02*
X88145295Y-42309523D01*
X88145295Y-42309523D02*
X88050057Y-42261904D01*
X88050057Y-42261904D02*
X88002438Y-42214285D01*
X88002438Y-42214285D02*
X87954819Y-42119047D01*
X87954819Y-42119047D02*
X87954819Y-41928571D01*
X87954819Y-41928571D02*
X88002438Y-41833333D01*
X88002438Y-41833333D02*
X88050057Y-41785714D01*
X88050057Y-41785714D02*
X88145295Y-41738095D01*
X88145295Y-41738095D02*
X88192914Y-41738095D01*
X88192914Y-41738095D02*
X88288152Y-41785714D01*
X88288152Y-41785714D02*
X88335771Y-41833333D01*
X88335771Y-41833333D02*
X88383390Y-41928571D01*
X88383390Y-41928571D02*
X88383390Y-42119047D01*
X88383390Y-42119047D02*
X88431009Y-42214285D01*
X88431009Y-42214285D02*
X88478628Y-42261904D01*
X88478628Y-42261904D02*
X88573866Y-42309523D01*
X88573866Y-42309523D02*
X88764342Y-42309523D01*
X88764342Y-42309523D02*
X88859580Y-42261904D01*
X88859580Y-42261904D02*
X88907200Y-42214285D01*
X88907200Y-42214285D02*
X88954819Y-42119047D01*
X88954819Y-42119047D02*
X88954819Y-41928571D01*
X88954819Y-41928571D02*
X88907200Y-41833333D01*
X88907200Y-41833333D02*
X88859580Y-41785714D01*
X88859580Y-41785714D02*
X88764342Y-41738095D01*
X88764342Y-41738095D02*
X88573866Y-41738095D01*
X88573866Y-41738095D02*
X88478628Y-41785714D01*
X88478628Y-41785714D02*
X88431009Y-41833333D01*
X88431009Y-41833333D02*
X88383390Y-41928571D01*
X61504819Y-46899404D02*
X62314342Y-46899404D01*
X62314342Y-46899404D02*
X62409580Y-46851785D01*
X62409580Y-46851785D02*
X62457200Y-46804166D01*
X62457200Y-46804166D02*
X62504819Y-46708928D01*
X62504819Y-46708928D02*
X62504819Y-46518452D01*
X62504819Y-46518452D02*
X62457200Y-46423214D01*
X62457200Y-46423214D02*
X62409580Y-46375595D01*
X62409580Y-46375595D02*
X62314342Y-46327976D01*
X62314342Y-46327976D02*
X61504819Y-46327976D01*
X61504819Y-45423214D02*
X61504819Y-45613690D01*
X61504819Y-45613690D02*
X61552438Y-45708928D01*
X61552438Y-45708928D02*
X61600057Y-45756547D01*
X61600057Y-45756547D02*
X61742914Y-45851785D01*
X61742914Y-45851785D02*
X61933390Y-45899404D01*
X61933390Y-45899404D02*
X62314342Y-45899404D01*
X62314342Y-45899404D02*
X62409580Y-45851785D01*
X62409580Y-45851785D02*
X62457200Y-45804166D01*
X62457200Y-45804166D02*
X62504819Y-45708928D01*
X62504819Y-45708928D02*
X62504819Y-45518452D01*
X62504819Y-45518452D02*
X62457200Y-45423214D01*
X62457200Y-45423214D02*
X62409580Y-45375595D01*
X62409580Y-45375595D02*
X62314342Y-45327976D01*
X62314342Y-45327976D02*
X62076247Y-45327976D01*
X62076247Y-45327976D02*
X61981009Y-45375595D01*
X61981009Y-45375595D02*
X61933390Y-45423214D01*
X61933390Y-45423214D02*
X61885771Y-45518452D01*
X61885771Y-45518452D02*
X61885771Y-45708928D01*
X61885771Y-45708928D02*
X61933390Y-45804166D01*
X61933390Y-45804166D02*
X61981009Y-45851785D01*
X61981009Y-45851785D02*
X62076247Y-45899404D01*
X39166667Y-79077200D02*
X39309524Y-79124819D01*
X39309524Y-79124819D02*
X39547619Y-79124819D01*
X39547619Y-79124819D02*
X39642857Y-79077200D01*
X39642857Y-79077200D02*
X39690476Y-79029580D01*
X39690476Y-79029580D02*
X39738095Y-78934342D01*
X39738095Y-78934342D02*
X39738095Y-78839104D01*
X39738095Y-78839104D02*
X39690476Y-78743866D01*
X39690476Y-78743866D02*
X39642857Y-78696247D01*
X39642857Y-78696247D02*
X39547619Y-78648628D01*
X39547619Y-78648628D02*
X39357143Y-78601009D01*
X39357143Y-78601009D02*
X39261905Y-78553390D01*
X39261905Y-78553390D02*
X39214286Y-78505771D01*
X39214286Y-78505771D02*
X39166667Y-78410533D01*
X39166667Y-78410533D02*
X39166667Y-78315295D01*
X39166667Y-78315295D02*
X39214286Y-78220057D01*
X39214286Y-78220057D02*
X39261905Y-78172438D01*
X39261905Y-78172438D02*
X39357143Y-78124819D01*
X39357143Y-78124819D02*
X39595238Y-78124819D01*
X39595238Y-78124819D02*
X39738095Y-78172438D01*
X40071429Y-78124819D02*
X40309524Y-79124819D01*
X40309524Y-79124819D02*
X40500000Y-78410533D01*
X40500000Y-78410533D02*
X40690476Y-79124819D01*
X40690476Y-79124819D02*
X40928572Y-78124819D01*
X41214286Y-78124819D02*
X41833333Y-78124819D01*
X41833333Y-78124819D02*
X41500000Y-78505771D01*
X41500000Y-78505771D02*
X41642857Y-78505771D01*
X41642857Y-78505771D02*
X41738095Y-78553390D01*
X41738095Y-78553390D02*
X41785714Y-78601009D01*
X41785714Y-78601009D02*
X41833333Y-78696247D01*
X41833333Y-78696247D02*
X41833333Y-78934342D01*
X41833333Y-78934342D02*
X41785714Y-79029580D01*
X41785714Y-79029580D02*
X41738095Y-79077200D01*
X41738095Y-79077200D02*
X41642857Y-79124819D01*
X41642857Y-79124819D02*
X41357143Y-79124819D01*
X41357143Y-79124819D02*
X41261905Y-79077200D01*
X41261905Y-79077200D02*
X41214286Y-79029580D01*
X84357142Y-77359580D02*
X84309523Y-77407200D01*
X84309523Y-77407200D02*
X84166666Y-77454819D01*
X84166666Y-77454819D02*
X84071428Y-77454819D01*
X84071428Y-77454819D02*
X83928571Y-77407200D01*
X83928571Y-77407200D02*
X83833333Y-77311961D01*
X83833333Y-77311961D02*
X83785714Y-77216723D01*
X83785714Y-77216723D02*
X83738095Y-77026247D01*
X83738095Y-77026247D02*
X83738095Y-76883390D01*
X83738095Y-76883390D02*
X83785714Y-76692914D01*
X83785714Y-76692914D02*
X83833333Y-76597676D01*
X83833333Y-76597676D02*
X83928571Y-76502438D01*
X83928571Y-76502438D02*
X84071428Y-76454819D01*
X84071428Y-76454819D02*
X84166666Y-76454819D01*
X84166666Y-76454819D02*
X84309523Y-76502438D01*
X84309523Y-76502438D02*
X84357142Y-76550057D01*
X85309523Y-77454819D02*
X84738095Y-77454819D01*
X85023809Y-77454819D02*
X85023809Y-76454819D01*
X85023809Y-76454819D02*
X84928571Y-76597676D01*
X84928571Y-76597676D02*
X84833333Y-76692914D01*
X84833333Y-76692914D02*
X84738095Y-76740533D01*
X86214285Y-76454819D02*
X85738095Y-76454819D01*
X85738095Y-76454819D02*
X85690476Y-76931009D01*
X85690476Y-76931009D02*
X85738095Y-76883390D01*
X85738095Y-76883390D02*
X85833333Y-76835771D01*
X85833333Y-76835771D02*
X86071428Y-76835771D01*
X86071428Y-76835771D02*
X86166666Y-76883390D01*
X86166666Y-76883390D02*
X86214285Y-76931009D01*
X86214285Y-76931009D02*
X86261904Y-77026247D01*
X86261904Y-77026247D02*
X86261904Y-77264342D01*
X86261904Y-77264342D02*
X86214285Y-77359580D01*
X86214285Y-77359580D02*
X86166666Y-77407200D01*
X86166666Y-77407200D02*
X86071428Y-77454819D01*
X86071428Y-77454819D02*
X85833333Y-77454819D01*
X85833333Y-77454819D02*
X85738095Y-77407200D01*
X85738095Y-77407200D02*
X85690476Y-77359580D01*
X86357142Y-80359580D02*
X86309523Y-80407200D01*
X86309523Y-80407200D02*
X86166666Y-80454819D01*
X86166666Y-80454819D02*
X86071428Y-80454819D01*
X86071428Y-80454819D02*
X85928571Y-80407200D01*
X85928571Y-80407200D02*
X85833333Y-80311961D01*
X85833333Y-80311961D02*
X85785714Y-80216723D01*
X85785714Y-80216723D02*
X85738095Y-80026247D01*
X85738095Y-80026247D02*
X85738095Y-79883390D01*
X85738095Y-79883390D02*
X85785714Y-79692914D01*
X85785714Y-79692914D02*
X85833333Y-79597676D01*
X85833333Y-79597676D02*
X85928571Y-79502438D01*
X85928571Y-79502438D02*
X86071428Y-79454819D01*
X86071428Y-79454819D02*
X86166666Y-79454819D01*
X86166666Y-79454819D02*
X86309523Y-79502438D01*
X86309523Y-79502438D02*
X86357142Y-79550057D01*
X87309523Y-80454819D02*
X86738095Y-80454819D01*
X87023809Y-80454819D02*
X87023809Y-79454819D01*
X87023809Y-79454819D02*
X86928571Y-79597676D01*
X86928571Y-79597676D02*
X86833333Y-79692914D01*
X86833333Y-79692914D02*
X86738095Y-79740533D01*
X87642857Y-79454819D02*
X88261904Y-79454819D01*
X88261904Y-79454819D02*
X87928571Y-79835771D01*
X87928571Y-79835771D02*
X88071428Y-79835771D01*
X88071428Y-79835771D02*
X88166666Y-79883390D01*
X88166666Y-79883390D02*
X88214285Y-79931009D01*
X88214285Y-79931009D02*
X88261904Y-80026247D01*
X88261904Y-80026247D02*
X88261904Y-80264342D01*
X88261904Y-80264342D02*
X88214285Y-80359580D01*
X88214285Y-80359580D02*
X88166666Y-80407200D01*
X88166666Y-80407200D02*
X88071428Y-80454819D01*
X88071428Y-80454819D02*
X87785714Y-80454819D01*
X87785714Y-80454819D02*
X87690476Y-80407200D01*
X87690476Y-80407200D02*
X87642857Y-80359580D01*
X38560119Y-74014819D02*
X39179166Y-74014819D01*
X39179166Y-74014819D02*
X38845833Y-74395771D01*
X38845833Y-74395771D02*
X38988690Y-74395771D01*
X38988690Y-74395771D02*
X39083928Y-74443390D01*
X39083928Y-74443390D02*
X39131547Y-74491009D01*
X39131547Y-74491009D02*
X39179166Y-74586247D01*
X39179166Y-74586247D02*
X39179166Y-74824342D01*
X39179166Y-74824342D02*
X39131547Y-74919580D01*
X39131547Y-74919580D02*
X39083928Y-74967200D01*
X39083928Y-74967200D02*
X38988690Y-75014819D01*
X38988690Y-75014819D02*
X38702976Y-75014819D01*
X38702976Y-75014819D02*
X38607738Y-74967200D01*
X38607738Y-74967200D02*
X38560119Y-74919580D01*
X39607738Y-74919580D02*
X39655357Y-74967200D01*
X39655357Y-74967200D02*
X39607738Y-75014819D01*
X39607738Y-75014819D02*
X39560119Y-74967200D01*
X39560119Y-74967200D02*
X39607738Y-74919580D01*
X39607738Y-74919580D02*
X39607738Y-75014819D01*
X39988690Y-74014819D02*
X40607737Y-74014819D01*
X40607737Y-74014819D02*
X40274404Y-74395771D01*
X40274404Y-74395771D02*
X40417261Y-74395771D01*
X40417261Y-74395771D02*
X40512499Y-74443390D01*
X40512499Y-74443390D02*
X40560118Y-74491009D01*
X40560118Y-74491009D02*
X40607737Y-74586247D01*
X40607737Y-74586247D02*
X40607737Y-74824342D01*
X40607737Y-74824342D02*
X40560118Y-74919580D01*
X40560118Y-74919580D02*
X40512499Y-74967200D01*
X40512499Y-74967200D02*
X40417261Y-75014819D01*
X40417261Y-75014819D02*
X40131547Y-75014819D01*
X40131547Y-75014819D02*
X40036309Y-74967200D01*
X40036309Y-74967200D02*
X39988690Y-74919580D01*
X40893452Y-74014819D02*
X41226785Y-75014819D01*
X41226785Y-75014819D02*
X41560118Y-74014819D01*
X42417261Y-75014819D02*
X41845833Y-75014819D01*
X42131547Y-75014819D02*
X42131547Y-74014819D01*
X42131547Y-74014819D02*
X42036309Y-74157676D01*
X42036309Y-74157676D02*
X41941071Y-74252914D01*
X41941071Y-74252914D02*
X41845833Y-74300533D01*
X95357142Y-77454819D02*
X95023809Y-76978628D01*
X94785714Y-77454819D02*
X94785714Y-76454819D01*
X94785714Y-76454819D02*
X95166666Y-76454819D01*
X95166666Y-76454819D02*
X95261904Y-76502438D01*
X95261904Y-76502438D02*
X95309523Y-76550057D01*
X95309523Y-76550057D02*
X95357142Y-76645295D01*
X95357142Y-76645295D02*
X95357142Y-76788152D01*
X95357142Y-76788152D02*
X95309523Y-76883390D01*
X95309523Y-76883390D02*
X95261904Y-76931009D01*
X95261904Y-76931009D02*
X95166666Y-76978628D01*
X95166666Y-76978628D02*
X94785714Y-76978628D01*
X96309523Y-77454819D02*
X95738095Y-77454819D01*
X96023809Y-77454819D02*
X96023809Y-76454819D01*
X96023809Y-76454819D02*
X95928571Y-76597676D01*
X95928571Y-76597676D02*
X95833333Y-76692914D01*
X95833333Y-76692914D02*
X95738095Y-76740533D01*
X97166666Y-76788152D02*
X97166666Y-77454819D01*
X96928571Y-76407200D02*
X96690476Y-77121485D01*
X96690476Y-77121485D02*
X97309523Y-77121485D01*
X68357142Y-40624819D02*
X68023809Y-40148628D01*
X67785714Y-40624819D02*
X67785714Y-39624819D01*
X67785714Y-39624819D02*
X68166666Y-39624819D01*
X68166666Y-39624819D02*
X68261904Y-39672438D01*
X68261904Y-39672438D02*
X68309523Y-39720057D01*
X68309523Y-39720057D02*
X68357142Y-39815295D01*
X68357142Y-39815295D02*
X68357142Y-39958152D01*
X68357142Y-39958152D02*
X68309523Y-40053390D01*
X68309523Y-40053390D02*
X68261904Y-40101009D01*
X68261904Y-40101009D02*
X68166666Y-40148628D01*
X68166666Y-40148628D02*
X67785714Y-40148628D01*
X69309523Y-40624819D02*
X68738095Y-40624819D01*
X69023809Y-40624819D02*
X69023809Y-39624819D01*
X69023809Y-39624819D02*
X68928571Y-39767676D01*
X68928571Y-39767676D02*
X68833333Y-39862914D01*
X68833333Y-39862914D02*
X68738095Y-39910533D01*
X69785714Y-40624819D02*
X69976190Y-40624819D01*
X69976190Y-40624819D02*
X70071428Y-40577200D01*
X70071428Y-40577200D02*
X70119047Y-40529580D01*
X70119047Y-40529580D02*
X70214285Y-40386723D01*
X70214285Y-40386723D02*
X70261904Y-40196247D01*
X70261904Y-40196247D02*
X70261904Y-39815295D01*
X70261904Y-39815295D02*
X70214285Y-39720057D01*
X70214285Y-39720057D02*
X70166666Y-39672438D01*
X70166666Y-39672438D02*
X70071428Y-39624819D01*
X70071428Y-39624819D02*
X69880952Y-39624819D01*
X69880952Y-39624819D02*
X69785714Y-39672438D01*
X69785714Y-39672438D02*
X69738095Y-39720057D01*
X69738095Y-39720057D02*
X69690476Y-39815295D01*
X69690476Y-39815295D02*
X69690476Y-40053390D01*
X69690476Y-40053390D02*
X69738095Y-40148628D01*
X69738095Y-40148628D02*
X69785714Y-40196247D01*
X69785714Y-40196247D02*
X69880952Y-40243866D01*
X69880952Y-40243866D02*
X70071428Y-40243866D01*
X70071428Y-40243866D02*
X70166666Y-40196247D01*
X70166666Y-40196247D02*
X70214285Y-40148628D01*
X70214285Y-40148628D02*
X70261904Y-40053390D01*
X93409580Y-69630357D02*
X93457200Y-69677976D01*
X93457200Y-69677976D02*
X93504819Y-69820833D01*
X93504819Y-69820833D02*
X93504819Y-69916071D01*
X93504819Y-69916071D02*
X93457200Y-70058928D01*
X93457200Y-70058928D02*
X93361961Y-70154166D01*
X93361961Y-70154166D02*
X93266723Y-70201785D01*
X93266723Y-70201785D02*
X93076247Y-70249404D01*
X93076247Y-70249404D02*
X92933390Y-70249404D01*
X92933390Y-70249404D02*
X92742914Y-70201785D01*
X92742914Y-70201785D02*
X92647676Y-70154166D01*
X92647676Y-70154166D02*
X92552438Y-70058928D01*
X92552438Y-70058928D02*
X92504819Y-69916071D01*
X92504819Y-69916071D02*
X92504819Y-69820833D01*
X92504819Y-69820833D02*
X92552438Y-69677976D01*
X92552438Y-69677976D02*
X92600057Y-69630357D01*
X93504819Y-68677976D02*
X93504819Y-69249404D01*
X93504819Y-68963690D02*
X92504819Y-68963690D01*
X92504819Y-68963690D02*
X92647676Y-69058928D01*
X92647676Y-69058928D02*
X92742914Y-69154166D01*
X92742914Y-69154166D02*
X92790533Y-69249404D01*
X92504819Y-67820833D02*
X92504819Y-68011309D01*
X92504819Y-68011309D02*
X92552438Y-68106547D01*
X92552438Y-68106547D02*
X92600057Y-68154166D01*
X92600057Y-68154166D02*
X92742914Y-68249404D01*
X92742914Y-68249404D02*
X92933390Y-68297023D01*
X92933390Y-68297023D02*
X93314342Y-68297023D01*
X93314342Y-68297023D02*
X93409580Y-68249404D01*
X93409580Y-68249404D02*
X93457200Y-68201785D01*
X93457200Y-68201785D02*
X93504819Y-68106547D01*
X93504819Y-68106547D02*
X93504819Y-67916071D01*
X93504819Y-67916071D02*
X93457200Y-67820833D01*
X93457200Y-67820833D02*
X93409580Y-67773214D01*
X93409580Y-67773214D02*
X93314342Y-67725595D01*
X93314342Y-67725595D02*
X93076247Y-67725595D01*
X93076247Y-67725595D02*
X92981009Y-67773214D01*
X92981009Y-67773214D02*
X92933390Y-67820833D01*
X92933390Y-67820833D02*
X92885771Y-67916071D01*
X92885771Y-67916071D02*
X92885771Y-68106547D01*
X92885771Y-68106547D02*
X92933390Y-68201785D01*
X92933390Y-68201785D02*
X92981009Y-68249404D01*
X92981009Y-68249404D02*
X93076247Y-68297023D01*
X95357142Y-73454819D02*
X95023809Y-72978628D01*
X94785714Y-73454819D02*
X94785714Y-72454819D01*
X94785714Y-72454819D02*
X95166666Y-72454819D01*
X95166666Y-72454819D02*
X95261904Y-72502438D01*
X95261904Y-72502438D02*
X95309523Y-72550057D01*
X95309523Y-72550057D02*
X95357142Y-72645295D01*
X95357142Y-72645295D02*
X95357142Y-72788152D01*
X95357142Y-72788152D02*
X95309523Y-72883390D01*
X95309523Y-72883390D02*
X95261904Y-72931009D01*
X95261904Y-72931009D02*
X95166666Y-72978628D01*
X95166666Y-72978628D02*
X94785714Y-72978628D01*
X96309523Y-73454819D02*
X95738095Y-73454819D01*
X96023809Y-73454819D02*
X96023809Y-72454819D01*
X96023809Y-72454819D02*
X95928571Y-72597676D01*
X95928571Y-72597676D02*
X95833333Y-72692914D01*
X95833333Y-72692914D02*
X95738095Y-72740533D01*
X96642857Y-72454819D02*
X97261904Y-72454819D01*
X97261904Y-72454819D02*
X96928571Y-72835771D01*
X96928571Y-72835771D02*
X97071428Y-72835771D01*
X97071428Y-72835771D02*
X97166666Y-72883390D01*
X97166666Y-72883390D02*
X97214285Y-72931009D01*
X97214285Y-72931009D02*
X97261904Y-73026247D01*
X97261904Y-73026247D02*
X97261904Y-73264342D01*
X97261904Y-73264342D02*
X97214285Y-73359580D01*
X97214285Y-73359580D02*
X97166666Y-73407200D01*
X97166666Y-73407200D02*
X97071428Y-73454819D01*
X97071428Y-73454819D02*
X96785714Y-73454819D01*
X96785714Y-73454819D02*
X96690476Y-73407200D01*
X96690476Y-73407200D02*
X96642857Y-73359580D01*
X97284819Y-69142857D02*
X96808628Y-69476190D01*
X97284819Y-69714285D02*
X96284819Y-69714285D01*
X96284819Y-69714285D02*
X96284819Y-69333333D01*
X96284819Y-69333333D02*
X96332438Y-69238095D01*
X96332438Y-69238095D02*
X96380057Y-69190476D01*
X96380057Y-69190476D02*
X96475295Y-69142857D01*
X96475295Y-69142857D02*
X96618152Y-69142857D01*
X96618152Y-69142857D02*
X96713390Y-69190476D01*
X96713390Y-69190476D02*
X96761009Y-69238095D01*
X96761009Y-69238095D02*
X96808628Y-69333333D01*
X96808628Y-69333333D02*
X96808628Y-69714285D01*
X97284819Y-68190476D02*
X97284819Y-68761904D01*
X97284819Y-68476190D02*
X96284819Y-68476190D01*
X96284819Y-68476190D02*
X96427676Y-68571428D01*
X96427676Y-68571428D02*
X96522914Y-68666666D01*
X96522914Y-68666666D02*
X96570533Y-68761904D01*
X96284819Y-67285714D02*
X96284819Y-67761904D01*
X96284819Y-67761904D02*
X96761009Y-67809523D01*
X96761009Y-67809523D02*
X96713390Y-67761904D01*
X96713390Y-67761904D02*
X96665771Y-67666666D01*
X96665771Y-67666666D02*
X96665771Y-67428571D01*
X96665771Y-67428571D02*
X96713390Y-67333333D01*
X96713390Y-67333333D02*
X96761009Y-67285714D01*
X96761009Y-67285714D02*
X96856247Y-67238095D01*
X96856247Y-67238095D02*
X97094342Y-67238095D01*
X97094342Y-67238095D02*
X97189580Y-67285714D01*
X97189580Y-67285714D02*
X97237200Y-67333333D01*
X97237200Y-67333333D02*
X97284819Y-67428571D01*
X97284819Y-67428571D02*
X97284819Y-67666666D01*
X97284819Y-67666666D02*
X97237200Y-67761904D01*
X97237200Y-67761904D02*
X97189580Y-67809523D01*
X49859580Y-85166666D02*
X49907200Y-85214285D01*
X49907200Y-85214285D02*
X49954819Y-85357142D01*
X49954819Y-85357142D02*
X49954819Y-85452380D01*
X49954819Y-85452380D02*
X49907200Y-85595237D01*
X49907200Y-85595237D02*
X49811961Y-85690475D01*
X49811961Y-85690475D02*
X49716723Y-85738094D01*
X49716723Y-85738094D02*
X49526247Y-85785713D01*
X49526247Y-85785713D02*
X49383390Y-85785713D01*
X49383390Y-85785713D02*
X49192914Y-85738094D01*
X49192914Y-85738094D02*
X49097676Y-85690475D01*
X49097676Y-85690475D02*
X49002438Y-85595237D01*
X49002438Y-85595237D02*
X48954819Y-85452380D01*
X48954819Y-85452380D02*
X48954819Y-85357142D01*
X48954819Y-85357142D02*
X49002438Y-85214285D01*
X49002438Y-85214285D02*
X49050057Y-85166666D01*
X48954819Y-84261904D02*
X48954819Y-84738094D01*
X48954819Y-84738094D02*
X49431009Y-84785713D01*
X49431009Y-84785713D02*
X49383390Y-84738094D01*
X49383390Y-84738094D02*
X49335771Y-84642856D01*
X49335771Y-84642856D02*
X49335771Y-84404761D01*
X49335771Y-84404761D02*
X49383390Y-84309523D01*
X49383390Y-84309523D02*
X49431009Y-84261904D01*
X49431009Y-84261904D02*
X49526247Y-84214285D01*
X49526247Y-84214285D02*
X49764342Y-84214285D01*
X49764342Y-84214285D02*
X49859580Y-84261904D01*
X49859580Y-84261904D02*
X49907200Y-84309523D01*
X49907200Y-84309523D02*
X49954819Y-84404761D01*
X49954819Y-84404761D02*
X49954819Y-84642856D01*
X49954819Y-84642856D02*
X49907200Y-84738094D01*
X49907200Y-84738094D02*
X49859580Y-84785713D01*
X78833333Y-87859580D02*
X78785714Y-87907200D01*
X78785714Y-87907200D02*
X78642857Y-87954819D01*
X78642857Y-87954819D02*
X78547619Y-87954819D01*
X78547619Y-87954819D02*
X78404762Y-87907200D01*
X78404762Y-87907200D02*
X78309524Y-87811961D01*
X78309524Y-87811961D02*
X78261905Y-87716723D01*
X78261905Y-87716723D02*
X78214286Y-87526247D01*
X78214286Y-87526247D02*
X78214286Y-87383390D01*
X78214286Y-87383390D02*
X78261905Y-87192914D01*
X78261905Y-87192914D02*
X78309524Y-87097676D01*
X78309524Y-87097676D02*
X78404762Y-87002438D01*
X78404762Y-87002438D02*
X78547619Y-86954819D01*
X78547619Y-86954819D02*
X78642857Y-86954819D01*
X78642857Y-86954819D02*
X78785714Y-87002438D01*
X78785714Y-87002438D02*
X78833333Y-87050057D01*
X79785714Y-87954819D02*
X79214286Y-87954819D01*
X79500000Y-87954819D02*
X79500000Y-86954819D01*
X79500000Y-86954819D02*
X79404762Y-87097676D01*
X79404762Y-87097676D02*
X79309524Y-87192914D01*
X79309524Y-87192914D02*
X79214286Y-87240533D01*
X68454819Y-82116666D02*
X67978628Y-82449999D01*
X68454819Y-82688094D02*
X67454819Y-82688094D01*
X67454819Y-82688094D02*
X67454819Y-82307142D01*
X67454819Y-82307142D02*
X67502438Y-82211904D01*
X67502438Y-82211904D02*
X67550057Y-82164285D01*
X67550057Y-82164285D02*
X67645295Y-82116666D01*
X67645295Y-82116666D02*
X67788152Y-82116666D01*
X67788152Y-82116666D02*
X67883390Y-82164285D01*
X67883390Y-82164285D02*
X67931009Y-82211904D01*
X67931009Y-82211904D02*
X67978628Y-82307142D01*
X67978628Y-82307142D02*
X67978628Y-82688094D01*
X67454819Y-81211904D02*
X67454819Y-81688094D01*
X67454819Y-81688094D02*
X67931009Y-81735713D01*
X67931009Y-81735713D02*
X67883390Y-81688094D01*
X67883390Y-81688094D02*
X67835771Y-81592856D01*
X67835771Y-81592856D02*
X67835771Y-81354761D01*
X67835771Y-81354761D02*
X67883390Y-81259523D01*
X67883390Y-81259523D02*
X67931009Y-81211904D01*
X67931009Y-81211904D02*
X68026247Y-81164285D01*
X68026247Y-81164285D02*
X68264342Y-81164285D01*
X68264342Y-81164285D02*
X68359580Y-81211904D01*
X68359580Y-81211904D02*
X68407200Y-81259523D01*
X68407200Y-81259523D02*
X68454819Y-81354761D01*
X68454819Y-81354761D02*
X68454819Y-81592856D01*
X68454819Y-81592856D02*
X68407200Y-81688094D01*
X68407200Y-81688094D02*
X68359580Y-81735713D01*
X92357142Y-55454819D02*
X92023809Y-54978628D01*
X91785714Y-55454819D02*
X91785714Y-54454819D01*
X91785714Y-54454819D02*
X92166666Y-54454819D01*
X92166666Y-54454819D02*
X92261904Y-54502438D01*
X92261904Y-54502438D02*
X92309523Y-54550057D01*
X92309523Y-54550057D02*
X92357142Y-54645295D01*
X92357142Y-54645295D02*
X92357142Y-54788152D01*
X92357142Y-54788152D02*
X92309523Y-54883390D01*
X92309523Y-54883390D02*
X92261904Y-54931009D01*
X92261904Y-54931009D02*
X92166666Y-54978628D01*
X92166666Y-54978628D02*
X91785714Y-54978628D01*
X92738095Y-54550057D02*
X92785714Y-54502438D01*
X92785714Y-54502438D02*
X92880952Y-54454819D01*
X92880952Y-54454819D02*
X93119047Y-54454819D01*
X93119047Y-54454819D02*
X93214285Y-54502438D01*
X93214285Y-54502438D02*
X93261904Y-54550057D01*
X93261904Y-54550057D02*
X93309523Y-54645295D01*
X93309523Y-54645295D02*
X93309523Y-54740533D01*
X93309523Y-54740533D02*
X93261904Y-54883390D01*
X93261904Y-54883390D02*
X92690476Y-55454819D01*
X92690476Y-55454819D02*
X93309523Y-55454819D01*
X94214285Y-54454819D02*
X93738095Y-54454819D01*
X93738095Y-54454819D02*
X93690476Y-54931009D01*
X93690476Y-54931009D02*
X93738095Y-54883390D01*
X93738095Y-54883390D02*
X93833333Y-54835771D01*
X93833333Y-54835771D02*
X94071428Y-54835771D01*
X94071428Y-54835771D02*
X94166666Y-54883390D01*
X94166666Y-54883390D02*
X94214285Y-54931009D01*
X94214285Y-54931009D02*
X94261904Y-55026247D01*
X94261904Y-55026247D02*
X94261904Y-55264342D01*
X94261904Y-55264342D02*
X94214285Y-55359580D01*
X94214285Y-55359580D02*
X94166666Y-55407200D01*
X94166666Y-55407200D02*
X94071428Y-55454819D01*
X94071428Y-55454819D02*
X93833333Y-55454819D01*
X93833333Y-55454819D02*
X93738095Y-55407200D01*
X93738095Y-55407200D02*
X93690476Y-55359580D01*
X72690476Y-30879819D02*
X72690476Y-31594104D01*
X72690476Y-31594104D02*
X72642857Y-31736961D01*
X72642857Y-31736961D02*
X72547619Y-31832200D01*
X72547619Y-31832200D02*
X72404762Y-31879819D01*
X72404762Y-31879819D02*
X72309524Y-31879819D01*
X73690476Y-31879819D02*
X73119048Y-31879819D01*
X73404762Y-31879819D02*
X73404762Y-30879819D01*
X73404762Y-30879819D02*
X73309524Y-31022676D01*
X73309524Y-31022676D02*
X73214286Y-31117914D01*
X73214286Y-31117914D02*
X73119048Y-31165533D01*
X74642857Y-31879819D02*
X74071429Y-31879819D01*
X74357143Y-31879819D02*
X74357143Y-30879819D01*
X74357143Y-30879819D02*
X74261905Y-31022676D01*
X74261905Y-31022676D02*
X74166667Y-31117914D01*
X74166667Y-31117914D02*
X74071429Y-31165533D01*
X93454819Y-43642857D02*
X92978628Y-43976190D01*
X93454819Y-44214285D02*
X92454819Y-44214285D01*
X92454819Y-44214285D02*
X92454819Y-43833333D01*
X92454819Y-43833333D02*
X92502438Y-43738095D01*
X92502438Y-43738095D02*
X92550057Y-43690476D01*
X92550057Y-43690476D02*
X92645295Y-43642857D01*
X92645295Y-43642857D02*
X92788152Y-43642857D01*
X92788152Y-43642857D02*
X92883390Y-43690476D01*
X92883390Y-43690476D02*
X92931009Y-43738095D01*
X92931009Y-43738095D02*
X92978628Y-43833333D01*
X92978628Y-43833333D02*
X92978628Y-44214285D01*
X92550057Y-43261904D02*
X92502438Y-43214285D01*
X92502438Y-43214285D02*
X92454819Y-43119047D01*
X92454819Y-43119047D02*
X92454819Y-42880952D01*
X92454819Y-42880952D02*
X92502438Y-42785714D01*
X92502438Y-42785714D02*
X92550057Y-42738095D01*
X92550057Y-42738095D02*
X92645295Y-42690476D01*
X92645295Y-42690476D02*
X92740533Y-42690476D01*
X92740533Y-42690476D02*
X92883390Y-42738095D01*
X92883390Y-42738095D02*
X93454819Y-43309523D01*
X93454819Y-43309523D02*
X93454819Y-42690476D01*
X93454819Y-42214285D02*
X93454819Y-42023809D01*
X93454819Y-42023809D02*
X93407200Y-41928571D01*
X93407200Y-41928571D02*
X93359580Y-41880952D01*
X93359580Y-41880952D02*
X93216723Y-41785714D01*
X93216723Y-41785714D02*
X93026247Y-41738095D01*
X93026247Y-41738095D02*
X92645295Y-41738095D01*
X92645295Y-41738095D02*
X92550057Y-41785714D01*
X92550057Y-41785714D02*
X92502438Y-41833333D01*
X92502438Y-41833333D02*
X92454819Y-41928571D01*
X92454819Y-41928571D02*
X92454819Y-42119047D01*
X92454819Y-42119047D02*
X92502438Y-42214285D01*
X92502438Y-42214285D02*
X92550057Y-42261904D01*
X92550057Y-42261904D02*
X92645295Y-42309523D01*
X92645295Y-42309523D02*
X92883390Y-42309523D01*
X92883390Y-42309523D02*
X92978628Y-42261904D01*
X92978628Y-42261904D02*
X93026247Y-42214285D01*
X93026247Y-42214285D02*
X93073866Y-42119047D01*
X93073866Y-42119047D02*
X93073866Y-41928571D01*
X93073866Y-41928571D02*
X93026247Y-41833333D01*
X93026247Y-41833333D02*
X92978628Y-41785714D01*
X92978628Y-41785714D02*
X92883390Y-41738095D01*
X103190476Y-37954819D02*
X103190476Y-38669104D01*
X103190476Y-38669104D02*
X103142857Y-38811961D01*
X103142857Y-38811961D02*
X103047619Y-38907200D01*
X103047619Y-38907200D02*
X102904762Y-38954819D01*
X102904762Y-38954819D02*
X102809524Y-38954819D01*
X104190476Y-38954819D02*
X103619048Y-38954819D01*
X103904762Y-38954819D02*
X103904762Y-37954819D01*
X103904762Y-37954819D02*
X103809524Y-38097676D01*
X103809524Y-38097676D02*
X103714286Y-38192914D01*
X103714286Y-38192914D02*
X103619048Y-38240533D01*
X104809524Y-37954819D02*
X104904762Y-37954819D01*
X104904762Y-37954819D02*
X105000000Y-38002438D01*
X105000000Y-38002438D02*
X105047619Y-38050057D01*
X105047619Y-38050057D02*
X105095238Y-38145295D01*
X105095238Y-38145295D02*
X105142857Y-38335771D01*
X105142857Y-38335771D02*
X105142857Y-38573866D01*
X105142857Y-38573866D02*
X105095238Y-38764342D01*
X105095238Y-38764342D02*
X105047619Y-38859580D01*
X105047619Y-38859580D02*
X105000000Y-38907200D01*
X105000000Y-38907200D02*
X104904762Y-38954819D01*
X104904762Y-38954819D02*
X104809524Y-38954819D01*
X104809524Y-38954819D02*
X104714286Y-38907200D01*
X104714286Y-38907200D02*
X104666667Y-38859580D01*
X104666667Y-38859580D02*
X104619048Y-38764342D01*
X104619048Y-38764342D02*
X104571429Y-38573866D01*
X104571429Y-38573866D02*
X104571429Y-38335771D01*
X104571429Y-38335771D02*
X104619048Y-38145295D01*
X104619048Y-38145295D02*
X104666667Y-38050057D01*
X104666667Y-38050057D02*
X104714286Y-38002438D01*
X104714286Y-38002438D02*
X104809524Y-37954819D01*
D12*
%TO.C,U3*%
X85070000Y-68560000D02*
X86830000Y-68560000D01*
X86030000Y-65490000D02*
X85230000Y-65490000D01*
X86030000Y-65490000D02*
X86830000Y-65490000D01*
X84730000Y-65540000D02*
X84490000Y-65210000D01*
X84970000Y-65210000D01*
X84730000Y-65540000D01*
G36*
X84730000Y-65540000D02*
G01*
X84490000Y-65210000D01*
X84970000Y-65210000D01*
X84730000Y-65540000D01*
G37*
%TO.C,U4*%
X56450000Y-41245000D02*
X55500000Y-41245000D01*
X56450000Y-42645000D02*
X56450000Y-41245000D01*
X56450000Y-58245000D02*
X56450000Y-59645000D01*
X56450000Y-59645000D02*
X55500000Y-59645000D01*
X37500000Y-60145000D02*
X37000000Y-59645000D01*
X37500000Y-59645000D01*
X37500000Y-60145000D01*
G36*
X37500000Y-60145000D02*
G01*
X37000000Y-59645000D01*
X37500000Y-59645000D01*
X37500000Y-60145000D01*
G37*
%TO.C,SW1*%
X63770000Y-58770000D02*
X70230000Y-58770000D01*
X63770000Y-58800000D02*
X63770000Y-58770000D01*
X63770000Y-60700000D02*
X63770000Y-63300000D01*
X63770000Y-65230000D02*
X63770000Y-65200000D01*
X63770000Y-65230000D02*
X70230000Y-65230000D01*
X70230000Y-58770000D02*
X70230000Y-58800000D01*
X70230000Y-60700000D02*
X70230000Y-63300000D01*
X70230000Y-65230000D02*
X70230000Y-65200000D01*
%TO.C,C6*%
X53648752Y-79640000D02*
X52226248Y-79640000D01*
X53648752Y-82360000D02*
X52226248Y-82360000D01*
%TO.C,5V1*%
X38040000Y-71365000D02*
X38040000Y-73635000D01*
X38040000Y-73635000D02*
X42100000Y-73635000D01*
X42100000Y-71365000D02*
X38040000Y-71365000D01*
%TO.C,R6*%
X65090000Y-77227064D02*
X65090000Y-75772936D01*
X66910000Y-77227064D02*
X66910000Y-75772936D01*
%TO.C,5V2*%
X98300000Y-92800000D02*
X100700000Y-92800000D01*
X98300000Y-95200000D02*
X98300000Y-92800000D01*
X100700000Y-92800000D02*
X100700000Y-95200000D01*
X100700000Y-95200000D02*
X98300000Y-95200000D01*
%TO.C,J9*%
X75120000Y-70730000D02*
X75120000Y-52840000D01*
X77880000Y-52840000D02*
X75120000Y-52840000D01*
X77880000Y-70730000D02*
X75120000Y-70730000D01*
X77880000Y-70730000D02*
X77880000Y-52840000D01*
X77880000Y-72000000D02*
X77880000Y-73380000D01*
X77880000Y-73380000D02*
X76500000Y-73380000D01*
%TO.C,R27*%
X81090000Y-42272936D02*
X81090000Y-43727064D01*
X82910000Y-42272936D02*
X82910000Y-43727064D01*
%TO.C,R16*%
X73590000Y-49277064D02*
X73590000Y-47822936D01*
X75410000Y-49277064D02*
X75410000Y-47822936D01*
%TO.C,C22*%
X41211252Y-66140000D02*
X39788748Y-66140000D01*
X41211252Y-68860000D02*
X39788748Y-68860000D01*
%TO.C,U7*%
X84940000Y-48940000D02*
X89060000Y-48940000D01*
X84940000Y-49035000D02*
X84940000Y-48940000D01*
X84940000Y-54060000D02*
X84940000Y-53965000D01*
X89060000Y-48940000D02*
X89060000Y-49035000D01*
X89060000Y-53965000D02*
X89060000Y-54060000D01*
X89060000Y-54060000D02*
X84940000Y-54060000D01*
X84400000Y-49030000D02*
X84160000Y-48700000D01*
X84640000Y-48700000D01*
X84400000Y-49030000D01*
G36*
X84400000Y-49030000D02*
G01*
X84160000Y-48700000D01*
X84640000Y-48700000D01*
X84400000Y-49030000D01*
G37*
%TO.C,R1*%
X51727064Y-94590000D02*
X50272936Y-94590000D01*
X51727064Y-96410000D02*
X50272936Y-96410000D01*
%TO.C,R10*%
X95777064Y-91590000D02*
X94322936Y-91590000D01*
X95777064Y-93410000D02*
X94322936Y-93410000D01*
D13*
%TO.C,U8*%
X95839600Y-51722400D02*
X95839600Y-51263600D01*
X95847600Y-49827600D02*
X97160400Y-49827600D01*
X97160400Y-49827600D02*
X97160400Y-50786400D01*
X97160400Y-52213600D02*
X97160400Y-53172400D01*
X97160400Y-53172400D02*
X95847600Y-53172400D01*
D12*
%TO.C,J12*%
X79120000Y-68230000D02*
X79120000Y-60500000D01*
X81880000Y-60500000D02*
X79120000Y-60500000D01*
X81880000Y-68230000D02*
X79120000Y-68230000D01*
X81880000Y-68230000D02*
X81880000Y-60500000D01*
X81880000Y-69500000D02*
X81880000Y-70880000D01*
X81880000Y-70880000D02*
X80500000Y-70880000D01*
%TO.C,C25*%
X72090000Y-43711252D02*
X72090000Y-42288748D01*
X73910000Y-43711252D02*
X73910000Y-42288748D01*
%TO.C,R12*%
X95277064Y-83590000D02*
X93822936Y-83590000D01*
X95277064Y-85410000D02*
X93822936Y-85410000D01*
%TO.C,J7*%
X85940000Y-32490000D02*
X85940000Y-38460000D01*
X85940000Y-38460000D02*
X93560000Y-38460000D01*
X85950000Y-36200000D02*
X86700000Y-36200000D01*
X85950000Y-37700000D02*
X85950000Y-38450000D01*
X85950000Y-38450000D02*
X87750000Y-38450000D01*
X86700000Y-33250000D02*
X89750000Y-33250000D01*
X86700000Y-36200000D02*
X86700000Y-33250000D01*
X87750000Y-37700000D02*
X85950000Y-37700000D01*
X87750000Y-38450000D02*
X87750000Y-37700000D01*
X89250000Y-37700000D02*
X89250000Y-38450000D01*
X89250000Y-38450000D02*
X90250000Y-38450000D01*
X89750000Y-33250000D02*
X91740000Y-33250000D01*
X90250000Y-37700000D02*
X89250000Y-37700000D01*
X90250000Y-38450000D02*
X90250000Y-37700000D01*
X91750000Y-37700000D02*
X91750000Y-38450000D01*
X91750000Y-38450000D02*
X93550000Y-38450000D01*
X92600000Y-38750000D02*
X93850000Y-38750000D01*
X92800000Y-36200000D02*
X92800000Y-34860000D01*
X93550000Y-36200000D02*
X92800000Y-36200000D01*
X93550000Y-37700000D02*
X91750000Y-37700000D01*
X93550000Y-38450000D02*
X93550000Y-37700000D01*
X93560000Y-32490000D02*
X85940000Y-32490000D01*
X93560000Y-38460000D02*
X93560000Y-32490000D01*
X93850000Y-38750000D02*
X93850000Y-37500000D01*
%TO.C,C14*%
X86411252Y-69590000D02*
X84988748Y-69590000D01*
X86411252Y-71410000D02*
X84988748Y-71410000D01*
%TO.C,J5*%
X99700000Y-55700000D02*
X99700000Y-56950000D01*
X99700000Y-56950000D02*
X100950000Y-56950000D01*
X99990000Y-46540000D02*
X99990000Y-56660000D01*
X99990000Y-56660000D02*
X105960000Y-56660000D01*
X100000000Y-46550000D02*
X100000000Y-48350000D01*
X100000000Y-48350000D02*
X100750000Y-48350000D01*
X100000000Y-49850000D02*
X100000000Y-53350000D01*
X100000000Y-53350000D02*
X100750000Y-53350000D01*
X100000000Y-54850000D02*
X100000000Y-56650000D01*
X100000000Y-56650000D02*
X100750000Y-56650000D01*
X100750000Y-46550000D02*
X100000000Y-46550000D01*
X100750000Y-48350000D02*
X100750000Y-46550000D01*
X100750000Y-49850000D02*
X100000000Y-49850000D01*
X100750000Y-53350000D02*
X100750000Y-49850000D01*
X100750000Y-54850000D02*
X100000000Y-54850000D01*
X100750000Y-56650000D02*
X100750000Y-54850000D01*
X102250000Y-46550000D02*
X102250000Y-47300000D01*
X102250000Y-47300000D02*
X105200000Y-47300000D01*
X102250000Y-55900000D02*
X103590000Y-55900000D01*
X102250000Y-56650000D02*
X102250000Y-55900000D01*
X105200000Y-47300000D02*
X105200000Y-51600000D01*
X105200000Y-51600000D02*
X105200000Y-54840000D01*
X105960000Y-46540000D02*
X99990000Y-46540000D01*
X105960000Y-56660000D02*
X105960000Y-46540000D01*
%TO.C,J1*%
X55150000Y-90750000D02*
X55150000Y-92000000D01*
X55440000Y-91040000D02*
X55440000Y-97010000D01*
X55440000Y-97010000D02*
X63060000Y-97010000D01*
X55450000Y-91050000D02*
X55450000Y-91800000D01*
X55450000Y-91800000D02*
X57250000Y-91800000D01*
X55450000Y-93300000D02*
X56200000Y-93300000D01*
X56200000Y-93300000D02*
X56200000Y-94640000D01*
X56400000Y-90750000D02*
X55150000Y-90750000D01*
X57250000Y-91050000D02*
X55450000Y-91050000D01*
X57250000Y-91800000D02*
X57250000Y-91050000D01*
X58750000Y-91050000D02*
X58750000Y-91800000D01*
X58750000Y-91800000D02*
X59750000Y-91800000D01*
X59250000Y-96250000D02*
X57260000Y-96250000D01*
X59750000Y-91050000D02*
X58750000Y-91050000D01*
X59750000Y-91800000D02*
X59750000Y-91050000D01*
X61250000Y-91050000D02*
X61250000Y-91800000D01*
X61250000Y-91800000D02*
X63050000Y-91800000D01*
X62300000Y-93300000D02*
X62300000Y-96250000D01*
X62300000Y-96250000D02*
X59250000Y-96250000D01*
X63050000Y-91050000D02*
X61250000Y-91050000D01*
X63050000Y-91800000D02*
X63050000Y-91050000D01*
X63050000Y-93300000D02*
X62300000Y-93300000D01*
X63060000Y-91040000D02*
X55440000Y-91040000D01*
X63060000Y-97010000D02*
X63060000Y-91040000D01*
%TO.C,D2*%
X69510000Y-44350000D02*
X64000000Y-44350000D01*
X69510000Y-47650000D02*
X64000000Y-47650000D01*
X69510000Y-47650000D02*
X69510000Y-44350000D01*
%TO.C,3v3*%
X44300000Y-90300000D02*
X46700000Y-90300000D01*
X44300000Y-92700000D02*
X44300000Y-90300000D01*
X46700000Y-90300000D02*
X46700000Y-92700000D01*
X46700000Y-92700000D02*
X44300000Y-92700000D01*
%TO.C,C9*%
X46711252Y-69140000D02*
X45288748Y-69140000D01*
X46711252Y-71860000D02*
X45288748Y-71860000D01*
%TO.C,J2*%
X99725000Y-88600000D02*
X99725000Y-89850000D01*
X99725000Y-89850000D02*
X100975000Y-89850000D01*
X100015000Y-79440000D02*
X100015000Y-89560000D01*
X100015000Y-89560000D02*
X105985000Y-89560000D01*
X100025000Y-79450000D02*
X100025000Y-81250000D01*
X100025000Y-81250000D02*
X100775000Y-81250000D01*
X100025000Y-82750000D02*
X100025000Y-86250000D01*
X100025000Y-86250000D02*
X100775000Y-86250000D01*
X100025000Y-87750000D02*
X100025000Y-89550000D01*
X100025000Y-89550000D02*
X100775000Y-89550000D01*
X100775000Y-79450000D02*
X100025000Y-79450000D01*
X100775000Y-81250000D02*
X100775000Y-79450000D01*
X100775000Y-82750000D02*
X100025000Y-82750000D01*
X100775000Y-86250000D02*
X100775000Y-82750000D01*
X100775000Y-87750000D02*
X100025000Y-87750000D01*
X100775000Y-89550000D02*
X100775000Y-87750000D01*
X102275000Y-79450000D02*
X102275000Y-80200000D01*
X102275000Y-80200000D02*
X105225000Y-80200000D01*
X102275000Y-88800000D02*
X103615000Y-88800000D01*
X102275000Y-89550000D02*
X102275000Y-88800000D01*
X105225000Y-80200000D02*
X105225000Y-84500000D01*
X105225000Y-84500000D02*
X105225000Y-87740000D01*
X105985000Y-79440000D02*
X100015000Y-79440000D01*
X105985000Y-89560000D02*
X105985000Y-79440000D01*
%TO.C,C2*%
X59788748Y-79590000D02*
X61211252Y-79590000D01*
X59788748Y-81410000D02*
X61211252Y-81410000D01*
%TO.C,J4*%
X99700000Y-66700000D02*
X99700000Y-67950000D01*
X99700000Y-67950000D02*
X100950000Y-67950000D01*
X99990000Y-57540000D02*
X99990000Y-67660000D01*
X99990000Y-67660000D02*
X105960000Y-67660000D01*
X100000000Y-57550000D02*
X100000000Y-59350000D01*
X100000000Y-59350000D02*
X100750000Y-59350000D01*
X100000000Y-60850000D02*
X100000000Y-64350000D01*
X100000000Y-64350000D02*
X100750000Y-64350000D01*
X100000000Y-65850000D02*
X100000000Y-67650000D01*
X100000000Y-67650000D02*
X100750000Y-67650000D01*
X100750000Y-57550000D02*
X100000000Y-57550000D01*
X100750000Y-59350000D02*
X100750000Y-57550000D01*
X100750000Y-60850000D02*
X100000000Y-60850000D01*
X100750000Y-64350000D02*
X100750000Y-60850000D01*
X100750000Y-65850000D02*
X100000000Y-65850000D01*
X100750000Y-67650000D02*
X100750000Y-65850000D01*
X102250000Y-57550000D02*
X102250000Y-58300000D01*
X102250000Y-58300000D02*
X105200000Y-58300000D01*
X102250000Y-66900000D02*
X103590000Y-66900000D01*
X102250000Y-67650000D02*
X102250000Y-66900000D01*
X105200000Y-58300000D02*
X105200000Y-62600000D01*
X105200000Y-62600000D02*
X105200000Y-65840000D01*
X105960000Y-57540000D02*
X99990000Y-57540000D01*
X105960000Y-67660000D02*
X105960000Y-57540000D01*
%TO.C,C4*%
X63140000Y-70351248D02*
X63140000Y-71773752D01*
X65860000Y-70351248D02*
X65860000Y-71773752D01*
%TO.C,GND1*%
X65300000Y-93300000D02*
X67700000Y-93300000D01*
X65300000Y-95700000D02*
X65300000Y-93300000D01*
X67700000Y-93300000D02*
X67700000Y-95700000D01*
X67700000Y-95700000D02*
X65300000Y-95700000D01*
%TO.C,U1*%
X84940000Y-85565000D02*
X89060000Y-85565000D01*
X84940000Y-85630000D02*
X84940000Y-85565000D01*
X84940000Y-94435000D02*
X84940000Y-94370000D01*
X89060000Y-85565000D02*
X89060000Y-85630000D01*
X89060000Y-94370000D02*
X89060000Y-94435000D01*
X89060000Y-94435000D02*
X84940000Y-94435000D01*
X84400000Y-85630000D02*
X84160000Y-85300000D01*
X84640000Y-85300000D01*
X84400000Y-85630000D01*
G36*
X84400000Y-85630000D02*
G01*
X84160000Y-85300000D01*
X84640000Y-85300000D01*
X84400000Y-85630000D01*
G37*
%TO.C,C23*%
X90288748Y-46590000D02*
X91711252Y-46590000D01*
X90288748Y-48410000D02*
X91711252Y-48410000D01*
%TO.C,R9*%
X95227064Y-79590000D02*
X93772936Y-79590000D01*
X95227064Y-81410000D02*
X93772936Y-81410000D01*
%TO.C,USB1*%
X47365000Y-32540000D02*
X47365000Y-36600000D01*
X49635000Y-32540000D02*
X47365000Y-32540000D01*
X49635000Y-36600000D02*
X49635000Y-32540000D01*
%TO.C,C24*%
X76590000Y-43711252D02*
X76590000Y-42288748D01*
X78410000Y-43711252D02*
X78410000Y-42288748D01*
%TO.C,R26*%
X44540000Y-85272936D02*
X44540000Y-86727064D01*
X46360000Y-85272936D02*
X46360000Y-86727064D01*
%TO.C,FB1*%
X58090000Y-68335242D02*
X58090000Y-66664758D01*
X59910000Y-68335242D02*
X59910000Y-66664758D01*
%TO.C,R2*%
X67090000Y-71727064D02*
X67090000Y-70272936D01*
X68910000Y-71727064D02*
X68910000Y-70272936D01*
%TO.C,U5*%
X45590000Y-63440000D02*
X47410000Y-63440000D01*
X45590000Y-63490000D02*
X45590000Y-63440000D01*
X45590000Y-65390000D02*
X45590000Y-64610000D01*
X45590000Y-66560000D02*
X45590000Y-66510000D01*
X47410000Y-63440000D02*
X47410000Y-63490000D01*
X47410000Y-66510000D02*
X47410000Y-66560000D01*
X47410000Y-66560000D02*
X45590000Y-66560000D01*
X48190000Y-66840000D02*
X47710000Y-66840000D01*
X47950000Y-66510000D01*
X48190000Y-66840000D01*
G36*
X48190000Y-66840000D02*
G01*
X47710000Y-66840000D01*
X47950000Y-66510000D01*
X48190000Y-66840000D01*
G37*
%TO.C,C19*%
X68750000Y-77740000D02*
X70000000Y-77740000D01*
X69375000Y-77115000D02*
X69375000Y-78365000D01*
X70240000Y-76304437D02*
X70240000Y-78990000D01*
X70240000Y-76304437D02*
X71304437Y-75240000D01*
X70240000Y-84695563D02*
X70240000Y-82010000D01*
X70240000Y-84695563D02*
X71304437Y-85760000D01*
X71304437Y-75240000D02*
X80760000Y-75240000D01*
X71304437Y-85760000D02*
X80760000Y-85760000D01*
X80760000Y-75240000D02*
X80760000Y-78990000D01*
X80760000Y-85760000D02*
X80760000Y-82010000D01*
%TO.C,C20*%
X41711252Y-61590000D02*
X40288748Y-61590000D01*
X41711252Y-63410000D02*
X40288748Y-63410000D01*
%TO.C,D3*%
X53350000Y-70510000D02*
X53350000Y-65000000D01*
X53350000Y-70510000D02*
X56650000Y-70510000D01*
X56650000Y-70510000D02*
X56650000Y-65000000D01*
%TO.C,R11*%
X95277064Y-87590000D02*
X93822936Y-87590000D01*
X95277064Y-89410000D02*
X93822936Y-89410000D01*
%TO.C,C8*%
X50090000Y-68136252D02*
X50090000Y-66713748D01*
X51910000Y-68136252D02*
X51910000Y-66713748D01*
%TO.C,R20*%
X46727064Y-73590000D02*
X45272936Y-73590000D01*
X46727064Y-75410000D02*
X45272936Y-75410000D01*
%TO.C,MOTOR1*%
X38040000Y-83365000D02*
X38040000Y-85635000D01*
X38040000Y-85635000D02*
X42100000Y-85635000D01*
X42100000Y-83365000D02*
X38040000Y-83365000D01*
%TO.C,C18*%
X92788748Y-61640000D02*
X94211252Y-61640000D01*
X92788748Y-64360000D02*
X94211252Y-64360000D01*
%TO.C,J8*%
X51300000Y-36780000D02*
X51300000Y-35000000D01*
X58800000Y-39700000D02*
X59600000Y-39700000D01*
X60700000Y-36780000D02*
X60700000Y-35000000D01*
%TO.C,C7*%
X59788748Y-82590000D02*
X61211252Y-82590000D01*
X59788748Y-84410000D02*
X61211252Y-84410000D01*
%TO.C,D1*%
X47490000Y-89350000D02*
X47490000Y-92650000D01*
X47490000Y-89350000D02*
X53000000Y-89350000D01*
X47490000Y-92650000D02*
X53000000Y-92650000D01*
%TO.C,J6*%
X94440000Y-32490000D02*
X94440000Y-38460000D01*
X94440000Y-38460000D02*
X102060000Y-38460000D01*
X94450000Y-36200000D02*
X95200000Y-36200000D01*
X94450000Y-37700000D02*
X94450000Y-38450000D01*
X94450000Y-38450000D02*
X96250000Y-38450000D01*
X95200000Y-33250000D02*
X98250000Y-33250000D01*
X95200000Y-36200000D02*
X95200000Y-33250000D01*
X96250000Y-37700000D02*
X94450000Y-37700000D01*
X96250000Y-38450000D02*
X96250000Y-37700000D01*
X97750000Y-37700000D02*
X97750000Y-38450000D01*
X97750000Y-38450000D02*
X98750000Y-38450000D01*
X98250000Y-33250000D02*
X100240000Y-33250000D01*
X98750000Y-37700000D02*
X97750000Y-37700000D01*
X98750000Y-38450000D02*
X98750000Y-37700000D01*
X100250000Y-37700000D02*
X100250000Y-38450000D01*
X100250000Y-38450000D02*
X102050000Y-38450000D01*
X101100000Y-38750000D02*
X102350000Y-38750000D01*
X101300000Y-36200000D02*
X101300000Y-34860000D01*
X102050000Y-36200000D02*
X101300000Y-36200000D01*
X102050000Y-37700000D02*
X100250000Y-37700000D01*
X102050000Y-38450000D02*
X102050000Y-37700000D01*
X102060000Y-32490000D02*
X94440000Y-32490000D01*
X102060000Y-38460000D02*
X102060000Y-32490000D01*
X102350000Y-38750000D02*
X102350000Y-37500000D01*
D14*
%TO.C,L1*%
X49750000Y-71450000D02*
X49750000Y-78550000D01*
X49750000Y-71450000D02*
X50980000Y-71450000D01*
X49750000Y-78550000D02*
X50980000Y-78550000D01*
X56250000Y-71450000D02*
X55020000Y-71450000D01*
X56250000Y-71450000D02*
X56250000Y-78550000D01*
X56250000Y-78550000D02*
X55020000Y-78550000D01*
D12*
%TO.C,F1*%
X64113748Y-85790000D02*
X66886252Y-85790000D01*
X64113748Y-89210000D02*
X66886252Y-89210000D01*
D14*
%TO.C,L2*%
X82900000Y-57750000D02*
X82900000Y-58980000D01*
X82900000Y-57750000D02*
X90000000Y-57750000D01*
X82900000Y-64250000D02*
X82900000Y-63020000D01*
X82900000Y-64250000D02*
X90000000Y-64250000D01*
X90000000Y-57750000D02*
X90000000Y-58980000D01*
X90000000Y-64250000D02*
X90000000Y-63020000D01*
D12*
%TO.C,C17*%
X92726248Y-57640000D02*
X94148752Y-57640000D01*
X92726248Y-60360000D02*
X94148752Y-60360000D01*
%TO.C,R18*%
X71272936Y-67590000D02*
X72727064Y-67590000D01*
X71272936Y-69410000D02*
X72727064Y-69410000D01*
%TO.C,SW2*%
X63770000Y-50270000D02*
X70230000Y-50270000D01*
X63770000Y-50300000D02*
X63770000Y-50270000D01*
X63770000Y-52200000D02*
X63770000Y-54800000D01*
X63770000Y-56730000D02*
X63770000Y-56700000D01*
X63770000Y-56730000D02*
X70230000Y-56730000D01*
X70230000Y-50270000D02*
X70230000Y-50300000D01*
X70230000Y-52200000D02*
X70230000Y-54800000D01*
X70230000Y-56730000D02*
X70230000Y-56700000D01*
%TO.C,R24*%
X80590000Y-54727064D02*
X80590000Y-53272936D01*
X82410000Y-54727064D02*
X82410000Y-53272936D01*
%TO.C,C21*%
X71288748Y-71590000D02*
X72711252Y-71590000D01*
X71288748Y-73410000D02*
X72711252Y-73410000D01*
%TO.C,R17*%
X46272936Y-38090000D02*
X47727064Y-38090000D01*
X46272936Y-39910000D02*
X47727064Y-39910000D01*
%TO.C,C3*%
X59788748Y-76590000D02*
X61211252Y-76590000D01*
X59788748Y-78410000D02*
X61211252Y-78410000D01*
%TO.C,J3*%
X99700000Y-77700000D02*
X99700000Y-78950000D01*
X99700000Y-78950000D02*
X100950000Y-78950000D01*
X99990000Y-68540000D02*
X99990000Y-78660000D01*
X99990000Y-78660000D02*
X105960000Y-78660000D01*
X100000000Y-68550000D02*
X100000000Y-70350000D01*
X100000000Y-70350000D02*
X100750000Y-70350000D01*
X100000000Y-71850000D02*
X100000000Y-75350000D01*
X100000000Y-75350000D02*
X100750000Y-75350000D01*
X100000000Y-76850000D02*
X100000000Y-78650000D01*
X100000000Y-78650000D02*
X100750000Y-78650000D01*
X100750000Y-68550000D02*
X100000000Y-68550000D01*
X100750000Y-70350000D02*
X100750000Y-68550000D01*
X100750000Y-71850000D02*
X100000000Y-71850000D01*
X100750000Y-75350000D02*
X100750000Y-71850000D01*
X100750000Y-76850000D02*
X100000000Y-76850000D01*
X100750000Y-78650000D02*
X100750000Y-76850000D01*
X102250000Y-68550000D02*
X102250000Y-69300000D01*
X102250000Y-69300000D02*
X105200000Y-69300000D01*
X102250000Y-77900000D02*
X103590000Y-77900000D01*
X102250000Y-78650000D02*
X102250000Y-77900000D01*
X105200000Y-69300000D02*
X105200000Y-73600000D01*
X105200000Y-73600000D02*
X105200000Y-76840000D01*
X105960000Y-68540000D02*
X99990000Y-68540000D01*
X105960000Y-78660000D02*
X105960000Y-68540000D01*
%TO.C,Q1*%
X57730000Y-89245000D02*
X57730000Y-88875000D01*
X57730000Y-89245000D02*
X61270000Y-89245000D01*
X61270000Y-85705000D02*
X58060000Y-85705000D01*
X61270000Y-85705000D02*
X61270000Y-86075000D01*
X61270000Y-89245000D02*
X61270000Y-88875000D01*
X57740000Y-86025000D02*
X57260000Y-86025000D01*
X57740000Y-85545000D01*
X57740000Y-86025000D01*
G36*
X57740000Y-86025000D02*
G01*
X57260000Y-86025000D01*
X57740000Y-85545000D01*
X57740000Y-86025000D01*
G37*
%TO.C,R28*%
X85590000Y-42272936D02*
X85590000Y-43727064D01*
X87410000Y-42272936D02*
X87410000Y-43727064D01*
%TO.C,R23*%
X46677064Y-80590000D02*
X45222936Y-80590000D01*
X46677064Y-82410000D02*
X45222936Y-82410000D01*
%TO.C,U6*%
X57990000Y-45227500D02*
X58040000Y-45227500D01*
X57990000Y-47047500D02*
X57990000Y-45227500D01*
X58040000Y-47047500D02*
X57990000Y-47047500D01*
X61060000Y-45227500D02*
X61110000Y-45227500D01*
X61110000Y-45227500D02*
X61110000Y-47047500D01*
X61110000Y-47047500D02*
X61060000Y-47047500D01*
X58040000Y-47587500D02*
X57710000Y-47827500D01*
X57710000Y-47347500D01*
X58040000Y-47587500D01*
G36*
X58040000Y-47587500D02*
G01*
X57710000Y-47827500D01*
X57710000Y-47347500D01*
X58040000Y-47587500D01*
G37*
%TO.C,SW3*%
X38040000Y-79365000D02*
X38040000Y-81635000D01*
X38040000Y-81635000D02*
X42100000Y-81635000D01*
X42100000Y-79365000D02*
X38040000Y-79365000D01*
%TO.C,C15*%
X86211252Y-74090000D02*
X84788748Y-74090000D01*
X86211252Y-75910000D02*
X84788748Y-75910000D01*
%TO.C,C13*%
X87711252Y-81590000D02*
X86288748Y-81590000D01*
X87711252Y-83410000D02*
X86288748Y-83410000D01*
%TO.C,R21*%
X46727064Y-77090000D02*
X45272936Y-77090000D01*
X46727064Y-78910000D02*
X45272936Y-78910000D01*
%TO.C,3.3V1*%
X38052500Y-75255000D02*
X38052500Y-77525000D01*
X38052500Y-77525000D02*
X42112500Y-77525000D01*
X42112500Y-75255000D02*
X38052500Y-75255000D01*
%TO.C,R14*%
X91272936Y-76090000D02*
X92727064Y-76090000D01*
X91272936Y-77910000D02*
X92727064Y-77910000D01*
%TO.C,R19*%
X68272936Y-41090000D02*
X69727064Y-41090000D01*
X68272936Y-42910000D02*
X69727064Y-42910000D01*
%TO.C,R22*%
X44590000Y-35727064D02*
X44590000Y-34272936D01*
X46410000Y-35727064D02*
X46410000Y-34272936D01*
%TO.C,C16*%
X90090000Y-69198752D02*
X90090000Y-67776248D01*
X91910000Y-69198752D02*
X91910000Y-67776248D01*
%TO.C,R13*%
X92677064Y-72090000D02*
X91222936Y-72090000D01*
X92677064Y-73910000D02*
X91222936Y-73910000D01*
%TO.C,R15*%
X94090000Y-67772936D02*
X94090000Y-69227064D01*
X95910000Y-67772936D02*
X95910000Y-69227064D01*
%TO.C,C5*%
X53711252Y-83640000D02*
X52288748Y-83640000D01*
X53711252Y-86360000D02*
X52288748Y-86360000D01*
%TO.C,C1*%
X68750000Y-89240000D02*
X70000000Y-89240000D01*
X69375000Y-88615000D02*
X69375000Y-89865000D01*
X70240000Y-87804437D02*
X70240000Y-90490000D01*
X70240000Y-87804437D02*
X71304437Y-86740000D01*
X70240000Y-96195563D02*
X70240000Y-93510000D01*
X70240000Y-96195563D02*
X71304437Y-97260000D01*
X71304437Y-86740000D02*
X80760000Y-86740000D01*
X71304437Y-97260000D02*
X80760000Y-97260000D01*
X80760000Y-86740000D02*
X80760000Y-90490000D01*
X80760000Y-97260000D02*
X80760000Y-93510000D01*
%TO.C,R5*%
X65090000Y-82727064D02*
X65090000Y-81272936D01*
X66910000Y-82727064D02*
X66910000Y-81272936D01*
%TO.C,R25*%
X92090000Y-52227064D02*
X92090000Y-50772936D01*
X93910000Y-52227064D02*
X93910000Y-50772936D01*
D14*
%TO.C,U9*%
X59455000Y-72385000D02*
X61055000Y-72385000D01*
X59455000Y-75515000D02*
X61055000Y-75515000D01*
D15*
X57955000Y-73004000D02*
G75*
G02*
X57755000Y-73004000I-100000J0D01*
G01*
X57755000Y-73004000D02*
G75*
G02*
X57955000Y-73004000I100000J0D01*
G01*
D12*
%TO.C,J11*%
X61900000Y-32225000D02*
X61900000Y-33475000D01*
X62190000Y-32515000D02*
X62190000Y-38485000D01*
X62190000Y-38485000D02*
X84810000Y-38485000D01*
X62200000Y-32525000D02*
X62200000Y-33275000D01*
X62200000Y-33275000D02*
X64000000Y-33275000D01*
X62200000Y-34775000D02*
X62950000Y-34775000D01*
X62950000Y-34775000D02*
X62950000Y-36115000D01*
X63150000Y-32225000D02*
X61900000Y-32225000D01*
X64000000Y-32525000D02*
X62200000Y-32525000D01*
X64000000Y-33275000D02*
X64000000Y-32525000D01*
X65500000Y-32525000D02*
X65500000Y-33275000D01*
X65500000Y-33275000D02*
X81500000Y-33275000D01*
X73500000Y-37725000D02*
X64010000Y-37725000D01*
X81500000Y-32525000D02*
X65500000Y-32525000D01*
X81500000Y-33275000D02*
X81500000Y-32525000D01*
X83000000Y-32525000D02*
X83000000Y-33275000D01*
X83000000Y-33275000D02*
X84800000Y-33275000D01*
X84050000Y-34775000D02*
X84050000Y-37725000D01*
X84050000Y-37725000D02*
X73500000Y-37725000D01*
X84800000Y-32525000D02*
X83000000Y-32525000D01*
X84800000Y-33275000D02*
X84800000Y-32525000D01*
X84800000Y-34775000D02*
X84050000Y-34775000D01*
X84810000Y-32515000D02*
X62190000Y-32515000D01*
X84810000Y-38485000D02*
X84810000Y-32515000D01*
%TO.C,R29*%
X90090000Y-42272936D02*
X90090000Y-43727064D01*
X91910000Y-42272936D02*
X91910000Y-43727064D01*
%TO.C,J10*%
X97900000Y-39225000D02*
X97900000Y-40475000D01*
X98190000Y-39515000D02*
X98190000Y-45485000D01*
X98190000Y-45485000D02*
X105810000Y-45485000D01*
X98200000Y-39525000D02*
X98200000Y-40275000D01*
X98200000Y-40275000D02*
X100000000Y-40275000D01*
X98200000Y-41775000D02*
X98950000Y-41775000D01*
X98950000Y-41775000D02*
X98950000Y-43115000D01*
X99150000Y-39225000D02*
X97900000Y-39225000D01*
X100000000Y-39525000D02*
X98200000Y-39525000D01*
X100000000Y-40275000D02*
X100000000Y-39525000D01*
X101500000Y-39525000D02*
X101500000Y-40275000D01*
X101500000Y-40275000D02*
X102500000Y-40275000D01*
X102000000Y-44725000D02*
X100010000Y-44725000D01*
X102500000Y-39525000D02*
X101500000Y-39525000D01*
X102500000Y-40275000D02*
X102500000Y-39525000D01*
X104000000Y-39525000D02*
X104000000Y-40275000D01*
X104000000Y-40275000D02*
X105800000Y-40275000D01*
X105050000Y-41775000D02*
X105050000Y-44725000D01*
X105050000Y-44725000D02*
X102000000Y-44725000D01*
X105800000Y-39525000D02*
X104000000Y-39525000D01*
X105800000Y-40275000D02*
X105800000Y-39525000D01*
X105800000Y-41775000D02*
X105050000Y-41775000D01*
X105810000Y-39515000D02*
X98190000Y-39515000D01*
X105810000Y-45485000D02*
X105810000Y-39515000D01*
%TD*%
M02*
