M48
; DRILL file {KiCad 9.0.5} date 2026-07-05T14:24:01-0400
; FORMAT={-:-/ absolute / metric / decimal}
; #@! TF.CreationDate,2026-07-05T14:24:01-04:00
; #@! TF.GenerationSoftware,Kicad,Pcbnew,9.0.5
; #@! TF.FileFunction,Plated,1,4,PTH
FMAT,2
METRIC
; #@! TA.AperFunction,Plated,PTH,ViaDrill
T1C0.300
; #@! TA.AperFunction,Plated,PTH,ComponentDrill
T2C0.300
; #@! TA.AperFunction,Plated,PTH,ComponentDrill
T3C0.600
; #@! TA.AperFunction,Plated,PTH,ComponentDrill
T4C0.950
; #@! TA.AperFunction,Plated,PTH,ComponentDrill
T5C1.000
%
G90
G05
T1
X38.5Y-40.0
X38.75Y-74.25
X39.0Y-64.5
X39.0Y-78.5
X39.012Y-83.0
X42.0Y-57.5
X43.5Y-57.5
X43.5Y-89.5
X43.612Y-65.95
X43.95Y-84.0
X45.0Y-57.5
X46.0Y-70.0
X46.2Y-82.75
X46.5Y-57.5
X47.0Y-39.0
X47.5Y-57.5
X48.5Y-35.0
X49.0Y-65.0
X49.5Y-45.0
X49.5Y-93.5
X50.4Y-55.5
X51.4Y-56.5
X51.5Y-89.5
X52.0Y-43.5
X52.0Y-57.5
X52.5Y-81.0
X52.5Y-84.5
X52.5Y-89.5
X53.0Y-40.0
X53.434Y-50.6
X53.5Y-52.0
X53.5Y-54.0
X53.5Y-57.0
X53.5Y-63.0
X53.5Y-89.5
X54.0Y-49.0
X54.0Y-50.0
X54.0Y-56.0
X54.0Y-75.5
X54.418Y-37.403
X55.0Y-74.5
X55.5Y-75.5
X55.5Y-76.5
X55.5Y-77.5
X56.0Y-85.0
X56.5Y-42.0
X57.0Y-74.0
X57.5Y-51.0
X57.5Y-54.0
X57.5Y-71.5
X57.5Y-72.5
X57.5Y-76.0
X57.849Y-40.651
X58.0Y-42.5
X58.0Y-56.0
X58.0Y-70.0
X58.5Y-49.5
X58.5Y-71.5
X59.0Y-57.5
X59.0Y-76.0
X59.106Y-46.106
X59.5Y-40.0
X59.5Y-71.5
X60.0Y-49.5
X61.5Y-46.0
X63.5Y-71.0
X64.0Y-57.5
X64.0Y-75.0
X64.5Y-82.0
X66.0Y-45.5
X66.0Y-47.0
X67.5Y-91.0
X68.0Y-74.0
X70.0Y-46.5
X70.5Y-40.0
X71.0Y-57.5
X71.75Y-89.75
X72.0Y-68.5
X72.5Y-89.0
X73.0Y-40.0
X73.5Y-82.263
X73.5Y-89.0
X74.5Y-82.263
X75.0Y-73.5
X76.5Y-47.0
X76.5Y-91.0
X77.5Y-83.0
X78.0Y-89.0
X78.5Y-83.0
X79.0Y-41.5
X79.5Y-83.0
X79.5Y-89.0
X80.5Y-83.0
X82.0Y-49.5
X82.0Y-51.0
X82.5Y-64.5
X82.5Y-65.5
X82.5Y-69.5
X82.5Y-72.0
X83.5Y-43.0
X83.5Y-64.5
X84.5Y-64.5
X84.9Y-84.5
X85.5Y-59.5
X85.5Y-60.5
X85.5Y-61.5
X85.5Y-67.0
X86.0Y-66.5
X86.0Y-91.0
X86.5Y-49.5
X86.5Y-72.0
X86.937Y-73.5
X87.5Y-52.0
X87.5Y-72.5
X87.5Y-89.5
X87.5Y-92.0
X88.0Y-46.5
X88.5Y-43.0
X89.0Y-87.46
X89.5Y-55.0
X89.5Y-65.5
X90.0Y-84.5
X90.5Y-60.5
X90.5Y-61.5
X90.5Y-69.0
X90.938Y-59.938
X90.969Y-62.031
X91.0Y-39.5
X91.0Y-43.0
X91.5Y-69.0
X92.0Y-90.5
X92.5Y-37.5
X93.0Y-71.0
X93.5Y-37.5
X94.0Y-48.5
X94.5Y-37.5
X95.0Y-68.5
X98.0Y-81.0
X98.5Y-53.0
X99.0Y-91.5
T2
X42.09Y-51.055
X42.09Y-52.555
X42.84Y-50.305
X42.84Y-51.805
X42.84Y-53.305
X43.59Y-51.055
X43.59Y-52.555
X44.34Y-50.305
X44.34Y-51.805
X44.34Y-53.305
X45.09Y-51.055
X45.09Y-52.555
T4
X64.75Y-34.975
X67.25Y-34.975
X69.75Y-34.975
X72.25Y-34.975
X74.75Y-34.975
X77.25Y-34.975
X79.75Y-34.975
X82.25Y-34.975
X102.45Y-49.1
X102.45Y-51.6
X102.45Y-54.1
X102.45Y-60.1
X102.45Y-62.6
X102.45Y-65.1
X102.45Y-71.1
X102.45Y-73.6
X102.45Y-76.1
X102.475Y-82.0
X102.475Y-84.5
X102.475Y-87.0
T5
X58.0Y-93.5
X60.5Y-93.5
X76.5Y-54.22
X76.5Y-56.76
X76.5Y-59.3
X76.5Y-61.84
X76.5Y-64.38
X76.5Y-66.92
X76.5Y-69.46
X76.5Y-72.0
X80.5Y-61.88
X80.5Y-64.42
X80.5Y-66.96
X80.5Y-69.5
X88.5Y-36.0
X91.0Y-36.0
X97.0Y-36.0
X99.5Y-36.0
X100.75Y-41.975
X103.25Y-41.975
T3
G00X51.68Y-34.225
M15
G01X51.68Y-33.625
M16
G05
G00X51.68Y-38.655
M15
G01X51.68Y-37.555
M16
G05
G00X60.32Y-34.225
M15
G01X60.32Y-33.625
M16
G05
G00X60.32Y-38.655
M15
G01X60.32Y-37.555
M16
G05
M30
