%TF.GenerationSoftware,KiCad,Pcbnew,9.0.5*%
%TF.CreationDate,2026-07-04T16:37:27-04:00*%
%TF.ProjectId,BubblerMain,42756262-6c65-4724-9d61-696e2e6b6963,rev?*%
%TF.SameCoordinates,Original*%
%TF.FileFunction,Copper,L1,Top*%
%TF.FilePolarity,Positive*%
%FSLAX46Y46*%
G04 Gerber Fmt 4.6, Leading zero omitted, Abs format (unit mm)*
G04 Created by KiCad (PCBNEW 9.0.5) date 2026-07-04 16:37:27*
%MOMM*%
%LPD*%
G01*
G04 APERTURE LIST*
G04 Aperture macros list*
%AMRoundRect*
0 Rectangle with rounded corners*
0 $1 Rounding radius*
0 $2 $3 $4 $5 $6 $7 $8 $9 X,Y pos of 4 corners*
0 Add a 4 corners polygon primitive as box body*
4,1,4,$2,$3,$4,$5,$6,$7,$8,$9,$2,$3,0*
0 Add four circle primitives for the rounded corners*
1,1,$1+$1,$2,$3*
1,1,$1+$1,$4,$5*
1,1,$1+$1,$6,$7*
1,1,$1+$1,$8,$9*
0 Add four rect primitives between the rounded corners*
20,1,$1+$1,$2,$3,$4,$5,0*
20,1,$1+$1,$4,$5,$6,$7,0*
20,1,$1+$1,$6,$7,$8,$9,0*
20,1,$1+$1,$8,$9,$2,$3,0*%
%AMFreePoly0*
4,1,17,1.395000,0.765000,0.855000,0.765000,0.855000,0.535000,1.395000,0.535000,1.395000,0.115000,0.855000,0.115000,0.855000,-0.115000,1.395000,-0.115000,1.395000,-0.535000,0.855000,-0.535000,0.855000,-0.765000,1.395000,-0.765000,1.395000,-1.185000,-0.855000,-1.185000,-0.855000,1.185000,1.395000,1.185000,1.395000,0.765000,1.395000,0.765000,$1*%
G04 Aperture macros list end*
%ADD10C,0.300000*%
%TA.AperFunction,NonConductor*%
%ADD11C,0.300000*%
%TD*%
%TA.AperFunction,NonConductor*%
%ADD12C,0.200000*%
%TD*%
%TA.AperFunction,SMDPad,CuDef*%
%ADD13RoundRect,0.150000X0.512500X0.150000X-0.512500X0.150000X-0.512500X-0.150000X0.512500X-0.150000X0*%
%TD*%
%TA.AperFunction,SMDPad,CuDef*%
%ADD14RoundRect,0.150000X-0.825000X-0.150000X0.825000X-0.150000X0.825000X0.150000X-0.825000X0.150000X0*%
%TD*%
%TA.AperFunction,ComponentPad*%
%ADD15R,1.700000X1.700000*%
%TD*%
%TA.AperFunction,ComponentPad*%
%ADD16C,1.700000*%
%TD*%
%TA.AperFunction,SMDPad,CuDef*%
%ADD17R,2.000000X2.000000*%
%TD*%
%TA.AperFunction,SMDPad,CuDef*%
%ADD18RoundRect,0.150000X0.150000X0.422500X-0.150000X0.422500X-0.150000X-0.422500X0.150000X-0.422500X0*%
%TD*%
%TA.AperFunction,SMDPad,CuDef*%
%ADD19RoundRect,0.149993X0.149992X0.422492X-0.149992X0.422492X-0.149992X-0.422492X0.149992X-0.422492X0*%
%TD*%
%TA.AperFunction,SMDPad,CuDef*%
%ADD20RoundRect,0.150000X0.150000X0.500000X-0.150000X0.500000X-0.150000X-0.500000X0.150000X-0.500000X0*%
%TD*%
%TA.AperFunction,SMDPad,CuDef*%
%ADD21RoundRect,0.075000X0.075000X0.575000X-0.075000X0.575000X-0.075000X-0.575000X0.075000X-0.575000X0*%
%TD*%
%TA.AperFunction,SMDPad,CuDef*%
%ADD22RoundRect,0.150000X0.150000X0.297500X-0.150000X0.297500X-0.150000X-0.297500X0.150000X-0.297500X0*%
%TD*%
%TA.AperFunction,SMDPad,CuDef*%
%ADD23RoundRect,0.150000X0.149999X0.297499X-0.149999X0.297499X-0.149999X-0.297499X0.149999X-0.297499X0*%
%TD*%
%TA.AperFunction,HeatsinkPad*%
%ADD24O,1.000000X2.100000*%
%TD*%
%TA.AperFunction,HeatsinkPad*%
%ADD25O,1.000000X1.600000*%
%TD*%
%TA.AperFunction,ComponentPad*%
%ADD26RoundRect,0.250000X0.600000X0.750000X-0.600000X0.750000X-0.600000X-0.750000X0.600000X-0.750000X0*%
%TD*%
%TA.AperFunction,ComponentPad*%
%ADD27O,1.700000X2.000000*%
%TD*%
%TA.AperFunction,ComponentPad*%
%ADD28RoundRect,0.250000X-0.600000X-0.750000X0.600000X-0.750000X0.600000X0.750000X-0.600000X0.750000X0*%
%TD*%
%TA.AperFunction,SMDPad,CuDef*%
%ADD29RoundRect,0.250001X-0.462499X-0.624999X0.462499X-0.624999X0.462499X0.624999X-0.462499X0.624999X0*%
%TD*%
%TA.AperFunction,SMDPad,CuDef*%
%ADD30RoundRect,0.250000X0.400000X0.625000X-0.400000X0.625000X-0.400000X-0.625000X0.400000X-0.625000X0*%
%TD*%
%TA.AperFunction,SMDPad,CuDef*%
%ADD31RoundRect,0.250000X-0.525000X-0.400000X0.525000X-0.400000X0.525000X0.400000X-0.525000X0.400000X0*%
%TD*%
%TA.AperFunction,SMDPad,CuDef*%
%ADD32R,3.400000X1.850000*%
%TD*%
%TA.AperFunction,SMDPad,CuDef*%
%ADD33RoundRect,0.250000X0.412500X1.100000X-0.412500X1.100000X-0.412500X-1.100000X0.412500X-1.100000X0*%
%TD*%
%TA.AperFunction,SMDPad,CuDef*%
%ADD34RoundRect,0.073750X-0.551250X-0.221250X0.551250X-0.221250X0.551250X0.221250X-0.551250X0.221250X0*%
%TD*%
%TA.AperFunction,SMDPad,CuDef*%
%ADD35RoundRect,0.250000X0.412500X0.650000X-0.412500X0.650000X-0.412500X-0.650000X0.412500X-0.650000X0*%
%TD*%
%TA.AperFunction,ComponentPad*%
%ADD36RoundRect,0.250000X0.725000X-0.600000X0.725000X0.600000X-0.725000X0.600000X-0.725000X-0.600000X0*%
%TD*%
%TA.AperFunction,ComponentPad*%
%ADD37O,1.950000X1.700000*%
%TD*%
%TA.AperFunction,ComponentPad*%
%ADD38RoundRect,0.250000X-0.600000X-0.725000X0.600000X-0.725000X0.600000X0.725000X-0.600000X0.725000X0*%
%TD*%
%TA.AperFunction,ComponentPad*%
%ADD39O,1.700000X1.950000*%
%TD*%
%TA.AperFunction,SMDPad,CuDef*%
%ADD40RoundRect,0.250000X-0.412500X-0.650000X0.412500X-0.650000X0.412500X0.650000X-0.412500X0.650000X0*%
%TD*%
%TA.AperFunction,SMDPad,CuDef*%
%ADD41RoundRect,0.250000X0.625000X-0.400000X0.625000X0.400000X-0.625000X0.400000X-0.625000X-0.400000X0*%
%TD*%
%TA.AperFunction,SMDPad,CuDef*%
%ADD42RoundRect,0.250000X-1.100000X0.412500X-1.100000X-0.412500X1.100000X-0.412500X1.100000X0.412500X0*%
%TD*%
%TA.AperFunction,SMDPad,CuDef*%
%ADD43RoundRect,0.250000X0.650000X-0.412500X0.650000X0.412500X-0.650000X0.412500X-0.650000X-0.412500X0*%
%TD*%
%TA.AperFunction,SMDPad,CuDef*%
%ADD44RoundRect,0.250000X-0.412500X-1.100000X0.412500X-1.100000X0.412500X1.100000X-0.412500X1.100000X0*%
%TD*%
%TA.AperFunction,SMDPad,CuDef*%
%ADD45R,1.850000X3.400000*%
%TD*%
%TA.AperFunction,SMDPad,CuDef*%
%ADD46RoundRect,0.250000X-0.625000X0.400000X-0.625000X-0.400000X0.625000X-0.400000X0.625000X0.400000X0*%
%TD*%
%TA.AperFunction,SMDPad,CuDef*%
%ADD47RoundRect,0.250000X-0.400000X-0.625000X0.400000X-0.625000X0.400000X0.625000X-0.400000X0.625000X0*%
%TD*%
%TA.AperFunction,SMDPad,CuDef*%
%ADD48RoundRect,0.162500X-0.837500X-0.162500X0.837500X-0.162500X0.837500X0.162500X-0.837500X0.162500X0*%
%TD*%
%TA.AperFunction,SMDPad,CuDef*%
%ADD49R,1.270000X1.000000*%
%TD*%
%TA.AperFunction,SMDPad,CuDef*%
%ADD50R,0.900000X1.500000*%
%TD*%
%TA.AperFunction,SMDPad,CuDef*%
%ADD51R,1.500000X0.900000*%
%TD*%
%TA.AperFunction,HeatsinkPad*%
%ADD52R,1.000000X1.000000*%
%TD*%
%TA.AperFunction,HeatsinkPad*%
%ADD53C,0.600000*%
%TD*%
%TA.AperFunction,SMDPad,CuDef*%
%ADD54RoundRect,0.250000X1.000000X0.650000X-1.000000X0.650000X-1.000000X-0.650000X1.000000X-0.650000X0*%
%TD*%
%TA.AperFunction,SMDPad,CuDef*%
%ADD55RoundRect,0.105000X-0.245000X-0.105000X0.245000X-0.105000X0.245000X0.105000X-0.245000X0.105000X0*%
%TD*%
%TA.AperFunction,SMDPad,CuDef*%
%ADD56FreePoly0,0.000000*%
%TD*%
%TA.AperFunction,SMDPad,CuDef*%
%ADD57RoundRect,0.150000X0.150000X-0.512500X0.150000X0.512500X-0.150000X0.512500X-0.150000X-0.512500X0*%
%TD*%
%TA.AperFunction,SMDPad,CuDef*%
%ADD58RoundRect,0.250000X-1.750000X-1.000000X1.750000X-1.000000X1.750000X1.000000X-1.750000X1.000000X0*%
%TD*%
%TA.AperFunction,SMDPad,CuDef*%
%ADD59RoundRect,0.250000X-0.312500X-1.450000X0.312500X-1.450000X0.312500X1.450000X-0.312500X1.450000X0*%
%TD*%
%TA.AperFunction,SMDPad,CuDef*%
%ADD60RoundRect,0.250000X0.650000X-1.000000X0.650000X1.000000X-0.650000X1.000000X-0.650000X-1.000000X0*%
%TD*%
%TA.AperFunction,SMDPad,CuDef*%
%ADD61RoundRect,0.250000X-1.000000X-0.650000X1.000000X-0.650000X1.000000X0.650000X-1.000000X0.650000X0*%
%TD*%
%TA.AperFunction,SMDPad,CuDef*%
%ADD62RoundRect,0.250000X0.700000X-0.275000X0.700000X0.275000X-0.700000X0.275000X-0.700000X-0.275000X0*%
%TD*%
%TA.AperFunction,SMDPad,CuDef*%
%ADD63RoundRect,0.250001X-0.624999X0.462499X-0.624999X-0.462499X0.624999X-0.462499X0.624999X0.462499X0*%
%TD*%
%TA.AperFunction,ViaPad*%
%ADD64C,0.600000*%
%TD*%
%TA.AperFunction,Conductor*%
%ADD65C,0.200000*%
%TD*%
%TA.AperFunction,Conductor*%
%ADD66C,0.600000*%
%TD*%
%TA.AperFunction,Conductor*%
%ADD67C,1.524000*%
%TD*%
%TA.AperFunction,Conductor*%
%ADD68C,0.500000*%
%TD*%
%TA.AperFunction,Conductor*%
%ADD69C,0.800000*%
%TD*%
G04 APERTURE END LIST*
D10*
D11*
X114378328Y-65428571D02*
X114378328Y-65714285D01*
X114378328Y-65714285D02*
X114449757Y-65857142D01*
X114449757Y-65857142D02*
X114521185Y-65928571D01*
X114521185Y-65928571D02*
X114735471Y-66071428D01*
X114735471Y-66071428D02*
X115021185Y-66142856D01*
X115021185Y-66142856D02*
X115592614Y-66142856D01*
X115592614Y-66142856D02*
X115735471Y-66071428D01*
X115735471Y-66071428D02*
X115806900Y-65999999D01*
X115806900Y-65999999D02*
X115878328Y-65857142D01*
X115878328Y-65857142D02*
X115878328Y-65571428D01*
X115878328Y-65571428D02*
X115806900Y-65428571D01*
X115806900Y-65428571D02*
X115735471Y-65357142D01*
X115735471Y-65357142D02*
X115592614Y-65285713D01*
X115592614Y-65285713D02*
X115235471Y-65285713D01*
X115235471Y-65285713D02*
X115092614Y-65357142D01*
X115092614Y-65357142D02*
X115021185Y-65428571D01*
X115021185Y-65428571D02*
X114949757Y-65571428D01*
X114949757Y-65571428D02*
X114949757Y-65857142D01*
X114949757Y-65857142D02*
X115021185Y-65999999D01*
X115021185Y-65999999D02*
X115092614Y-66071428D01*
X115092614Y-66071428D02*
X115235471Y-66142856D01*
X114378328Y-64000000D02*
X114378328Y-64285714D01*
X114378328Y-64285714D02*
X114449757Y-64428571D01*
X114449757Y-64428571D02*
X114521185Y-64500000D01*
X114521185Y-64500000D02*
X114735471Y-64642857D01*
X114735471Y-64642857D02*
X115021185Y-64714285D01*
X115021185Y-64714285D02*
X115592614Y-64714285D01*
X115592614Y-64714285D02*
X115735471Y-64642857D01*
X115735471Y-64642857D02*
X115806900Y-64571428D01*
X115806900Y-64571428D02*
X115878328Y-64428571D01*
X115878328Y-64428571D02*
X115878328Y-64142857D01*
X115878328Y-64142857D02*
X115806900Y-64000000D01*
X115806900Y-64000000D02*
X115735471Y-63928571D01*
X115735471Y-63928571D02*
X115592614Y-63857142D01*
X115592614Y-63857142D02*
X115235471Y-63857142D01*
X115235471Y-63857142D02*
X115092614Y-63928571D01*
X115092614Y-63928571D02*
X115021185Y-64000000D01*
X115021185Y-64000000D02*
X114949757Y-64142857D01*
X114949757Y-64142857D02*
X114949757Y-64428571D01*
X114949757Y-64428571D02*
X115021185Y-64571428D01*
X115021185Y-64571428D02*
X115092614Y-64642857D01*
X115092614Y-64642857D02*
X115235471Y-64714285D01*
D12*
X109500000Y-98000000D02*
X117586420Y-98000000D01*
X117586420Y-32000000D02*
X109500000Y-32000000D01*
X117000000Y-98000000D02*
X117000000Y-32000000D01*
X117000000Y-98000000D02*
X116413579Y-96873496D01*
X117000000Y-98000000D02*
X117586421Y-96873496D01*
X117000000Y-32000000D02*
X117586421Y-33126504D01*
X117000000Y-32000000D02*
X116413579Y-33126504D01*
D10*
D11*
X71785714Y-101878328D02*
X72785714Y-101878328D01*
X72785714Y-101878328D02*
X72142857Y-103378328D01*
X73285714Y-102021185D02*
X73357142Y-101949757D01*
X73357142Y-101949757D02*
X73500000Y-101878328D01*
X73500000Y-101878328D02*
X73857142Y-101878328D01*
X73857142Y-101878328D02*
X74000000Y-101949757D01*
X74000000Y-101949757D02*
X74071428Y-102021185D01*
X74071428Y-102021185D02*
X74142857Y-102164042D01*
X74142857Y-102164042D02*
X74142857Y-102306900D01*
X74142857Y-102306900D02*
X74071428Y-102521185D01*
X74071428Y-102521185D02*
X73214285Y-103378328D01*
X73214285Y-103378328D02*
X74142857Y-103378328D01*
D12*
X37000000Y-98500000D02*
X37000000Y-105086420D01*
X109000000Y-105086420D02*
X109000000Y-98500000D01*
X37000000Y-104500000D02*
X109000000Y-104500000D01*
X37000000Y-104500000D02*
X38126504Y-103913579D01*
X37000000Y-104500000D02*
X38126504Y-105086421D01*
X109000000Y-104500000D02*
X107873496Y-105086421D01*
X109000000Y-104500000D02*
X107873496Y-103913579D01*
D13*
%TO.P,U5,1,VIN*%
%TO.N,Net-(D2-K)*%
X47637500Y-65950000D03*
%TO.P,U5,2,GND*%
%TO.N,GND1*%
X47637500Y-65000000D03*
%TO.P,U5,3,EN*%
%TO.N,Net-(D2-K)*%
X47637500Y-64050000D03*
%TO.P,U5,4,NC*%
%TO.N,unconnected-(U5-NC-Pad4)*%
X45362500Y-64050000D03*
%TO.P,U5,5,VOUT*%
%TO.N,+3V3*%
X45362500Y-65950000D03*
%TD*%
D14*
%TO.P,U1,1*%
%TO.N,GND1*%
X84525000Y-86190000D03*
%TO.P,U1,2*%
%TO.N,LED1 Signal*%
X84525000Y-87460000D03*
%TO.P,U1,3*%
%TO.N,Net-(R9-Pad2)*%
X84525000Y-88730000D03*
%TO.P,U1,4*%
%TO.N,GND1*%
X84525000Y-90000000D03*
%TO.P,U1,5*%
%TO.N,LED2 Signal*%
X84525000Y-91270000D03*
%TO.P,U1,6*%
%TO.N,Net-(R10-Pad2)*%
X84525000Y-92540000D03*
%TO.P,U1,7,GND*%
%TO.N,GND1*%
X84525000Y-93810000D03*
%TO.P,U1,8*%
%TO.N,Net-(R11-Pad2)*%
X89475000Y-93810000D03*
%TO.P,U1,9*%
%TO.N,LED3 Signal*%
X89475000Y-92540000D03*
%TO.P,U1,10*%
%TO.N,GND1*%
X89475000Y-91270000D03*
%TO.P,U1,11*%
%TO.N,Net-(R12-Pad2)*%
X89475000Y-90000000D03*
%TO.P,U1,12*%
%TO.N,LED4 Signal*%
X89475000Y-88730000D03*
%TO.P,U1,13*%
%TO.N,GND1*%
X89475000Y-87460000D03*
%TO.P,U1,14,VCC*%
%TO.N,+5V*%
X89475000Y-86190000D03*
%TD*%
D15*
%TO.P,J12,1,Pin_1*%
%TO.N,GND1*%
X80500000Y-69500000D03*
D16*
%TO.P,J12,2,Pin_2*%
%TO.N,Motor Power*%
X80500000Y-66960000D03*
%TO.P,J12,3,Pin_3*%
%TO.N,+3V3*%
X80500000Y-64420000D03*
%TO.P,J12,4,Pin_4*%
%TO.N,+5V*%
X80500000Y-61880000D03*
%TD*%
D17*
%TO.P,GND1,1,1*%
%TO.N,GND1*%
X66500000Y-94500000D03*
%TD*%
%TO.P,5V2,1,1*%
%TO.N,+5V*%
X99500000Y-94000000D03*
%TD*%
%TO.P,3v3,1,1*%
%TO.N,+3V3*%
X45500000Y-91500000D03*
%TD*%
D18*
%TO.P,J8,A12,GND*%
%TO.N,GND1*%
X52800000Y-38822500D03*
D19*
%TO.P,J8,A1,GND*%
X59199985Y-38822485D03*
D20*
%TO.P,J8,A4,VBUS*%
%TO.N,/ESP32/VBUS*%
X58400000Y-38745000D03*
D21*
%TO.P,J8,A5,CC1*%
%TO.N,/ESP32/A5*%
X57250000Y-38745000D03*
%TO.P,J8,A6,D+*%
%TO.N,/ESP32/A6*%
X56250000Y-38745000D03*
%TO.P,J8,A7,D-*%
%TO.N,/ESP32/A7*%
X55750000Y-38745000D03*
%TO.P,J8,A8,SBU1*%
%TO.N,unconnected-(J8-SBU1-PadA8)*%
X54750000Y-38745000D03*
D20*
%TO.P,J8,A9,VBUS*%
%TO.N,/ESP32/VBUS*%
X53600000Y-38745000D03*
D22*
%TO.P,J8,B1,GND*%
%TO.N,GND1*%
X52800000Y-38947500D03*
D20*
%TO.P,J8,B4,VBUS*%
%TO.N,/ESP32/VBUS*%
X53600000Y-38745000D03*
D21*
%TO.P,J8,B5,CC2*%
%TO.N,/ESP32/B5*%
X54250000Y-38745000D03*
%TO.P,J8,B6,D+*%
%TO.N,/ESP32/A6*%
X55250000Y-38745000D03*
%TO.P,J8,B7,D-*%
%TO.N,/ESP32/A7*%
X56750000Y-38745000D03*
%TO.P,J8,B8,SBU2*%
%TO.N,unconnected-(J8-SBU2-PadB8)*%
X57750000Y-38745000D03*
D20*
%TO.P,J8,B9,VBUS*%
%TO.N,/ESP32/VBUS*%
X58400000Y-38745000D03*
D23*
%TO.P,J8,B12,GND*%
%TO.N,GND1*%
X59199999Y-38947499D03*
D24*
%TO.P,J8,S1,SHIELD*%
%TO.N,unconnected-(J8-SHIELD-PadS1)*%
X60320000Y-38105000D03*
D25*
%TO.N,unconnected-(J8-SHIELD-PadS1)_1*%
X60320000Y-33925000D03*
D24*
%TO.N,unconnected-(J8-SHIELD-PadS1)_2*%
X51680000Y-38105000D03*
D25*
%TO.N,unconnected-(J8-SHIELD-PadS1)_3*%
X51680000Y-33925000D03*
%TD*%
D26*
%TO.P,J7,1,Pin_1*%
%TO.N,GND1*%
X91000000Y-36000000D03*
D27*
%TO.P,J7,2,Pin_2*%
%TO.N,Net-(J6-Pin_2)*%
X88500000Y-36000000D03*
%TD*%
D28*
%TO.P,J1,1,Pin_1*%
%TO.N,/Power Block/BAT+*%
X58000000Y-93500000D03*
D27*
%TO.P,J1,2,Pin_2*%
%TO.N,GND1*%
X60500000Y-93500000D03*
%TD*%
D29*
%TO.P,SW3,2,A*%
%TO.N,Net-(SW3-A)*%
X41987500Y-80500000D03*
%TO.P,SW3,1,K*%
%TO.N,GND1*%
X39012500Y-80500000D03*
%TD*%
%TO.P,MOTOR1,2,A*%
%TO.N,Net-(MOTOR1-A)*%
X41987500Y-84500000D03*
%TO.P,MOTOR1,1,K*%
%TO.N,GND1*%
X39012500Y-84500000D03*
%TD*%
D30*
%TO.P,R23,2*%
%TO.N,Net-(SW3-A)*%
X44400000Y-81500000D03*
%TO.P,R23,1*%
%TO.N,/ESP32/SW_LED*%
X47500000Y-81500000D03*
%TD*%
D31*
%TO.P,SW2,2,2*%
%TO.N,GND1*%
X70980000Y-55750000D03*
X63020000Y-55750000D03*
%TO.P,SW2,1,1*%
%TO.N,Net-(U4-IO0)*%
X70980000Y-51250000D03*
X63020000Y-51250000D03*
%TD*%
D32*
%TO.P,L1,2*%
%TO.N,+5V*%
X53000000Y-77775000D03*
%TO.P,L1,1*%
%TO.N,Net-(U9-SW)*%
X53000000Y-72225000D03*
%TD*%
D33*
%TO.P,C5,2*%
%TO.N,GND1*%
X51437500Y-85000000D03*
%TO.P,C5,1*%
%TO.N,+5V*%
X54562500Y-85000000D03*
%TD*%
%TO.P,C6,2*%
%TO.N,GND1*%
X51375000Y-81000000D03*
%TO.P,C6,1*%
%TO.N,+5V*%
X54500000Y-81000000D03*
%TD*%
D34*
%TO.P,U9,1,GND*%
%TO.N,GND1*%
X59000000Y-73000000D03*
%TO.P,U9,2,SW*%
%TO.N,Net-(U9-SW)*%
X59000000Y-73950000D03*
%TO.P,U9,3,VIN*%
%TO.N,Motor Power*%
X59000000Y-74900000D03*
%TO.P,U9,4,VFB*%
%TO.N,Net-(U9-VFB)*%
X61510000Y-74900000D03*
%TO.P,U9,5,EN*%
%TO.N,Net-(U9-EN)*%
X61510000Y-73950000D03*
%TO.P,U9,6,VBST*%
%TO.N,Net-(U9-VBST)*%
X61510000Y-73000000D03*
%TD*%
D30*
%TO.P,R9,1*%
%TO.N,Net-(J2-Pin_2)*%
X96050000Y-80500000D03*
%TO.P,R9,2*%
%TO.N,Net-(R9-Pad2)*%
X92950000Y-80500000D03*
%TD*%
%TO.P,R11,1*%
%TO.N,Net-(J4-Pin_2)*%
X96100000Y-88500000D03*
%TO.P,R11,2*%
%TO.N,Net-(R11-Pad2)*%
X93000000Y-88500000D03*
%TD*%
D35*
%TO.P,C13,2*%
%TO.N,GND1*%
X85437500Y-82500000D03*
%TO.P,C13,1*%
%TO.N,+5V*%
X88562500Y-82500000D03*
%TD*%
D30*
%TO.P,R12,1*%
%TO.N,Net-(J5-Pin_2)*%
X96100000Y-84500000D03*
%TO.P,R12,2*%
%TO.N,Net-(R12-Pad2)*%
X93000000Y-84500000D03*
%TD*%
%TO.P,R10,1*%
%TO.N,Net-(J3-Pin_2)*%
X96600000Y-92500000D03*
%TO.P,R10,2*%
%TO.N,Net-(R10-Pad2)*%
X93500000Y-92500000D03*
%TD*%
D36*
%TO.P,J3,1,Pin_1*%
%TO.N,GND1*%
X102450000Y-76100000D03*
D37*
%TO.P,J3,2,Pin_2*%
%TO.N,Net-(J3-Pin_2)*%
X102450000Y-73600000D03*
%TO.P,J3,3,Pin_3*%
%TO.N,+5V*%
X102450000Y-71100000D03*
%TD*%
D26*
%TO.P,J6,1,Pin_1*%
%TO.N,GND1*%
X99500000Y-36000000D03*
D27*
%TO.P,J6,2,Pin_2*%
%TO.N,Net-(J6-Pin_2)*%
X97000000Y-36000000D03*
%TD*%
D36*
%TO.P,J5,1,Pin_1*%
%TO.N,GND1*%
X102450000Y-54100000D03*
D37*
%TO.P,J5,2,Pin_2*%
%TO.N,Net-(J5-Pin_2)*%
X102450000Y-51600000D03*
%TO.P,J5,3,Pin_3*%
%TO.N,+5V*%
X102450000Y-49100000D03*
%TD*%
D36*
%TO.P,J2,1,Pin_1*%
%TO.N,GND1*%
X102475000Y-87000000D03*
D37*
%TO.P,J2,2,Pin_2*%
%TO.N,Net-(J2-Pin_2)*%
X102475000Y-84500000D03*
%TO.P,J2,3,Pin_3*%
%TO.N,+5V*%
X102475000Y-82000000D03*
%TD*%
D36*
%TO.P,J4,1,Pin_1*%
%TO.N,GND1*%
X102450000Y-65100000D03*
D37*
%TO.P,J4,2,Pin_2*%
%TO.N,Net-(J4-Pin_2)*%
X102450000Y-62600000D03*
%TO.P,J4,3,Pin_3*%
%TO.N,+5V*%
X102450000Y-60100000D03*
%TD*%
D38*
%TO.P,J11,1,Pin_1*%
%TO.N,+3V3*%
X64750000Y-34975000D03*
D39*
%TO.P,J11,2,Pin_2*%
%TO.N,GND1*%
X67250000Y-34975000D03*
%TO.P,J11,3,Pin_3*%
%TO.N,Net-(J11-Pin_3)*%
X69750000Y-34975000D03*
%TO.P,J11,4,Pin_4*%
%TO.N,GND1*%
X72250000Y-34975000D03*
%TO.P,J11,5,Pin_5*%
%TO.N,Net-(J11-Pin_5)*%
X74750000Y-34975000D03*
%TO.P,J11,6,Pin_6*%
%TO.N,GND1*%
X77250000Y-34975000D03*
%TO.P,J11,7,Pin_7*%
%TO.N,I2S_SD*%
X79750000Y-34975000D03*
%TO.P,J11,8,Pin_8*%
%TO.N,GND1*%
X82250000Y-34975000D03*
%TD*%
D16*
%TO.P,J9,8,Pin_8*%
%TO.N,/ESP32/GPIO21*%
X76500000Y-54220000D03*
%TO.P,J9,7,Pin_7*%
%TO.N,/ESP32/GPIO14*%
X76500000Y-56760000D03*
%TO.P,J9,6,Pin_6*%
%TO.N,/ESP32/GPIO13*%
X76500000Y-59300000D03*
%TO.P,J9,5,Pin_5*%
%TO.N,/ESP32/GPIO12*%
X76500000Y-61840000D03*
%TO.P,J9,4,Pin_4*%
%TO.N,/ESP32/GPIO11*%
X76500000Y-64380000D03*
%TO.P,J9,3,Pin_3*%
%TO.N,/ESP32/GPIO10*%
X76500000Y-66920000D03*
%TO.P,J9,2,Pin_2*%
%TO.N,/ESP32/GPIO9*%
X76500000Y-69460000D03*
D15*
%TO.P,J9,1,Pin_1*%
%TO.N,/ESP32/GPIO8*%
X76500000Y-72000000D03*
%TD*%
D40*
%TO.P,C3,2*%
%TO.N,GND1*%
X62062500Y-77500000D03*
%TO.P,C3,1*%
%TO.N,Motor Power*%
X58937500Y-77500000D03*
%TD*%
D41*
%TO.P,R5,2*%
%TO.N,Net-(U9-VFB)*%
X66000000Y-80450000D03*
%TO.P,R5,1*%
%TO.N,+5V*%
X66000000Y-83550000D03*
%TD*%
D40*
%TO.P,C2,2*%
%TO.N,GND1*%
X62062500Y-80500000D03*
%TO.P,C2,1*%
%TO.N,Motor Power*%
X58937500Y-80500000D03*
%TD*%
%TO.P,C7,2*%
%TO.N,GND1*%
X62062500Y-83500000D03*
%TO.P,C7,1*%
%TO.N,Motor Power*%
X58937500Y-83500000D03*
%TD*%
D42*
%TO.P,C4,2*%
%TO.N,Net-(U9-VBST)*%
X64500000Y-72625000D03*
%TO.P,C4,1*%
%TO.N,Net-(U9-SW)*%
X64500000Y-69500000D03*
%TD*%
D41*
%TO.P,R6,2*%
%TO.N,GND1*%
X66000000Y-74950000D03*
%TO.P,R6,1*%
%TO.N,Net-(U9-VFB)*%
X66000000Y-78050000D03*
%TD*%
D43*
%TO.P,C24,2*%
%TO.N,GND1*%
X77500000Y-41437500D03*
%TO.P,C24,1*%
%TO.N,+3V3*%
X77500000Y-44562500D03*
%TD*%
D44*
%TO.P,C18,2*%
%TO.N,GND1*%
X95062500Y-63000000D03*
%TO.P,C18,1*%
%TO.N,Net-(J6-Pin_2)*%
X91937500Y-63000000D03*
%TD*%
D41*
%TO.P,R24,2*%
%TO.N,GND1*%
X81500000Y-52450000D03*
%TO.P,R24,1*%
%TO.N,RS485_DE*%
X81500000Y-55550000D03*
%TD*%
D45*
%TO.P,L2,2*%
%TO.N,Net-(J6-Pin_2)*%
X89225000Y-61000000D03*
%TO.P,L2,1*%
%TO.N,Net-(U3-SW)*%
X83675000Y-61000000D03*
%TD*%
D46*
%TO.P,R28,2*%
%TO.N,I2S_WS*%
X86500000Y-44550000D03*
%TO.P,R28,1*%
%TO.N,Net-(J11-Pin_5)*%
X86500000Y-41450000D03*
%TD*%
D35*
%TO.P,C15,2*%
%TO.N,GND1*%
X83937500Y-75000000D03*
%TO.P,C15,1*%
%TO.N,Motor Power*%
X87062500Y-75000000D03*
%TD*%
D46*
%TO.P,R15,2*%
%TO.N,GND1*%
X95000000Y-70050000D03*
%TO.P,R15,1*%
%TO.N,Motor Signal*%
X95000000Y-66950000D03*
%TD*%
D30*
%TO.P,R13,2*%
%TO.N,Net-(U3-VFB)*%
X90400000Y-73000000D03*
%TO.P,R13,1*%
%TO.N,Net-(J6-Pin_2)*%
X93500000Y-73000000D03*
%TD*%
D43*
%TO.P,C16,2*%
%TO.N,Net-(U3-VBST)*%
X91000000Y-66925000D03*
%TO.P,C16,1*%
%TO.N,Net-(U3-SW)*%
X91000000Y-70050000D03*
%TD*%
D47*
%TO.P,R14,2*%
%TO.N,GND1*%
X93550000Y-77000000D03*
%TO.P,R14,1*%
%TO.N,Net-(U3-VFB)*%
X90450000Y-77000000D03*
%TD*%
D41*
%TO.P,R25,2*%
%TO.N,Net-(J10-Pin_1)*%
X93000000Y-49950000D03*
%TO.P,R25,1*%
%TO.N,Net-(J10-Pin_2)*%
X93000000Y-53050000D03*
%TD*%
D46*
%TO.P,R29,2*%
%TO.N,GND1*%
X91000000Y-44550000D03*
%TO.P,R29,1*%
%TO.N,I2S_SD*%
X91000000Y-41450000D03*
%TD*%
D35*
%TO.P,C14,2*%
%TO.N,GND1*%
X84137500Y-70500000D03*
%TO.P,C14,1*%
%TO.N,Motor Power*%
X87262500Y-70500000D03*
%TD*%
D40*
%TO.P,C23,2*%
%TO.N,GND1*%
X92562500Y-47500000D03*
%TO.P,C23,1*%
%TO.N,+3V3*%
X89437500Y-47500000D03*
%TD*%
D48*
%TO.P,U3,6,VBST*%
%TO.N,Net-(U3-VBST)*%
X87660000Y-66050000D03*
%TO.P,U3,5,EN*%
%TO.N,Motor Signal*%
X87660000Y-67000000D03*
%TO.P,U3,4,VFB*%
%TO.N,Net-(U3-VFB)*%
X87660000Y-67950000D03*
%TO.P,U3,3,VIN*%
%TO.N,Motor Power*%
X84240000Y-67950000D03*
%TO.P,U3,2,SW*%
%TO.N,Net-(U3-SW)*%
X84240000Y-67000000D03*
%TO.P,U3,1,GND*%
%TO.N,GND1*%
X84240000Y-66050000D03*
%TD*%
D14*
%TO.P,U7,8,VCC*%
%TO.N,+3V3*%
X89475000Y-49595000D03*
%TO.P,U7,7,B*%
%TO.N,Net-(J10-Pin_1)*%
X89475000Y-50865000D03*
%TO.P,U7,6,A*%
%TO.N,Net-(J10-Pin_2)*%
X89475000Y-52135000D03*
%TO.P,U7,5,GND*%
%TO.N,GND1*%
X89475000Y-53405000D03*
%TO.P,U7,4,DI*%
%TO.N,RS485_TX*%
X84525000Y-53405000D03*
%TO.P,U7,3,DE*%
%TO.N,RS485_DE*%
X84525000Y-52135000D03*
%TO.P,U7,2,~{RE}*%
X84525000Y-50865000D03*
%TO.P,U7,1,RO*%
%TO.N,RS485_RX*%
X84525000Y-49595000D03*
%TD*%
D43*
%TO.P,C25,2*%
%TO.N,GND1*%
X73000000Y-41437500D03*
%TO.P,C25,1*%
%TO.N,+3V3*%
X73000000Y-44562500D03*
%TD*%
D49*
%TO.P,U8,3,3*%
%TO.N,GND1*%
X97500000Y-51500000D03*
%TO.P,U8,2,2*%
%TO.N,Net-(J10-Pin_2)*%
X95500000Y-52450000D03*
%TO.P,U8,1,1*%
%TO.N,Net-(J10-Pin_1)*%
X95500000Y-50550000D03*
%TD*%
D46*
%TO.P,R27,2*%
%TO.N,I2S_SCK*%
X82000000Y-44550000D03*
%TO.P,R27,1*%
%TO.N,Net-(J11-Pin_3)*%
X82000000Y-41450000D03*
%TD*%
D47*
%TO.P,R19,1*%
%TO.N,+3V3*%
X67450000Y-42000000D03*
%TO.P,R19,2*%
%TO.N,Net-(U4-IO0)*%
X70550000Y-42000000D03*
%TD*%
D30*
%TO.P,R1,1*%
%TO.N,Net-(Q1-G)*%
X52550000Y-95500000D03*
%TO.P,R1,2*%
%TO.N,GND1*%
X49450000Y-95500000D03*
%TD*%
D33*
%TO.P,C22,1*%
%TO.N,+3V3*%
X42062500Y-67500000D03*
%TO.P,C22,2*%
%TO.N,GND1*%
X38937500Y-67500000D03*
%TD*%
D41*
%TO.P,R16,1*%
%TO.N,/ESP32/A5*%
X74500000Y-50100000D03*
%TO.P,R16,2*%
%TO.N,GND1*%
X74500000Y-47000000D03*
%TD*%
D29*
%TO.P,5V1,1,K*%
%TO.N,GND1*%
X39012500Y-72500000D03*
%TO.P,5V1,2,A*%
%TO.N,Net-(5V1-A)*%
X41987500Y-72500000D03*
%TD*%
D50*
%TO.P,U4,1,GND*%
%TO.N,GND1*%
X38240000Y-59195000D03*
%TO.P,U4,2,3V3*%
%TO.N,+3V3*%
X39510000Y-59195000D03*
%TO.P,U4,3,EN*%
%TO.N,Net-(U4-EN)*%
X40780000Y-59195000D03*
%TO.P,U4,4,IO4*%
%TO.N,LED1 Signal*%
X42050000Y-59195000D03*
%TO.P,U4,5,IO5*%
%TO.N,LED2 Signal*%
X43320000Y-59195000D03*
%TO.P,U4,6,IO6*%
%TO.N,LED3 Signal*%
X44590000Y-59195000D03*
%TO.P,U4,7,IO7*%
%TO.N,LED4 Signal*%
X45860000Y-59195000D03*
%TO.P,U4,8,IO15*%
%TO.N,Motor Signal*%
X47130000Y-59195000D03*
%TO.P,U4,9,IO16*%
%TO.N,I2S_SCK*%
X48400000Y-59195000D03*
%TO.P,U4,10,IO17*%
%TO.N,I2S_WS*%
X49670000Y-59195000D03*
%TO.P,U4,11,IO18*%
%TO.N,I2S_SD*%
X50940000Y-59195000D03*
%TO.P,U4,12,IO8*%
%TO.N,/ESP32/GPIO8*%
X52210000Y-59195000D03*
%TO.P,U4,13,USB_D-/IO19*%
%TO.N,Net-(U4-USB_D-{slash}IO19)*%
X53480000Y-59195000D03*
%TO.P,U4,14,USB_D+/IO20*%
%TO.N,Net-(U4-USB_D+{slash}IO20)*%
X54750000Y-59195000D03*
D51*
%TO.P,U4,15,IO3*%
%TO.N,unconnected-(U4-IO3-Pad15)*%
X56000000Y-57430000D03*
%TO.P,U4,16,IO46*%
%TO.N,unconnected-(U4-IO46-Pad16)*%
X56000000Y-56160000D03*
%TO.P,U4,17,IO9*%
%TO.N,/ESP32/GPIO9*%
X56000000Y-54890000D03*
%TO.P,U4,18,IO10*%
%TO.N,/ESP32/GPIO10*%
X56000000Y-53620000D03*
%TO.P,U4,19,IO11*%
%TO.N,/ESP32/GPIO11*%
X56000000Y-52350000D03*
%TO.P,U4,20,IO12*%
%TO.N,/ESP32/GPIO12*%
X56000000Y-51080000D03*
%TO.P,U4,21,IO13*%
%TO.N,/ESP32/GPIO13*%
X56000000Y-49810000D03*
%TO.P,U4,22,IO14*%
%TO.N,/ESP32/GPIO14*%
X56000000Y-48540000D03*
%TO.P,U4,23,IO21*%
%TO.N,/ESP32/GPIO21*%
X56000000Y-47270000D03*
%TO.P,U4,24,IO47*%
%TO.N,unconnected-(U4-IO47-Pad24)*%
X56000000Y-46000000D03*
%TO.P,U4,25,IO48*%
%TO.N,/ESP32/SW_LED*%
X56000000Y-44730000D03*
%TO.P,U4,26,IO45*%
%TO.N,unconnected-(U4-IO45-Pad26)*%
X56000000Y-43460000D03*
D50*
%TO.P,U4,27,IO0*%
%TO.N,Net-(U4-IO0)*%
X54750000Y-41695000D03*
%TO.P,U4,28,NC*%
%TO.N,unconnected-(U4-NC-Pad28)*%
X53480000Y-41695000D03*
%TO.P,U4,29,NC*%
%TO.N,unconnected-(U4-NC-Pad29)*%
X52210000Y-41695000D03*
%TO.P,U4,30,NC*%
%TO.N,unconnected-(U4-NC-Pad30)*%
X50940000Y-41695000D03*
%TO.P,U4,31,IO38*%
%TO.N,unconnected-(U4-IO38-Pad31)*%
X49670000Y-41695000D03*
%TO.P,U4,32,MTCK/IO39*%
%TO.N,unconnected-(U4-MTCK{slash}IO39-Pad32)*%
X48400000Y-41695000D03*
%TO.P,U4,33,MTDO/IO40*%
%TO.N,unconnected-(U4-MTDO{slash}IO40-Pad33)*%
X47130000Y-41695000D03*
%TO.P,U4,34,MTDI/IO41*%
%TO.N,unconnected-(U4-MTDI{slash}IO41-Pad34)*%
X45860000Y-41695000D03*
%TO.P,U4,35,MTMS/IO42*%
%TO.N,RS485_DE*%
X44590000Y-41695000D03*
%TO.P,U4,36,RXD0/IO44*%
%TO.N,unconnected-(U4-RXD0{slash}IO44-Pad36)*%
X43320000Y-41695000D03*
%TO.P,U4,37,TXD0/IO43*%
%TO.N,unconnected-(U4-TXD0{slash}IO43-Pad37)*%
X42050000Y-41695000D03*
%TO.P,U4,38,IO2*%
%TO.N,RS485_RX*%
X40780000Y-41695000D03*
%TO.P,U4,39,IO1*%
%TO.N,RS485_TX*%
X39510000Y-41695000D03*
%TO.P,U4,40,GND*%
%TO.N,GND1*%
X38240000Y-41695000D03*
D52*
%TO.P,U4,41,GND*%
X42090000Y-53305000D03*
D53*
X42840000Y-53305000D03*
D52*
X43590000Y-53305000D03*
D53*
X44340000Y-53305000D03*
D52*
X45090000Y-53305000D03*
D53*
X42090000Y-52555000D03*
X43590000Y-52555000D03*
X45090000Y-52555000D03*
D52*
X42090000Y-51805000D03*
D53*
X42840000Y-51805000D03*
D52*
X43590000Y-51805000D03*
D53*
X44340000Y-51805000D03*
D52*
X45090000Y-51805000D03*
D53*
X42090000Y-51055000D03*
X43590000Y-51055000D03*
X45090000Y-51055000D03*
D52*
X42090000Y-50305000D03*
D53*
X42840000Y-50305000D03*
D52*
X43590000Y-50305000D03*
D53*
X44340000Y-50305000D03*
D52*
X45090000Y-50305000D03*
%TD*%
D31*
%TO.P,SW1,1,1*%
%TO.N,GND1*%
X63020000Y-59750000D03*
X70980000Y-59750000D03*
%TO.P,SW1,2,2*%
%TO.N,Net-(U4-EN)*%
X63020000Y-64250000D03*
X70980000Y-64250000D03*
%TD*%
D33*
%TO.P,C9,1*%
%TO.N,Net-(D2-K)*%
X47562500Y-70500000D03*
%TO.P,C9,2*%
%TO.N,GND1*%
X44437500Y-70500000D03*
%TD*%
D54*
%TO.P,D2,1,K*%
%TO.N,Net-(D2-K)*%
X68000000Y-46000000D03*
%TO.P,D2,2,A*%
%TO.N,/ESP32/VBUS*%
X64000000Y-46000000D03*
%TD*%
D30*
%TO.P,R21,1*%
%TO.N,+3V3*%
X47550000Y-78000000D03*
%TO.P,R21,2*%
%TO.N,Net-(3.3V1-A)*%
X44450000Y-78000000D03*
%TD*%
D29*
%TO.P,3.3V1,1,K*%
%TO.N,GND1*%
X39025000Y-76390000D03*
%TO.P,3.3V1,2,A*%
%TO.N,Net-(3.3V1-A)*%
X42000000Y-76390000D03*
%TD*%
D55*
%TO.P,Q1,1,S*%
%TO.N,Motor Power*%
X58000000Y-86500000D03*
%TO.P,Q1,2,S*%
X58000000Y-87150000D03*
%TO.P,Q1,3,S*%
X58000000Y-87800000D03*
%TO.P,Q1,4,G*%
%TO.N,Net-(Q1-G)*%
X58000000Y-88450000D03*
D56*
%TO.P,Q1,5,D*%
%TO.N,/Power Block/Fuse-Pol*%
X59955000Y-87475000D03*
%TD*%
D57*
%TO.P,U6,1,I/O1*%
%TO.N,Net-(U4-USB_D-{slash}IO19)*%
X58600000Y-47275000D03*
%TO.P,U6,2,GND*%
%TO.N,GND1*%
X59550000Y-47275000D03*
%TO.P,U6,3,I/O2*%
%TO.N,Net-(U4-USB_D+{slash}IO20)*%
X60500000Y-47275000D03*
%TO.P,U6,4,I/O2*%
%TO.N,/ESP32/A6*%
X60500000Y-45000000D03*
%TO.P,U6,5,VBUS*%
%TO.N,/ESP32/VBUS*%
X59550000Y-45000000D03*
%TO.P,U6,6,I/O1*%
%TO.N,/ESP32/A7*%
X58600000Y-45000000D03*
%TD*%
D40*
%TO.P,C21,1*%
%TO.N,Net-(U4-EN)*%
X70437500Y-72500000D03*
%TO.P,C21,2*%
%TO.N,GND1*%
X73562500Y-72500000D03*
%TD*%
D47*
%TO.P,R18,1*%
%TO.N,+3V3*%
X70450000Y-68500000D03*
%TO.P,R18,2*%
%TO.N,Net-(U4-EN)*%
X73550000Y-68500000D03*
%TD*%
D41*
%TO.P,R22,1*%
%TO.N,/ESP32/VBUS*%
X45500000Y-36550000D03*
%TO.P,R22,2*%
%TO.N,Net-(USB1-A)*%
X45500000Y-33450000D03*
%TD*%
%TO.P,R2,1*%
%TO.N,Motor Power*%
X68000000Y-72550000D03*
%TO.P,R2,2*%
%TO.N,Net-(U9-EN)*%
X68000000Y-69450000D03*
%TD*%
D58*
%TO.P,C1,1*%
%TO.N,Motor Power*%
X71500000Y-92000000D03*
%TO.P,C1,2*%
%TO.N,GND1*%
X79500000Y-92000000D03*
%TD*%
D59*
%TO.P,F1,1*%
%TO.N,/Power Block/Fuse-Pol*%
X63362500Y-87500000D03*
%TO.P,F1,2*%
%TO.N,/Power Block/BAT+*%
X67637500Y-87500000D03*
%TD*%
D43*
%TO.P,C8,1*%
%TO.N,Net-(D2-K)*%
X51000000Y-68987500D03*
%TO.P,C8,2*%
%TO.N,GND1*%
X51000000Y-65862500D03*
%TD*%
D30*
%TO.P,R20,1*%
%TO.N,Net-(D2-K)*%
X47550000Y-74500000D03*
%TO.P,R20,2*%
%TO.N,Net-(5V1-A)*%
X44450000Y-74500000D03*
%TD*%
D60*
%TO.P,D3,1,K*%
%TO.N,Net-(D2-K)*%
X55000000Y-69000000D03*
%TO.P,D3,2,A*%
%TO.N,Net-(D3-A)*%
X55000000Y-65000000D03*
%TD*%
D61*
%TO.P,D1,1,A1*%
%TO.N,GND1*%
X49000000Y-91000000D03*
%TO.P,D1,2,A2*%
%TO.N,Motor Power*%
X53000000Y-91000000D03*
%TD*%
D62*
%TO.P,FB1,1*%
%TO.N,+5V*%
X59000000Y-69075000D03*
%TO.P,FB1,2*%
%TO.N,Net-(D3-A)*%
X59000000Y-65925000D03*
%TD*%
D47*
%TO.P,R17,1*%
%TO.N,/ESP32/B5*%
X45450000Y-39000000D03*
%TO.P,R17,2*%
%TO.N,GND1*%
X48550000Y-39000000D03*
%TD*%
D46*
%TO.P,R26,1*%
%TO.N,Motor Signal*%
X45450000Y-84450000D03*
%TO.P,R26,2*%
%TO.N,Net-(MOTOR1-A)*%
X45450000Y-87550000D03*
%TD*%
D63*
%TO.P,USB1,1,K*%
%TO.N,GND1*%
X48500000Y-33512500D03*
%TO.P,USB1,2,A*%
%TO.N,Net-(USB1-A)*%
X48500000Y-36487500D03*
%TD*%
D35*
%TO.P,C20,1*%
%TO.N,+3V3*%
X42562500Y-62500000D03*
%TO.P,C20,2*%
%TO.N,GND1*%
X39437500Y-62500000D03*
%TD*%
D58*
%TO.P,C19,1*%
%TO.N,+5V*%
X71500000Y-80500000D03*
%TO.P,C19,2*%
%TO.N,GND1*%
X79500000Y-80500000D03*
%TD*%
D28*
%TO.P,J10,1,Pin_1*%
%TO.N,Net-(J10-Pin_1)*%
X100750000Y-41975000D03*
D27*
%TO.P,J10,2,Pin_2*%
%TO.N,Net-(J10-Pin_2)*%
X103250000Y-41975000D03*
%TD*%
D44*
%TO.P,C17,2*%
%TO.N,GND1*%
X95000000Y-59000000D03*
%TO.P,C17,1*%
%TO.N,Net-(J6-Pin_2)*%
X91875000Y-59000000D03*
%TD*%
D64*
%TO.N,+3V3*%
X43500000Y-89500000D03*
%TO.N,+5V*%
X99000000Y-91500000D03*
%TO.N,GND1*%
X67500000Y-91000000D03*
X73000000Y-40000000D03*
%TO.N,Net-(U4-IO0)*%
X70000000Y-46500000D03*
X70500000Y-40000000D03*
%TO.N,GND1*%
X82500000Y-72000000D03*
X82500000Y-69500000D03*
X82500000Y-65500000D03*
X82500000Y-64500000D03*
X83500000Y-64500000D03*
X84500000Y-64500000D03*
X91000000Y-43000000D03*
X89000000Y-87460000D03*
X92000000Y-90500000D03*
X80500000Y-83000000D03*
X79500000Y-83000000D03*
X78500000Y-83000000D03*
X77500000Y-83000000D03*
X64000000Y-75000000D03*
X61500000Y-46000000D03*
X38500000Y-40000000D03*
%TO.N,Motor Power*%
X87500000Y-72500000D03*
X86500000Y-72000000D03*
X59000000Y-76000000D03*
X57500000Y-76000000D03*
%TO.N,Net-(U3-SW)*%
X86000000Y-66500000D03*
%TO.N,Motor Power*%
X53500000Y-89500000D03*
X52500000Y-89500000D03*
X51500000Y-89500000D03*
X71750000Y-89750000D03*
X72500000Y-89000000D03*
X73500000Y-89000000D03*
%TO.N,GND1*%
X76500000Y-91000000D03*
X78000000Y-89000000D03*
X79500000Y-89000000D03*
%TO.N,Net-(J6-Pin_2)*%
X90968750Y-62031250D03*
X90500000Y-60500000D03*
X90937500Y-59937500D03*
X94500000Y-37500000D03*
X93500000Y-37500000D03*
X92500000Y-37500000D03*
%TO.N,Motor Power*%
X86937000Y-73500000D03*
%TO.N,Net-(J6-Pin_2)*%
X90500000Y-61500000D03*
X93000000Y-71000000D03*
%TO.N,Net-(U3-SW)*%
X85500000Y-61500000D03*
X85500000Y-60500000D03*
X85500000Y-59500000D03*
%TO.N,GND1*%
X95000000Y-68500000D03*
%TO.N,Net-(U3-SW)*%
X91500000Y-69000000D03*
X90500000Y-69000000D03*
X85500000Y-67000000D03*
%TO.N,Motor Power*%
X68000000Y-74000000D03*
%TO.N,Net-(U4-IO0)*%
X52000000Y-43500000D03*
X59000000Y-57500000D03*
%TO.N,GND1*%
X47000000Y-39000000D03*
X48500000Y-35000000D03*
%TO.N,/ESP32/VBUS*%
X66000000Y-45500000D03*
%TO.N,/ESP32/A7*%
X57849239Y-40650766D03*
X56500000Y-42000000D03*
%TO.N,Net-(D2-K)*%
X53500000Y-63000000D03*
X66000000Y-47000000D03*
%TO.N,/ESP32/VBUS*%
X58000000Y-42500000D03*
X54418176Y-37403000D03*
%TO.N,GND1*%
X53000000Y-40000000D03*
X59500000Y-40000000D03*
%TO.N,+5V*%
X58000000Y-70000000D03*
X74500000Y-82263000D03*
X73500000Y-82263000D03*
X90000000Y-84500000D03*
%TO.N,GND1*%
X75000000Y-73500000D03*
%TO.N,+3V3*%
X72000000Y-68500000D03*
X88000000Y-46500000D03*
X43612500Y-65950000D03*
%TO.N,GND1*%
X89500000Y-55000000D03*
X98500000Y-53000000D03*
X94000000Y-48500000D03*
X82000000Y-51000000D03*
%TO.N,RS485_RX*%
X82000000Y-49500000D03*
%TO.N,RS485_DE*%
X86500000Y-49500000D03*
%TO.N,RS485_TX*%
X87500000Y-52000000D03*
%TO.N,GND1*%
X79000000Y-41500000D03*
X49000000Y-65000000D03*
X46000000Y-70000000D03*
X39000000Y-64500000D03*
X49500000Y-93500000D03*
X52500000Y-84500000D03*
X52500000Y-81000000D03*
%TO.N,+5V*%
X64500000Y-82000000D03*
%TO.N,Net-(U9-SW)*%
X57000000Y-74000000D03*
X63500000Y-71000000D03*
%TO.N,GND1*%
X57500000Y-72500000D03*
X59500000Y-71500000D03*
X58500000Y-71500000D03*
X57500000Y-71500000D03*
%TO.N,+5V*%
X55000000Y-74500000D03*
X54000000Y-75500000D03*
X55500000Y-75500000D03*
X55500000Y-76500000D03*
X55500000Y-77500000D03*
X56000000Y-85000000D03*
%TO.N,GND1*%
X39000000Y-78500000D03*
X39012500Y-83000000D03*
%TO.N,/ESP32/SW_LED*%
X46200000Y-82750000D03*
X49500000Y-45000000D03*
%TO.N,Motor Signal*%
X43950000Y-84000000D03*
%TO.N,GND1*%
X38750000Y-74250000D03*
X71000000Y-57500000D03*
X64000000Y-57500000D03*
%TO.N,Net-(U4-USB_D-{slash}IO19)*%
X54000000Y-56000000D03*
X59106251Y-46106251D03*
%TO.N,/ESP32/GPIO8*%
X53500000Y-57000000D03*
%TO.N,/ESP32/GPIO9*%
X58000000Y-56000000D03*
%TO.N,/ESP32/GPIO10*%
X57500000Y-54000000D03*
%TO.N,/ESP32/GPIO12*%
X57500000Y-51000000D03*
%TO.N,/ESP32/GPIO11*%
X53500000Y-54000000D03*
%TO.N,/ESP32/GPIO13*%
X53500000Y-52000000D03*
%TO.N,/ESP32/GPIO21*%
X60000000Y-49500000D03*
%TO.N,/ESP32/GPIO14*%
X58500000Y-49500000D03*
%TO.N,Motor Signal*%
X89500000Y-65500000D03*
X47500000Y-57500000D03*
%TO.N,RS485_TX*%
X53434313Y-50600000D03*
%TO.N,RS485_RX*%
X54000000Y-50000000D03*
%TO.N,RS485_DE*%
X54000000Y-49000000D03*
%TO.N,I2S_SD*%
X52000000Y-57500000D03*
%TO.N,I2S_WS*%
X51400000Y-56500000D03*
%TO.N,I2S_SCK*%
X50400000Y-55500000D03*
X83500000Y-43000000D03*
%TO.N,I2S_WS*%
X88500000Y-43000000D03*
%TO.N,LED1 Signal*%
X84900000Y-84500000D03*
%TO.N,LED2 Signal*%
X86000000Y-91000000D03*
%TO.N,LED3 Signal*%
X87500000Y-92000000D03*
%TO.N,LED4 Signal*%
X87500000Y-89500000D03*
X46500000Y-57500000D03*
%TO.N,LED3 Signal*%
X45000000Y-57500000D03*
%TO.N,LED2 Signal*%
X43500000Y-57500000D03*
%TO.N,LED1 Signal*%
X42000000Y-57500000D03*
%TO.N,Net-(J2-Pin_2)*%
X98000000Y-81000000D03*
%TO.N,I2S_SD*%
X91000000Y-39500000D03*
%TO.N,GND1*%
X76500000Y-47000000D03*
%TD*%
D65*
%TO.N,Net-(R11-Pad2)*%
X92500000Y-91000000D02*
X93000000Y-90500000D01*
X90462500Y-93810000D02*
X91449999Y-93810000D01*
X92500000Y-92759999D02*
X92500000Y-91000000D01*
X91449999Y-93810000D02*
X92500000Y-92759999D01*
%TO.N,Net-(R10-Pad2)*%
X86742968Y-94411000D02*
X91589000Y-94411000D01*
X91589000Y-94411000D02*
X93500000Y-92500000D01*
X84871968Y-92540000D02*
X86742968Y-94411000D01*
X84525000Y-92540000D02*
X84871968Y-92540000D01*
%TO.N,Net-(J3-Pin_2)*%
X100500000Y-86500000D02*
X96600000Y-90400000D01*
X100500000Y-75550000D02*
X100500000Y-86500000D01*
X102450000Y-73600000D02*
X100500000Y-75550000D01*
%TO.N,Net-(R9-Pad2)*%
X91490968Y-86791000D02*
X92000000Y-86281968D01*
X87141900Y-86791000D02*
X91490968Y-86791000D01*
X83537500Y-88730000D02*
X85202900Y-88730000D01*
X92000000Y-86281968D02*
X92000000Y-83500000D01*
X85202900Y-88730000D02*
X87141900Y-86791000D01*
%TO.N,Net-(R12-Pad2)*%
X92000000Y-87475000D02*
X93000000Y-86475000D01*
X92000000Y-89449999D02*
X92000000Y-87475000D01*
X91449999Y-90000000D02*
X92000000Y-89449999D01*
X90462500Y-90000000D02*
X91449999Y-90000000D01*
%TO.N,LED1 Signal*%
X85000000Y-87000000D02*
X84540000Y-87460000D01*
X84540000Y-87460000D02*
X84525000Y-87460000D01*
X84900000Y-84500000D02*
X85000000Y-84600000D01*
X85000000Y-84600000D02*
X85000000Y-87000000D01*
%TO.N,GND1*%
X82810000Y-93810000D02*
X84525000Y-93810000D01*
X82000000Y-93000000D02*
X82810000Y-93810000D01*
X82000000Y-86500000D02*
X82000000Y-93000000D01*
X82500000Y-86000000D02*
X82000000Y-86500000D01*
X82848000Y-86000000D02*
X82500000Y-86000000D01*
X89000000Y-87460000D02*
X89475000Y-87460000D01*
X84824999Y-90299999D02*
X84525000Y-90000000D01*
X88770000Y-91270000D02*
X87799999Y-90299999D01*
X87799999Y-90299999D02*
X84824999Y-90299999D01*
X91230000Y-91270000D02*
X88770000Y-91270000D01*
X92000000Y-90500000D02*
X91230000Y-91270000D01*
%TO.N,+3V3*%
X45500000Y-91500000D02*
X43500000Y-89500000D01*
%TO.N,+5V*%
X99500000Y-92000000D02*
X99000000Y-91500000D01*
X99500000Y-94000000D02*
X99500000Y-92000000D01*
%TO.N,GND1*%
X66500000Y-92000000D02*
X67500000Y-91000000D01*
X66500000Y-94500000D02*
X66500000Y-92000000D01*
%TO.N,Net-(U4-IO0)*%
X70980000Y-47480000D02*
X70000000Y-46500000D01*
X70980000Y-51250000D02*
X70980000Y-47480000D01*
X70500000Y-41950000D02*
X70550000Y-42000000D01*
X70500000Y-40000000D02*
X70500000Y-41950000D01*
%TO.N,+3V3*%
X87500000Y-47000000D02*
X88000000Y-46500000D01*
X79937500Y-47000000D02*
X87500000Y-47000000D01*
X77500000Y-44562500D02*
X79937500Y-47000000D01*
%TO.N,GND1*%
X95000000Y-75550000D02*
X95000000Y-70050000D01*
X93550000Y-77000000D02*
X95000000Y-75550000D01*
X91000000Y-43000000D02*
X91000000Y-44550000D01*
X83038000Y-86190000D02*
X82848000Y-86000000D01*
X84525000Y-86190000D02*
X83038000Y-86190000D01*
X82848000Y-85152000D02*
X82848000Y-86000000D01*
D66*
X84937500Y-83000000D02*
X85437500Y-82500000D01*
X80500000Y-83000000D02*
X84937500Y-83000000D01*
X80500000Y-81500000D02*
X79500000Y-80500000D01*
X80500000Y-83000000D02*
X80500000Y-81500000D01*
X77500000Y-83000000D02*
X80500000Y-83000000D01*
D65*
X64050000Y-74950000D02*
X64000000Y-75000000D01*
X66000000Y-74950000D02*
X64050000Y-74950000D01*
X61500000Y-46000000D02*
X61000000Y-46000000D01*
X60162501Y-46000000D02*
X61000000Y-46000000D01*
X59550000Y-46612501D02*
X60162501Y-46000000D01*
X59550000Y-47275000D02*
X59550000Y-46612501D01*
X38240000Y-40260000D02*
X38500000Y-40000000D01*
X38240000Y-41695000D02*
X38240000Y-40260000D01*
%TO.N,/ESP32/VBUS*%
X54340168Y-37324992D02*
X53786000Y-37324992D01*
X54418176Y-37403000D02*
X54340168Y-37324992D01*
%TO.N,/ESP32/A5*%
X57910119Y-39861703D02*
X58500000Y-40451584D01*
X57500000Y-39861703D02*
X57910119Y-39861703D01*
X57250000Y-39611703D02*
X57500000Y-39861703D01*
X57250000Y-38745000D02*
X57250000Y-39611703D01*
%TO.N,/ESP32/A7*%
X56750000Y-39750000D02*
X57000000Y-40000000D01*
X55750000Y-39750000D02*
X56000000Y-40000000D01*
X56000000Y-40000000D02*
X57000000Y-40000000D01*
X55750000Y-38745000D02*
X55750000Y-39750000D01*
%TO.N,/ESP32/A6*%
X55931588Y-40500000D02*
X55250000Y-39818412D01*
X56849943Y-40500000D02*
X55931588Y-40500000D01*
X55250000Y-39818412D02*
X55250000Y-38680000D01*
X60500000Y-44150057D02*
X56849943Y-40500000D01*
X60500000Y-45000000D02*
X60500000Y-44150057D01*
%TO.N,/ESP32/A7*%
X57000000Y-40000000D02*
X57262703Y-40262703D01*
X56750000Y-38745000D02*
X56750000Y-39750000D01*
X55750000Y-38680000D02*
X55750000Y-38745000D01*
%TO.N,/ESP32/A6*%
X56250000Y-37750000D02*
X56250000Y-38745000D01*
X56000000Y-37500000D02*
X56250000Y-37750000D01*
X55500000Y-37500000D02*
X56000000Y-37500000D01*
X55250000Y-37750000D02*
X55500000Y-37500000D01*
X55250000Y-38745000D02*
X55250000Y-37750000D01*
%TO.N,/ESP32/VBUS*%
X58400000Y-38105001D02*
X58400000Y-38680000D01*
X57294999Y-37000000D02*
X58400000Y-38105001D01*
X54821176Y-37000000D02*
X57294999Y-37000000D01*
X54418176Y-37403000D02*
X54821176Y-37000000D01*
D67*
%TO.N,Motor Power*%
X87062500Y-70951000D02*
X86937000Y-70825500D01*
X87062500Y-75000000D02*
X87062500Y-70951000D01*
X85288000Y-68288000D02*
X84578000Y-68288000D01*
X86937000Y-69937000D02*
X85288000Y-68288000D01*
D65*
%TO.N,Net-(U3-SW)*%
X85500000Y-67000000D02*
X86000000Y-66500000D01*
%TO.N,+3V3*%
X88437500Y-46500000D02*
X89437500Y-47500000D01*
X88000000Y-46500000D02*
X88437500Y-46500000D01*
%TO.N,Net-(SW3-A)*%
X41987500Y-80500000D02*
X43400000Y-80500000D01*
X43400000Y-80500000D02*
X44400000Y-81500000D01*
D66*
%TO.N,Motor Power*%
X51500000Y-89500000D02*
X54000000Y-89500000D01*
X54000000Y-89500000D02*
X54250000Y-89750000D01*
D67*
X54250000Y-89750000D02*
X56850000Y-87150000D01*
D66*
X71750000Y-89750000D02*
X72500000Y-89000000D01*
X72500000Y-89000000D02*
X73500000Y-89000000D01*
X71500000Y-90000000D02*
X71750000Y-89750000D01*
X71500000Y-92000000D02*
X71500000Y-90000000D01*
%TO.N,GND1*%
X78000000Y-89000000D02*
X79500000Y-89000000D01*
X78500000Y-91000000D02*
X79500000Y-92000000D01*
X76500000Y-91000000D02*
X78500000Y-91000000D01*
X79500000Y-92000000D02*
X79500000Y-89000000D01*
%TO.N,Net-(J6-Pin_2)*%
X89937500Y-61000000D02*
X89225000Y-61000000D01*
X90437500Y-61500000D02*
X89937500Y-61000000D01*
X90500000Y-61500000D02*
X90437500Y-61500000D01*
X90500000Y-61562500D02*
X91937500Y-63000000D01*
X90500000Y-61500000D02*
X90500000Y-61562500D01*
X90937500Y-59937500D02*
X91875000Y-59000000D01*
D68*
X94500000Y-37500000D02*
X95500000Y-37500000D01*
X93500000Y-37500000D02*
X94500000Y-37500000D01*
X92500000Y-37500000D02*
X93500000Y-37500000D01*
D65*
X93500000Y-71500000D02*
X93000000Y-71000000D01*
X93500000Y-73000000D02*
X93500000Y-71500000D01*
D66*
%TO.N,GND1*%
X89855998Y-63500000D02*
X83000000Y-63500000D01*
X92668002Y-64851000D02*
X91206998Y-64851000D01*
X95000000Y-62519002D02*
X92668002Y-64851000D01*
X91206998Y-64851000D02*
X89855998Y-63500000D01*
X95000000Y-59000000D02*
X95000000Y-62519002D01*
%TO.N,Net-(J6-Pin_2)*%
X89875000Y-61000000D02*
X90937500Y-59937500D01*
X89225000Y-61000000D02*
X89875000Y-61000000D01*
%TO.N,Net-(U3-SW)*%
X85500000Y-61500000D02*
X85500000Y-62000000D01*
X85500000Y-59500000D02*
X85500000Y-61500000D01*
X85500000Y-60500000D02*
X85500000Y-59500000D01*
X85000000Y-61000000D02*
X85500000Y-60500000D01*
X83675000Y-61000000D02*
X85000000Y-61000000D01*
D65*
%TO.N,GND1*%
X95000000Y-68500000D02*
X95000000Y-70050000D01*
%TO.N,Motor Signal*%
X89500000Y-67273660D02*
X89500000Y-65500000D01*
X90114840Y-67888500D02*
X89500000Y-67273660D01*
X94061500Y-67888500D02*
X90114840Y-67888500D01*
X95000000Y-66950000D02*
X94061500Y-67888500D01*
%TO.N,Net-(U3-VBST)*%
X89748943Y-64899000D02*
X91000000Y-66150057D01*
X88811000Y-64899000D02*
X89748943Y-64899000D01*
X91000000Y-66150057D02*
X91000000Y-66925000D01*
X87660000Y-66050000D02*
X88811000Y-64899000D01*
%TO.N,Net-(U3-SW)*%
X91500000Y-69000000D02*
X90500000Y-69000000D01*
X90500000Y-69550000D02*
X91000000Y-70050000D01*
X90500000Y-69000000D02*
X90500000Y-69550000D01*
X84240000Y-67000000D02*
X85500000Y-67000000D01*
%TO.N,Net-(U3-VFB)*%
X90400000Y-76950000D02*
X90450000Y-77000000D01*
X90400000Y-73000000D02*
X90400000Y-76950000D01*
X88500000Y-71100000D02*
X90400000Y-73000000D01*
X88500000Y-68790000D02*
X88500000Y-71100000D01*
X87660000Y-67950000D02*
X88500000Y-68790000D01*
%TO.N,Net-(U4-EN)*%
X73550000Y-66820000D02*
X70980000Y-64250000D01*
X73550000Y-68500000D02*
X73550000Y-66820000D01*
%TO.N,Motor Power*%
X68000000Y-72550000D02*
X68000000Y-74000000D01*
%TO.N,Net-(U4-IO0)*%
X53895000Y-43500000D02*
X54750000Y-42645000D01*
X54750000Y-42645000D02*
X54750000Y-41695000D01*
X52000000Y-43500000D02*
X53895000Y-43500000D01*
X59500000Y-57500000D02*
X59000000Y-57500000D01*
X63020000Y-53980000D02*
X59500000Y-57500000D01*
X63020000Y-51250000D02*
X63020000Y-53980000D01*
%TO.N,GND1*%
X48500000Y-33512500D02*
X48500000Y-35000000D01*
X48550000Y-39000000D02*
X47000000Y-39000000D01*
%TO.N,Net-(USB1-A)*%
X45500000Y-33487500D02*
X48500000Y-36487500D01*
X45500000Y-33450000D02*
X45500000Y-33487500D01*
%TO.N,/ESP32/VBUS*%
X53786000Y-37324992D02*
X53786000Y-38494000D01*
X50278215Y-37824000D02*
X51348215Y-36754000D01*
X51348215Y-36754000D02*
X53215008Y-36754000D01*
X46774000Y-37824000D02*
X50278215Y-37824000D01*
X53786000Y-38494000D02*
X53600000Y-38680000D01*
X45500000Y-36550000D02*
X46774000Y-37824000D01*
X53215008Y-36754000D02*
X53786000Y-37324992D01*
%TO.N,/ESP32/B5*%
X45450000Y-39000000D02*
X47051000Y-40601000D01*
X47051000Y-40601000D02*
X53248943Y-40601000D01*
X53248943Y-40601000D02*
X54250000Y-39599943D01*
X54250000Y-39599943D02*
X54250000Y-38680000D01*
%TO.N,/ESP32/A5*%
X57250000Y-38680000D02*
X57250000Y-39288824D01*
X58500000Y-40451584D02*
X58500000Y-41000000D01*
%TO.N,/ESP32/A7*%
X57849239Y-40650766D02*
X57461176Y-40262703D01*
X57461176Y-40262703D02*
X57262703Y-40262703D01*
X56799000Y-38729000D02*
X56750000Y-38680000D01*
%TO.N,/ESP32/A5*%
X62299000Y-44799000D02*
X58500000Y-41000000D01*
X74500000Y-50063840D02*
X69235160Y-44799000D01*
X69235160Y-44799000D02*
X62299000Y-44799000D01*
X74500000Y-50100000D02*
X74500000Y-50063840D01*
%TO.N,/ESP32/VBUS*%
X65500000Y-46000000D02*
X66000000Y-45500000D01*
X64000000Y-46000000D02*
X65500000Y-46000000D01*
%TO.N,/ESP32/A7*%
X58600000Y-44100000D02*
X56500000Y-42000000D01*
X58600000Y-45000000D02*
X58600000Y-44100000D01*
%TO.N,Net-(D2-K)*%
X53799000Y-67799000D02*
X55000000Y-69000000D01*
X53799000Y-63764840D02*
X53799000Y-67799000D01*
X53500000Y-63000000D02*
X53500000Y-63465840D01*
X53500000Y-63465840D02*
X53799000Y-63764840D01*
X67000000Y-47000000D02*
X66000000Y-47000000D01*
X68000000Y-46000000D02*
X67000000Y-47000000D01*
%TO.N,/ESP32/VBUS*%
X64000000Y-46000000D02*
X64000000Y-45349943D01*
X59550000Y-44050000D02*
X59550000Y-45000000D01*
X58000000Y-42500000D02*
X59550000Y-44050000D01*
%TO.N,GND1*%
X59200000Y-39700000D02*
X59500000Y-40000000D01*
X59200000Y-38680000D02*
X59200000Y-39700000D01*
X52800000Y-39800000D02*
X53000000Y-40000000D01*
X52800000Y-38680000D02*
X52800000Y-39800000D01*
%TO.N,/ESP32/VBUS*%
X53600000Y-38680000D02*
X53600000Y-38221176D01*
%TO.N,Net-(D2-K)*%
X55000000Y-69000000D02*
X54500000Y-69000000D01*
%TO.N,+5V*%
X58075000Y-70000000D02*
X58000000Y-70000000D01*
X59000000Y-69075000D02*
X58075000Y-70000000D01*
X89475000Y-85025000D02*
X90000000Y-84500000D01*
X89475000Y-86190000D02*
X89475000Y-85025000D01*
X88562500Y-83062500D02*
X90000000Y-84500000D01*
X88562500Y-82500000D02*
X88562500Y-83062500D01*
D67*
X73000000Y-82000000D02*
X74000000Y-82000000D01*
X71500000Y-80500000D02*
X73000000Y-82000000D01*
D65*
%TO.N,Net-(R9-Pad2)*%
X92950000Y-82550000D02*
X92000000Y-83500000D01*
X92950000Y-80500000D02*
X92950000Y-82550000D01*
%TO.N,GND1*%
X74000000Y-72500000D02*
X75000000Y-73500000D01*
X73562500Y-72500000D02*
X74000000Y-72500000D01*
%TO.N,Net-(U4-EN)*%
X73550000Y-69387500D02*
X70437500Y-72500000D01*
X73550000Y-68500000D02*
X73550000Y-69387500D01*
%TO.N,+3V3*%
X70450000Y-68500000D02*
X72000000Y-68500000D01*
%TO.N,GND1*%
X89475000Y-54975000D02*
X89500000Y-55000000D01*
X89475000Y-53405000D02*
X89475000Y-54975000D01*
X97500000Y-52000000D02*
X98500000Y-53000000D01*
X97500000Y-51500000D02*
X97500000Y-52000000D01*
X93000000Y-47500000D02*
X94000000Y-48500000D01*
X92562500Y-47500000D02*
X93000000Y-47500000D01*
%TO.N,Net-(J10-Pin_2)*%
X96564000Y-50436000D02*
X103250000Y-43750000D01*
X96564000Y-51386000D02*
X96564000Y-50436000D01*
X103250000Y-43750000D02*
X103250000Y-41975000D01*
X95500000Y-52450000D02*
X96564000Y-51386000D01*
%TO.N,Net-(J10-Pin_1)*%
X97525000Y-41975000D02*
X100750000Y-41975000D01*
X97000000Y-49050000D02*
X97000000Y-42500000D01*
X97000000Y-42500000D02*
X97525000Y-41975000D01*
X95500000Y-50550000D02*
X97000000Y-49050000D01*
X94900000Y-49950000D02*
X95500000Y-50550000D01*
X93000000Y-49950000D02*
X94900000Y-49950000D01*
%TO.N,Net-(J10-Pin_2)*%
X94050000Y-52450000D02*
X95500000Y-52450000D01*
X93450000Y-53050000D02*
X94050000Y-52450000D01*
X93000000Y-53050000D02*
X93450000Y-53050000D01*
X92085000Y-52135000D02*
X93000000Y-53050000D01*
X89475000Y-52135000D02*
X92085000Y-52135000D01*
%TO.N,Net-(J10-Pin_1)*%
X92085000Y-50865000D02*
X93000000Y-49950000D01*
X89475000Y-50865000D02*
X92085000Y-50865000D01*
%TO.N,GND1*%
X81500000Y-51500000D02*
X82000000Y-51000000D01*
X81500000Y-52450000D02*
X81500000Y-51500000D01*
%TO.N,RS485_DE*%
X81500000Y-54813032D02*
X84178032Y-52135000D01*
X84178032Y-52135000D02*
X84525000Y-52135000D01*
X81500000Y-55550000D02*
X81500000Y-54813032D01*
X84525000Y-52135000D02*
X84525000Y-50865000D01*
%TO.N,RS485_TX*%
X86095000Y-53405000D02*
X84525000Y-53405000D01*
X87500000Y-52000000D02*
X86095000Y-53405000D01*
%TO.N,RS485_DE*%
X85135000Y-50865000D02*
X84525000Y-50865000D01*
X86500000Y-49500000D02*
X85135000Y-50865000D01*
%TO.N,RS485_RX*%
X82095000Y-49595000D02*
X84525000Y-49595000D01*
X82000000Y-49500000D02*
X82095000Y-49595000D01*
%TO.N,+3V3*%
X89475000Y-47537500D02*
X89437500Y-47500000D01*
X89475000Y-49595000D02*
X89475000Y-47537500D01*
%TO.N,Net-(J5-Pin_2)*%
X99500000Y-54550000D02*
X102450000Y-51600000D01*
X99500000Y-81000000D02*
X99500000Y-54550000D01*
D68*
%TO.N,Net-(J6-Pin_2)*%
X95500000Y-37500000D02*
X97000000Y-36000000D01*
X90000000Y-37500000D02*
X92500000Y-37500000D01*
X88500000Y-36000000D02*
X90000000Y-37500000D01*
D65*
%TO.N,+3V3*%
X77500000Y-44562500D02*
X73000000Y-44562500D01*
%TO.N,GND1*%
X78937500Y-41437500D02*
X79000000Y-41500000D01*
X77500000Y-41437500D02*
X78937500Y-41437500D01*
X73000000Y-40000000D02*
X73000000Y-41437500D01*
%TO.N,+3V3*%
X70012500Y-44562500D02*
X73000000Y-44562500D01*
X67450000Y-42000000D02*
X70012500Y-44562500D01*
%TO.N,Net-(D2-K)*%
X47550000Y-70512500D02*
X47562500Y-70500000D01*
X47550000Y-74500000D02*
X47550000Y-70512500D01*
%TO.N,GND1*%
X38240000Y-59195000D02*
X38240000Y-61302500D01*
X38240000Y-61302500D02*
X39437500Y-62500000D01*
%TO.N,+3V3*%
X43474000Y-68911500D02*
X42062500Y-67500000D01*
X43474000Y-72474000D02*
X43474000Y-68911500D01*
X44761160Y-73000000D02*
X44000000Y-73000000D01*
X45401000Y-75851000D02*
X45401000Y-73639840D01*
X44000000Y-73000000D02*
X43474000Y-72474000D01*
X47550000Y-78000000D02*
X45401000Y-75851000D01*
X45401000Y-73639840D02*
X44761160Y-73000000D01*
%TO.N,Net-(D2-K)*%
X46975001Y-65950000D02*
X47637500Y-65950000D01*
X46674000Y-64659032D02*
X46674000Y-65648999D01*
X46674000Y-65648999D02*
X46975001Y-65950000D01*
X47283032Y-64050000D02*
X46674000Y-64659032D01*
X47637500Y-64050000D02*
X47283032Y-64050000D01*
%TO.N,GND1*%
X49000000Y-65000000D02*
X47637500Y-65000000D01*
X50137500Y-65000000D02*
X49000000Y-65000000D01*
X51000000Y-65862500D02*
X50137500Y-65000000D01*
X45500000Y-70500000D02*
X46000000Y-70000000D01*
X44437500Y-70500000D02*
X45500000Y-70500000D01*
%TO.N,Net-(D2-K)*%
X50675000Y-68987500D02*
X51000000Y-68987500D01*
X47637500Y-65950000D02*
X50675000Y-68987500D01*
%TO.N,GND1*%
X38937500Y-64562500D02*
X39000000Y-64500000D01*
X38937500Y-67500000D02*
X38937500Y-64562500D01*
X39437500Y-64062500D02*
X39000000Y-64500000D01*
X39437500Y-62500000D02*
X39437500Y-64062500D01*
%TO.N,+3V3*%
X43612500Y-65950000D02*
X45362500Y-65950000D01*
X42062500Y-67500000D02*
X43612500Y-65950000D01*
X42562500Y-62500000D02*
X42562500Y-63150000D01*
X42562500Y-63150000D02*
X45362500Y-65950000D01*
X42283000Y-62500000D02*
X39510000Y-59727000D01*
X42562500Y-62500000D02*
X42283000Y-62500000D01*
X39510000Y-59727000D02*
X39510000Y-59195000D01*
%TO.N,Net-(D3-A)*%
X59000000Y-65925000D02*
X55925000Y-65925000D01*
X55925000Y-65925000D02*
X55000000Y-65000000D01*
%TO.N,Net-(D2-K)*%
X51012500Y-69000000D02*
X51000000Y-68987500D01*
X54500000Y-69000000D02*
X51012500Y-69000000D01*
X49075000Y-68987500D02*
X51000000Y-68987500D01*
X47562500Y-70500000D02*
X49075000Y-68987500D01*
D67*
%TO.N,Motor Power*%
X56850000Y-87150000D02*
X58000000Y-87150000D01*
X53000000Y-91000000D02*
X54250000Y-89750000D01*
D65*
%TO.N,GND1*%
X49450000Y-93550000D02*
X49500000Y-93500000D01*
X49450000Y-95500000D02*
X49450000Y-93550000D01*
X49000000Y-93000000D02*
X49000000Y-91000000D01*
X49500000Y-93500000D02*
X49000000Y-93000000D01*
%TO.N,Net-(Q1-G)*%
X52550000Y-93900000D02*
X52550000Y-95500000D01*
X58000000Y-88450000D02*
X52550000Y-93900000D01*
%TO.N,GND1*%
X52000000Y-85000000D02*
X52500000Y-84500000D01*
X51437500Y-85000000D02*
X52000000Y-85000000D01*
X51375000Y-81000000D02*
X52500000Y-81000000D01*
%TO.N,+5V*%
X64500000Y-82050000D02*
X64500000Y-82000000D01*
X66000000Y-83550000D02*
X64500000Y-82050000D01*
D67*
%TO.N,Motor Power*%
X58000000Y-84437500D02*
X58937500Y-83500000D01*
X58000000Y-86500000D02*
X58000000Y-84437500D01*
X58000000Y-86500000D02*
X58000000Y-87277000D01*
%TO.N,/Power Block/BAT+*%
X58000000Y-92500000D02*
X58000000Y-93500000D01*
X58963000Y-91537000D02*
X58000000Y-92500000D01*
X63600500Y-91537000D02*
X58963000Y-91537000D01*
X67637500Y-87500000D02*
X63600500Y-91537000D01*
%TO.N,/Power Block/Fuse-Pol*%
X63337500Y-87475000D02*
X63362500Y-87500000D01*
X59955000Y-87475000D02*
X63337500Y-87475000D01*
D65*
%TO.N,Net-(U9-EN)*%
X66151000Y-73272660D02*
X66151000Y-71299000D01*
X65473660Y-73950000D02*
X66151000Y-73272660D01*
X61510000Y-73950000D02*
X65473660Y-73950000D01*
X66151000Y-71299000D02*
X68000000Y-69450000D01*
%TO.N,Net-(U9-SW)*%
X63500000Y-70500000D02*
X63500000Y-71000000D01*
X64500000Y-69500000D02*
X63500000Y-70500000D01*
%TO.N,Net-(U9-VBST)*%
X64125000Y-73000000D02*
X64500000Y-72625000D01*
X61510000Y-73000000D02*
X64125000Y-73000000D01*
%TO.N,Net-(U9-SW)*%
X64510000Y-70000000D02*
X65062500Y-70000000D01*
D69*
X57225000Y-73950000D02*
X59000000Y-73950000D01*
X55500000Y-72225000D02*
X57225000Y-73950000D01*
X53000000Y-72225000D02*
X55500000Y-72225000D01*
D65*
%TO.N,Net-(U9-VFB)*%
X66000000Y-78050000D02*
X66000000Y-80450000D01*
X62850000Y-74900000D02*
X66000000Y-78050000D01*
X61510000Y-74900000D02*
X62850000Y-74900000D01*
%TO.N,I2S_SD*%
X89050000Y-39500000D02*
X91000000Y-41450000D01*
X84275000Y-39500000D02*
X89050000Y-39500000D01*
X79750000Y-34975000D02*
X84275000Y-39500000D01*
%TO.N,Net-(J11-Pin_5)*%
X85123000Y-40073000D02*
X86500000Y-41450000D01*
X79848000Y-40073000D02*
X85123000Y-40073000D01*
X74750000Y-34975000D02*
X79848000Y-40073000D01*
%TO.N,Net-(J11-Pin_3)*%
X81024000Y-40474000D02*
X82000000Y-41450000D01*
X75249000Y-40474000D02*
X81024000Y-40474000D01*
X69750000Y-34975000D02*
X75249000Y-40474000D01*
%TO.N,+3V3*%
X64750000Y-39300000D02*
X67450000Y-42000000D01*
X64750000Y-34975000D02*
X64750000Y-39300000D01*
%TO.N,/Power Block/BAT+*%
X58000000Y-93500000D02*
X58000000Y-92362500D01*
%TO.N,Net-(MOTOR1-A)*%
X41987500Y-85987500D02*
X43550000Y-87550000D01*
X41987500Y-84500000D02*
X41987500Y-85987500D01*
X43550000Y-87550000D02*
X45450000Y-87550000D01*
%TO.N,GND1*%
X39012500Y-84500000D02*
X39012500Y-80500000D01*
X39012500Y-80500000D02*
X39012500Y-77987500D01*
X39000000Y-78000000D02*
X39012500Y-77987500D01*
X39000000Y-78500000D02*
X39000000Y-78000000D01*
%TO.N,/ESP32/SW_LED*%
X46250000Y-82750000D02*
X47500000Y-81500000D01*
X46200000Y-82750000D02*
X46250000Y-82750000D01*
X49770000Y-44730000D02*
X49500000Y-45000000D01*
X56000000Y-44730000D02*
X49770000Y-44730000D01*
%TO.N,Motor Signal*%
X43950000Y-84000000D02*
X45000000Y-84000000D01*
X45000000Y-84000000D02*
X45450000Y-84450000D01*
%TO.N,Net-(3.3V1-A)*%
X42000000Y-76390000D02*
X42840000Y-76390000D01*
X42840000Y-76390000D02*
X44450000Y-78000000D01*
%TO.N,Net-(5V1-A)*%
X42450000Y-72500000D02*
X44450000Y-74500000D01*
X41987500Y-72500000D02*
X42450000Y-72500000D01*
%TO.N,GND1*%
X38750000Y-74250000D02*
X39012500Y-73987500D01*
X38750000Y-74750000D02*
X39025000Y-75025000D01*
X38750000Y-74250000D02*
X38750000Y-74750000D01*
X39025000Y-75025000D02*
X39025000Y-76390000D01*
X39012500Y-73987500D02*
X39012500Y-72500000D01*
X64000000Y-57500000D02*
X64000000Y-56730000D01*
X64000000Y-56730000D02*
X63020000Y-55750000D01*
X63020000Y-58480000D02*
X63020000Y-59750000D01*
X64000000Y-57500000D02*
X63020000Y-58480000D01*
X70980000Y-57520000D02*
X70980000Y-59750000D01*
X71000000Y-57500000D02*
X70980000Y-57520000D01*
X70980000Y-57480000D02*
X71000000Y-57500000D01*
X70980000Y-55750000D02*
X70980000Y-57480000D01*
%TO.N,Net-(U4-IO0)*%
X70980000Y-51250000D02*
X63020000Y-51250000D01*
%TO.N,Net-(U4-EN)*%
X70980000Y-64250000D02*
X63020000Y-64250000D01*
%TO.N,/ESP32/VBUS*%
X59550000Y-45000000D02*
X59899000Y-45000000D01*
%TO.N,Net-(U4-USB_D+{slash}IO20)*%
X54231000Y-59000000D02*
X54231000Y-59500000D01*
X54231000Y-59195000D02*
X54231000Y-59000000D01*
X54750000Y-59195000D02*
X54231000Y-59195000D01*
%TO.N,Net-(U4-USB_D-{slash}IO19)*%
X54500000Y-56849943D02*
X54500000Y-56500000D01*
X54500000Y-56500000D02*
X54000000Y-56000000D01*
X53480000Y-57869943D02*
X54500000Y-56849943D01*
X53480000Y-59195000D02*
X53480000Y-57869943D01*
%TO.N,/ESP32/GPIO13*%
X55190000Y-49810000D02*
X56000000Y-49810000D01*
X53500000Y-51500000D02*
X55190000Y-49810000D01*
X53500000Y-52000000D02*
X53500000Y-51500000D01*
%TO.N,RS485_TX*%
X39510000Y-42645000D02*
X39510000Y-41695000D01*
X47865000Y-51000000D02*
X39510000Y-42645000D01*
X53034313Y-51000000D02*
X47865000Y-51000000D01*
X53434313Y-50600000D02*
X53034313Y-51000000D01*
%TO.N,Net-(U4-USB_D-{slash}IO19)*%
X59106251Y-46106251D02*
X59212501Y-46000000D01*
%TO.N,Net-(U4-IO0)*%
X63020000Y-51250000D02*
X62500000Y-50730000D01*
%TO.N,Net-(U4-USB_D-{slash}IO19)*%
X58600000Y-46612501D02*
X59106251Y-46106251D01*
X58600000Y-47275000D02*
X58600000Y-46612501D01*
%TO.N,Net-(U4-USB_D+{slash}IO20)*%
X60800000Y-47575000D02*
X60500000Y-47275000D01*
X54750000Y-59195000D02*
X56166160Y-59195000D01*
X56166160Y-59195000D02*
X60800000Y-54561160D01*
X60800000Y-54561160D02*
X60800000Y-47575000D01*
%TO.N,Net-(U4-EN)*%
X40780000Y-60145000D02*
X40780000Y-59195000D01*
X41635000Y-61000000D02*
X40780000Y-60145000D01*
X63020000Y-64250000D02*
X59770000Y-61000000D01*
X59770000Y-61000000D02*
X41635000Y-61000000D01*
%TO.N,/ESP32/GPIO8*%
X52210000Y-58290000D02*
X53500000Y-57000000D01*
X52210000Y-59195000D02*
X52210000Y-58290000D01*
%TO.N,/ESP32/GPIO9*%
X56890000Y-54890000D02*
X58000000Y-56000000D01*
X56000000Y-54890000D02*
X56890000Y-54890000D01*
%TO.N,/ESP32/GPIO10*%
X57120000Y-53620000D02*
X57500000Y-54000000D01*
X56000000Y-53620000D02*
X57120000Y-53620000D01*
%TO.N,/ESP32/GPIO12*%
X57420000Y-51080000D02*
X57500000Y-51000000D01*
X56000000Y-51080000D02*
X57420000Y-51080000D01*
%TO.N,/ESP32/GPIO11*%
X55150000Y-52350000D02*
X53500000Y-54000000D01*
X56000000Y-52350000D02*
X55150000Y-52350000D01*
%TO.N,/ESP32/GPIO21*%
X59000000Y-48500000D02*
X60000000Y-49500000D01*
X58500000Y-48500000D02*
X59000000Y-48500000D01*
%TO.N,/ESP32/GPIO14*%
X57540000Y-48540000D02*
X58500000Y-49500000D01*
X56000000Y-48540000D02*
X57540000Y-48540000D01*
%TO.N,/ESP32/GPIO21*%
X57270000Y-47270000D02*
X58500000Y-48500000D01*
X56000000Y-47270000D02*
X57270000Y-47270000D01*
%TO.N,Motor Signal*%
X89500000Y-65869990D02*
X89500000Y-65500000D01*
X88369990Y-67000000D02*
X89500000Y-65869990D01*
X87660000Y-67000000D02*
X88369990Y-67000000D01*
X47130000Y-57870000D02*
X47500000Y-57500000D01*
X47130000Y-59195000D02*
X47130000Y-57870000D01*
%TO.N,RS485_RX*%
X40780000Y-42645000D02*
X40780000Y-41695000D01*
X48135000Y-50000000D02*
X40780000Y-42645000D01*
X54000000Y-50000000D02*
X48135000Y-50000000D01*
%TO.N,RS485_DE*%
X48500000Y-49000000D02*
X44590000Y-45090000D01*
X54000000Y-49000000D02*
X48500000Y-49000000D01*
X44590000Y-45090000D02*
X44590000Y-41695000D01*
%TO.N,I2S_SCK*%
X50000000Y-55900000D02*
X50000000Y-56500000D01*
X50000000Y-56500000D02*
X48400000Y-58100000D01*
X50400000Y-55500000D02*
X50000000Y-55900000D01*
X48400000Y-58100000D02*
X48400000Y-59250000D01*
%TO.N,I2S_WS*%
X49670000Y-58300000D02*
X49670000Y-59250000D01*
X51400000Y-56500000D02*
X51400000Y-56570000D01*
X51400000Y-56570000D02*
X49670000Y-58300000D01*
%TO.N,I2S_SD*%
X51740000Y-57500000D02*
X52000000Y-57500000D01*
X50940000Y-58300000D02*
X51740000Y-57500000D01*
X50940000Y-59250000D02*
X50940000Y-58300000D01*
%TO.N,I2S_WS*%
X86950000Y-44550000D02*
X88500000Y-43000000D01*
X86500000Y-44550000D02*
X86950000Y-44550000D01*
%TO.N,I2S_SCK*%
X83500000Y-43050000D02*
X83500000Y-43000000D01*
X82000000Y-44550000D02*
X83500000Y-43050000D01*
%TO.N,LED2 Signal*%
X85730000Y-91270000D02*
X86000000Y-91000000D01*
X84525000Y-91270000D02*
X85730000Y-91270000D01*
%TO.N,LED4 Signal*%
X88270000Y-88730000D02*
X87500000Y-89500000D01*
X89475000Y-88730000D02*
X88270000Y-88730000D01*
%TO.N,LED3 Signal*%
X88040000Y-92540000D02*
X87500000Y-92000000D01*
X89475000Y-92540000D02*
X88040000Y-92540000D01*
%TO.N,LED4 Signal*%
X45860000Y-58140000D02*
X46500000Y-57500000D01*
X45860000Y-59250000D02*
X45860000Y-58140000D01*
%TO.N,LED3 Signal*%
X44590000Y-57910000D02*
X45000000Y-57500000D01*
X44590000Y-59250000D02*
X44590000Y-57910000D01*
%TO.N,LED2 Signal*%
X43320000Y-57680000D02*
X43500000Y-57500000D01*
X43320000Y-59250000D02*
X43320000Y-57680000D01*
%TO.N,LED1 Signal*%
X42050000Y-57550000D02*
X42000000Y-57500000D01*
X42050000Y-59250000D02*
X42050000Y-57550000D01*
%TO.N,Net-(R11-Pad2)*%
X93000000Y-88500000D02*
X93000000Y-90500000D01*
%TO.N,Net-(R12-Pad2)*%
X93000000Y-84500000D02*
X93000000Y-86475000D01*
X90449999Y-90000000D02*
X89475000Y-90000000D01*
%TO.N,Net-(J2-Pin_2)*%
X97500000Y-80500000D02*
X98000000Y-81000000D01*
X96050000Y-80500000D02*
X97500000Y-80500000D01*
%TO.N,Net-(J3-Pin_2)*%
X96600000Y-90400000D02*
X96600000Y-92500000D01*
%TO.N,Net-(J4-Pin_2)*%
X96100000Y-86499000D02*
X96100000Y-88500000D01*
X100099000Y-82500000D02*
X100099000Y-64951000D01*
X100099000Y-82500000D02*
X96100000Y-86499000D01*
%TO.N,Net-(J5-Pin_2)*%
X96100000Y-84400000D02*
X96100000Y-84500000D01*
X99500000Y-81000000D02*
X96100000Y-84400000D01*
%TO.N,GND1*%
X85437500Y-82562500D02*
X82848000Y-85152000D01*
X85437500Y-82500000D02*
X85437500Y-82562500D01*
%TO.N,Net-(R9-Pad2)*%
X83550001Y-88730000D02*
X84525000Y-88730000D01*
%TO.N,Net-(J4-Pin_2)*%
X100099000Y-64951000D02*
X102450000Y-62600000D01*
%TO.N,I2S_SD*%
X91000000Y-41450000D02*
X91000000Y-39500000D01*
%TO.N,GND1*%
X76500000Y-47000000D02*
X74500000Y-47000000D01*
%TD*%
%TA.AperFunction,Conductor*%
%TO.N,GND1*%
G36*
X82793469Y-66563397D02*
G01*
X82745569Y-66717116D01*
X82739500Y-66783911D01*
X82739500Y-67216098D01*
X82745568Y-67282882D01*
X82745571Y-67282893D01*
X82793938Y-67438110D01*
X82795089Y-67507970D01*
X82793939Y-67511889D01*
X82745570Y-67667114D01*
X82739500Y-67733911D01*
X82739500Y-68166098D01*
X82745568Y-68232882D01*
X82745571Y-68232893D01*
X82793467Y-68386598D01*
X82876766Y-68524391D01*
X82990608Y-68638233D01*
X82990610Y-68638234D01*
X82990612Y-68638236D01*
X83128398Y-68721531D01*
X83282113Y-68769430D01*
X83344215Y-68775073D01*
X83409197Y-68800744D01*
X83443477Y-68842269D01*
X83498213Y-68949694D01*
X83615019Y-69110464D01*
X83755536Y-69250981D01*
X83916306Y-69367787D01*
X84003149Y-69412035D01*
X84093367Y-69458005D01*
X84093370Y-69458006D01*
X84187866Y-69488709D01*
X84282364Y-69519413D01*
X84478639Y-69550500D01*
X84713694Y-69550500D01*
X84780733Y-69570185D01*
X84801374Y-69586818D01*
X85463681Y-70249126D01*
X85497166Y-70310448D01*
X85500000Y-70336806D01*
X85500000Y-75376000D01*
X85480315Y-75443039D01*
X85427511Y-75488794D01*
X85376000Y-75500000D01*
X82124000Y-75500000D01*
X82056961Y-75480315D01*
X82011206Y-75427511D01*
X82000000Y-75376000D01*
X82000000Y-66500000D01*
X82831795Y-66500000D01*
X82793469Y-66563397D01*
G37*
%TD.AperFunction*%
%TD*%
%TA.AperFunction,Conductor*%
%TO.N,GND1*%
G36*
X82701543Y-63000456D02*
G01*
X82701553Y-63000293D01*
X82705115Y-63000497D01*
X82705135Y-63000500D01*
X84644864Y-63000499D01*
X84644871Y-63000498D01*
X84648439Y-63000292D01*
X84648448Y-63000455D01*
X84656334Y-63000000D01*
X85876000Y-63000000D01*
X85943039Y-63019685D01*
X85988794Y-63072489D01*
X86000000Y-63124000D01*
X86000000Y-65783168D01*
X85980315Y-65850207D01*
X85927511Y-65895962D01*
X85908094Y-65902943D01*
X85768214Y-65940423D01*
X85768209Y-65940426D01*
X85631290Y-66019475D01*
X85631282Y-66019481D01*
X85519481Y-66131282D01*
X85519475Y-66131290D01*
X85440426Y-66268209D01*
X85440424Y-66268213D01*
X85424607Y-66327243D01*
X85388241Y-66386903D01*
X85325394Y-66417431D01*
X85263877Y-66412189D01*
X85164550Y-66377432D01*
X85133276Y-66374500D01*
X85133272Y-66374500D01*
X83346728Y-66374500D01*
X83346724Y-66374500D01*
X83315450Y-66377432D01*
X83315448Y-66377432D01*
X83183714Y-66423529D01*
X83183705Y-66423534D01*
X83080096Y-66500000D01*
X82000000Y-66500000D01*
X82000000Y-63124000D01*
X82019685Y-63056961D01*
X82072489Y-63011206D01*
X82124000Y-63000000D01*
X82693653Y-63000000D01*
X82701543Y-63000456D01*
G37*
%TD.AperFunction*%
%TD*%
%TA.AperFunction,Conductor*%
%TO.N,Motor Power*%
G36*
X59460495Y-74812409D02*
G01*
X59496148Y-74872498D01*
X59500000Y-74903165D01*
X59500000Y-84376000D01*
X59480315Y-84443039D01*
X59427511Y-84488794D01*
X59376000Y-84500000D01*
X57624000Y-84500000D01*
X57556961Y-84480315D01*
X57511206Y-84427511D01*
X57500000Y-84376000D01*
X57500000Y-74974500D01*
X57519685Y-74907461D01*
X57572489Y-74861706D01*
X57624000Y-74850500D01*
X59088693Y-74850500D01*
X59088694Y-74850499D01*
X59146682Y-74838964D01*
X59262658Y-74815896D01*
X59262658Y-74815895D01*
X59262666Y-74815894D01*
X59328552Y-74788603D01*
X59398016Y-74781135D01*
X59460495Y-74812409D01*
G37*
%TD.AperFunction*%
%TD*%
%TA.AperFunction,Conductor*%
%TO.N,GND1*%
G36*
X60443039Y-71019685D02*
G01*
X60488794Y-71072489D01*
X60500000Y-71124000D01*
X60500000Y-84500000D01*
X60124000Y-84500000D01*
X60056961Y-84480315D01*
X60011206Y-84427511D01*
X60000000Y-84376000D01*
X60000000Y-73500000D01*
X59903132Y-73500000D01*
X59836093Y-73480315D01*
X59815450Y-73463680D01*
X59771727Y-73419956D01*
X59771725Y-73419955D01*
X59659514Y-73365099D01*
X59659515Y-73365099D01*
X59649121Y-73363584D01*
X59586768Y-73354500D01*
X59586762Y-73354500D01*
X59407252Y-73354500D01*
X59340213Y-73334815D01*
X59338359Y-73333600D01*
X59331811Y-73329224D01*
X59331809Y-73329223D01*
X59204332Y-73276421D01*
X59204322Y-73276418D01*
X59068995Y-73249500D01*
X59068993Y-73249500D01*
X57566518Y-73249500D01*
X57499479Y-73229815D01*
X57478837Y-73213181D01*
X57036319Y-72770662D01*
X57002834Y-72709339D01*
X57000000Y-72682981D01*
X57000000Y-71124000D01*
X57019685Y-71056961D01*
X57072489Y-71011206D01*
X57124000Y-71000000D01*
X60376000Y-71000000D01*
X60443039Y-71019685D01*
G37*
%TD.AperFunction*%
%TD*%
%TA.AperFunction,Conductor*%
%TO.N,GND1*%
G36*
X62861680Y-75508643D02*
G01*
X62891670Y-75515167D01*
X62896686Y-75518922D01*
X62899283Y-75519685D01*
X62919924Y-75536318D01*
X62963680Y-75580073D01*
X62997166Y-75641396D01*
X63000000Y-75667755D01*
X63000000Y-84376000D01*
X62980315Y-84443039D01*
X62927511Y-84488794D01*
X62876000Y-84500000D01*
X60500000Y-84500000D01*
X60500000Y-75500000D01*
X62832244Y-75500000D01*
X62861680Y-75508643D01*
G37*
%TD.AperFunction*%
%TD*%
%TA.AperFunction,Conductor*%
%TO.N,+5V*%
G36*
X56443039Y-74519685D02*
G01*
X56488794Y-74572489D01*
X56500000Y-74624000D01*
X56500000Y-85876000D01*
X56480315Y-85943039D01*
X56427511Y-85988794D01*
X56376000Y-86000000D01*
X53124000Y-86000000D01*
X53056961Y-85980315D01*
X53011206Y-85927511D01*
X53000000Y-85876000D01*
X53000000Y-84868200D01*
X53016613Y-84806200D01*
X53046700Y-84754087D01*
X53059577Y-84731784D01*
X53100500Y-84579057D01*
X53100500Y-84420943D01*
X53059577Y-84268216D01*
X53016612Y-84193797D01*
X53000000Y-84131798D01*
X53000000Y-81368200D01*
X53016613Y-81306200D01*
X53059577Y-81231784D01*
X53100500Y-81079057D01*
X53100500Y-80920943D01*
X53059577Y-80768216D01*
X53016612Y-80693797D01*
X53000000Y-80631798D01*
X53000000Y-74624000D01*
X53019685Y-74556961D01*
X53072489Y-74511206D01*
X53124000Y-74500000D01*
X56376000Y-74500000D01*
X56443039Y-74519685D01*
G37*
%TD.AperFunction*%
%TD*%
M02*
