%TF.GenerationSoftware,KiCad,Pcbnew,9.0.5*%
%TF.CreationDate,2026-07-04T16:37:27-04:00*%
%TF.ProjectId,BubblerMain,42756262-6c65-4724-9d61-696e2e6b6963,rev?*%
%TF.SameCoordinates,Original*%
%TF.FileFunction,Copper,L3,Inr*%
%TF.FilePolarity,Positive*%
%FSLAX46Y46*%
G04 Gerber Fmt 4.6, Leading zero omitted, Abs format (unit mm)*
G04 Created by KiCad (PCBNEW 9.0.5) date 2026-07-04 16:37:27*
%MOMM*%
%LPD*%
G01*
G04 APERTURE LIST*
G04 Aperture macros list*
%AMRoundRect*
0 Rectangle with rounded corners*
0 $1 Rounding radius*
0 $2 $3 $4 $5 $6 $7 $8 $9 X,Y pos of 4 corners*
0 Add a 4 corners polygon primitive as box body*
4,1,4,$2,$3,$4,$5,$6,$7,$8,$9,$2,$3,0*
0 Add four circle primitives for the rounded corners*
1,1,$1+$1,$2,$3*
1,1,$1+$1,$4,$5*
1,1,$1+$1,$6,$7*
1,1,$1+$1,$8,$9*
0 Add four rect primitives between the rounded corners*
20,1,$1+$1,$2,$3,$4,$5,0*
20,1,$1+$1,$4,$5,$6,$7,0*
20,1,$1+$1,$6,$7,$8,$9,0*
20,1,$1+$1,$8,$9,$2,$3,0*%
G04 Aperture macros list end*
%TA.AperFunction,ComponentPad*%
%ADD10R,1.700000X1.700000*%
%TD*%
%TA.AperFunction,ComponentPad*%
%ADD11C,1.700000*%
%TD*%
%TA.AperFunction,HeatsinkPad*%
%ADD12O,1.000000X2.100000*%
%TD*%
%TA.AperFunction,HeatsinkPad*%
%ADD13O,1.000000X1.600000*%
%TD*%
%TA.AperFunction,ComponentPad*%
%ADD14RoundRect,0.250000X0.600000X0.750000X-0.600000X0.750000X-0.600000X-0.750000X0.600000X-0.750000X0*%
%TD*%
%TA.AperFunction,ComponentPad*%
%ADD15O,1.700000X2.000000*%
%TD*%
%TA.AperFunction,ComponentPad*%
%ADD16RoundRect,0.250000X-0.600000X-0.750000X0.600000X-0.750000X0.600000X0.750000X-0.600000X0.750000X0*%
%TD*%
%TA.AperFunction,ComponentPad*%
%ADD17RoundRect,0.250000X0.725000X-0.600000X0.725000X0.600000X-0.725000X0.600000X-0.725000X-0.600000X0*%
%TD*%
%TA.AperFunction,ComponentPad*%
%ADD18O,1.950000X1.700000*%
%TD*%
%TA.AperFunction,ComponentPad*%
%ADD19RoundRect,0.250000X-0.600000X-0.725000X0.600000X-0.725000X0.600000X0.725000X-0.600000X0.725000X0*%
%TD*%
%TA.AperFunction,ComponentPad*%
%ADD20O,1.700000X1.950000*%
%TD*%
%TA.AperFunction,HeatsinkPad*%
%ADD21C,0.600000*%
%TD*%
%TA.AperFunction,ViaPad*%
%ADD22C,0.600000*%
%TD*%
%TA.AperFunction,Conductor*%
%ADD23C,0.600000*%
%TD*%
%TA.AperFunction,Conductor*%
%ADD24C,0.200000*%
%TD*%
%TA.AperFunction,Conductor*%
%ADD25C,1.524000*%
%TD*%
G04 APERTURE END LIST*
D10*
%TO.N,GND1*%
%TO.C,J12*%
X80500000Y-69500000D03*
D11*
%TO.N,Motor Power*%
X80500000Y-66960000D03*
%TO.N,+3V3*%
X80500000Y-64420000D03*
%TO.N,+5V*%
X80500000Y-61880000D03*
%TD*%
D12*
%TO.N,unconnected-(J8-SHIELD-PadS1)*%
%TO.C,J8*%
X60320000Y-38105000D03*
D13*
%TO.N,unconnected-(J8-SHIELD-PadS1)_1*%
X60320000Y-33925000D03*
D12*
%TO.N,unconnected-(J8-SHIELD-PadS1)_2*%
X51680000Y-38105000D03*
D13*
%TO.N,unconnected-(J8-SHIELD-PadS1)_3*%
X51680000Y-33925000D03*
%TD*%
D14*
%TO.N,GND1*%
%TO.C,J7*%
X91000000Y-36000000D03*
D15*
%TO.N,Net-(J6-Pin_2)*%
X88500000Y-36000000D03*
%TD*%
D16*
%TO.N,/Power Block/BAT+*%
%TO.C,J1*%
X58000000Y-93500000D03*
D15*
%TO.N,GND1*%
X60500000Y-93500000D03*
%TD*%
D17*
%TO.N,GND1*%
%TO.C,J3*%
X102450000Y-76100000D03*
D18*
%TO.N,Net-(J3-Pin_2)*%
X102450000Y-73600000D03*
%TO.N,+5V*%
X102450000Y-71100000D03*
%TD*%
D14*
%TO.N,GND1*%
%TO.C,J6*%
X99500000Y-36000000D03*
D15*
%TO.N,Net-(J6-Pin_2)*%
X97000000Y-36000000D03*
%TD*%
D17*
%TO.N,GND1*%
%TO.C,J5*%
X102450000Y-54100000D03*
D18*
%TO.N,Net-(J5-Pin_2)*%
X102450000Y-51600000D03*
%TO.N,+5V*%
X102450000Y-49100000D03*
%TD*%
D17*
%TO.N,GND1*%
%TO.C,J2*%
X102475000Y-87000000D03*
D18*
%TO.N,Net-(J2-Pin_2)*%
X102475000Y-84500000D03*
%TO.N,+5V*%
X102475000Y-82000000D03*
%TD*%
D17*
%TO.N,GND1*%
%TO.C,J4*%
X102450000Y-65100000D03*
D18*
%TO.N,Net-(J4-Pin_2)*%
X102450000Y-62600000D03*
%TO.N,+5V*%
X102450000Y-60100000D03*
%TD*%
D19*
%TO.N,+3V3*%
%TO.C,J11*%
X64750000Y-34975000D03*
D20*
%TO.N,GND1*%
X67250000Y-34975000D03*
%TO.N,Net-(J11-Pin_3)*%
X69750000Y-34975000D03*
%TO.N,GND1*%
X72250000Y-34975000D03*
%TO.N,Net-(J11-Pin_5)*%
X74750000Y-34975000D03*
%TO.N,GND1*%
X77250000Y-34975000D03*
%TO.N,I2S_SD*%
X79750000Y-34975000D03*
%TO.N,GND1*%
X82250000Y-34975000D03*
%TD*%
D11*
%TO.N,/ESP32/GPIO21*%
%TO.C,J9*%
X76500000Y-54220000D03*
%TO.N,/ESP32/GPIO14*%
X76500000Y-56760000D03*
%TO.N,/ESP32/GPIO13*%
X76500000Y-59300000D03*
%TO.N,/ESP32/GPIO12*%
X76500000Y-61840000D03*
%TO.N,/ESP32/GPIO11*%
X76500000Y-64380000D03*
%TO.N,/ESP32/GPIO10*%
X76500000Y-66920000D03*
%TO.N,/ESP32/GPIO9*%
X76500000Y-69460000D03*
D10*
%TO.N,/ESP32/GPIO8*%
X76500000Y-72000000D03*
%TD*%
D21*
%TO.N,GND1*%
%TO.C,U4*%
X42840000Y-53305000D03*
X44340000Y-53305000D03*
X42090000Y-52555000D03*
X43590000Y-52555000D03*
X45090000Y-52555000D03*
X42840000Y-51805000D03*
X44340000Y-51805000D03*
X42090000Y-51055000D03*
X43590000Y-51055000D03*
X45090000Y-51055000D03*
X42840000Y-50305000D03*
X44340000Y-50305000D03*
%TD*%
D16*
%TO.N,Net-(J10-Pin_1)*%
%TO.C,J10*%
X100750000Y-41975000D03*
D15*
%TO.N,Net-(J10-Pin_2)*%
X103250000Y-41975000D03*
%TD*%
D22*
%TO.N,+3V3*%
X43500000Y-89500000D03*
%TO.N,+5V*%
X99000000Y-91500000D03*
%TO.N,GND1*%
X67500000Y-91000000D03*
X73000000Y-40000000D03*
%TO.N,Net-(U4-IO0)*%
X70000000Y-46500000D03*
X70500000Y-40000000D03*
%TO.N,GND1*%
X82500000Y-72000000D03*
X82500000Y-69500000D03*
X82500000Y-65500000D03*
X82500000Y-64500000D03*
X83500000Y-64500000D03*
X84500000Y-64500000D03*
X91000000Y-43000000D03*
X89000000Y-87460000D03*
X92000000Y-90500000D03*
X80500000Y-83000000D03*
X79500000Y-83000000D03*
X78500000Y-83000000D03*
X77500000Y-83000000D03*
X64000000Y-75000000D03*
X61500000Y-46000000D03*
X38500000Y-40000000D03*
%TO.N,Motor Power*%
X87500000Y-72500000D03*
X86500000Y-72000000D03*
X59000000Y-76000000D03*
X57500000Y-76000000D03*
%TO.N,Net-(U3-SW)*%
X86000000Y-66500000D03*
%TO.N,Motor Power*%
X53500000Y-89500000D03*
X52500000Y-89500000D03*
X51500000Y-89500000D03*
X71750000Y-89750000D03*
X72500000Y-89000000D03*
X73500000Y-89000000D03*
%TO.N,GND1*%
X76500000Y-91000000D03*
X78000000Y-89000000D03*
X79500000Y-89000000D03*
%TO.N,Net-(J6-Pin_2)*%
X90968750Y-62031250D03*
X90500000Y-60500000D03*
X90937500Y-59937500D03*
X94500000Y-37500000D03*
X93500000Y-37500000D03*
X92500000Y-37500000D03*
%TO.N,Motor Power*%
X86937000Y-73500000D03*
%TO.N,Net-(J6-Pin_2)*%
X90500000Y-61500000D03*
X93000000Y-71000000D03*
%TO.N,Net-(U3-SW)*%
X85500000Y-61500000D03*
X85500000Y-60500000D03*
X85500000Y-59500000D03*
%TO.N,GND1*%
X95000000Y-68500000D03*
%TO.N,Net-(U3-SW)*%
X91500000Y-69000000D03*
X90500000Y-69000000D03*
X85500000Y-67000000D03*
%TO.N,Motor Power*%
X68000000Y-74000000D03*
%TO.N,Net-(U4-IO0)*%
X52000000Y-43500000D03*
X59000000Y-57500000D03*
%TO.N,GND1*%
X47000000Y-39000000D03*
X48500000Y-35000000D03*
%TO.N,/ESP32/VBUS*%
X66000000Y-45500000D03*
%TO.N,/ESP32/A7*%
X57849239Y-40650766D03*
X56500000Y-42000000D03*
%TO.N,Net-(D2-K)*%
X53500000Y-63000000D03*
X66000000Y-47000000D03*
%TO.N,/ESP32/VBUS*%
X58000000Y-42500000D03*
X54418176Y-37403000D03*
%TO.N,GND1*%
X53000000Y-40000000D03*
X59500000Y-40000000D03*
%TO.N,+5V*%
X58000000Y-70000000D03*
X74500000Y-82263000D03*
X73500000Y-82263000D03*
X90000000Y-84500000D03*
%TO.N,GND1*%
X75000000Y-73500000D03*
%TO.N,+3V3*%
X72000000Y-68500000D03*
X88000000Y-46500000D03*
X43612500Y-65950000D03*
%TO.N,GND1*%
X89500000Y-55000000D03*
X98500000Y-53000000D03*
X94000000Y-48500000D03*
X82000000Y-51000000D03*
%TO.N,RS485_RX*%
X82000000Y-49500000D03*
%TO.N,RS485_DE*%
X86500000Y-49500000D03*
%TO.N,RS485_TX*%
X87500000Y-52000000D03*
%TO.N,GND1*%
X79000000Y-41500000D03*
X49000000Y-65000000D03*
X46000000Y-70000000D03*
X39000000Y-64500000D03*
X49500000Y-93500000D03*
X52500000Y-84500000D03*
X52500000Y-81000000D03*
%TO.N,+5V*%
X64500000Y-82000000D03*
%TO.N,Net-(U9-SW)*%
X57000000Y-74000000D03*
X63500000Y-71000000D03*
%TO.N,GND1*%
X57500000Y-72500000D03*
X59500000Y-71500000D03*
X58500000Y-71500000D03*
X57500000Y-71500000D03*
%TO.N,+5V*%
X55000000Y-74500000D03*
X54000000Y-75500000D03*
X55500000Y-75500000D03*
X55500000Y-76500000D03*
X55500000Y-77500000D03*
X56000000Y-85000000D03*
%TO.N,GND1*%
X39000000Y-78500000D03*
X39012500Y-83000000D03*
%TO.N,/ESP32/SW_LED*%
X46200000Y-82750000D03*
X49500000Y-45000000D03*
%TO.N,Motor Signal*%
X43950000Y-84000000D03*
%TO.N,GND1*%
X38750000Y-74250000D03*
X71000000Y-57500000D03*
X64000000Y-57500000D03*
%TO.N,Net-(U4-USB_D-{slash}IO19)*%
X54000000Y-56000000D03*
X59106251Y-46106251D03*
%TO.N,/ESP32/GPIO8*%
X53500000Y-57000000D03*
%TO.N,/ESP32/GPIO9*%
X58000000Y-56000000D03*
%TO.N,/ESP32/GPIO10*%
X57500000Y-54000000D03*
%TO.N,/ESP32/GPIO12*%
X57500000Y-51000000D03*
%TO.N,/ESP32/GPIO11*%
X53500000Y-54000000D03*
%TO.N,/ESP32/GPIO13*%
X53500000Y-52000000D03*
%TO.N,/ESP32/GPIO21*%
X60000000Y-49500000D03*
%TO.N,/ESP32/GPIO14*%
X58500000Y-49500000D03*
%TO.N,Motor Signal*%
X89500000Y-65500000D03*
X47500000Y-57500000D03*
%TO.N,RS485_TX*%
X53434313Y-50600000D03*
%TO.N,RS485_RX*%
X54000000Y-50000000D03*
%TO.N,RS485_DE*%
X54000000Y-49000000D03*
%TO.N,I2S_SD*%
X52000000Y-57500000D03*
%TO.N,I2S_WS*%
X51400000Y-56500000D03*
%TO.N,I2S_SCK*%
X50400000Y-55500000D03*
X83500000Y-43000000D03*
%TO.N,I2S_WS*%
X88500000Y-43000000D03*
%TO.N,LED1 Signal*%
X84900000Y-84500000D03*
%TO.N,LED2 Signal*%
X86000000Y-91000000D03*
%TO.N,LED3 Signal*%
X87500000Y-92000000D03*
%TO.N,LED4 Signal*%
X87500000Y-89500000D03*
X46500000Y-57500000D03*
%TO.N,LED3 Signal*%
X45000000Y-57500000D03*
%TO.N,LED2 Signal*%
X43500000Y-57500000D03*
%TO.N,LED1 Signal*%
X42000000Y-57500000D03*
%TO.N,Net-(J2-Pin_2)*%
X98000000Y-81000000D03*
%TO.N,I2S_SD*%
X91000000Y-39500000D03*
%TO.N,GND1*%
X76500000Y-47000000D03*
%TD*%
D23*
%TO.N,Motor Power*%
X78500000Y-68960000D02*
X80500000Y-66960000D01*
X78500000Y-74301000D02*
X78500000Y-68960000D01*
D24*
%TO.N,+3V3*%
X74731000Y-65769000D02*
X72000000Y-68500000D01*
X80500000Y-64420000D02*
X79151000Y-65769000D01*
X79151000Y-65769000D02*
X74731000Y-65769000D01*
X78000000Y-48147943D02*
X78000000Y-46000000D01*
X78000000Y-46000000D02*
X87500000Y-46000000D01*
X81651000Y-51798943D02*
X78000000Y-48147943D01*
D23*
%TO.N,Motor Power*%
X78500000Y-74301000D02*
X68301000Y-74301000D01*
D24*
%TO.N,+3V3*%
X43000000Y-89000000D02*
X43000000Y-69450000D01*
X43000000Y-69450000D02*
X46500000Y-65950000D01*
X43500000Y-89500000D02*
X43000000Y-89000000D01*
X46500000Y-65950000D02*
X67950000Y-65950000D01*
%TO.N,+5V*%
X99000000Y-82763000D02*
X99500000Y-82263000D01*
X99000000Y-91500000D02*
X99000000Y-82763000D01*
D25*
X99500000Y-82263000D02*
X102212000Y-82263000D01*
D24*
%TO.N,Net-(U4-IO0)*%
X71000000Y-45500000D02*
X70000000Y-46500000D01*
X71000000Y-40500000D02*
X71000000Y-45500000D01*
X70500000Y-40000000D02*
X71000000Y-40500000D01*
%TO.N,/ESP32/VBUS*%
X67500000Y-45500000D02*
X66000000Y-45500000D01*
X68000000Y-40500000D02*
X69000000Y-41500000D01*
X60000000Y-40500000D02*
X68000000Y-40500000D01*
X69000000Y-44000000D02*
X67500000Y-45500000D01*
X58000000Y-42500000D02*
X60000000Y-40500000D01*
X69000000Y-41500000D02*
X69000000Y-44000000D01*
D23*
%TO.N,Motor Power*%
X87000000Y-72000000D02*
X87500000Y-72500000D01*
X86500000Y-72000000D02*
X87000000Y-72000000D01*
X86937000Y-73063000D02*
X87500000Y-72500000D01*
X86937000Y-73500000D02*
X86937000Y-73063000D01*
X68301000Y-74301000D02*
X68000000Y-74000000D01*
X82000000Y-73500000D02*
X81199000Y-74301000D01*
X81199000Y-74301000D02*
X78500000Y-74301000D01*
X86937000Y-73500000D02*
X82000000Y-73500000D01*
X66000000Y-76000000D02*
X68000000Y-74000000D01*
X59000000Y-76000000D02*
X66000000Y-76000000D01*
X59000000Y-76000000D02*
X57500000Y-76000000D01*
X53500000Y-89500000D02*
X52500000Y-89500000D01*
X52500000Y-89500000D02*
X51500000Y-89500000D01*
X51500000Y-89500000D02*
X52500000Y-89500000D01*
X71000000Y-89500000D02*
X53500000Y-89500000D01*
X71500000Y-90000000D02*
X71000000Y-89500000D01*
X72500000Y-89000000D02*
X71500000Y-90000000D01*
X73500000Y-89000000D02*
X72500000Y-89000000D01*
%TO.N,Net-(J6-Pin_2)*%
X90500000Y-61562500D02*
X90968750Y-62031250D01*
X90968750Y-61968750D02*
X90500000Y-61500000D01*
X90968750Y-62031250D02*
X90968750Y-61968750D01*
X90500000Y-61500000D02*
X90000000Y-61000000D01*
D24*
X90500000Y-61562500D02*
X90500000Y-61500000D01*
D23*
X90000000Y-61000000D02*
X90500000Y-60500000D01*
X92000000Y-39000000D02*
X92000000Y-59000000D01*
X93500000Y-37500000D02*
X92000000Y-39000000D01*
X92000000Y-59000000D02*
X90500000Y-60500000D01*
X92500000Y-37500000D02*
X94500000Y-37500000D01*
D25*
%TO.N,+5V*%
X88474000Y-78500000D02*
X78263000Y-78500000D01*
X78263000Y-78500000D02*
X74500000Y-82263000D01*
X92237000Y-82263000D02*
X88474000Y-78500000D01*
D24*
%TO.N,Net-(J6-Pin_2)*%
X93000000Y-64062500D02*
X90968750Y-62031250D01*
X93000000Y-71000000D02*
X93000000Y-64062500D01*
D23*
%TO.N,Net-(U3-SW)*%
X89500000Y-69000000D02*
X91500000Y-69000000D01*
X87000000Y-68500000D02*
X89000000Y-68500000D01*
X89000000Y-68500000D02*
X89500000Y-69000000D01*
X85500000Y-67000000D02*
X87000000Y-68500000D01*
X85500000Y-59500000D02*
X85500000Y-67000000D01*
D24*
%TO.N,Net-(U4-IO0)*%
X52000000Y-51349943D02*
X52000000Y-43500000D01*
X58150057Y-57500000D02*
X52000000Y-51349943D01*
X59000000Y-57500000D02*
X58150057Y-57500000D01*
%TO.N,Net-(D2-K)*%
X61099000Y-51901000D02*
X66000000Y-47000000D01*
X61099000Y-59901000D02*
X61099000Y-51901000D01*
X58000000Y-63000000D02*
X61099000Y-59901000D01*
X53500000Y-63000000D02*
X58000000Y-63000000D01*
%TO.N,/ESP32/VBUS*%
X54418176Y-38918176D02*
X58000000Y-42500000D01*
X54418176Y-37403000D02*
X54418176Y-38918176D01*
%TO.N,+5V*%
X58000000Y-70000000D02*
X55000000Y-73000000D01*
D25*
X74500000Y-82263000D02*
X73500000Y-82263000D01*
X73500000Y-82263000D02*
X70737000Y-82263000D01*
X67000000Y-86000000D02*
X56000000Y-86000000D01*
X70737000Y-82263000D02*
X67000000Y-86000000D01*
X56000000Y-86000000D02*
X54500000Y-84500000D01*
X92237000Y-82263000D02*
X99500000Y-82263000D01*
X102212000Y-82263000D02*
X102475000Y-82000000D01*
X90000000Y-84500000D02*
X92237000Y-82263000D01*
X104600000Y-71100000D02*
X106500000Y-73000000D01*
X102450000Y-71100000D02*
X104600000Y-71100000D01*
X106500000Y-73000000D02*
X106500000Y-80500000D01*
X105100000Y-60100000D02*
X106500000Y-61500000D01*
X106500000Y-61500000D02*
X106500000Y-73000000D01*
X102450000Y-60100000D02*
X105100000Y-60100000D01*
X106500000Y-80500000D02*
X105000000Y-82000000D01*
X105000000Y-82000000D02*
X102475000Y-82000000D01*
X106500000Y-50651000D02*
X106500000Y-61500000D01*
X104949000Y-49100000D02*
X106500000Y-50651000D01*
X102450000Y-49100000D02*
X104949000Y-49100000D01*
D24*
%TO.N,+3V3*%
X70500000Y-68500000D02*
X72000000Y-68500000D01*
X72000000Y-46000000D02*
X78000000Y-46000000D01*
X61500000Y-61500000D02*
X61500000Y-56500000D01*
X87500000Y-46000000D02*
X88000000Y-46500000D01*
X57050000Y-65950000D02*
X61500000Y-61500000D01*
X61500000Y-56500000D02*
X72000000Y-46000000D01*
X43612500Y-65950000D02*
X57050000Y-65950000D01*
X67950000Y-65950000D02*
X70500000Y-68500000D01*
X43612500Y-65950000D02*
X46500000Y-65950000D01*
%TD*%
%TA.AperFunction,Conductor*%
%TO.N,+5V*%
G36*
X56380539Y-72519685D02*
G01*
X56426294Y-72572489D01*
X56437500Y-72624000D01*
X56437500Y-73762799D01*
X56433275Y-73794892D01*
X56399500Y-73920943D01*
X56399500Y-74079056D01*
X56433275Y-74205107D01*
X56437500Y-74237200D01*
X56437500Y-85876000D01*
X56417815Y-85943039D01*
X56365011Y-85988794D01*
X56313500Y-86000000D01*
X53061500Y-86000000D01*
X52994461Y-85980315D01*
X52948706Y-85927511D01*
X52937500Y-85876000D01*
X52937500Y-84963098D01*
X52957185Y-84896059D01*
X52973819Y-84875417D01*
X52980520Y-84868716D01*
X53059577Y-84731784D01*
X53100500Y-84579057D01*
X53100500Y-84420943D01*
X53059577Y-84268216D01*
X53059573Y-84268209D01*
X52980524Y-84131290D01*
X52980518Y-84131282D01*
X52973819Y-84124583D01*
X52940334Y-84063260D01*
X52937500Y-84036902D01*
X52937500Y-81463098D01*
X52957185Y-81396059D01*
X52973819Y-81375417D01*
X52980520Y-81368716D01*
X53059577Y-81231784D01*
X53100500Y-81079057D01*
X53100500Y-80920943D01*
X53059577Y-80768216D01*
X53059573Y-80768209D01*
X52980524Y-80631290D01*
X52980518Y-80631282D01*
X52973819Y-80624583D01*
X52940334Y-80563260D01*
X52937500Y-80536902D01*
X52937500Y-72624000D01*
X52957185Y-72556961D01*
X53009989Y-72511206D01*
X53061500Y-72500000D01*
X56313500Y-72500000D01*
X56380539Y-72519685D01*
G37*
%TD.AperFunction*%
%TD*%
M02*
